<?xml version="1.0" encoding="UTF-8"?>
<svg version="1.1" xmlns="http://www.w3.org/2000/svg" width="512" height="512">
<path d="M0 0 C5.30870244 3.12537388 9.32338407 7.77176815 12.0625 13.25 C12.6875 16.5 12.6875 16.5 12.734375 19.3984375 C12.81119996 22.5713084 12.92634075 25.415302 13.6875 28.5 C15.60804587 30.18213328 17.29053859 30.86255853 19.68359375 31.71875 C23.41544216 33.17366166 25.03010289 36.21337995 26.78125 39.640625 C27.9676225 43.3838348 27.90264264 46.93289928 27.8125 50.8125 C27.80347656 51.55306641 27.79445312 52.29363281 27.78515625 53.05664062 C27.76174213 54.87123467 27.72587615 56.68566071 27.6875 58.5 C32.3075 58.5 36.9275 58.5 41.6875 58.5 C41.625625 56.355 41.56375 54.21 41.5 52 C41.51509365 44.52109802 42.1597404 39.6596995 46.9375 33.6875 C52.95233323 28.90297357 58.27579819 28.03910841 65.7265625 28.06640625 C66.99238663 28.05854347 66.99238663 28.05854347 68.28378296 28.05052185 C70.05701604 28.0441321 71.83029168 28.04539892 73.60351562 28.05395508 C76.31196278 28.06249831 79.01832142 28.0336098 81.7265625 28.00195312 C83.45572854 28.00034165 85.18489829 28.00091762 86.9140625 28.00390625 C87.71937408 27.99267227 88.52468567 27.98143829 89.35440063 27.96986389 C93.32966424 28.01907198 95.25255337 28.22449263 98.6965332 30.40600586 C100.6875 32.5 100.6875 32.5 101.31640625 34.5 C101.28353516 35.49 101.28353516 35.49 101.25 36.5 C101.25128906 37.16 101.25257813 37.82 101.25390625 38.5 C100.40155831 41.50966997 99.17523544 42.5928986 96.6875 44.5 C93.750782 44.90590913 91.17512694 45.08135355 88.23828125 45.07421875 C87.42505905 45.08838333 86.61183685 45.10254791 85.77397156 45.11714172 C83.18251228 45.15900947 80.59174982 45.17428047 78 45.1875 C75.39786154 45.21652191 72.79590098 45.25100188 70.19389343 45.28999329 C68.57582136 45.31254541 66.9576386 45.32832528 65.33943176 45.33683777 C61.71455107 45.02986221 61.71455107 45.02986221 58.6875 46.5 C58.3575 50.46 58.0275 54.42 57.6875 58.5 C92.6675 58.5 127.6475 58.5 163.6875 58.5 C164.05554081 51.36550411 164.05554081 51.36550411 161.6875 45.5 C158.9971172 45.38927446 156.32807054 45.33837646 153.63671875 45.32421875 C151.97199262 45.30101638 150.30727904 45.27689887 148.64257812 45.25195312 C146.00911119 45.21684678 143.37610397 45.18750563 140.74243164 45.17407227 C138.20662211 45.15859404 135.67216977 45.11838085 133.13671875 45.07421875 C132.35117111 45.07612717 131.56562347 45.07803558 130.75627136 45.08000183 C127.15445103 44.99943438 125.09485495 44.81227886 122.19482422 42.58911133 C120.57007752 40.33725556 120.11963282 39.24799778 120.125 36.5 C120.10308594 35.84 120.08117187 35.18 120.05859375 34.5 C121.07337511 31.2728692 122.86038164 30.2907759 125.6875 28.5 C128.61710312 27.93207422 131.48422031 27.96238148 134.4609375 28.00390625 C135.3029068 28.00245102 136.1448761 28.00099579 137.01235962 27.99949646 C138.78919949 28.00115237 140.56605417 28.01267916 142.34277344 28.03344727 C145.04685197 28.06233284 147.7489593 28.05406377 150.453125 28.04101562 C152.18490527 28.047256 153.91667939 28.05564928 155.6484375 28.06640625 C156.85033218 28.06200279 156.85033218 28.06200279 158.07650757 28.05751038 C164.59282246 28.1656762 169.2351101 29.54923531 174.4375 33.6875 C180.65768815 41.46273519 179.96474833 48.88872443 179.6875 58.5 C184.3075 58.5 188.9275 58.5 193.6875 58.5 C193.64109375 57.4378125 193.5946875 56.375625 193.546875 55.28125 C193.10446377 40.94102389 193.10446377 40.94102389 197.6875 34.5 C200.79592566 31.47127757 203.68143843 30.03822064 207.6875 28.5 C207.71328125 27.73816406 207.7390625 26.97632812 207.765625 26.19140625 C208.27454955 16.9266662 209.6078175 9.99712395 216.625 3.5625 C222.22385494 -1.14588099 227.37289327 -2.02610753 234.55078125 -1.8671875 C240.68012512 -1.14968025 245.58278975 1.01378422 249.60546875 5.765625 C253.32926571 11.24960151 254.82627477 14.9664607 255.25 21.625 C255.37568359 23.54699219 255.37568359 23.54699219 255.50390625 25.5078125 C255.56449219 26.49523437 255.62507813 27.48265625 255.6875 28.5 C257.234375 29.0259375 257.234375 29.0259375 258.8125 29.5625 C263.30925543 31.51443846 266.08733396 34.37960909 268.6875 38.5 C270.52971294 43.44048017 270.76240005 47.51216211 270.7265625 52.76953125 C270.72092285 53.84436768 270.7152832 54.9192041 270.70947266 56.02661133 C270.70222168 56.84282959 270.6949707 57.65904785 270.6875 58.5 C271.69703735 58.49333817 272.70657471 58.48667633 273.7467041 58.47981262 C283.28023895 58.4188862 292.81373407 58.37397208 302.34741974 58.34456348 C307.24829754 58.32893574 312.14901763 58.30775041 317.04980469 58.27368164 C321.7830713 58.24098492 326.51618662 58.22312525 331.2495575 58.21536827 C333.05159383 58.20984324 334.85362228 58.19905428 336.65559387 58.18280983 C339.1878929 58.16089821 341.71957392 58.15803876 344.25195312 58.15942383 C344.98995148 58.148638 345.72794983 58.13785217 346.48831177 58.1267395 C352.10552259 58.15978762 357.9891853 59.00182353 362.255867 62.95203876 C366.40954067 67.83785369 366.86532979 71.15368438 366.92578125 77.359375 C366.933853 78.14137268 366.94192474 78.92337036 366.95024109 79.72906494 C366.9640822 81.38673689 366.97480424 83.04443735 366.98266602 84.70214844 C366.99983991 87.22646879 367.04371865 89.74946586 367.08789062 92.2734375 C367.0980213 93.88540705 367.10653623 95.49738773 367.11328125 97.109375 C367.13078934 97.85958923 367.14829742 98.60980347 367.16633606 99.38275146 C367.14502978 104.58148311 365.96192795 107.49449267 362.6875 111.5 C360.6875 112.9609375 360.6875 112.9609375 358.6875 113.875 C358.0275 114.19210938 357.3675 114.50921875 356.6875 114.8359375 C354.6875 115.5 354.6875 115.5 350.6875 115.5 C350.69860306 116.10499329 350.70970612 116.70998657 350.72114563 117.33331299 C350.83171896 123.62716923 350.90715871 129.92074987 350.9621582 136.21533203 C350.98731062 138.56472988 351.02143663 140.91404941 351.06469727 143.26318359 C351.12531426 146.63919383 351.15370295 150.01417011 351.17578125 153.390625 C351.20158768 154.44179504 351.2273941 155.49296509 351.25398254 156.57598877 C351.25678435 163.8518679 351.25678435 163.8518679 348.34838867 167.16308594 C345.10312308 168.79360932 343.27151512 169.11004513 339.6875 168.5 C337.38474444 166.6329009 336.00926129 165.14352259 334.6875 162.5 C334.59772272 160.98835608 334.56992567 159.47279821 334.57397461 157.95849609 C334.57405014 157.01767181 334.57412567 156.07684753 334.57420349 155.10751343 C334.58194542 153.58089584 334.58194542 153.58089584 334.58984375 152.0234375 C334.59196617 150.46286118 334.59196617 150.46286118 334.59413147 148.87075806 C334.59974134 145.53880979 334.61229553 142.20692805 334.625 138.875 C334.63001373 136.61979264 334.63457686 134.36458422 334.63867188 132.109375 C334.64886426 126.57287025 334.6684378 121.03650983 334.6875 115.5 C326.7675 115.5 318.8475 115.5 310.6875 115.5 C310.6875 206.25 310.6875 297 310.6875 390.5 C318.6075 390.5 326.5275 390.5 334.6875 390.5 C334.67750725 386.81460808 334.67750725 386.81460808 334.66731262 383.05476379 C334.60606008 359.93726977 334.56138658 336.81978642 334.53206348 313.7022295 C334.5165867 301.81634635 334.49548162 289.9305227 334.46118164 278.04467773 C334.43130419 267.68642964 334.41193091 257.32822463 334.40523452 246.96993464 C334.40131947 241.48398454 334.3921016 235.99815772 334.37030983 230.51224709 C334.34997088 225.35032632 334.34366098 220.1885798 334.34817696 215.02662277 C334.3473506 213.1307334 334.34136958 211.23483829 334.32988358 209.33898354 C334.31498001 206.75249222 334.31853852 204.16666067 334.32673645 201.58015442 C334.31799793 200.82820181 334.3092594 200.0762492 334.30025607 199.30151016 C334.33830962 194.86627946 334.9430054 192.02383108 337.6875 188.5 C340.54074437 187.07337781 342.52204549 187.18966132 345.6875 187.5 C348.34913921 189.01729202 348.34913921 189.01729202 350.6875 191.5 C351.17909962 194.37657617 351.34366437 196.66144688 351.28877258 199.53582764 C351.29304471 200.35187226 351.29731683 201.16791687 351.30171841 202.00869012 C351.30996345 204.74690928 351.28243937 207.48360135 351.25512695 210.22167969 C351.25371681 212.18283553 351.25450781 214.14399401 351.25733948 216.10514832 C351.25877633 221.43348434 351.22934265 226.76125964 351.19446969 232.08946514 C351.16325123 237.65615192 351.16027901 243.22285101 351.15434265 248.78961182 C351.13879097 259.33293629 351.09774443 269.8760021 351.0475952 280.41921258 C350.99174307 292.42145884 350.96422561 304.42371733 350.93911803 316.42606115 C350.88682986 341.11751761 350.79886169 365.80874432 350.6875 390.5 C351.61304688 390.46648437 352.53859375 390.43296875 353.4921875 390.3984375 C357.71611621 390.5326944 359.45346766 391.82840806 362.6875 394.5 C366.48918313 399.16302899 367.2831127 402.88627019 367.21875 408.75 C367.2225769 409.52633789 367.22640381 410.30267578 367.23034668 411.10253906 C367.23305654 412.7363414 367.22576031 414.3701878 367.20898438 416.00390625 C367.18755871 418.49317896 367.20881466 420.97956618 367.234375 423.46875 C367.23173156 425.06250632 367.22660623 426.65626085 367.21875 428.25 C367.22684692 428.98766602 367.23494385 429.72533203 367.24328613 430.48535156 C367.15084613 435.62418871 365.89455097 438.524811 362.6875 442.5 C358.01145278 446.60925362 353.66857169 446.64506787 347.68260479 446.63142776 C346.4391542 446.63450672 346.4391542 446.63450672 345.1705834 446.63764787 C342.36864636 446.64334142 339.56675812 446.64185772 336.76481628 446.64044189 C334.74535052 446.64302418 332.72588526 446.64603695 330.70642072 446.6494453 C325.13800873 446.65753456 319.56960962 446.65930594 314.00119245 446.66004276 C308.00311585 446.66188996 302.00504599 446.66943557 296.00697327 446.67617798 C282.19859238 446.69048449 268.39021328 446.69628946 254.58182681 446.70086992 C247.76048683 446.70320483 240.93914769 446.70680735 234.11780837 446.7105653 C210.77446626 446.72340116 187.43112461 446.73412066 164.08777905 446.7375679 C162.62210755 446.73778954 161.15643606 446.73801132 159.69076457 446.73823325 C158.22152471 446.73845389 156.75228485 446.73867438 155.28304499 446.7388947 C152.33542518 446.73933726 149.38780536 446.73978437 146.44018555 446.74023438 C145.70934584 446.74034377 144.97850613 446.74045316 144.22551977 446.74056586 C120.52160688 446.74419747 96.81772456 446.76012123 73.11382338 446.78342474 C48.0612699 446.80800916 23.00873389 446.82174008 -2.043832 446.82293582 C-4.79284426 446.82310728 -7.54185651 446.82332271 -10.29086876 446.82357025 C-10.96776846 446.82362602 -11.64466815 446.82368179 -12.34207996 446.82373925 C-23.24489721 446.82489086 -34.14768315 446.83592217 -45.05048982 446.85045731 C-56.00474532 446.86480875 -66.95896588 446.867814 -77.91322903 446.86001733 C-83.85008885 446.85610015 -89.78684308 446.8570924 -95.72369003 446.87107468 C-101.15493755 446.88374956 -106.58599943 446.88267277 -112.01724645 446.87048396 C-113.98562373 446.8685158 -115.95401387 446.87165659 -117.92237303 446.88032833 C-120.59183671 446.89134738 -123.26063672 446.88398504 -125.93008137 446.8719368 C-127.08434583 446.88332959 -127.08434583 446.88332959 -128.26192877 446.89495254 C-133.0224393 446.84836459 -136.27203158 446.02377625 -140.3125 443.5 C-144.85376329 438.46778933 -145.48637314 435.25248831 -145.55078125 428.640625 C-145.558853 427.85862732 -145.56692474 427.07662964 -145.57524109 426.27093506 C-145.5890822 424.61326311 -145.59980424 422.95556265 -145.60766602 421.29785156 C-145.62483991 418.77353121 -145.66871865 416.25053414 -145.71289062 413.7265625 C-145.7230213 412.11459295 -145.73153623 410.50261227 -145.73828125 408.890625 C-145.75578934 408.14041077 -145.77329742 407.39019653 -145.79133606 406.61724854 C-145.76998443 401.40744982 -144.60027733 398.50692037 -141.3125 394.5 C-137.08749877 391.00978159 -134.69746399 390.3050013 -129.3125 390.5 C-129.33344727 389.21834961 -129.35439453 387.93669922 -129.37597656 386.61621094 C-129.44838666 381.86030249 -129.4943036 377.10444276 -129.53222656 372.34814453 C-129.55233969 370.28979295 -129.57963397 368.23149848 -129.61425781 366.17333984 C-129.66278883 363.21437487 -129.68547166 360.25616539 -129.703125 357.296875 C-129.72377014 356.37694763 -129.74441528 355.45702026 -129.76568604 354.50921631 C-129.7679292 348.11964392 -129.7679292 348.11964392 -127.4152832 344.91870117 C-123.84749035 342.51159049 -121.54841685 343.02934257 -117.3125 343.5 C-114.63818511 345.31163267 -114.35329641 346.37761077 -113.3125 349.5 C-113.22682754 350.86592183 -113.19476353 352.23564858 -113.19897461 353.60424805 C-113.19905014 354.42487228 -113.19912567 355.24549652 -113.19920349 356.09098816 C-113.20436478 356.97232925 -113.20952606 357.85367035 -113.21484375 358.76171875 C-113.2162587 359.66751175 -113.21767365 360.57330475 -113.21913147 361.50654602 C-113.22472999 364.40023091 -113.23728219 367.29383849 -113.25 370.1875 C-113.25501519 372.14908742 -113.25957807 374.11067606 -113.26367188 376.07226562 C-113.27384813 380.88156418 -113.29342387 385.69069553 -113.3125 390.5 C-105.3925 390.5 -97.4725 390.5 -89.3125 390.5 C-89.3125 299.75 -89.3125 209 -89.3125 115.5 C-97.2325 115.5 -105.1525 115.5 -113.3125 115.5 C-113.30583817 118.01956833 -113.29917633 120.53913666 -113.29231262 123.13505554 C-113.23106184 146.84119594 -113.1863874 170.54732592 -113.15706348 194.25352764 C-113.14158626 206.44208078 -113.12048035 218.6305759 -113.08618164 230.8190918 C-113.05630553 241.44102845 -113.03693122 252.06292308 -113.03023452 262.68490058 C-113.02631924 268.31057771 -113.01709993 273.93613464 -112.99530983 279.5617733 C-112.974973 284.85501706 -112.96866055 290.1480909 -112.97317696 295.44137001 C-112.9723505 297.38563586 -112.96636824 299.3299073 -112.95488358 301.2741394 C-112.93998337 303.92631139 -112.94353735 306.57783973 -112.95173645 309.23002625 C-112.94299793 310.00143359 -112.9342594 310.77284094 -112.92525607 311.56762427 C-112.96286122 316.06024495 -113.55715369 318.91612619 -116.3125 322.5 C-118.8785206 324.44663632 -120.12366974 324.50770736 -123.375 324.375 C-126.92377184 323.31791903 -127.56024156 322.71858073 -129.3125 319.5 C-129.59526642 316.68252362 -129.70472273 314.08996504 -129.67326355 311.27435303 C-129.67582682 310.43789065 -129.6783901 309.60142827 -129.68103105 308.73961854 C-129.68597825 305.93266249 -129.66946061 303.12624256 -129.65307617 300.31933594 C-129.6522301 298.3089194 -129.65270465 296.29850193 -129.65440369 294.28808594 C-129.65526585 288.82560619 -129.63760426 283.36332332 -129.61668181 277.9008894 C-129.59795185 272.19404786 -129.59616748 266.48720201 -129.59260559 260.78033447 C-129.5832743 249.97147085 -129.55864582 239.16269804 -129.52855712 228.35387444 C-129.49504685 216.04931273 -129.47853559 203.74474671 -129.46347082 191.44015074 C-129.43209725 166.12671677 -129.37931566 140.81336347 -129.3125 115.5 C-130.94445312 115.30664062 -130.94445312 115.30664062 -132.609375 115.109375 C-137.63690851 114.28205936 -140.83198135 112.41827925 -143.95727539 108.36889648 C-145.70149278 104.67653502 -145.76190998 101.34975842 -145.74609375 97.34765625 C-145.7513356 96.56990341 -145.75657745 95.79215057 -145.76197815 94.99082947 C-145.76838187 93.35107615 -145.76708274 91.7112768 -145.75854492 90.0715332 C-145.75003761 87.57354257 -145.77881126 85.07784298 -145.81054688 82.58007812 C-145.81215927 80.98177151 -145.81158062 79.38346088 -145.80859375 77.78515625 C-145.81982773 77.04435318 -145.83106171 76.30355011 -145.84263611 75.54029846 C-145.77389179 70.38019427 -144.5701966 67.4680242 -141.3125 63.5 C-135.23925688 58.81854177 -130.81855979 58.35069526 -123.33105469 58.38647461 C-122.5306778 58.38632858 -121.7303009 58.38618256 -120.90567017 58.3860321 C-118.26521069 58.3867277 -115.62482212 58.3945036 -112.984375 58.40234375 C-111.15163207 58.40420918 -109.31888863 58.40563249 -107.48614502 58.40663147 C-102.66600158 58.41044678 -97.84588835 58.42026867 -93.02575684 58.43133545 C-88.10571705 58.44157075 -83.18567237 58.44613363 -78.265625 58.45117188 C-68.61457007 58.46189181 -58.96353755 58.47895641 -49.3125 58.5 C-49.31902588 57.68305664 -49.32555176 56.86611328 -49.33227539 56.02441406 C-49.33735107 54.94901367 -49.34242676 53.87361328 -49.34765625 52.765625 C-49.35418213 51.70118164 -49.36070801 50.63673828 -49.36743164 49.54003906 C-49.23172645 42.02981236 -47.2833258 37.83338199 -42.359375 32.1640625 C-39.83917189 30.11519508 -37.41820543 29.36854474 -34.3125 28.5 C-34.30992188 27.60539062 -34.30734375 26.71078125 -34.3046875 25.7890625 C-34.03434309 17.3362938 -33.02451876 10.97198692 -27.3125 4.5 C-19.6727765 -1.72709538 -9.32316376 -4.14972191 0 0 Z M-17.3125 18.5 C-17.64895741 21.90729882 -17.49352086 25.06060372 -17.3125 28.5 C-12.6925 28.5 -8.0725 28.5 -3.3125 28.5 C-2.68406048 22.02105802 -2.68406048 22.02105802 -5.5 16.4375 C-8.11660616 14.3739878 -8.11660616 14.3739878 -10.875 13.9375 C-14.33176331 14.73521461 -15.3745922 15.48547676 -17.3125 18.5 Z M224.6875 19.5 C224.26919813 22.62680646 224.45041052 25.32300101 224.6875 28.5 C229.3075 28.5 233.9275 28.5 238.6875 28.5 C239.29865498 21.83059754 239.29865498 21.83059754 237 15.875 C231.50940382 12.61032119 228.24431068 14.52046505 224.6875 19.5 Z M-33.3125 46.5 C-33.3125 50.46 -33.3125 54.42 -33.3125 58.5 C-18.4625 58.5 -3.6125 58.5 11.6875 58.5 C11.6875 54.21 11.6875 49.92 11.6875 45.5 C9.52264488 43.33514488 4.48161732 44.33572196 1.47265625 44.33203125 C0.54658066 44.32870285 -0.37949493 44.32537445 -1.33363342 44.32194519 C-3.29655458 44.31687192 -5.2594844 44.31453699 -7.22241211 44.31469727 C-10.23370511 44.31251183 -13.24463134 44.29436326 -16.25585938 44.27539062 C-18.15885291 44.27245664 -20.06184819 44.27047188 -21.96484375 44.26953125 C-22.87008286 44.26234573 -23.77532196 44.25516022 -24.70799255 44.24775696 C-25.9642318 44.2523719 -25.9642318 44.2523719 -27.24584961 44.25708008 C-27.98451767 44.25565506 -28.72318573 44.25423004 -29.48423767 44.25276184 C-31.56222836 44.34574959 -31.56222836 44.34574959 -33.3125 46.5 Z M209.6875 45.5 C209.6875 49.79 209.6875 54.08 209.6875 58.5 C224.5375 58.5 239.3875 58.5 254.6875 58.5 C254.6875 54.54 254.6875 50.58 254.6875 46.5 C252.93722836 44.34574959 252.93722836 44.34574959 250.85923767 44.25276184 C250.12056961 44.25418686 249.38190155 44.25561188 248.62084961 44.25708008 C247.36461037 44.25246513 247.36461037 44.25246513 246.08299255 44.24775696 C244.7251339 44.25853523 244.7251339 44.25853523 243.33984375 44.26953125 C242.41281143 44.26998947 241.48577911 44.27044769 240.53065491 44.2709198 C238.56949586 44.27394346 236.60833925 44.28183315 234.6472168 44.29418945 C231.63386598 44.31244628 228.62082222 44.31469918 225.60742188 44.31445312 C223.70572649 44.31936815 221.8040332 44.32519641 219.90234375 44.33203125 C218.99508041 44.33314407 218.08781708 44.3342569 217.15306091 44.33540344 C213.09814792 43.95576668 213.09814792 43.95576668 209.6875 45.5 Z M-130.3125 75.5 C-130.41182153 77.19558726 -130.44330007 78.89525747 -130.4453125 80.59375 C-130.44660156 81.62371094 -130.44789063 82.65367188 -130.44921875 83.71484375 C-130.44535156 84.79894531 -130.44148437 85.88304688 -130.4375 87 C-130.44136719 88.08410156 -130.44523438 89.16820313 -130.44921875 90.28515625 C-130.44792969 91.31511719 -130.44664062 92.34507813 -130.4453125 93.40625 C-130.44418457 94.35822266 -130.44305664 95.31019531 -130.44189453 96.29101562 C-130.55949456 98.47452138 -130.55949456 98.47452138 -129.3125 99.5 C-126.76479703 99.59977201 -124.24415574 99.63361758 -121.69590759 99.62584114 C-120.47899717 99.6280213 -120.47899717 99.6280213 -119.23750269 99.63024551 C-116.48375635 99.6339325 -113.73006442 99.63040669 -110.97631836 99.62698364 C-108.99626353 99.6281344 -107.01620891 99.62972161 -105.03615475 99.63171089 C-99.56758354 99.63591049 -94.09902965 99.63381069 -88.63045835 99.63072467 C-82.7435567 99.62847334 -76.85665813 99.63194884 -70.96975708 99.63470459 C-60.09463285 99.63890601 -49.21951461 99.63852535 -38.34439006 99.63579312 C-28.29932545 99.6332817 -18.25426287 99.63261893 -8.209198 99.63381577 C-7.21134911 99.63393034 -7.21134911 99.63393034 -6.19334166 99.63404724 C-3.49322951 99.63435855 -0.79311736 99.63467695 1.90699479 99.635007 C27.25772989 99.63806887 52.60846144 99.63528798 77.95919599 99.6299101 C100.50242162 99.62516418 123.0456416 99.62558879 145.58886719 99.63037109 C170.89200013 99.63572088 196.19512993 99.63785176 221.49826336 99.63475883 C224.1935749 99.63443809 226.88888645 99.63412525 229.584198 99.63381577 C230.24789631 99.63373669 230.91159461 99.63365761 231.59540499 99.63357614 C241.63636826 99.63243666 251.67732928 99.63377266 261.71829224 99.63629532 C273.13053459 99.63909249 284.54277005 99.63835682 295.95501161 99.63301457 C301.78386327 99.63037643 307.61270343 99.62937439 313.44155502 99.63266373 C318.76832623 99.63562439 324.0950752 99.63403775 329.42184436 99.62868617 C331.35788923 99.627561 333.29393594 99.62815536 335.22997963 99.63056196 C337.84364975 99.63356385 340.4572417 99.63052367 343.07090759 99.62584114 C343.83808054 99.62818231 344.60525349 99.63052347 345.39567411 99.63293558 C348.83054979 99.92992166 348.83054979 99.92992166 351.6875 98.5 C351.78682153 96.80441274 351.81830007 95.10474253 351.8203125 93.40625 C351.82224609 91.86130859 351.82224609 91.86130859 351.82421875 90.28515625 C351.82035156 89.20105469 351.81648438 88.11695312 351.8125 87 C351.81636719 85.91589844 351.82023437 84.83179687 351.82421875 83.71484375 C351.82292969 82.68488281 351.82164062 81.65492187 351.8203125 80.59375 C351.81918457 79.64177734 351.81805664 78.68980469 351.81689453 77.70898438 C351.93449456 75.52547862 351.93449456 75.52547862 350.6875 74.5 C348.13979703 74.40022799 345.61915574 74.36638242 343.07090759 74.37415886 C342.25963398 74.37270542 341.44836036 74.37125198 340.61250269 74.36975449 C337.85875635 74.3660675 335.10506442 74.36959331 332.35131836 74.37301636 C330.37126353 74.3718656 328.39120891 74.37027839 326.41115475 74.36828911 C320.94258354 74.36408951 315.47402965 74.36618931 310.00545835 74.36927533 C304.1185567 74.37152666 298.23165813 74.36805116 292.34475708 74.36529541 C281.46963285 74.36109399 270.59451461 74.36147465 259.71939006 74.36420688 C249.67432545 74.3667183 239.62926287 74.36738107 229.584198 74.36618423 C228.91896541 74.36610785 228.25373282 74.36603146 227.56834166 74.36595276 C224.86822951 74.36564145 222.16811736 74.36532305 219.46800521 74.364993 C194.11727011 74.36193113 168.76653856 74.36471202 143.41580401 74.3700899 C120.87257838 74.37483582 98.3293584 74.37441121 75.78613281 74.36962891 C50.48299987 74.36427912 25.17987007 74.36214824 -0.12326336 74.36524117 C-2.8185749 74.36556191 -5.51388645 74.36587475 -8.209198 74.36618423 C-8.87289631 74.36626331 -9.53659461 74.36634239 -10.22040499 74.36642386 C-20.26136826 74.36756334 -30.30232928 74.36622734 -40.34329224 74.36370468 C-51.75553459 74.36090751 -63.16777005 74.36164318 -74.58001161 74.36698543 C-80.40886327 74.36962357 -86.23770343 74.37062561 -92.06655502 74.36733627 C-97.39332623 74.36437561 -102.7200752 74.36596225 -108.04684436 74.37131383 C-109.98288923 74.372439 -111.91893594 74.37184464 -113.85497963 74.36943804 C-116.46864975 74.36643615 -119.0822417 74.36947633 -121.69590759 74.37415886 C-122.46308054 74.37181769 -123.23025349 74.36947653 -124.02067411 74.36706442 C-127.45554979 74.07007834 -127.45554979 74.07007834 -130.3125 75.5 Z M-73.3125 115.5 C-73.3125 206.25 -73.3125 297 -73.3125 390.5 C48.1275 390.5 169.5675 390.5 294.6875 390.5 C294.6875 299.75 294.6875 209 294.6875 115.5 C173.2475 115.5 51.8075 115.5 -73.3125 115.5 Z M-130.3125 406.5 C-130.3125 414.42 -130.3125 422.34 -130.3125 430.5 C28.7475 430.5 187.8075 430.5 351.6875 430.5 C351.6875 422.58 351.6875 414.66 351.6875 406.5 C192.6275 406.5 33.5675 406.5 -130.3125 406.5 Z " fill="#000000" transform="translate(145.3125,33.5)"/>
<path d="M0 0 C2.9691826 0.72377388 4.1145534 2.15374627 6.03515625 4.49609375 C6.51617432 7.10308838 6.51617432 7.10308838 6.48925781 10.09082031 C6.48895569 11.2116803 6.48865356 12.33254028 6.48834229 13.48736572 C6.46769714 14.69165222 6.447052 15.89593872 6.42578125 17.13671875 C6.42012146 18.37403748 6.41446167 19.6113562 6.40863037 20.88616943 C6.39003876 24.16787311 6.35413123 27.44878656 6.30981445 30.73022461 C6.2688179 34.08179442 6.25095126 37.43339819 6.23046875 40.78515625 C6.18635529 47.35577766 6.11940702 53.92587107 6.03515625 60.49609375 C6.76629639 60.47514648 7.49743652 60.45419922 8.25073242 60.43261719 C11.57456626 60.34929061 14.89818009 60.29738043 18.22265625 60.24609375 C19.37314453 60.21257812 20.52363281 60.1790625 21.70898438 60.14453125 C23.37670898 60.12519531 23.37670898 60.12519531 25.078125 60.10546875 C26.6098938 60.07404785 26.6098938 60.07404785 28.17260742 60.04199219 C31.81691538 60.62010842 33.45513612 61.90044415 36.03515625 64.49609375 C37.89641623 72.68937887 32.73585344 79.04160604 28.59765625 85.74609375 C27.8199011 87.03511705 27.04372406 88.3250937 26.26904297 89.6159668 C24.265921 92.94435315 22.24250593 96.25986664 20.21258545 99.57196045 C18.39506681 102.54211622 16.59223703 105.52112232 14.7890625 108.5 C12.72119812 111.91264801 10.65185154 115.32431556 8.57250977 118.72998047 C4.69300492 125.08743413 0.8520387 131.46576529 -2.94140625 137.875 C-3.36094574 138.58366714 -3.78048523 139.29233429 -4.21273804 140.0224762 C-6.24034551 143.44973535 -8.26397207 146.8792801 -10.28271484 150.31176758 C-14.04867855 156.70090471 -17.87554678 163.04802917 -21.83984375 169.31640625 C-22.20924072 169.90912323 -22.5786377 170.50184021 -22.95922852 171.11251831 C-24.79248446 173.97832623 -26.08400235 175.57553282 -28.96484375 177.49609375 C-32.68408338 177.98121196 -34.4202796 177.8375995 -37.62467957 175.82806396 C-39.96484375 173.49609375 -39.96484375 173.49609375 -40.56611633 170.85113525 C-40.55501328 169.84741882 -40.54391022 168.84370239 -40.5324707 167.80957031 C-40.53209305 166.66868958 -40.53171539 165.52780884 -40.53132629 164.35235596 C-40.50551987 163.12619568 -40.47971344 161.9000354 -40.453125 160.63671875 C-40.44605026 159.37720398 -40.43897552 158.11768921 -40.4316864 156.82000732 C-40.40844251 153.47874019 -40.36356187 150.13919051 -40.3081665 146.79840088 C-40.25692584 143.38658459 -40.23416231 139.97459055 -40.20898438 136.5625 C-40.15383815 129.87322393 -40.0701511 123.18475798 -39.96484375 116.49609375 C-40.76704346 116.5118042 -41.56924316 116.52751465 -42.39575195 116.54370117 C-46.02287779 116.60597958 -49.64989124 116.64506239 -53.27734375 116.68359375 C-55.17129883 116.72129883 -55.17129883 116.72129883 -57.10351562 116.75976562 C-58.31201172 116.76943359 -59.52050781 116.77910156 -60.765625 116.7890625 C-61.88106689 116.80477295 -62.99650879 116.8204834 -64.14575195 116.83666992 C-66.96484375 116.49609375 -66.96484375 116.49609375 -68.82714844 115.21313477 C-70.82178047 112.20278131 -70.4772095 108.9246946 -69.96484375 105.49609375 C-68.9270527 103.00066456 -67.92834292 101.01148648 -66.52734375 98.74609375 C-66.13466309 98.07964844 -65.74198242 97.41320312 -65.33740234 96.7265625 C-63.90005701 94.30374628 -62.43356126 91.90001836 -60.96484375 89.49609375 C-59.72612409 87.44948404 -58.48787441 85.40258982 -57.25 83.35546875 C-55.13596965 79.86592286 -53.01916024 76.37820315 -50.89306641 72.89599609 C-45.72941043 64.43554438 -40.64508901 55.93114619 -35.60125732 47.39877319 C-29.46866414 37.02693872 -23.30703887 26.67401415 -17.01443481 16.39825439 C-15.99072617 14.72587647 -14.97077725 13.05119894 -13.95092773 11.37646484 C-13.02969116 9.87913818 -13.02969116 9.87913818 -12.08984375 8.3515625 C-11.55617188 7.48168701 -11.0225 6.61181152 -10.47265625 5.71557617 C-7.33671734 1.09951065 -5.7755138 0.16692236 0 0 Z M-10.96484375 38.49609375 C-12.05601749 40.13576572 -13.09430977 41.8106023 -14.11328125 43.49609375 C-14.78037109 44.59638916 -15.44746094 45.69668457 -16.13476562 46.83032227 C-16.87000796 48.05211596 -17.60502814 49.27404337 -18.33984375 50.49609375 C-19.09295697 51.74349394 -19.84621451 52.99080701 -20.59960938 54.23803711 C-23.06207846 58.31963084 -25.51430648 62.40732823 -27.96484375 66.49609375 C-28.61676697 67.5831662 -28.61676697 67.5831662 -29.28186035 68.69219971 C-31.92385738 73.09887647 -34.56073591 77.50856168 -37.19122314 81.92211914 C-38.03933038 83.34480308 -38.88824644 84.76700518 -39.73797607 86.1887207 C-40.93119771 88.18653705 -42.12047595 90.18664524 -43.30859375 92.1875 C-43.66511017 92.78317276 -44.02162659 93.37884552 -44.38894653 93.99256897 C-45.86320227 96.48414086 -47.04531225 98.73749924 -47.96484375 101.49609375 C-47.07962036 101.5101123 -47.07962036 101.5101123 -46.17651367 101.52441406 C-43.5009417 101.57812032 -40.82711822 101.66176227 -38.15234375 101.74609375 C-37.22357422 101.76027344 -36.29480469 101.77445313 -35.33789062 101.7890625 C-34.44521484 101.82128906 -33.55253906 101.85351562 -32.6328125 101.88671875 C-31.81063232 101.90766602 -30.98845215 101.92861328 -30.14135742 101.95019531 C-27.96484375 102.49609375 -27.96484375 102.49609375 -26.20507812 104.05859375 C-24.51804576 107.37421012 -24.48630525 110.4644788 -24.453125 114.10546875 C-24.4261982 115.19568329 -24.4261982 115.19568329 -24.39872742 116.30792236 C-24.34471134 118.62058782 -24.31075815 120.93304796 -24.27734375 123.24609375 C-24.24416282 124.81773685 -24.20967243 126.38935289 -24.17382812 127.9609375 C-24.08899047 131.80584121 -24.02213869 135.65068497 -23.96484375 139.49609375 C-20.89401181 135.8315019 -18.3506116 132.00557119 -15.9453125 127.88671875 C-15.56939972 127.25047073 -15.19348694 126.61422272 -14.80618286 125.95869446 C-13.58473135 123.88987174 -12.36853043 121.81801501 -11.15234375 119.74609375 C-9.88185158 117.59074781 -8.61002172 115.43619556 -7.33799744 113.28175354 C-6.47809887 111.8253213 -5.61861358 110.36864499 -4.75953674 108.91172791 C-1.9877218 104.21438358 0.80576082 99.53075901 3.62109375 94.859375 C3.97348618 94.27443268 4.3258786 93.68949036 4.68894958 93.08682251 C6.34489558 90.3396882 8.0037754 87.59436028 9.6652832 84.85058594 C10.53479614 83.4086084 10.53479614 83.4086084 11.421875 81.9375 C11.92936279 81.09904541 12.43685059 80.26059082 12.9597168 79.39672852 C14.11723332 77.7150048 14.11723332 77.7150048 14.03515625 76.49609375 C13.48053711 76.48674805 12.92591797 76.47740234 12.35449219 76.46777344 C9.83049144 76.41393653 7.30831811 76.33032121 4.78515625 76.24609375 C3.91246094 76.23191406 3.03976562 76.21773437 2.140625 76.203125 C1.29628906 76.17089844 0.45195312 76.13867188 -0.41796875 76.10546875 C-1.19301758 76.08452148 -1.96806641 76.06357422 -2.76660156 76.04199219 C-5.93173915 75.25598068 -7.06236606 74.14007166 -8.96484375 71.49609375 C-9.38286144 68.82870715 -9.56954333 66.55500394 -9.57421875 63.88671875 C-9.590755 63.15990906 -9.60729126 62.43309937 -9.62432861 61.68426514 C-9.67276736 59.37145506 -9.69416864 57.05930218 -9.71484375 54.74609375 C-9.74300716 53.17444618 -9.77293512 51.60282916 -9.8046875 50.03125 C-9.87852422 46.18625206 -9.92812323 42.34161803 -9.96484375 38.49609375 C-10.29484375 38.49609375 -10.62484375 38.49609375 -10.96484375 38.49609375 Z " fill="#000000" transform="translate(272.96484375,197.50390625)"/>
<path d="M0 0 C9.36526279 8.71450435 16.01959387 20.03864497 16.63671875 32.9921875 C16.65578897 34.40091801 16.65939479 35.80993303 16.6484375 37.21875 C16.64424805 37.96116943 16.64005859 38.70358887 16.63574219 39.46850586 C16.51557317 45.32930248 15.63463396 50.41682748 13.3359375 55.84375 C13.08070313 56.51277344 12.82546875 57.18179688 12.5625 57.87109375 C7.08190448 70.56696869 -4.3728002 78.79733083 -16.734375 83.86328125 C-29.5060378 88.13753107 -42.68632453 86.13873252 -54.7265625 80.71875 C-67.04772787 74.1566031 -74.5215289 63.79515734 -78.91015625 50.7578125 C-82.45383908 37.06046852 -80.39599982 24.37083928 -73.6484375 12.11328125 C-65.88231872 -0.68246958 -55.02197273 -7.25635803 -40.7265625 -10.90625 C-25.52424317 -12.14725566 -12.11125187 -9.80265548 0 0 Z M-57.3828125 16.84375 C-63.06419232 24.6417223 -65.65260268 33.39505763 -64.359375 43.01171875 C-62.12149465 52.12668084 -57.58048525 59.70023032 -49.6640625 64.84375 C-41.30809685 69.33146796 -33.34529327 71.2503249 -23.91796875 69.265625 C-15.49181083 66.63618565 -8.69225284 61.66100912 -3.96484375 54.140625 C0.37357253 45.63782634 1.77048749 37.6093979 -0.2421875 28.1171875 C-3.32683733 19.28387208 -9.62930558 12.08437747 -17.9140625 7.78125 C-31.77948968 1.41493458 -47.47873982 5.31901088 -57.3828125 16.84375 Z " fill="#000000" transform="translate(166.6640625,174.15625)"/>
<path d="M0 0 C10.55042756 8.92849616 16.81110521 20.6803959 18.2421875 34.46484375 C18.87715925 48.63473962 14.66653626 61.01624896 5.6171875 71.96484375 C-2.9574277 80.87116553 -14.19846674 86.36883908 -26.54296875 87.23046875 C-41.51271633 87.45306723 -54.02683853 83.6760083 -65.0078125 73.21484375 C-75.55895581 62.06173347 -79.07687257 49.32458447 -78.84375 34.29296875 C-78.66150344 29.14056587 -77.72385634 24.75008154 -75.6328125 20.02734375 C-75.04693359 18.69316406 -75.04693359 18.69316406 -74.44921875 17.33203125 C-67.75949873 3.72517864 -57.16307024 -3.91065392 -43.16015625 -8.84375 C-28.40455339 -12.72680338 -12.09528898 -9.06249397 0 0 Z M-57.3125 20.06640625 C-62.53125599 27.8173397 -63.8619625 35.81415746 -62.6328125 45.02734375 C-60.1422956 54.47294472 -55.44772857 61.52964987 -47.03515625 66.58984375 C-38.57802518 70.97410021 -30.42908441 72.69355643 -21.0703125 69.90234375 C-11.04419579 66.09383652 -4.89887217 59.99634935 0.1796875 50.71484375 C3.3656632 40.82155078 2.83007371 31.85632742 -1.890625 22.546875 C-7.485835 13.42026196 -15.34671471 8.63570952 -25.6328125 6.02734375 C-38.35106383 4.14707071 -49.52419801 10.320389 -57.3125 20.06640625 Z " fill="#000000" transform="translate(407.6328125,172.97265625)"/>
<path d="M0 0 C1.35439668 2.70879335 1.06501451 5.00933268 1 8 C1.9075 7.9175 2.815 7.835 3.75 7.75 C7 8 7 8 9.375 9.5625 C11.62340519 12.93510779 11.56783945 15.02512383 11 19 C8.81907617 22.18750407 7.52571704 22.87868068 3.75 23.75 C2.8425 23.8325 1.935 23.915 1 24 C0.9071875 25.6396875 0.9071875 25.6396875 0.8125 27.3125 C0 31 0 31 -2.1875 33 C-5.71065374 34.25267688 -7.46081576 34.20482868 -11 33 C-13.375 30.6875 -13.375 30.6875 -15 28 C-15 26.68 -15 25.36 -15 24 C-16.36125 23.9071875 -16.36125 23.9071875 -17.75 23.8125 C-21 23 -21 23 -23.4375 20.875 C-25.49830673 17.08311561 -25.14050533 15.10581917 -24 11 C-22.8125 9.0625 -22.8125 9.0625 -21 8 C-17.8125 7.8125 -17.8125 7.8125 -15 8 C-14.896875 6.906875 -14.79375 5.81375 -14.6875 4.6875 C-14 1 -14 1 -12.6875 -0.875 C-7.89027952 -4.07314699 -5.00229245 -2.54833766 0 0 Z " fill="#000000" transform="translate(384,196)"/>
<path d="M0 0 C1.92585938 -0.03577148 1.92585938 -0.03577148 3.890625 -0.07226562 C5.12296875 -0.07033203 6.3553125 -0.06839844 7.625 -0.06640625 C9.31496094 -0.0674939 9.31496094 -0.0674939 11.0390625 -0.06860352 C14 0.5625 14 0.5625 16.40234375 2.87524414 C18 5.5625 18 5.5625 17.9375 9.1875 C16.68253968 13.70535714 16.68253968 13.70535714 14 15.5625 C9.43731889 17.0833937 4.90384735 16.74692481 0.125 16.75 C-0.86886719 16.76224609 -1.86273438 16.77449219 -2.88671875 16.78710938 C-3.84964844 16.78904297 -4.81257812 16.79097656 -5.8046875 16.79296875 C-6.68108887 16.79707764 -7.55749023 16.80118652 -8.46044922 16.80541992 C-11.34122178 16.52986054 -13.42360111 15.87640328 -16 14.5625 C-18.48038907 10.8419164 -18.46337203 8.96453429 -18 4.5625 C-13.48471443 -1.51509065 -6.91665541 -0.05902768 0 0 Z " fill="#000000" transform="translate(135,203.4375)"/>
</svg>
