<?xml version="1.0" encoding="UTF-8"?>
<svg version="1.1" xmlns="http://www.w3.org/2000/svg" width="512" height="512">
<path d="M0 0 C1.44795959 0.00424484 1.44795959 0.00424484 2.9251709 0.00857544 C5.98149478 0.01969126 9.03751601 0.04477965 12.09375 0.0703125 C14.17707907 0.08035342 16.26041278 0.08947732 18.34375 0.09765625 C23.42729123 0.11789328 28.51018538 0.15705825 33.59375 0.1953125 C33.59375 6.4653125 33.59375 12.7353125 33.59375 19.1953125 C30.81066406 19.23269531 28.02757813 19.27007812 25.16015625 19.30859375 C22.43945841 19.35491691 19.71889229 19.40611116 16.99829102 19.45776367 C15.11979296 19.49084434 13.24119954 19.51892777 11.36254883 19.54174805 C8.64884111 19.57560636 5.93599424 19.62793465 3.22265625 19.68359375 C1.97990685 19.69317863 1.97990685 19.69317863 0.71205139 19.70295715 C-7.40733566 19.90381496 -15.10107192 21.8709399 -21.40625 27.1953125 C-27.22157261 34.37730565 -29.64851998 41.14622581 -29.67367554 50.45489502 C-29.67820665 51.15140222 -29.68273776 51.84790943 -29.68740618 52.56552291 C-29.69998775 54.88131599 -29.69843389 57.19687201 -29.69677734 59.51269531 C-29.70276656 61.18059082 -29.70957301 62.84848356 -29.71713257 64.51637268 C-29.73476107 69.03516258 -29.73948665 73.55387667 -29.74076414 78.07269764 C-29.74218823 80.89989059 -29.74646275 83.72706443 -29.75175858 86.55425262 C-29.77024935 96.42892169 -29.77843049 106.30353685 -29.77685547 116.17822266 C-29.77565475 125.36397816 -29.79674584 134.54949844 -29.8283428 143.73519444 C-29.85454874 151.63693949 -29.86522094 159.53860793 -29.86394465 167.44039607 C-29.86343623 172.15292688 -29.86905266 176.86524861 -29.89030075 181.5777359 C-29.90975573 186.01346624 -29.90975832 190.44878961 -29.89526749 194.88453484 C-29.89318717 196.50538418 -29.89783358 198.12625949 -29.9099884 199.74706459 C-29.98451785 210.38059209 -29.08923933 219.34585886 -23.28125 228.5703125 C-16.26375617 234.97758947 -8.48780389 237.31038105 0.86027527 237.33575439 C2.12323425 237.34146454 3.38619324 237.34717468 4.68742371 237.35305786 C6.07962026 237.35430307 7.47181693 237.3554282 8.86401367 237.35644531 C10.33619307 237.36107679 11.80837127 237.3661019 13.2805481 237.37149048 C17.27459729 237.38458609 21.26862969 237.39105407 25.26269698 237.39550114 C27.76121161 237.3984369 30.25972169 237.40254269 32.75823402 237.40700531 C40.58467086 237.42067377 48.41109725 237.43034319 56.23754519 237.4342072 C65.25475191 237.43868423 74.27180676 237.45621831 83.28896731 237.4852078 C90.27006149 237.50686789 97.25111309 237.51691381 104.2322405 237.51824832 C108.39645027 237.5192934 112.56051717 237.5251375 116.72469139 237.54306793 C120.64571047 237.55962331 124.56648041 237.5616682 128.48752213 237.55292892 C129.92012134 237.55216248 131.35273436 237.55644899 132.7852993 237.56638718 C143.15166195 237.63403746 152.58896766 237.44964649 160.59375 230.1953125 C161.25375 230.1953125 161.91375 230.1953125 162.59375 230.1953125 C163.02400199 229.33311663 163.02400199 229.33311663 163.46294594 228.45350266 C164.17862974 227.02429828 164.90501927 225.60036235 165.64598656 224.1841011 C168.47820509 218.4146788 169.16761778 213.66967171 169.10791016 207.29199219 C169.11503525 206.34595627 169.12216034 205.39992035 169.12950134 204.42521667 C169.14867433 201.32232336 169.14052057 198.22011982 169.1328125 195.1171875 C169.14273136 192.94157936 169.1546771 190.7659796 169.16854858 188.59039307 C169.20084419 182.87437361 169.21129522 177.15854554 169.21539307 171.44244385 C169.22415975 162.30963021 169.2599693 153.17697349 169.3075676 144.04428864 C169.32004267 140.87327553 169.31940388 137.7024655 169.31729126 134.53143311 C169.35498732 115.59924989 170.34213114 99.78199611 184.1875 85.3828125 C198.34319587 72.51399807 214.94911026 72.62759569 232.95703125 72.8046875 C235.20289096 72.81216093 237.44875725 72.81784864 239.69462585 72.82183838 C245.56532238 72.83700787 251.43561417 72.87621389 257.30615234 72.9206543 C263.31276985 72.96179551 269.31945366 72.97988944 275.32617188 73 C287.0822077 73.04271732 298.83794501 73.11086201 310.59375 73.1953125 C310.99787109 72.27298828 310.99787109 72.27298828 311.41015625 71.33203125 C313.58559349 67.40475675 317.45006228 65.57654174 321.59375 64.1953125 C328.10964241 63.41134911 333.18938308 64.40857921 338.59375 68.1953125 C343.83177942 73.70902768 345.01429749 78.05032587 344.8359375 85.51171875 C344.33878642 91.02047346 342.04086593 93.96598509 338.03125 97.5078125 C332.33729284 102.17318385 326.803132 101.83634159 319.59375 101.1953125 C316.13384792 99.49571148 314.30092802 98.13753264 312.01065063 95.08604431 C308.35538671 92.22654579 305.00450963 92.64324921 300.48583984 92.69360352 C299.56497589 92.68820053 298.64411194 92.68279755 297.69534302 92.67723083 C294.64813164 92.66471551 291.60186043 92.68126114 288.5546875 92.69921875 C286.43201651 92.69906375 284.30934522 92.69757457 282.18667603 92.69480896 C277.73288492 92.69342344 273.27941521 92.70600262 268.82568359 92.72875977 C263.13640679 92.75704092 257.44766825 92.75443721 251.75835228 92.74166965 C247.37093574 92.7346865 242.98364187 92.74253354 238.596241 92.75492668 C236.5000315 92.75942293 234.40380874 92.75979406 232.30759811 92.75586128 C229.36413768 92.7529259 226.42139652 92.76957031 223.47802734 92.79125977 C222.62259338 92.78675812 221.76715942 92.78225647 220.88580322 92.77761841 C212.92490538 92.87428063 204.75477855 94.28538821 198.71875 99.8203125 C198.02007812 100.43132812 197.32140625 101.04234375 196.6015625 101.671875 C191.29447624 108.34187057 190.00522562 115.03002566 190.09545898 123.37402344 C190.08994019 124.34932007 190.08442139 125.3246167 190.07873535 126.32946777 C190.06945942 128.43279769 190.06927346 130.53618379 190.07732964 132.63951874 C190.09003277 135.97938276 190.07860069 139.31842906 190.06129456 142.65826416 C190.03464699 148.551848 190.02899645 154.44522962 190.03039551 160.33886719 C190.03262674 169.75595777 190.01824651 179.17279695 189.97480965 188.58979034 C189.96504991 191.86059576 189.97364927 195.13099792 189.98350525 198.40179443 C189.96671147 215.54900367 188.68961523 230.63536414 176.59375 243.9453125 C164.4867677 255.35578482 150.17008528 257.4995291 134.2644043 257.4699707 C132.71458695 257.47432329 131.16477175 257.47950826 129.61495972 257.48545837 C125.42265538 257.49880227 121.23044145 257.49943209 117.03812003 257.49689507 C113.52946467 257.49582202 110.02082734 257.50071738 106.51217586 257.5055005 C98.2288879 257.5165802 89.94564529 257.51704204 81.66235352 257.51098633 C73.1383743 257.5049501 64.61456029 257.51725216 56.09060925 257.5385564 C48.75359573 257.55621476 41.4166346 257.56216701 34.07960063 257.55891865 C29.70582478 257.55711206 25.33216673 257.55967913 20.95841026 257.57363319 C16.84199262 257.58627571 12.725831 257.58420722 8.60941696 257.57122231 C7.10628864 257.56887072 5.60314193 257.57153984 4.10003471 257.57984543 C-9.77186869 257.65091575 -24.18238801 255.56927795 -34.90625 245.8203125 C-44.5255913 235.39935943 -49.50652666 224.09206448 -49.55342102 209.9239502 C-49.55709771 209.20197811 -49.5607744 208.48000602 -49.5645625 207.73615599 C-49.57555628 205.32214358 -49.57943588 202.90817427 -49.58325195 200.49414062 C-49.58952001 198.76082219 -49.59616712 197.02750509 -49.60316467 195.29418945 C-49.62417223 189.60498992 -49.63456612 183.91579024 -49.64453125 178.2265625 C-49.64858048 176.26395148 -49.65269745 174.3013406 -49.65688133 172.33872986 C-49.67592821 163.11391093 -49.69015854 153.88909996 -49.6984933 144.66426516 C-49.70825472 134.0373959 -49.73454775 123.41073554 -49.77499419 112.78393984 C-49.80522525 104.55695059 -49.81996892 96.33002096 -49.82327431 88.10297728 C-49.82561741 83.19584086 -49.83448072 78.28892772 -49.85973549 73.3818512 C-49.8831429 68.75902686 -49.8871989 64.13657081 -49.87697411 59.51370239 C-49.87648165 57.82596099 -49.88271547 56.13820068 -49.89653015 54.45051575 C-50.01733993 38.80390622 -47.3839006 25.25881285 -36.59765625 13.16796875 C-26.36440891 3.44532003 -13.74926917 -0.15407575 0 0 Z " fill="#000000" transform="translate(83.40625,218.8046875)"/>
<path d="M0 0 C54.45 0 108.9 0 165 0 C165 30.36 165 60.72 165 92 C110.55 92 56.1 92 0 92 C0 61.64 0 31.28 0 0 Z M28 19 C28 21.97 28 24.94 28 28 C25.03 28 22.06 28 19 28 C19 33.94 19 39.88 19 46 C21.97 46 24.94 46 28 46 C28 48.97 28 51.94 28 55 C33.61 55 39.22 55 45 55 C45 52.03 45 49.06 45 46 C47.97 46 50.94 46 54 46 C54 40.06 54 34.12 54 28 C51.03 28 48.06 28 45 28 C45 25.03 45 22.06 45 19 C39.39 19 33.78 19 28 19 Z M110 28 C110 33.94 110 39.88 110 46 C121.88 46 133.76 46 146 46 C146 40.06 146 34.12 146 28 C134.12 28 122.24 28 110 28 Z " fill="#000000" transform="translate(327,420)"/>
<path d="M0 0 C12.54 0 25.08 0 38 0 C38 30.36 38 60.72 38 92 C46.91 92 55.82 92 65 92 C65 98.27 65 104.54 65 111 C34.64 111 4.28 111 -27 111 C-27 104.73 -27 98.46 -27 92 C-18.09 92 -9.18 92 0 92 C0 61.64 0 31.28 0 0 Z " fill="#000000" transform="translate(162,182)"/>
<path d="M0 0 C66.66 0 133.32 0 202 0 C202 6.27 202 12.54 202 19 C135.34 19 68.68 19 0 19 C0 12.73 0 6.46 0 0 Z " fill="#000000" transform="translate(308,384)"/>
<path d="M0 0 C25.08 0 50.16 0 76 0 C79.01846171 9.05538514 80.2925002 18.60875112 82 28 C54.94 28 27.88 28 0 28 C0 18.76 0 9.52 0 0 Z " fill="#000000" transform="translate(189,137)"/>
<path d="M0 0 C25.08 0 50.16 0 76 0 C76 9.24 76 18.48 76 28 C49.27 28 22.54 28 -5 28 C-3.95300145 18.57701306 -1.95318024 9.27760615 0 0 Z " fill="#000000" transform="translate(96,137)"/>
<path d="M0 0 C22.11 0 44.22 0 67 0 C69.31505445 9.26021782 71.24092649 18.6182746 73 28 C48.91 28 24.82 28 0 28 C0 18.76 0 9.52 0 0 Z " fill="#000000" transform="translate(189,91)"/>
<path d="M0 0 C22.11 0 44.22 0 67 0 C67 9.24 67 18.48 67 28 C43.24 28 19.48 28 -5 28 C-3.55834962 18.62927254 -1.85937219 9.29686097 0 0 Z " fill="#000000" transform="translate(105,91)"/>
<path d="M0 0 C21.78 0 43.56 0 66 0 C71.84836409 12.86640101 71.84836409 12.86640101 74.3125 19.0625 C74.57611328 19.71154297 74.83972656 20.36058594 75.11132812 21.02929688 C77 25.75342938 77 25.75342938 77 28 C53.24 28 29.48 28 5 28 C0 4 0 4 0 0 Z " fill="#000000" transform="translate(283,137)"/>
<path d="M0 0 C22.11 0 44.22 0 67 0 C62 27 62 27 61 28 C58.79132169 28.09432985 56.57958479 28.11742431 54.36889648 28.11352539 C53.67624695 28.11367142 52.98359741 28.11381744 52.2699585 28.1139679 C49.97030554 28.11326874 47.67073263 28.10547628 45.37109375 28.09765625 C43.78068588 28.09579208 42.19027743 28.09436817 40.59986877 28.09336853 C36.4060407 28.08954329 32.21224705 28.07971295 28.01843262 28.06866455 C23.74211086 28.05845057 19.46578356 28.05387094 15.18945312 28.04882812 C6.79295292 28.03809069 -1.60351926 28.02101419 -10 28 C-8.05634937 18.28174684 -3.61145718 9.22927946 0 0 Z " fill="#000000" transform="translate(12,137)"/>
<path d="M0 0 C19.14 0 38.28 0 58 0 C63 23 63 23 63 29 C42.21 29 21.42 29 0 29 C0 19.43 0 9.86 0 0 Z " fill="#000000" transform="translate(189,45)"/>
<path d="M0 0 C1.01037827 0.00222061 2.02075653 0.00444122 3.06175232 0.00672913 C4.77341331 0.00684242 4.77341331 0.00684242 6.51965332 0.00695801 C7.76129745 0.01211929 9.00294159 0.01728058 10.2822113 0.02259827 C12.17785072 0.02472069 12.17785072 0.02472069 14.11178589 0.02688599 C17.47705394 0.0315487 20.84225495 0.04053972 24.20750427 0.05158997 C27.63930164 0.06180606 31.07110613 0.06643873 34.50291443 0.07142639 C41.2405826 0.08163189 47.97813276 0.10120361 54.71580505 0.12025452 C54.71580505 9.69025452 54.71580505 19.26025452 54.71580505 29.12025452 C33.92580505 29.12025452 13.13580505 29.12025452 -8.28419495 29.12025452 C-5.99697953 14.25335434 -5.99697953 14.25335434 -4.72169495 7.87025452 C-4.47290588 6.60697327 -4.22411682 5.34369202 -3.9677887 4.04212952 C-3.05979073 0.1610868 -3.05979073 0.1610868 0 0 Z " fill="#000000" transform="translate(117.28419494628906,44.87974548339844)"/>
<path d="M0 0 C18.81 0 37.62 0 57 0 C67 25 67 25 67 28 C46.54 28 26.08 28 5 28 C0 5 0 5 0 0 Z " fill="#000000" transform="translate(274,91)"/>
<path d="M0 0 C1.01037827 0.00222061 2.02075653 0.00444122 3.06175232 0.00672913 C4.77341331 0.00684242 4.77341331 0.00684242 6.51965332 0.00695801 C7.76129745 0.01211929 9.00294159 0.01728058 10.2822113 0.02259827 C12.17785072 0.02472069 12.17785072 0.02472069 14.11178589 0.02688599 C17.47705394 0.0315487 20.84225495 0.04053972 24.20750427 0.05158997 C27.63930175 0.06180606 31.07110614 0.06638403 34.50291443 0.07142639 C41.2405633 0.08248071 47.9781803 0.09923742 54.71580505 0.12025452 C54.39997329 2.02829519 54.0835295 3.93623456 53.76683044 5.84413147 C53.59067703 6.90662613 53.41452362 7.96912079 53.23303223 9.06381226 C52.59649628 12.82528394 51.89402929 16.56535195 51.15330505 20.30775452 C50.90451599 21.5800592 50.65572693 22.85236389 50.3993988 24.16322327 C49.71580505 27.12025452 49.71580505 27.12025452 48.71580505 28.12025452 C46.78274007 28.21421509 44.84621667 28.23768969 42.91087341 28.23377991 C41.04905678 28.23366661 41.04905678 28.23366661 39.14962769 28.23355103 C37.78496766 28.22844362 36.42030803 28.22322762 35.0556488 28.21791077 C33.66702322 28.21604652 32.27839698 28.21462265 30.88977051 28.21362305 C27.22859391 28.20979838 23.56745675 28.19996855 19.90629578 28.18891907 C16.17288242 28.17870384 12.43946272 28.17412519 8.70603943 28.16908264 C1.37594329 28.15834622 -5.95412031 28.14127043 -13.28419495 28.12025452 C-11.22965049 21.88529379 -9.04839793 15.73499436 -6.65919495 9.62025452 C-6.34724182 8.81072327 -6.0352887 8.00119202 -5.71388245 7.16712952 C-5.41481995 6.39884827 -5.11575745 5.63056702 -4.80763245 4.83900452 C-4.53870178 4.14742249 -4.26977112 3.45584045 -3.99269104 2.74330139 C-2.92378434 0.29461368 -2.76168028 0.14539237 0 0 Z " fill="#000000" transform="translate(33.28419494628906,90.87974548339844)"/>
<path d="M0 0 C15.84 0 31.68 0 48 0 C46.91674484 9.74929641 44.92376056 19.38119719 43 29 C25.18 29 7.36 29 -11 29 C-7.73061338 19.19184013 -3.83969986 9.59924965 0 0 Z " fill="#000000" transform="translate(49,45)"/>
<path d="M0 0 C15.51 0 31.02 0 47 0 C49.89321675 5.78643351 52.4369718 11.32145915 54.75 17.3125 C55.06582031 18.10978516 55.38164062 18.90707031 55.70703125 19.72851562 C56.00480469 20.49486328 56.30257812 21.26121094 56.609375 22.05078125 C56.87717773 22.73825439 57.14498047 23.42572754 57.42089844 24.1340332 C58 26 58 26 58 29 C40.51 29 23.02 29 5 29 C0 6 0 6 0 0 Z " fill="#000000" transform="translate(265,45)"/>
<path d="M0 0 C16.17 0 32.34 0 49 0 C54 23 54 23 54 28 C36.18 28 18.36 28 0 28 C0 18.76 0 9.52 0 0 Z " fill="#000000" transform="translate(189,0)"/>
<path d="M0 0 C0.85049423 0.00222061 1.70098846 0.00444122 2.57725525 0.00672913 C4.01863609 0.00684242 4.01863609 0.00684242 5.48913574 0.00695801 C7.05630592 0.01469994 7.05630592 0.01469994 8.65513611 0.02259827 C9.71913132 0.02401321 10.78312653 0.02542816 11.87936401 0.02688599 C15.29293069 0.03250388 18.70643286 0.04505941 22.11997986 0.05775452 C24.42792162 0.06276721 26.73586441 0.06733052 29.04380798 0.07142639 C34.71507707 0.08163019 40.38620586 0.10120208 46.05747986 0.12025452 C46.05747986 9.36025452 46.05747986 18.60025452 46.05747986 28.12025452 C28.23747986 28.12025452 10.41747986 28.12025452 -7.94252014 28.12025452 C-7.13814514 23.68587952 -6.33377014 19.25150452 -5.50502014 14.68275452 C-5.25308899 13.28226868 -5.00115784 11.88178284 -4.74159241 10.43885803 C-4.44079773 8.79808289 -4.44079773 8.79808289 -4.13392639 7.12416077 C-3.92969055 5.99824524 -3.72545471 4.87232971 -3.51502991 3.71229553 C-2.73244898 0.1691562 -2.73244898 0.1691562 0 0 Z " fill="#000000" transform="translate(125.94252014160156,-0.1202545166015625)"/>
<path d="M0 0 C12.87 0 25.74 0 39 0 C43.50676379 9.01352758 43.50676379 9.01352758 44.921875 12.6484375 C45.22480469 13.42574219 45.52773438 14.20304688 45.83984375 15.00390625 C46.14019531 15.78636719 46.44054687 16.56882812 46.75 17.375 C47.06582031 18.18066406 47.38164062 18.98632812 47.70703125 19.81640625 C50 25.74239042 50 25.74239042 50 28 C35.48 28 20.96 28 6 28 C3.68494555 18.73978218 1.75907351 9.3817254 0 0 Z " fill="#000000" transform="translate(255,0)"/>
<path d="M0 0 C12.87 0 25.74 0 39 0 C37.95300145 9.42298694 35.95318024 18.72239385 34 28 C19.48 28 4.96 28 -10 28 C-9.2581635 23.54898097 -8.607803 20.61023253 -6.93359375 16.6015625 C-6.57064209 15.72322754 -6.20769043 14.84489258 -5.83374023 13.93994141 C-5.14260132 12.29904541 -5.14260132 12.29904541 -4.4375 10.625 C-2.973125 7.11875 -1.50875 3.6125 0 0 Z " fill="#000000" transform="translate(67,0)"/>
<path d="M0 0 C6.27 0 12.54 0 19 0 C19 3.3 19 6.6 19 10 C12.73 10 6.46 10 0 10 C0 6.7 0 3.4 0 0 Z " fill="#000000" transform="translate(455,356)"/>
<path d="M0 0 C6.27 0 12.54 0 19 0 C19 3.3 19 6.6 19 10 C12.73 10 6.46 10 0 10 C0 6.7 0 3.4 0 0 Z " fill="#000000" transform="translate(345,356)"/>
<path d="M0 0 C3.3 0 6.6 0 10 0 C10 6.27 10 12.54 10 19 C6.7 19 3.4 19 0 19 C0 12.73 0 6.46 0 0 Z " fill="#000000" transform="translate(217,219)"/>
<path d="M0 0 C3.3 0 6.6 0 10 0 C10 6.27 10 12.54 10 19 C6.7 19 3.4 19 0 19 C0 12.73 0 6.46 0 0 Z " fill="#000000" transform="translate(135,219)"/>
</svg>
