<?xml version="1.0" encoding="UTF-8"?>
<svg version="1.1" xmlns="http://www.w3.org/2000/svg" width="512" height="512">
<path d="M0 0 C1.51384529 -0.01292336 1.51384529 -0.01292336 3.05827332 -0.02610779 C6.3758653 -0.04870592 9.69260823 -0.04203917 13.01025391 -0.03295898 C15.3289922 -0.03819775 17.64772836 -0.04447516 19.96646118 -0.05174255 C24.82002814 -0.06213584 29.67330172 -0.05760114 34.52685547 -0.04296875 C40.72961397 -0.02579448 46.93144494 -0.04926622 53.13409996 -0.08445835 C57.92127558 -0.10647938 62.70823095 -0.10497919 67.49544144 -0.09669304 C69.78145997 -0.09587588 72.06749507 -0.10269389 74.35346603 -0.11746407 C77.5578285 -0.13499362 80.76054572 -0.12029567 83.96484375 -0.09765625 C84.89815018 -0.10934845 85.8314566 -0.12104065 86.79304504 -0.13308716 C94.25269414 -0.02650802 101.00823765 2.0422522 106.47493553 7.33846188 C111.04343135 12.71941334 113.07815302 19.37797023 115.29931641 25.97094727 C115.67636719 27.05182617 116.05341797 28.13270508 116.44189453 29.24633789 C118.55358723 35.32344307 120.58893882 41.42628351 122.61181641 47.53344727 C123.67710571 47.54746582 123.67710571 47.54746582 124.76391602 47.56176758 C128.02638315 47.61592522 131.28748564 47.69948296 134.54931641 47.78344727 C135.66628906 47.79762695 136.78326172 47.81180664 137.93408203 47.82641602 C146.31636728 48.07223083 152.78655929 49.40369145 159.36181641 54.78344727 C165.44683057 62.2206868 167.77314274 67.609219 167.7253418 77.23950195 C167.72548782 78.01061813 167.72563385 78.78173431 167.7257843 79.57621765 C167.72508889 82.11928136 167.71731389 84.66227139 167.70947266 87.20532227 C167.70760716 88.97080444 167.70618388 90.73628714 167.70518494 92.50177002 C167.70137016 97.14436273 167.69154873 101.78692406 167.68048096 106.42950439 C167.67024451 111.16857478 167.66568253 115.90765025 167.66064453 120.64672852 C167.64992554 129.9423152 167.63286157 139.23787862 167.61181641 148.53344727 C168.48394775 148.23051758 169.3560791 147.92758789 170.25463867 147.61547852 C173.51514671 146.48869964 176.7786759 145.37169141 180.04467773 144.26098633 C181.4532193 143.77979249 182.86047765 143.29482426 184.26635742 142.8059082 C186.29615762 142.1007667 188.33030008 141.40966578 190.36572266 140.72094727 C191.58590088 140.30200195 192.8060791 139.88305664 194.06323242 139.45141602 C198.90554815 138.19877707 202.90621766 137.96200625 207.66650391 139.55688477 C211.59900374 142.19593638 213.96566159 145.3625602 216.73681641 149.15844727 C217.31625 149.90827881 217.89568359 150.65811035 218.49267578 151.43066406 C221.3349126 155.16207272 223.8254525 158.76332105 225.82275391 163.01391602 C230.79154213 172.83177587 236.67121048 176.49265532 246.85198975 179.96965027 C253.36644161 182.08901639 259.95694507 184.0001095 266.59750366 185.68457031 C272.81785759 187.33093248 278.13160049 189.85520024 281.61181641 195.53344727 C282.53383239 198.29949522 282.70905487 199.74025433 282.62670898 202.56738281 C282.60792191 203.37640549 282.58913483 204.18542816 282.56977844 205.01896667 C282.54884628 205.89386246 282.52791412 206.76875824 282.50634766 207.67016602 C282.48226658 210.53091941 282.46881112 213.39162011 282.45532227 216.25244141 C282.43489156 218.20848038 282.39499407 220.16442727 282.33422852 222.11962891 C281.90748127 236.73976558 284.24937954 245.09774581 294.18453979 255.94332886 C296.01537656 257.98305068 297.57680135 260.15723686 299.11962891 262.42016602 C299.79251953 263.39179687 299.79251953 263.39179687 300.47900391 264.38305664 C300.89408203 264.98956055 301.30916016 265.59606445 301.73681641 266.22094727 C302.19056641 266.86999023 302.64431641 267.5190332 303.11181641 268.18774414 C306.8309073 273.59583045 309.34130173 277.57315852 308.23144531 284.4362793 C307.08321344 288.32253295 304.73456933 291.28449117 302.29931641 294.47094727 C300.75746007 296.55723839 299.22208543 298.64630303 297.70703125 300.75219727 C296.0484385 302.95386222 294.34334923 305.02218848 292.55175781 307.11157227 C283.02379888 318.69786983 282.03224148 327.98591829 282.61181641 342.65844727 C282.68096615 345.53952558 282.73244466 348.41949516 282.76318359 351.30123901 C282.78657175 353.07480797 282.83384626 354.84829001 282.90966797 356.62039185 C283.04783521 362.47369186 282.05368837 365.75170371 278.61181641 370.53344727 C273.67093029 373.81526133 268.32346873 375.29296631 262.67431641 376.97875977 C261.94583496 377.19626892 261.21735352 377.41377808 260.46679688 377.63787842 C254.35889764 379.45122304 254.35889764 379.45122304 251.30224609 380.29907227 C240.83676611 383.22423412 234.50230157 385.85759484 228.61181641 395.53344727 C227.72487738 396.76904721 226.83000529 397.99902431 225.92431641 399.22094727 C225.15150842 400.32373277 224.38065179 401.42788849 223.61181641 402.53344727 C220.57953349 406.8194569 217.51660597 411.07058314 214.29931641 415.22094727 C213.70505859 415.98793945 213.11080078 416.75493164 212.49853516 417.54516602 C209.11760305 421.10809447 206.80635431 422.41986977 201.8449707 422.89160156 C194.92109578 422.79510903 188.53463342 420.244407 182.04931641 418.03344727 C180.74178037 417.59862871 179.4338397 417.16502493 178.12548828 416.73266602 C174.95009002 415.67810571 171.7793095 414.61147167 168.61181641 413.53344727 C168.60817078 414.50317978 168.60452515 415.47291229 168.60076904 416.47203064 C168.56373179 425.63758305 168.50586417 434.80280218 168.42791367 443.96810055 C168.38850502 448.67943089 168.35628422 453.39057617 168.34082031 458.10205078 C168.32561001 462.65400381 168.29108741 467.20544785 168.24350739 471.75717354 C168.22873853 473.48853682 168.22077798 475.21997279 168.21993256 476.95139885 C168.20941354 487.69787194 167.47375427 495.62695407 161.48681641 504.78344727 C153.11562088 512.79067777 144.07596842 513.26199539 133.03613281 513.18041992 C131.48450702 513.18720689 129.93288929 513.19611606 128.38128662 513.20697021 C124.19558966 513.22963084 120.01051354 513.22098567 115.82480669 513.20507479 C111.43579036 513.19236029 107.04682495 513.20416998 102.6578064 513.21200562 C95.29586288 513.22108033 87.9341709 513.20916565 80.57226562 513.18530273 C72.06159871 513.15803481 63.55152969 513.16695518 55.04087698 513.19443476 C47.72342389 513.21711478 40.40615082 513.22033321 33.08867395 513.20724142 C28.72236276 513.19944855 24.35633292 513.19840189 19.99003983 513.21492386 C15.89065466 513.22935554 11.7920429 513.21937179 7.69274139 513.19045258 C6.18829763 513.18383726 4.68378884 513.18574717 3.17937088 513.1967659 C1.12664436 513.21041616 -0.923598 513.19332004 -2.97616577 513.16836548 C-4.12463675 513.16648035 -5.27310772 513.16459522 -6.45638084 513.16265297 C-9.38818359 512.53344727 -9.38818359 512.53344727 -11.79284096 510.22032738 C-13.38818359 507.53344727 -13.38818359 507.53344727 -13.32568359 503.90844727 C-12.09798033 499.48871553 -12.09798033 499.48871553 -9.38818359 497.53344727 C-6.68037033 497.15706635 -6.68037033 497.15706635 -3.34197998 497.15490723 C-2.07743484 497.14670456 -0.81288971 497.13850189 0.48997498 497.13005066 C1.89419665 497.13600947 3.29841723 497.14222857 4.70263672 497.14868164 C6.17939168 497.14457716 7.6561434 497.13911702 9.13288879 497.13240051 C12.31518907 497.12066368 15.49731586 497.11819543 18.67963409 497.12275696 C23.71422695 497.12955964 28.74859117 497.11370949 33.78314209 497.09436035 C44.47602116 497.0564691 55.16888051 497.04370659 65.86181641 497.03344727 C77.39168057 497.02237455 88.92143963 497.00698067 100.45123172 496.9627347 C105.45288199 496.94439778 110.45427156 496.94047949 115.4559474 496.94766998 C118.57346148 496.94919502 121.69084598 496.93838743 124.80832481 496.92429161 C126.25023344 496.92029863 127.69216689 496.92139745 129.13406563 496.92806435 C139.34662219 497.17344243 139.34662219 497.17344243 148.61181641 493.53344727 C152.80969947 485.13768114 151.22104081 474.91206153 151.61181641 465.53344727 C79.34181641 465.53344727 7.07181641 465.53344727 -67.38818359 465.53344727 C-67.34143901 485.21631933 -67.34143901 485.21631933 -64.38818359 494.53344727 C-57.33672912 496.58328868 -50.77041376 496.88143718 -43.45849609 496.92407227 C-37.00263214 497.09960935 -37.00263214 497.09960935 -33.81005859 499.35375977 C-31.70913648 502.5744041 -31.85163332 504.77759536 -32.38818359 508.53344727 C-34.53949594 511.39759779 -35.72583648 512.41513113 -39.28564453 513.05102539 C-40.93741699 513.05779297 -40.93741699 513.05779297 -42.62255859 513.06469727 C-43.83685547 513.06985352 -45.05115234 513.07500977 -46.30224609 513.08032227 C-47.56810547 513.06485352 -48.83396484 513.04938477 -50.13818359 513.03344727 C-51.38857422 513.04891602 -52.63896484 513.06438477 -53.92724609 513.08032227 C-62.74801363 513.04302515 -68.32981953 512.03839805 -75.13818359 506.15844727 C-81.60297555 498.61618998 -83.6359148 491.8633084 -83.64265919 482.04893684 C-83.64586567 481.33696185 -83.64907214 480.62498686 -83.65237579 479.89143687 C-83.66064451 477.5174764 -83.65476258 475.14377028 -83.64888 472.76980591 C-83.65190212 471.04586016 -83.6557919 469.32191575 -83.66047257 467.5979737 C-83.67075359 462.86947362 -83.66857047 458.14104936 -83.66429198 453.41254306 C-83.66182496 448.30950525 -83.67083862 443.20648571 -83.67832947 438.10345459 C-83.69107908 428.1095021 -83.69286983 418.11557647 -83.6905292 408.12161721 C-83.6887462 399.99832033 -83.69049531 391.8750316 -83.69475365 383.75173569 C-83.69534884 382.59560584 -83.69594402 381.43947599 -83.69655725 380.2483119 C-83.697769 377.89963548 -83.69898313 375.55095907 -83.70019963 373.20228265 C-83.71107615 351.1761592 -83.70891212 329.15005106 -83.70281478 307.12392674 C-83.69764536 286.97500873 -83.70890153 266.82613906 -83.727913 246.67723061 C-83.74728609 225.98639742 -83.75554834 205.29558711 -83.75178975 184.60474479 C-83.74987692 172.98918751 -83.75237323 161.37367138 -83.76650429 149.75812149 C-83.77841228 139.86985338 -83.77982946 129.98165175 -83.76771412 120.09338273 C-83.76182143 115.04913132 -83.76073688 110.00500155 -83.77271652 104.96075821 C-83.78356145 100.34058697 -83.78048844 95.72063913 -83.76645484 91.1004784 C-83.7638041 89.43164093 -83.76618629 87.76278604 -83.7741907 86.09396566 C-83.87095555 64.4097212 -83.87095555 64.4097212 -76.76318359 56.65844727 C-76.15216797 55.95977539 -75.54115234 55.26110352 -74.91162109 54.54125977 C-67.07406344 48.30518448 -59.58410004 48.00262953 -49.82568359 48.28344727 C-48.62621094 48.30149414 -47.42673828 48.31954102 -46.19091797 48.33813477 C-43.25582307 48.38490919 -40.32243957 48.45044144 -37.38818359 48.53344727 C-37.14326172 47.31657227 -36.89833984 46.09969727 -36.64599609 44.84594727 C-35.25274268 38.6092472 -33.29084254 32.58864796 -31.26318359 26.53344727 C-30.90998047 25.40938477 -30.55677734 24.28532227 -30.19287109 23.12719727 C-27.22086309 14.29372904 -23.25275897 7.08248893 -14.88995361 2.44789124 C-9.93704981 0.03283327 -5.43414816 -0.03783262 0 0 Z M-11.19799805 20.37280273 C-12.58810389 22.89637949 -13.5310429 25.36552014 -14.43115234 28.10375977 C-14.78242188 29.1646582 -15.13369141 30.22555664 -15.49560547 31.31860352 C-15.85203125 32.42075195 -16.20845703 33.52290039 -16.57568359 34.65844727 C-16.94371094 35.76833008 -17.31173828 36.87821289 -17.69091797 38.02172852 C-19.60413124 43.17347222 -19.60413124 43.17347222 -20.38818359 48.53344727 C21.19181641 48.53344727 62.77181641 48.53344727 105.61181641 48.53344727 C99.59324038 23.76951524 99.59324038 23.76951524 91.61181641 16.53344727 C87.60872984 14.98053768 83.25242038 15.37812891 79.00708008 15.37231445 C77.70633797 15.3648671 77.70633797 15.3648671 76.37931824 15.35726929 C73.51279911 15.34267391 70.64633533 15.33585002 67.77978516 15.33032227 C65.78444925 15.32456865 63.78911335 15.31881094 61.79377747 15.31304932 C57.60999291 15.30254679 53.42622752 15.29669923 49.24243164 15.29321289 C43.88921496 15.28772981 38.53625284 15.26370249 33.18311596 15.23524094 C29.06093105 15.21659022 24.93880717 15.21140766 20.81658363 15.20987701 C18.84347454 15.20685546 16.87036639 15.19884373 14.89729881 15.18569183 C12.1329159 15.16858056 9.36915115 15.17052399 6.60473633 15.17700195 C5.79462097 15.16778717 4.98450562 15.15857239 4.14984131 15.14907837 C-1.69310504 15.19183173 -6.91397596 16.01885394 -11.19799805 20.37280273 Z M-65.38818359 68.53344727 C-68.81184785 76.19508045 -68.81184785 76.19508045 -67.38818359 96.53344727 C4.88181641 96.53344727 77.15181641 96.53344727 151.61181641 96.53344727 C154.2792514 73.43266098 154.2792514 73.43266098 146.61181641 65.53344727 C143.4606827 63.95788041 140.08257104 64.3854671 136.62236023 64.38627625 C135.78705097 64.38259956 134.95174172 64.37892287 134.09112006 64.37513477 C131.27599124 64.36407096 128.46089929 64.36024954 125.64575195 64.35644531 C123.63388959 64.35018275 121.62202838 64.34353614 119.61016846 64.33653259 C114.13285715 64.31910477 108.65555459 64.3085662 103.17822242 64.30032706 C99.75862777 64.2951812 96.33903585 64.28910532 92.91944313 64.28281593 C82.22737402 64.26375979 71.53531183 64.24952896 60.843229 64.24120396 C48.48773746 64.2314258 36.1324248 64.20509285 23.77699631 64.16470307 C14.23555397 64.13457895 4.69416301 64.11973865 -4.84732598 64.11642295 C-10.55013116 64.11406843 -16.25274534 64.10505569 -21.95549965 64.07996178 C-27.31940525 64.05674056 -32.68299327 64.05242386 -38.04693604 64.06272316 C-40.01700583 64.06322007 -41.98709095 64.0568543 -43.95711327 64.04316711 C-46.64438478 64.02553948 -49.33050526 64.03250903 -52.01777649 64.04570007 C-52.79949244 64.03473083 -53.5812084 64.02376158 -54.38661271 64.01245993 C-59.34316424 64.07130136 -62.00776642 64.86326765 -65.38818359 68.53344727 Z M-67.38818359 111.53344727 C-67.38818359 223.07344727 -67.38818359 334.61344727 -67.38818359 449.53344727 C4.88181641 449.53344727 77.15181641 449.53344727 151.61181641 449.53344727 C151.61181641 337.99344727 151.61181641 226.45344727 151.61181641 111.53344727 C79.34181641 111.53344727 7.07181641 111.53344727 -67.38818359 111.53344727 Z M190.65869141 157.62329102 C189.66835907 157.95835411 189.66835907 157.95835411 188.65802002 158.30018616 C186.55578718 159.01396269 184.45890249 159.74220504 182.36181641 160.47094727 C180.93506162 160.9582384 179.50798139 161.44457781 178.08056641 161.92993164 C174.5863721 163.11836401 171.09979102 164.32623464 167.61181641 165.53344727 C167.61181641 174.44344727 167.61181641 183.35344727 167.61181641 192.53344727 C170.27244141 193.06969727 172.93306641 193.60594727 175.67431641 194.15844727 C198.98398342 199.17987663 198.98398342 199.17987663 205.61181641 207.53344727 C205.88134766 209.99047852 205.88134766 209.99047852 205.42431641 212.34594727 C205.28638672 213.13614258 205.14845703 213.92633789 205.00634766 214.74047852 C204.87615234 215.3321582 204.74595703 215.92383789 204.61181641 216.53344727 C198.01174885 217.87269864 194.35491752 217.1166793 188.36181641 214.22094727 C181.3088702 210.85630084 175.74856543 209.8895721 167.61181641 208.53344727 C167.61181641 256.05344727 167.61181641 303.57344727 167.61181641 352.53344727 C186.36064662 350.65856424 200.68743121 343.22372196 213.61181641 329.53344727 C228.68685666 310.84989344 233.03424432 292.00350785 231.61181641 268.53344727 C230.39620487 257.58102569 224.75567148 246.99786119 218.85400391 237.79125977 C217.00918489 234.43809816 217.65851017 232.1423923 218.61181641 228.53344727 C222.47340775 225.95905303 224.03783905 225.69488475 228.61181641 226.53344727 C240.84234495 236.81575002 245.79675174 257.69298114 247.48681641 272.84594727 C248.77796773 298.92720394 240.0187553 323.1603169 222.61181641 342.53344727 C207.64318405 358.25878774 188.69463942 365.52161541 167.61181641 368.53344727 C167.61181641 377.44344727 167.61181641 386.35344727 167.61181641 395.53344727 C175.57037114 398.75626146 175.57037114 398.75626146 183.61962891 401.45532227 C184.62509766 401.75825195 185.63056641 402.06118164 186.66650391 402.37329102 C187.67970703 402.67364258 188.69291016 402.97399414 189.73681641 403.28344727 C191.31462891 403.75717773 191.31462891 403.75717773 192.92431641 404.24047852 C195.48562971 405.00887251 198.04810065 405.77311546 200.61181641 406.53344727 C202.10296157 404.51875308 203.59304238 402.5032855 205.08178711 400.48681641 C206.35930134 398.75775992 207.63911516 397.03040029 208.92114258 395.3046875 C211.84724476 391.35215349 214.74048988 387.39895928 217.45166016 383.29516602 C217.87463379 382.66497559 218.29760742 382.03478516 218.73339844 381.38549805 C219.850496 379.7068746 220.94489203 378.01320614 222.03759766 376.31860352 C228.86421459 368.93259763 241.32557165 366.84674228 250.67431641 363.78344727 C252.2232838 363.27215023 253.77211316 362.76043484 255.32080078 362.24829102 C259.08289856 361.00518048 262.84681926 359.76774727 266.61181641 358.53344727 C266.60545166 357.28845459 266.59908691 356.04346191 266.5925293 354.76074219 C266.57798537 350.09538602 266.60965134 345.43124461 266.65454102 340.76611328 C266.66759644 338.7557389 266.66849298 336.74524425 266.65649414 334.73486328 C266.54706769 313.75103948 266.54706769 313.75103948 274.61181641 304.53344727 C275.66399798 303.10826423 276.70871598 301.67753007 277.74462891 300.24047852 C278.73778601 298.93905577 279.73511139 297.64080218 280.73681641 296.34594727 C284.67666346 291.24043486 288.28684406 286.06256337 291.61181641 280.53344727 C289.82068839 277.9913996 288.02894949 275.44978627 286.23681641 272.90844727 C285.69750488 272.14314697 285.15819336 271.37784668 284.60253906 270.58935547 C281.96991678 266.85768104 279.32986165 263.13218297 276.65869141 259.42797852 C275.9807251 258.48656006 275.9807251 258.48656006 275.2890625 257.52612305 C274.44028215 256.34954226 273.589156 255.17464906 272.73535156 254.00170898 C269.67407355 249.75500539 267.38901234 246.53828902 267.29296875 241.22387695 C267.27309906 240.3833075 267.25322937 239.54273804 267.23275757 238.67669678 C267.22120636 237.77864319 267.20965515 236.8805896 267.19775391 235.95532227 C267.17838776 235.02874817 267.15902161 234.10217407 267.1390686 233.14752197 C267.07936874 230.19292356 267.03292572 227.23828598 266.98681641 224.28344727 C266.94862781 222.2782221 266.90957556 220.27301318 266.86962891 218.26782227 C266.773675 213.35649616 266.68960838 208.44509326 266.61181641 203.53344727 C261.84676321 201.42306685 257.06449146 199.61294424 252.10400391 198.01000977 C250.69100287 197.54198559 249.2782495 197.07321315 247.86572266 196.60375977 C245.67149817 195.8771042 243.47621328 195.15502766 241.27636719 194.44555664 C239.13079532 193.75155567 236.99225846 193.03869033 234.85400391 192.32250977 C234.20180878 192.11711578 233.54961365 191.9117218 232.87765503 191.70010376 C225.90963105 189.32926015 222.30965607 184.34030676 217.98681641 178.65844727 C217.56513184 178.10833984 217.14344727 177.55823242 216.70898438 176.99145508 C214.29934958 173.82985871 211.9562047 170.62900193 209.65869141 167.38500977 C209.17094238 166.70164551 208.68319336 166.01828125 208.18066406 165.31420898 C207.23314498 163.98152996 206.29495541 162.6421581 205.3671875 161.2956543 C203.10630339 157.98359408 203.10630339 157.98359408 199.89355469 155.72021484 C196.48479489 155.44119695 193.88152576 156.51714871 190.65869141 157.62329102 Z " fill="#000000" transform="translate(143.38818359375,-0.533447265625)"/>
<path d="M0 0 C2.375 1.5625 2.375 1.5625 4 4 C5.26272208 10.22775648 4.70405586 14.7009514 2.92626953 20.73925781 C2.69393616 21.57280792 2.46160278 22.40635803 2.222229 23.26516724 C1.45655645 25.998696 0.66987596 28.7256862 -0.1171875 31.453125 C-0.65563535 33.35987524 -1.19273457 35.26700678 -1.72854614 37.17449951 C-3.13866672 42.18098413 -4.56662753 47.18220498 -5.99853516 52.18249512 C-7.45357489 57.27493155 -8.89227623 62.37197533 -10.33203125 67.46875 C-11.95025058 73.19393397 -13.57026053 78.91857026 -15.20187378 84.63995361 C-15.57359207 85.94363388 -15.57359207 85.94363388 -15.95281982 87.27365112 C-16.41509155 88.89377355 -16.87791451 90.51373884 -17.34140015 92.1335144 C-18.27688847 95.41181847 -19.18585046 98.68956228 -20 102 C-18.79849808 102.00879936 -18.79849808 102.00879936 -17.57272339 102.01777649 C-10.01028587 102.07576972 -2.44817533 102.147884 5.1139698 102.23571491 C9.00141436 102.28037165 12.88875525 102.31963783 16.77636719 102.34643555 C20.53076287 102.37251583 24.28475866 102.41295086 28.0389061 102.46318626 C29.46851488 102.47982321 30.89819278 102.49135723 32.32788467 102.49761391 C34.33605235 102.50728867 36.34409223 102.53707427 38.35205078 102.56762695 C39.49344513 102.57873001 40.63483948 102.58983307 41.81082153 102.60127258 C45.46462847 103.05809023 47.86931283 104.08140728 51 106 C53.71719796 110.07579695 53.82203403 113.21286067 53 118 C51.52217296 121.1185755 49.52046445 123.6846169 47.375 126.375 C46.79105469 127.14392578 46.20710937 127.91285156 45.60546875 128.70507812 C44.37228832 130.32872187 43.13089502 131.94615686 41.88183594 133.55761719 C38.85320567 137.48839264 35.9331026 141.49776873 33 145.5 C31.82317261 147.093939 30.6460895 148.68768923 29.46875 150.28125 C26.11530834 154.83234939 22.80250014 159.41185503 19.5 164 C14.45992181 171.00215242 9.35786615 177.95613256 4.23046875 184.89453125 C0.28584596 190.23857676 -3.61969056 195.60910781 -7.5 201 C-12.54007819 208.00215242 -17.64213385 214.95613256 -22.76953125 221.89453125 C-26.71415591 227.23857929 -30.6195036 232.60924039 -34.5 238 C-39.09349724 244.37750959 -43.71762844 250.73146337 -48.375 257.0625 C-48.93380859 257.82369141 -49.49261719 258.58488281 -50.06835938 259.36914062 C-51.70282612 261.58665139 -53.34751739 263.79588407 -55 266 C-55.92280762 267.23145752 -55.92280762 267.23145752 -56.86425781 268.48779297 C-57.78609863 269.69846436 -57.78609863 269.69846436 -58.7265625 270.93359375 C-59.28166504 271.66505615 -59.83676758 272.39651855 -60.40869141 273.15014648 C-62.86191132 276.00194877 -64.57823286 276.94429491 -68.3125 277.4375 C-73.06806915 276.87327993 -74.82744557 275.55023948 -78 272 C-79.5533077 265.97345005 -78.44026413 261.24692788 -76.91040039 255.39282227 C-76.67646072 254.45545731 -76.44252106 253.51809235 -76.20149231 252.55232239 C-75.42911712 249.47045393 -74.63853689 246.39357274 -73.84765625 243.31640625 C-73.30701103 241.17435208 -72.76751181 239.03200837 -72.22911072 236.88938904 C-70.81189682 231.2624474 -69.37917849 225.63956675 -67.94317627 220.01739502 C-66.47941079 214.27503968 -65.03036954 208.5289733 -63.58007812 202.78320312 C-60.73443621 191.51845835 -57.87239807 180.25794958 -55 169 C-56.22362495 169.0199855 -56.22362495 169.0199855 -57.4719696 169.04037476 C-65.16687801 169.16069296 -72.8613292 169.2519943 -80.5569334 169.31087303 C-84.51321792 169.34216157 -88.46872404 169.38458591 -92.42456055 169.45263672 C-96.24365169 169.51792255 -100.06199517 169.55372469 -103.88160133 169.56926346 C-105.33732689 169.58033371 -106.79301237 169.60195277 -108.24841881 169.63438034 C-119.60083679 169.87721685 -119.60083679 169.87721685 -123.00845337 167.74078369 C-125.22510312 165.22097096 -126.01057973 162.94902492 -126.6875 159.6875 C-126.01857811 156.09964622 -125.36562542 154.73411678 -123.36328125 151.82421875 C-122.54694214 150.63614624 -122.54694214 150.63614624 -121.71411133 149.42407227 C-119.02467094 145.62070328 -116.28014043 141.8624792 -113.5 138.125 C-112.26293864 136.45448794 -111.02596191 134.78391322 -109.7890625 133.11328125 C-109.16161133 132.26717285 -108.53416016 131.42106445 -107.88769531 130.54931641 C-105.46101593 127.27210661 -103.04596412 123.98642692 -100.63085938 120.70068359 C-95.30360761 113.45496936 -89.94023557 106.2383345 -84.53417969 99.05126953 C-78.89690914 91.5479322 -73.34128721 83.98469459 -67.78222656 76.42333984 C-64.85769254 72.44677482 -61.92864567 68.47353729 -59 64.5 C-57.83331112 62.91668304 -56.66664447 61.33334969 -55.5 59.75 C-53.16666667 56.58333333 -50.83333333 53.41666667 -48.5 50.25 C-47.92233887 49.4660083 -47.34467773 48.6820166 -46.74951172 47.87426758 C-45.58456151 46.29331017 -44.41952266 44.71241808 -43.25439453 43.1315918 C-39.71527018 38.32948388 -36.17956061 33.52488568 -32.64624023 28.71850586 C-30.90173871 26.34882116 -29.15236547 23.98279724 -27.40234375 21.6171875 C-25.12256069 18.53358044 -22.86804785 15.43353653 -20.62890625 12.3203125 C-19.56525492 10.85926524 -18.50145957 9.39832281 -17.4375 7.9375 C-16.96103027 7.26436768 -16.48456055 6.59123535 -15.99365234 5.89770508 C-11.50286145 -0.22181627 -7.67323671 -1.95318753 0 0 Z M-22 42 C-29.22167245 51.33735064 -36.31435628 60.74540675 -43.19433594 70.33764648 C-46.72034701 75.247061 -50.29928646 80.11069472 -53.9375 84.9375 C-60.09349787 93.10480307 -66.15970129 101.3365571 -72.21777344 109.57666016 C-74.56224928 112.76450498 -76.90962963 115.95020319 -79.25756836 119.13549805 C-80.41262726 120.70292771 -81.56709392 122.27079399 -82.72094727 123.83911133 C-85.78754805 128.00603222 -88.86490795 132.16447442 -91.95703125 136.3125 C-92.60220703 137.18068359 -93.24738281 138.04886719 -93.91210938 138.94335938 C-95.15370553 140.61370815 -96.39836895 142.28178253 -97.64648438 143.94726562 C-98.20271484 144.69685547 -98.75894531 145.44644531 -99.33203125 146.21875 C-99.82421143 146.87810547 -100.3163916 147.53746094 -100.82348633 148.21679688 C-102.17765491 150.10213635 -102.17765491 150.10213635 -103 153 C-102.29922333 153.00808685 -101.59844666 153.01617371 -100.87643433 153.02450562 C-94.25588691 153.10261052 -87.63553221 153.18994853 -81.01524162 153.28752708 C-77.61209016 153.33736502 -74.20896787 153.38369544 -70.80566406 153.421875 C-66.88849738 153.46597575 -62.97163868 153.5255753 -59.0546875 153.5859375 C-57.83884979 153.59748871 -56.62301208 153.60903992 -55.37033081 153.62094116 C-54.22960114 153.64081085 -53.08887146 153.66068054 -51.91357422 153.68115234 C-50.91429901 153.69447601 -49.9150238 153.70779968 -48.88546753 153.7215271 C-45.63491032 154.03523435 -43.00669049 154.725947 -40 156 C-36.74516994 160.88224509 -37.55145754 165.70733721 -38.63577271 171.24966431 C-39.38313026 174.40479482 -40.16787314 177.54636321 -40.99370003 180.68184853 C-41.54542866 182.77729554 -42.08354675 184.87584741 -42.61851501 186.97563171 C-43.7545413 191.42438068 -44.90768325 195.86859807 -46.0625 200.3125 C-47.40479139 205.48295693 -48.7399487 210.65509759 -50.05996513 215.83128929 C-50.5900799 217.89626875 -51.13165263 219.95801546 -51.67384338 222.01985168 C-51.99425095 223.27182846 -52.31465851 224.52380524 -52.64477539 225.8137207 C-52.93123428 226.91464554 -53.21769318 228.01557037 -53.51283264 229.14985657 C-53.98240522 231.89706282 -53.93746733 233.41326147 -53 236 C-52.67950684 235.55422607 -52.35901367 235.10845215 -52.02880859 234.64916992 C-45.73282036 225.8978131 -39.40747079 217.17014828 -33 208.5 C-28.46247452 202.35985113 -23.96020842 196.1965426 -19.5 190 C-14.45992181 182.99784758 -9.35786615 176.04386744 -4.23046875 169.10546875 C-0.28584561 163.76142277 3.61966031 158.39087095 7.5 153 C24.27910943 129.69136973 24.27910943 129.69136973 29.68115234 122.88037109 C31.1914061 121.10989434 31.1914061 121.10989434 31 119 C30.20930618 118.99857498 29.41861237 118.99714996 28.60395813 118.99568176 C21.14409712 118.97783545 13.68492586 118.93617485 6.22536945 118.86790943 C2.39048286 118.83365089 -1.44400588 118.80853135 -5.27905273 118.80444336 C-8.98174943 118.80015775 -12.68354882 118.77167546 -16.38596535 118.72656822 C-17.79686057 118.71360123 -19.20786323 118.70928279 -20.61881065 118.71384621 C-22.59840848 118.71875663 -24.57800184 118.68977706 -26.55737305 118.65942383 C-28.24614815 118.64943108 -28.24614815 118.64943108 -29.96903992 118.63923645 C-34.07164596 117.7739874 -35.55518216 116.37613637 -38 113 C-38.57422511 108.22790094 -37.74340475 104.23590361 -36.42358398 99.65332031 C-36.08000351 98.44226624 -35.73642303 97.23121216 -35.38243103 95.98345947 C-35.19719313 95.3469471 -35.01195522 94.71043472 -34.82110405 94.05463409 C-34.23724968 92.04772488 -33.66497551 90.03782039 -33.09547424 88.02679443 C-31.88633294 83.76492041 -30.66276808 79.50726098 -29.4375 75.25 C-28.01376307 70.30081262 -26.59600118 65.35005134 -25.19221687 60.39516449 C-24.62802128 58.41493939 -24.05356288 56.43788203 -23.47862244 54.46075439 C-23.13819412 53.26230896 -22.79776581 52.06386353 -22.44702148 50.82910156 C-22.1427977 49.77321838 -21.83857391 48.71733521 -21.52513123 47.62945557 C-20.7554602 44.90712333 -20.7554602 44.90712333 -22 42 Z " fill="#000000" transform="translate(222,142)"/>
</svg>
