<?xml version="1.0" encoding="UTF-8"?>
<svg version="1.1" xmlns="http://www.w3.org/2000/svg" width="512" height="512">
<path d="M0 0 C4.04677254 0.84307761 5.39743345 2.45704946 8 5.625 C8.62559515 8.63143408 8.62559515 8.63143408 8.62641239 12.05040932 C8.63883443 13.35637082 8.65125647 14.66233232 8.66405493 16.00786841 C8.65255382 17.45549546 8.6405816 18.90311883 8.62818909 20.35073853 C8.63323367 21.88989793 8.64046183 23.42905148 8.64968723 24.9681915 C8.66865054 29.20004348 8.65635288 33.43131913 8.6389643 37.66315675 C8.62561428 42.22640705 8.6410192 46.78957168 8.65278625 51.35281372 C8.67118756 60.29480456 8.66263278 69.2365772 8.64469803 78.17856129 C8.63068025 85.44810089 8.62677747 92.7175812 8.6301403 99.98713303 C8.63061775 101.02126473 8.63109519 102.05539643 8.6315871 103.12086546 C8.63261343 105.22167276 8.63366879 107.32248005 8.63475286 109.42328732 C8.64332563 128.01156463 8.62662909 146.5997366 8.59692383 165.18798828 C8.56811008 183.21863231 8.56099031 201.24912443 8.57641602 219.27978516 C8.59318853 238.91156454 8.59719971 258.54327173 8.57970566 278.175053 C8.57786129 280.27002612 8.57602656 282.36499925 8.57420158 284.45997238 C8.57328949 285.49072685 8.5723774 286.52148132 8.57143768 287.58347077 C8.56583689 294.83949975 8.56913543 302.09549347 8.57574654 309.35152054 C8.58348974 318.20159109 8.57669237 327.05151224 8.5515715 335.90155275 C8.53909647 340.4153187 8.53290547 344.92885231 8.54411316 349.44262695 C8.55419065 353.57948783 8.5456216 357.71588647 8.52253198 361.85269134 C8.51739377 363.34464459 8.51889628 364.83663961 8.52792663 366.32857437 C8.58314831 376.28479936 7.60335575 384.90933226 2.1875 393.5 C-4.09160574 399.59970272 -10.15845518 402.87017886 -19.11675739 402.88226891 C-20.32840826 402.8887178 -21.54005913 402.89516669 -22.7884267 402.901811 C-24.12443923 402.89886904 -25.46045134 402.89573363 -26.79646301 402.89242554 C-28.22241048 402.89616345 -29.6483559 402.90076554 -31.07429808 402.90615618 C-34.98833456 402.91838411 -38.90228554 402.91812597 -42.81633675 402.91576743 C-47.03936016 402.91535921 -51.26235618 402.92639887 -55.48536682 402.93588257 C-63.75738077 402.9524923 -72.02936622 402.9579921 -80.30139545 402.95910732 C-87.02553147 402.96005779 -93.74965808 402.96416802 -100.47379112 402.97050858 C-119.53954086 402.98812075 -138.60526809 402.99734746 -157.67102603 402.99584763 C-158.69876957 402.99576772 -159.72651311 402.9956878 -160.78540039 402.99560547 C-161.8143993 402.99552371 -162.84339821 402.99544195 -163.9035789 402.99535771 C-180.58079443 402.99454477 -197.25791965 403.01368454 -213.93510906 403.0418822 C-231.06068684 403.07060944 -248.18622058 403.08442259 -265.31182307 403.08269465 C-274.92593143 403.0820307 -284.5399451 403.08752507 -294.15403175 403.10905075 C-302.33950139 403.12726041 -310.52483343 403.13161164 -318.71031455 403.1180319 C-322.88564196 403.11150122 -327.06070538 403.11138857 -331.23600769 403.1287384 C-335.06122501 403.14446987 -338.88596902 403.14160508 -342.71117481 403.12417014 C-344.74424504 403.11965048 -346.77732995 403.13475695 -348.81034309 403.15064943 C-357.53478733 403.0848474 -364.10790877 401.99814573 -370.8125 396.1875 C-371.534375 395.341875 -372.25625 394.49625 -373 393.625 C-374.051875 392.51125 -374.051875 392.51125 -375.125 391.375 C-379.86436488 384.42393151 -380.44253272 377.06911408 -380.40405273 368.86035156 C-380.41091599 367.82343674 -380.41777924 366.78652191 -380.42485046 365.71818542 C-380.44303803 362.31718971 -380.43929428 358.91665853 -380.43359375 355.515625 C-380.43815753 353.14149832 -380.4434637 350.76737296 -380.44947815 348.39324951 C-380.45839202 343.43056856 -380.45600346 338.46804872 -380.44604492 333.50537109 C-380.43452387 327.14422243 -380.45482397 320.7836263 -380.48396206 314.4225502 C-380.50229342 309.52580231 -380.50203826 304.62918782 -380.49632454 299.73241425 C-380.49617113 297.3864438 -380.50223156 295.04046443 -380.51461601 292.69452667 C-380.52947563 289.42001891 -380.5188872 286.14654545 -380.50170898 282.87207031 C-380.51137695 281.90365707 -380.52104492 280.93524384 -380.53100586 279.93748474 C-380.48363677 275.63039049 -380.39122921 273.26142582 -378.09364319 269.52386475 C-375.83360083 267.47408148 -375.00153169 266.96283977 -372 267.0625 C-371.34 267.06121094 -370.68 267.05992187 -370 267.05859375 C-368 267.625 -368 267.625 -364 271.625 C-364 277.895 -364 284.165 -364 290.625 C-246.52 290.625 -129.04 290.625 -8 290.625 C-8.19805593 197.05620288 -8.19805593 197.05620288 -8.45043945 103.48754883 C-8.47302246 85.41931152 -8.47302246 85.41931152 -8.47721863 76.9695282 C-8.48189012 71.04881416 -8.5002677 65.12833478 -8.52787781 59.20768738 C-8.55965666 52.38304053 -8.57419108 45.55861952 -8.56722475 38.73389808 C-8.56420645 35.24104794 -8.56906288 31.74870284 -8.59607565 28.25594485 C-8.62081651 24.51887152 -8.61499916 20.78307521 -8.60127258 17.04597473 C-8.61583591 15.95193172 -8.63039923 14.8578887 -8.64540386 13.73069286 C-8.57263834 6.39858347 -8.57263834 6.39858347 -5.64992046 2.45025158 C-3 0.625 -3 0.625 0 0 Z M-364 305.625 C-369.10770495 345.95522832 -369.10770495 345.95522832 -361 382.625 C-356.17570587 387.07819458 -352.76534627 387.7484473 -346.34239483 387.75642776 C-345.1822602 387.76026891 -344.02212556 387.76411005 -342.82683533 387.7680676 C-341.5514667 387.76720112 -340.27609807 387.76633463 -338.96208191 387.76544189 C-337.59418396 387.76802578 -336.22628677 387.77103901 -334.85839063 387.7744453 C-331.09561602 387.78251567 -327.33286049 387.78430489 -323.57007825 387.78504276 C-319.51339352 387.78689323 -315.45671869 387.79444049 -311.40003967 387.80117798 C-302.52819001 387.81476167 -293.65634486 387.82078596 -284.78448653 387.82518864 C-279.24586818 387.82795076 -273.70725158 387.83218804 -268.16863441 387.83669281 C-252.83638589 387.84888508 -237.50413876 387.85918477 -222.17188549 387.8625679 C-221.19053997 387.86278747 -220.20919446 387.86300703 -219.1981112 387.86323325 C-218.21440908 387.86345153 -217.23070696 387.86366981 -216.21719569 387.8638947 C-214.22381731 387.86433817 -212.23043893 387.86478473 -210.23706055 387.86523438 C-208.75388166 387.86556652 -208.75388166 387.86556652 -207.24073956 387.86590537 C-191.21518273 387.86985426 -175.18967135 387.88731124 -159.16413208 387.9105939 C-142.71437932 387.93430017 -126.26464937 387.94676941 -109.81487924 387.94793582 C-100.57752623 387.94885294 -91.34023244 387.95461465 -82.10289574 387.97275543 C-74.23793743 387.98814658 -66.37305666 387.99328268 -58.50808617 387.98501733 C-54.49507969 387.98110744 -50.48222941 387.98205689 -46.4692421 387.99607468 C-42.79462086 388.0087932 -39.12027351 388.00763428 -35.44565276 387.99548396 C-33.48855591 387.99259553 -31.53145441 388.00447822 -29.57439488 388.01690602 C-23.29980277 387.98150356 -18.47888659 387.81743385 -13 384.625 C4.93628625 365.27269115 -8 332.01102324 -8 305.625 C-125.48 305.625 -242.96 305.625 -364 305.625 Z " fill="#000000" transform="translate(442,109.375)"/>
<path d="M0 0 C1.21165087 -0.00644889 2.42330174 -0.01289778 3.6716693 -0.0195421 C5.00768183 -0.01660014 6.34369395 -0.01346472 7.67970562 -0.01015663 C9.10565309 -0.01389455 10.53159851 -0.01849663 11.95754069 -0.02388728 C15.87157716 -0.03611521 19.78552815 -0.03585706 23.69957936 -0.03349853 C27.92260277 -0.03309031 32.14559879 -0.04412997 36.36860943 -0.05361366 C44.64062338 -0.07022339 52.91260883 -0.07572319 61.18463806 -0.07683842 C67.90877408 -0.07778889 74.63290069 -0.08189911 81.35703373 -0.08823967 C100.42278347 -0.10585184 119.4885107 -0.11507855 138.55426864 -0.11357872 C140.09588394 -0.11345885 140.09588394 -0.11345885 141.668643 -0.11333656 C143.21214136 -0.11321392 143.21214136 -0.11321392 144.78682151 -0.1130888 C161.46403704 -0.11227586 178.14116226 -0.13141563 194.81835166 -0.1596133 C211.94392945 -0.18834054 229.06946318 -0.20215369 246.19506568 -0.20042574 C255.80917403 -0.1997618 265.42318771 -0.20525616 275.03727436 -0.22678185 C283.222744 -0.2449915 291.40807604 -0.24934273 299.59355716 -0.235763 C303.76888457 -0.22923231 307.94394798 -0.22911967 312.1192503 -0.2464695 C315.94446762 -0.26220096 319.76921163 -0.25933617 323.59441742 -0.24190123 C325.62748764 -0.23738157 327.66057256 -0.25248804 329.69358569 -0.26838052 C338.41802994 -0.20257849 344.99115138 0.88412317 351.69574261 6.69476891 C352.41761761 7.54039391 353.13949261 8.38601891 353.88324261 9.25726891 C354.58449261 9.99976891 355.28574261 10.74226891 356.00824261 11.50726891 C361.49798227 19.55888708 361.35054459 28.28133862 361.35199261 37.74164391 C361.35910767 39.12928125 361.3668086 40.51691571 361.3750639 41.90454674 C361.38843219 44.79580466 361.39010982 47.68678972 361.38421917 50.57806969 C361.37829607 54.27602458 361.40905486 57.97267875 361.44933605 61.67038155 C361.47521028 64.52894664 361.47809148 67.38719691 361.47444439 70.24586296 C361.47613249 71.60939648 361.48574535 72.97294503 361.50358868 74.33636284 C361.64295148 86.28826586 361.64295148 86.28826586 358.53363323 89.59027672 C355.23660131 91.66398102 353.70488603 92.05344462 349.88324261 91.25726891 C347.29137143 89.60863443 346.30852714 88.88613628 344.88324261 86.25726891 C344.14116312 81.71069603 344.23422686 77.19850474 344.28168011 72.60101891 C344.27617581 71.25249515 344.26804748 69.90397978 344.25741863 68.55548668 C344.23457194 65.01283175 344.238737 61.47079478 344.25122356 57.92810631 C344.26955494 52.25861 344.25950697 46.58947528 344.22536373 40.92006493 C344.21927818 38.94534452 344.23314981 36.97059511 344.24734783 34.99591637 C344.24369213 33.79116661 344.24003643 32.58641685 344.23626995 31.34515953 C344.24024792 30.28768517 344.24422588 29.2302108 344.24832439 28.14069176 C343.71843892 23.95564627 342.04917734 21.31037124 338.94574261 18.50726891 C335.14885617 16.20612561 331.60277853 16.1312797 327.22563744 16.12584114 C326.0655028 16.122 324.90536817 16.11815885 323.71007794 16.11420131 C322.43470931 16.11506779 321.15934068 16.11593427 319.84532452 16.11682701 C318.47742657 16.11424312 317.10952938 16.1112299 315.74163324 16.10782361 C311.97885863 16.09975324 308.2161031 16.09796402 304.45332086 16.09722614 C300.39663613 16.09537567 296.33996129 16.08782841 292.28328228 16.08109093 C283.41143262 16.06750724 274.53958747 16.06148295 265.66772914 16.05708027 C260.12911079 16.05431814 254.59049419 16.05008087 249.05187702 16.0455761 C233.71962849 16.03338383 218.38738137 16.02308414 203.0551281 16.019701 C202.07378258 16.01948144 201.09243706 16.01926187 200.0813538 16.01903565 C199.09765169 16.01881737 198.11394957 16.0185991 197.1004383 16.0183742 C195.10705992 16.01793074 193.11368153 16.01748417 191.12030315 16.01703453 C189.63712427 16.01670239 189.63712427 16.01670239 188.12398217 16.01636353 C172.09842534 16.01241464 156.07291396 15.99495766 140.04737469 15.97167501 C123.59762192 15.94796874 107.14789197 15.9354995 90.69812185 15.93433309 C81.46076883 15.93341597 72.22347505 15.92765426 62.98613834 15.90951347 C55.12118004 15.89412233 47.25629927 15.88898622 39.39132877 15.89725158 C35.3783223 15.90116146 31.36547201 15.90021202 27.3524847 15.88619423 C23.67786347 15.87347571 20.00351611 15.87463463 16.32889537 15.88678494 C14.37179851 15.88967338 12.41469702 15.87779069 10.45763749 15.86536288 C3.30817455 15.90570154 -2.22961483 16.14755486 -7.99175739 20.75726891 C-10.35199762 23.90425587 -10.24238896 26.96540524 -10.24424934 30.7377367 C-10.24725699 31.8837968 -10.25026464 33.0298569 -10.25336343 34.21064609 C-10.25161306 35.47541013 -10.24986269 36.74017417 -10.24805927 38.04326439 C-10.24976091 39.39593792 -10.25191036 40.74861095 -10.25447053 42.10128313 C-10.25907317 45.04759045 -10.26048729 47.99387675 -10.25950527 50.94018745 C-10.2579146 55.73348634 -10.26311002 60.5267643 -10.26913166 65.32005882 C-10.27724956 72.27885939 -10.28219013 79.23765629 -10.28542233 86.19646072 C-10.29091421 97.19083135 -10.30780635 108.18517086 -10.32676411 119.17952538 C-10.33312098 122.9390573 -10.33942938 126.6985893 -10.34574127 130.4581213 C-10.34811692 131.86747478 -10.34811692 131.86747478 -10.35054055 133.30530004 C-10.36848203 144.00372428 -10.38470665 154.70215071 -10.39971638 165.40057945 C-10.40109225 166.37875535 -10.40246812 167.35693125 -10.40388568 168.36474884 C-10.42582629 184.22424375 -10.43657442 200.08373067 -10.44408713 215.94323807 C-10.4521509 232.21556685 -10.47541656 248.48782702 -10.51204079 264.76011664 C-10.53409652 274.80310645 -10.54372109 284.8459553 -10.53754046 294.88896812 C-10.53437208 301.76786289 -10.54565474 308.64663705 -10.56843487 315.52549451 C-10.58113461 319.49764457 -10.58723426 323.46952602 -10.57601833 327.44168663 C-10.56588906 331.07558492 -10.57401668 334.70896052 -10.59688129 338.34279675 C-10.60427969 340.28524241 -10.59191004 342.22773199 -10.57892114 344.17014831 C-10.58975203 345.31881616 -10.60058292 346.46748401 -10.61174202 347.65095997 C-10.61271883 348.64420102 -10.61369564 349.63744206 -10.61470205 350.66078132 C-11.25791133 353.98727696 -12.50957838 355.16209787 -15.11675739 357.25726891 C-18.13181065 358.33959572 -19.69576055 358.36496577 -22.80425739 357.56976891 C-25.55364984 356.00930292 -25.99829215 355.16773932 -27.11675739 352.25726891 C-27.36975706 349.66357464 -27.36975706 349.66357464 -27.3740263 346.65768909 C-27.38047519 345.51047144 -27.38692408 344.36325379 -27.3935684 343.18127197 C-27.39047119 341.92030466 -27.38737399 340.65933736 -27.38418293 339.36015892 C-27.38791886 338.00748442 -27.39252015 336.65481207 -27.39791358 335.30214316 C-27.41016682 331.58127482 -27.40988037 327.86049624 -27.40752482 324.13961232 C-27.40711723 320.12783233 -27.41815058 316.11608134 -27.42763996 312.1043148 C-27.44426531 304.24177116 -27.44975026 296.3792575 -27.45086472 288.51669776 C-27.45181477 282.12386197 -27.45592296 275.73103608 -27.46226597 269.33820343 C-27.47988509 251.21150645 -27.48910417 233.08483316 -27.48760502 214.95812755 C-27.48752511 213.98055758 -27.4874452 213.0029876 -27.48736286 211.9957943 C-27.4872811 211.01702946 -27.48719934 210.03826462 -27.4871151 209.02984024 C-27.48630273 193.17832874 -27.50542619 177.32691238 -27.53363959 161.47542839 C-27.56238327 145.19741323 -27.57617897 128.91944444 -27.57445204 112.64140326 C-27.5737885 103.5033937 -27.57926486 94.36548379 -27.60080814 85.2274971 C-27.61903979 77.44424384 -27.62335127 69.66113535 -27.6097893 61.87786996 C-27.6032687 57.90888081 -27.60310914 53.94016924 -27.6204958 49.97120667 C-27.63627301 46.33207294 -27.63331611 42.6934358 -27.61592753 39.05431385 C-27.61142686 37.12601751 -27.62647879 35.19770548 -27.64240682 33.26946968 C-27.5727395 24.44158183 -26.05807887 16.92281331 -21.30425739 9.38226891 C-15.02515165 3.28256619 -8.95830221 0.01209004 0 0 Z " fill="#000000" transform="translate(89.1167573928833,-0.25726890563964844)"/>
<path d="M0 0 C0.7409797 -0.00297112 1.4819594 -0.00594224 2.24539304 -0.0090034 C4.72946373 -0.01767818 7.21348616 -0.01919762 9.6975708 -0.02069092 C11.47826236 -0.02531997 13.25895292 -0.03034475 15.03964233 -0.03573608 C19.8786309 -0.04885405 24.71760559 -0.05530392 29.55660915 -0.05974674 C32.58058038 -0.06267856 35.60454783 -0.06678359 38.62851715 -0.07125092 C48.09200102 -0.08492453 57.55547623 -0.09459174 67.0189693 -0.09845281 C77.93904161 -0.10293275 88.8589887 -0.12047831 99.77902293 -0.1494534 C108.22247344 -0.17107857 116.66588875 -0.18115754 125.10936666 -0.18249393 C130.15101132 -0.18354139 135.19253826 -0.1894368 140.23415375 -0.20731354 C144.97837851 -0.22380852 149.72239723 -0.22594277 154.46664047 -0.21717453 C156.20485105 -0.21640491 157.94307276 -0.22073697 159.68125534 -0.23063278 C162.0606964 -0.24338152 164.43941086 -0.23746003 166.81884766 -0.22705078 C167.50096904 -0.23510719 168.18309042 -0.24316359 168.88588214 -0.25146413 C175.04943757 -0.18872952 180.08608616 1.64200878 185.35089111 4.70294189 C192.76727636 12.52021283 193.38776544 21.0132281 193.29449463 31.36749268 C193.2996433 32.77469786 193.30693169 34.18189658 193.31617737 35.58908081 C193.33457611 39.38253978 193.32182824 43.17528928 193.30208707 46.96871805 C193.28560952 50.95279565 193.29452575 54.93683153 193.29960632 58.92092896 C193.30411613 65.60700721 193.2883243 72.29280467 193.26031494 78.9788208 C193.22824169 86.69410845 193.22829249 94.40889065 193.24552971 102.12421429 C193.26142414 109.568407 193.25464425 117.01241548 193.2375927 124.45660019 C193.23074419 127.6151308 193.2317318 130.77351276 193.23913765 133.93204117 C193.24683104 137.65381918 193.23457607 141.37502565 193.20728874 145.09670639 C193.19718322 147.1036935 193.20655462 149.11074948 193.21661377 151.11773682 C193.12960816 159.37889692 192.23152148 164.91754121 186.76885986 171.38262939 C186.13593018 171.92145752 185.50300049 172.46028564 184.85089111 173.01544189 C184.2256958 173.56973877 183.60050049 174.12403564 182.95635986 174.69512939 C176.89414866 178.51628467 170.4346119 178.43681103 163.49542236 178.40606689 C162.53818771 178.40798035 161.58095306 178.4098938 160.5947113 178.41186523 C158.58187597 178.4132203 156.56903169 178.4095715 154.55621338 178.40118408 C151.4752042 178.3904395 148.39477337 178.40112065 145.31378174 178.41387939 C143.353494 178.41255837 141.39320661 178.40999716 139.43292236 178.40606689 C138.5130806 178.41011536 137.59323883 178.41416382 136.64552307 178.41833496 C135.78750595 178.41203064 134.92948883 178.40572632 134.04547119 178.39923096 C133.2938118 178.39763977 132.5421524 178.39604858 131.76771545 178.39440918 C129.34468323 178.10197759 127.74653305 177.39540048 125.66339111 176.14044189 C123.58180091 173.46411164 123.66751521 172.02290522 123.78839111 168.57794189 C124.66339111 165.14044189 124.66339111 165.14044189 126.11456299 163.45098877 C130.07553676 161.41435015 133.92870433 161.71957168 138.31964111 161.73419189 C139.25892456 161.72335571 140.19820801 161.71251953 141.16595459 161.70135498 C145.18051176 161.65549815 149.19500563 161.64401184 153.20977783 161.62921143 C156.14246678 161.61352351 159.07461448 161.58052342 162.00714111 161.54669189 C162.91452026 161.54971313 163.82189941 161.55273438 164.7567749 161.55584717 C165.60445435 161.54573608 166.45213379 161.535625 167.32550049 161.52520752 C168.0684436 161.52315308 168.81138672 161.52109863 169.57684326 161.51898193 C172.36292289 161.01353333 173.62131072 160.10103905 175.66339111 158.14044189 C176.26351005 155.55123749 176.26351005 155.55123749 176.16459656 152.56085205 C176.17934776 150.81943939 176.17934776 150.81943939 176.19439697 149.04284668 C176.17989502 147.13049225 176.17989502 147.13049225 176.1651001 145.17950439 C176.16888279 143.82433511 176.17438242 142.46916969 176.18147278 141.11401367 C176.19545157 137.43212518 176.18424107 133.75070271 176.16776156 130.06884003 C176.15392637 126.21851725 176.16036939 122.36822195 176.16389465 118.5178833 C176.166598 112.05149817 176.15311061 105.58529852 176.12994385 99.11895752 C176.10333321 91.63951536 176.10158648 84.16038338 176.11333221 76.68091011 C176.12410589 69.49035798 176.11792618 62.29991821 176.10377693 55.109375 C176.09801353 52.04721424 176.09810256 48.98513561 176.10284233 45.92297363 C176.10760952 42.31794208 176.09752165 38.7132508 176.07588768 35.108284 C176.06765494 33.15155159 176.07417602 31.19477464 176.08108521 29.23803711 C176.07118057 28.07709534 176.06127594 26.91615356 176.05107117 25.72003174 C176.04864127 24.70903412 176.04621138 23.6980365 176.04370785 22.65640259 C175.82663821 20.15585218 175.82663821 20.15585218 174.58279514 18.31552696 C171.60950484 16.49523849 169.02738901 16.76248946 165.56524658 16.75949097 C164.83792768 16.75481099 164.11060879 16.75013102 163.36124992 16.74530923 C160.91750882 16.73331722 158.47432415 16.74283257 156.03057861 16.7522583 C154.28132804 16.74819446 152.53208004 16.74285363 150.78283691 16.73632812 C146.02670271 16.72262641 141.27076326 16.72796492 136.51462555 16.73746538 C131.54321254 16.74504721 126.57181648 16.73802049 121.60040283 16.73330688 C113.25092568 16.72784502 104.90152807 16.73505224 96.55206299 16.74932861 C86.89138604 16.76565595 77.23089901 16.76036774 67.57022667 16.7438494 C59.28397175 16.7302468 50.99777409 16.72830886 42.71151161 16.7361654 C37.75889598 16.74084867 32.8063697 16.74144885 27.85375977 16.73155594 C23.19817947 16.72290637 18.54284466 16.72887128 13.88729095 16.74623871 C12.17601683 16.75021433 10.46472213 16.74905121 8.75345612 16.74245071 C6.42253459 16.73428731 4.09240623 16.74449286 1.76153564 16.75949097 C-0.19742142 16.76118758 -0.19742142 16.76118758 -2.19595337 16.76291847 C-5.25937961 16.90993263 -5.25937961 16.90993263 -7.25601292 18.31552696 C-8.7659325 20.86548539 -8.71717636 22.7607275 -8.72428894 25.72003174 C-8.73419357 26.88097351 -8.74409821 28.04191528 -8.75430298 29.23803711 C-8.74980133 30.51294006 -8.74529968 31.78784302 -8.74066162 33.10137939 C-8.74636335 34.45654871 -8.75332684 35.81171321 -8.76145935 37.16687012 C-8.77942681 40.84866371 -8.77821588 44.53021946 -8.77251697 48.21204376 C-8.76943064 51.28379477 -8.77551126 54.35549972 -8.78155571 57.42724419 C-8.79561075 64.67217705 -8.79403122 71.91699201 -8.78265381 79.16192627 C-8.77116778 86.6414106 -8.78525393 94.12053657 -8.81205028 101.59997368 C-8.83418441 108.01788806 -8.84084997 114.43568975 -8.83497387 120.8536396 C-8.83159802 124.68848373 -8.83406081 128.52309804 -8.8512249 132.35791016 C-8.86665613 135.96299126 -8.86278191 139.56754002 -8.84391975 143.17259979 C-8.83845785 145.12935707 -8.85277644 147.08613804 -8.86761475 149.04284668 C-8.85778061 150.20378845 -8.84794647 151.36473022 -8.83781433 152.56085205 C-8.83750041 154.07734848 -8.83750041 154.07734848 -8.83718014 155.6244812 C-8.55048706 158.24592666 -8.55048706 158.24592666 -6.58280277 159.96592808 C-4.11078268 161.25852431 -2.66760012 161.5143756 0.10369873 161.51225281 C0.98690292 161.51901031 1.87010712 161.52576782 2.78007507 161.5327301 C3.74123734 161.52501083 4.7023996 161.51729156 5.69268799 161.50933838 C6.71097183 161.51310486 7.72925568 161.51687134 8.77839661 161.52075195 C10.98879577 161.52718675 13.1992226 161.52685223 15.40962219 161.52056694 C18.90614374 161.51147322 22.40212719 161.52166081 25.89862061 161.53718567 C35.83924506 161.57733723 45.77982799 161.57848445 55.72052002 161.57623291 C61.80064519 161.57618189 67.88047987 161.59530703 73.96052551 161.62556648 C77.4085032 161.63642187 80.85593367 161.62424356 84.30389404 161.61174011 C86.41396635 161.62064161 88.52403415 161.63071497 90.63409424 161.64215088 C91.5952565 161.63240738 92.55641876 161.62266388 93.54670715 161.61262512 C100.00682703 161.68267768 100.00682703 161.68267768 103.26287842 163.95283508 C105.31285995 167.15491499 105.12836564 169.4206457 104.66339111 173.14044189 C102.90323981 176.32547759 102.16448195 176.97341162 98.66339111 178.14044189 C97.23694882 178.23494311 95.80654189 178.27528736 94.37698364 178.28088379 C93.50237991 178.28659393 92.62777618 178.29230408 91.72666931 178.29818726 C90.29131584 178.29986404 90.29131584 178.29986404 88.82696533 178.30157471 C87.3118058 178.30902206 87.3118058 178.30902206 85.76603699 178.31661987 C82.41671064 178.33125081 79.0674317 178.33804622 75.71807861 178.34356689 C73.38980101 178.34931901 71.06152342 178.35507674 68.73324585 178.36083984 C63.84570088 178.37135346 58.95817237 178.3771933 54.07061768 178.38067627 C47.81966169 178.38615183 41.56892453 178.41015843 35.31803703 178.43864822 C30.50521214 178.45731205 25.69243947 178.46248228 20.87958145 178.46401215 C18.57598809 178.46703238 16.2723955 178.47503956 13.96883774 178.48819733 C10.73778636 178.50533046 7.50726297 178.50335928 4.27618408 178.49688721 C3.33142715 178.50610199 2.38667023 178.51531677 1.4132843 178.52481079 C-5.84234471 178.47948642 -12.4213663 177.53741914 -18.14910889 172.82794189 C-22.86607477 167.03281238 -25.45049044 162.89332407 -25.49050903 155.38017273 C-25.4991095 154.17886215 -25.50770996 152.97755157 -25.51657104 151.73983765 C-25.52100621 150.40649457 -25.52530457 149.07315104 -25.52947998 147.73980713 C-25.53738303 146.33688657 -25.5456521 144.93396804 -25.55426025 143.53105164 C-25.58046617 138.92039934 -25.59579065 134.30973806 -25.61004639 129.69903564 C-25.61540745 128.10968584 -25.62078496 126.5203361 -25.62617874 124.9309864 C-25.64780911 118.3161202 -25.66654289 111.70125641 -25.67780113 105.08636379 C-25.69402011 95.61998937 -25.72714581 86.15402672 -25.78420198 76.6878075 C-25.82298325 70.0252255 -25.84244371 63.36275324 -25.8477217 56.70006138 C-25.8513652 52.72460677 -25.86327805 48.74959148 -25.89582443 44.77425957 C-25.92604839 41.02878665 -25.93216669 37.28401551 -25.92044067 33.53844643 C-25.92011707 31.52214583 -25.94448924 29.50588762 -25.96981812 27.48974609 C-25.91622891 19.62351895 -24.8228832 13.71613928 -20.33660889 7.14044189 C-18.02020264 4.88653564 -18.02020264 4.88653564 -15.77410889 3.57794189 C-15.03031982 3.12290283 -14.28653076 2.66786377 -13.52020264 2.19903564 C-9.07701451 0.04500348 -4.87051093 -0.00610701 0 0 Z " fill="#000000" transform="translate(172.33660888671875,61.85955810546875)"/>
<path d="M0 0 C1.23823517 -0.00350464 2.47647034 -0.00700928 3.75222778 -0.01062012 C7.1324275 -0.01789246 10.51238099 -0.01621857 13.89256668 -0.00986195 C17.43936734 -0.00477861 20.98615789 -0.00949987 24.53295898 -0.01263428 C30.48781205 -0.01626714 36.44261542 -0.0114927 42.39746094 -0.00195312 C49.27019071 0.00893013 56.14280179 0.00540407 63.01552868 -0.00560594 C68.92911637 -0.01469822 74.84266845 -0.01595461 80.75626087 -0.0107286 C84.28258521 -0.00761956 87.80885386 -0.00717013 91.33517456 -0.01380157 C95.26776703 -0.0206812 99.20022784 -0.01113059 103.1328125 0 C104.87390793 -0.00607269 104.87390793 -0.00607269 106.650177 -0.01226807 C119.90732395 0.05718329 119.90732395 0.05718329 124.74609375 4.06347656 C125.58527344 5.08828125 125.58527344 5.08828125 126.44140625 6.13378906 C127.01632812 6.81183594 127.59125 7.48988281 128.18359375 8.18847656 C130.5255706 11.69482608 130.69568221 15.02950314 130.7434082 19.17578125 C130.76266106 20.63815216 130.76266106 20.63815216 130.78230286 22.13006592 C130.78968979 23.17801331 130.79707672 24.22596069 130.8046875 25.30566406 C130.81275925 26.39083313 130.82083099 27.4760022 130.82914734 28.59405518 C130.84297145 30.89048676 130.85370108 33.18693874 130.86157227 35.48339844 C130.87877377 38.98184483 130.92267504 42.47934327 130.96679688 45.97753906 C130.97692541 48.21190714 130.98544101 50.44628322 130.9921875 52.68066406 C131.00969559 53.72051453 131.02720367 54.76036499 131.04524231 55.83172607 C131.02650893 62.15515905 130.25484688 67.00657694 126.56640625 72.25878906 C122.25202879 76.36270909 119.01861125 77.38034024 113.16558838 77.40596008 C112.04408386 77.41311539 110.92257935 77.42027069 109.76708984 77.42764282 C108.53587402 77.43033173 107.3046582 77.43302063 106.03613281 77.43579102 C104.73996033 77.44236221 103.44378784 77.44893341 102.1083374 77.45570374 C97.80791458 77.47672798 93.50749146 77.48710501 89.20703125 77.49707031 C87.72533907 77.50111857 86.24364707 77.50523551 84.76195526 77.50942039 C77.79996339 77.52846897 70.83798209 77.54270034 63.87596917 77.55103236 C55.84573288 77.56080205 47.81577244 77.58711572 39.78563333 77.62753326 C33.57489677 77.65771801 27.36423917 77.67250349 21.1534307 77.67581338 C17.4458541 77.67816132 13.73857229 77.68708782 10.03107452 77.71227455 C5.89195974 77.73993934 1.75345924 77.73571697 -2.38574219 77.72875977 C-4.22042053 77.74797485 -4.22042053 77.74797485 -6.09216309 77.76757812 C-12.75668049 77.7267255 -17.06951157 77.35252044 -22.43359375 73.25878906 C-25.98254214 68.68251351 -27.54911163 65.18787706 -27.59472656 59.43945312 C-27.60433411 58.46123596 -27.61394165 57.4830188 -27.62384033 56.47515869 C-27.62809021 55.41891296 -27.63234009 54.36266724 -27.63671875 53.27441406 C-27.64241882 52.18545837 -27.6481189 51.09650269 -27.6539917 49.97454834 C-27.66344316 47.66793795 -27.66997626 45.36131404 -27.67382812 43.0546875 C-27.68351732 39.53654193 -27.71453326 36.0189846 -27.74609375 32.50097656 C-27.75262559 30.25879253 -27.75787535 28.01660432 -27.76171875 25.77441406 C-27.77406555 24.72626526 -27.78641235 23.67811646 -27.7991333 22.59820557 C-27.77676636 15.21366195 -26.9021386 10.34447012 -22.18359375 4.44628906 C-15.66181042 -0.74149313 -7.95760542 -0.02775499 0 0 Z M-11.43359375 17.25878906 C-11.43359375 31.77878906 -11.43359375 46.29878906 -11.43359375 61.25878906 C30.14640625 61.25878906 71.72640625 61.25878906 114.56640625 61.25878906 C114.56640625 46.73878906 114.56640625 32.21878906 114.56640625 17.25878906 C112.91904499 15.6114278 111.01485333 16.13274344 108.74536133 16.13180542 C107.18043442 16.12757568 107.18043442 16.12757568 105.58389282 16.1232605 C103.85240494 16.12629684 103.85240494 16.12629684 102.0859375 16.12939453 C100.87795502 16.12764221 99.66997253 16.12588989 98.42538452 16.12408447 C95.10314671 16.12042629 91.78097082 16.12129938 88.45873642 16.12446356 C84.98917301 16.12698755 81.51961233 16.12464951 78.05004883 16.12307739 C72.22248863 16.12125581 66.39494109 16.12366171 60.56738281 16.12841797 C53.82079333 16.13386057 47.07423406 16.13209791 40.3276453 16.12659156 C34.54506451 16.12206011 28.76249284 16.12141004 22.97991085 16.12403023 C19.52189069 16.12559283 16.06388474 16.12578725 12.60586548 16.12249374 C8.75285661 16.11908067 4.89988186 16.1238053 1.046875 16.12939453 C-0.10745026 16.1273703 -1.26177551 16.12534607 -2.45108032 16.1232605 C-3.49436493 16.12608032 -4.53764954 16.12890015 -5.61254883 16.13180542 C-6.98084587 16.13237096 -6.98084587 16.13237096 -8.37678528 16.13294792 C-10.42600562 16.03033259 -10.42600562 16.03033259 -11.43359375 17.25878906 Z " fill="#000000" transform="translate(204.43359375,91.7412109375)"/>
<path d="M0 0 C1.02738507 -0.00445668 1.02738507 -0.00445668 2.0755254 -0.0090034 C4.38167149 -0.01770845 6.68776577 -0.01920016 8.993927 -0.02069092 C10.64288444 -0.02531779 12.2918408 -0.03034228 13.9407959 -0.03573608 C18.42840582 -0.04887414 22.91600077 -0.0553077 27.40362692 -0.05974674 C30.20543845 -0.06267503 33.00724586 -0.06677935 35.80905533 -0.07125092 C44.56987803 -0.08492916 53.33069136 -0.09459438 62.091524 -0.09845281 C72.2147535 -0.10293539 82.3378481 -0.12049118 92.46103656 -0.1494534 C100.27933654 -0.17104728 108.09759851 -0.18115585 115.91592801 -0.18249393 C120.58859571 -0.18354355 125.26113666 -0.18948466 129.93377304 -0.20731354 C134.32831341 -0.22375478 138.72263121 -0.22596903 143.11719131 -0.21717453 C144.73130132 -0.21640205 146.34542309 -0.22077459 147.95950317 -0.23063278 C150.16093212 -0.24329114 152.36156547 -0.23750957 154.56298828 -0.22705078 C155.79559324 -0.22851734 157.0281982 -0.2299839 158.29815483 -0.2314949 C161.67661197 0.17250576 163.06168722 0.71130891 165.40847778 3.14044189 C166.51221157 7.11388351 166.82391361 9.23043961 165.09597778 13.01544189 C163.40847778 15.14044189 163.40847778 15.14044189 161.40847778 16.14044189 C159.21312405 16.24137463 157.01462189 16.27557688 154.81695557 16.28088379 C153.78957049 16.28534047 153.78957049 16.28534047 152.74143016 16.28988719 C150.43528408 16.29859224 148.1291898 16.30008395 145.82302856 16.30157471 C144.17407113 16.30620158 142.52511477 16.31122607 140.87615967 16.31661987 C136.38854975 16.32975793 131.9009548 16.33619149 127.41332865 16.34063053 C124.61151712 16.34355882 121.8097097 16.34766314 119.00790024 16.3521347 C110.24707753 16.36581295 101.48626421 16.37547817 92.72543156 16.3793366 C82.60220207 16.38381918 72.47910747 16.40137497 62.355919 16.43033719 C54.53761902 16.45193107 46.71935706 16.46203964 38.90102756 16.46337771 C34.22835986 16.46442734 29.55581891 16.47036845 24.88318253 16.48819733 C20.48864216 16.50463857 16.09432436 16.50685282 11.69976425 16.49805832 C10.08565425 16.49728584 8.47153247 16.50165838 6.85745239 16.51151657 C4.65602345 16.52417493 2.4553901 16.51839336 0.25396729 16.50793457 C-0.97863768 16.50940113 -2.21124264 16.51086769 -3.48119926 16.51237869 C-6.85965641 16.10837803 -8.24473165 15.56957488 -10.59152222 13.14044189 C-11.695256 9.16700028 -12.00695804 7.05044418 -10.27902222 3.26544189 C-7.26502944 -0.52995642 -4.65996946 0.01125285 0 0 Z " fill="#000000" transform="translate(178.59152221679688,255.85955810546875)"/>
<path d="M0 0 C2.42520546 2.42520546 2.68564441 3.62067741 3 7 C2.0638375 10.09653751 1.29576678 11.70423322 -1 14 C-7.88888889 14.66666667 -7.88888889 14.66666667 -11.5 12.5 C-13.75389302 8.74351164 -13.48380069 6.35420619 -13 2 C-11.57764767 -0.20464611 -10.54400604 -0.75613522 -8.1875 -1.8125 C-5.08028732 -2.07883252 -2.85611786 -1.17970085 0 0 Z " fill="#000000" transform="translate(317,195)"/>
<path d="M0 0 C2.42520546 2.42520546 2.68564441 3.62067741 3 7 C1.93600927 10.81263347 1.3748349 11.75011007 -2 14 C-5.51375259 14.31943205 -8.1296631 14.33474496 -11.4375 13.0625 C-13.6426188 10.15174319 -13.4395449 7.72694231 -13.43359375 4.15625 C-12.90620811 1.53357547 -12.06304398 0.65145146 -10 -1 C-6.29529376 -2.66073038 -3.62678274 -1.49801896 0 0 Z " fill="#000000" transform="translate(280,195)"/>
<path d="M0 0 C2 2 2 2 2.375 5.875 C2.27899431 8.80850708 2.05255079 9.91241536 0.5 12.5 C-3.25648836 14.75389302 -5.64579381 14.48380069 -10 14 C-12.49518108 12.47069547 -12.87047343 11.37861613 -13.8125 8.625 C-14.03578841 5.49896219 -13.42252752 3.77018517 -12 1 C-8.02640486 -2.97359514 -4.96802941 -2.05201215 0 0 Z " fill="#000000" transform="translate(243,195)"/>
<path d="M0 0 C2 2 2 2 2.375 5.875 C2.27899431 8.80850708 2.05255079 9.91241536 0.5 12.5 C-3.25648836 14.75389302 -5.64579381 14.48380069 -10 14 C-12.49518108 12.47069547 -12.87047343 11.37861613 -13.8125 8.625 C-14.03578841 5.49896219 -13.42252752 3.77018517 -12 1 C-8.02640486 -2.97359514 -4.96802941 -2.05201215 0 0 Z " fill="#000000" transform="translate(206,195)"/>
</svg>
