<?xml version="1.0" encoding="UTF-8"?>
<svg version="1.1" xmlns="http://www.w3.org/2000/svg" width="512" height="512">
<path d="M0 0 C0.95719909 -0.00322445 1.91439817 -0.00644889 2.90060329 -0.00977105 C4.48899816 -0.00744815 4.48899816 -0.00744815 6.10948181 -0.00507832 C7.22867288 -0.00734387 8.34786394 -0.00960943 9.50096989 -0.01194364 C13.27665277 -0.01830812 17.05229999 -0.01745271 20.82798767 -0.01662922 C23.52451209 -0.01961915 26.22103364 -0.02299265 28.91755676 -0.02680683 C35.49663992 -0.03512468 42.07571411 -0.03786217 48.65480208 -0.03841921 C53.9998956 -0.03889377 59.34498615 -0.04094552 64.69007874 -0.04411983 C79.8306154 -0.052929 94.97114496 -0.05753873 110.1116842 -0.05678936 C110.92846474 -0.0567494 111.74524527 -0.05670945 112.58677673 -0.05666828 C113.40454956 -0.0566274 114.22232238 -0.05658652 115.0648762 -0.0565444 C128.32625587 -0.05613771 141.58760718 -0.06571232 154.84897864 -0.07980665 C168.45214292 -0.09415067 182.05529335 -0.10107794 195.65846539 -0.10021287 C203.30109542 -0.09988025 210.94369572 -0.1026559 218.58631897 -0.11339092 C225.09185182 -0.12246994 231.59734144 -0.12469265 238.10287786 -0.1178815 C241.4246117 -0.11460324 244.7462447 -0.11568079 248.06797409 -0.12323475 C251.66245206 -0.13088266 255.25670829 -0.12635801 258.85118103 -0.11860371 C259.91011094 -0.12374727 260.96904085 -0.12889083 262.06005955 -0.13419026 C263.49585818 -0.12729207 263.49585818 -0.12729207 264.96066284 -0.12025452 C265.79116622 -0.12047188 266.6216696 -0.12068925 267.47733974 -0.12091321 C269.48033142 0.12863445 269.48033142 0.12863445 271.48033142 2.12863445 C271.78813171 4.43646526 271.78813171 4.43646526 271.86607361 7.36252117 C271.89819946 8.45901989 271.93032532 9.55551861 271.96342468 10.68524456 C272.05306382 15.7771338 272.13557427 20.86866721 272.18052673 25.96115398 C272.2068684 28.62648075 272.26741668 31.28434376 272.34458923 33.94943523 C272.82972623 50.80478192 271.89220145 63.61018986 262.7664032 78.0516386 C260.12091055 82.32408851 257.89558906 86.84612127 255.66194153 91.34454632 C253.27074321 96.06286679 250.68708644 100.25853943 247.50376892 104.48776531 C229.75157406 130.10739563 233.48745118 162.09687605 233.99560201 191.86609524 C234.15291228 201.24089545 234.19603262 210.61615101 234.24151111 219.99204397 C234.25253097 222.2622871 234.26392393 224.53252785 234.27558899 226.80276775 C234.2792939 227.53940191 234.28299882 228.27603606 234.286816 229.03499246 C234.31114454 233.36349069 234.35531089 237.69119529 234.41891694 242.01929235 C234.44845729 244.05788445 234.47379521 246.09648623 234.49783325 248.13514996 C234.52828382 250.6025863 234.56661776 253.06994512 234.61489868 255.53709698 C234.71107079 264.43315838 234.6066318 273.88278956 229.60533142 281.56613445 C229.11290955 282.34859539 228.62048767 283.13105633 228.11314392 283.9372282 C226.48033142 286.12863445 226.48033142 286.12863445 224.40903473 287.76741314 C221.71955063 291.06002281 221.93184453 294.03278573 221.98826599 298.09958172 C221.983587 298.90872052 221.97890801 299.71785933 221.97408724 300.55151749 C221.9631428 303.26634795 221.98065542 305.98025389 221.99790955 308.6950407 C221.99572406 310.63985754 221.99172791 312.58467306 221.98605347 314.52948284 C221.97748178 318.71910688 221.98128173 322.90847489 221.99447632 327.09808636 C222.01477949 333.71976421 222.00485051 340.34118284 221.99021912 346.96286297 C221.96343963 361.01814317 221.9702 375.07333968 221.98033142 389.12863445 C221.99126826 404.30128703 221.99656275 419.4738069 221.96303701 434.64643669 C221.94963629 441.23207481 221.95566182 447.8173265 221.97640228 454.4029417 C221.98536814 458.4959792 221.97793244 462.58886665 221.96599007 466.68189144 C221.96385366 468.58303741 221.96861302 470.48420522 221.98069572 472.38531399 C221.99623878 474.97651133 221.98738077 477.56651318 221.97239685 480.15768719 C221.98288575 480.91371511 221.99337464 481.66974302 222.00418139 482.44868088 C221.96266517 485.66248085 221.79902087 487.69359546 219.87467003 490.32050276 C216.66848341 492.74171738 214.67315796 492.62988187 210.67427826 492.63199902 C209.98706993 492.63781278 209.29986159 492.64362654 208.59182876 492.64961648 C206.27782088 492.66427129 203.96486466 492.65030676 201.65086365 492.63656902 C199.97971251 492.6411758 198.30856542 492.64752721 196.63742685 492.655478 C192.03643963 492.67222524 187.43578292 492.66390057 182.83479428 492.65153313 C177.87630007 492.64250695 172.9178639 492.65644024 167.9593811 492.66745281 C158.24225399 492.68526868 148.52525024 492.68138441 138.80811822 492.66980225 C130.91302308 492.66078025 123.01796259 492.65953857 115.12286377 492.66389751 C114.00053932 492.66451045 112.87821487 492.66512338 111.72188058 492.66575488 C109.44212463 492.66703375 107.16236869 492.6683306 104.88261276 492.66964525 C83.48950405 492.68106004 62.09646382 492.66792325 40.70336634 492.64644378 C22.33455346 492.628572 3.96584169 492.63167586 -14.40296936 492.65011883 C-35.71787955 492.67150968 -57.03272967 492.67996132 -78.3476491 492.66766977 C-80.61916636 492.66639553 -82.89068364 492.66513805 -85.16220093 492.66389751 C-86.27992279 492.66328041 -87.39764465 492.66266331 -88.54923686 492.66202751 C-96.43772609 492.65856925 -104.32617731 492.66441319 -112.21466064 492.67381573 C-121.82398279 492.68501726 -131.43317419 492.68203459 -141.0424813 492.66069275 C-145.94827338 492.65015745 -150.85384722 492.64610261 -155.75963783 492.65928936 C-160.24649958 492.67116791 -164.73293984 492.66472615 -169.2197631 492.64337915 C-170.84688677 492.63889374 -172.4740457 492.64122255 -174.10114688 492.6508823 C-176.30581592 492.66297163 -178.50902387 492.6506498 -180.71361542 492.63199902 C-182.55352546 492.6310249 -182.55352546 492.6310249 -184.43060541 492.63003111 C-188.13346113 492.02900764 -189.32154073 491.12531594 -191.51966858 488.12863445 C-191.9259459 485.39522455 -192.0932488 483.16202369 -192.01966858 480.44113445 C-191.9982782 479.36702312 -191.9982782 479.36702312 -191.97645569 478.27121258 C-191.6392244 469.79335238 -189.38284807 464.60334639 -183.20716858 458.69113445 C-175.64777705 451.97318327 -166.79847935 452.84587879 -157.23867798 452.88812542 C-155.77245651 452.88725275 -154.30623534 452.88550063 -152.84001583 452.88294709 C-148.81963402 452.8784817 -144.79935906 452.88646612 -140.77899086 452.89650321 C-136.4402868 452.90514706 -132.10158867 452.90221689 -127.76287842 452.90069866 C-120.24863828 452.8996504 -112.73443289 452.90592084 -105.22020149 452.91717434 C-94.35591368 452.93343436 -83.49164266 452.93863786 -72.627344 452.94115032 C-55.00037822 452.94552663 -37.37343095 452.95883401 -19.74647522 452.97775555 C-2.62440583 452.99611599 14.49765849 453.01024876 31.61973572 453.01877117 C32.68605581 453.01930717 33.75237589 453.01984316 34.85100871 453.0203954 C43.1904393 453.02455429 51.52986999 453.02846812 59.86930072 453.03230453 C100.73966129 453.05116894 141.60997549 453.09140626 182.48033142 453.12863445 C182.48033142 399.66863445 182.48033142 346.20863445 182.48033142 291.12863445 C181.16033142 290.46863445 179.84033142 289.80863445 178.48033142 289.12863445 C170.89691116 282.18124299 168.85959727 274.766167 166.48033142 265.12863445 C156.84922447 283.77096543 147.26779326 302.4382166 137.73033142 321.12863445 C137.22126251 322.12623791 136.7121936 323.12384136 136.18769836 324.15167522 C135.67607147 325.15429394 135.16444458 326.15691265 134.63731384 327.18991375 C127.18117624 341.80109025 119.71212126 356.40557732 112.23033142 371.00363445 C111.80815338 371.82736553 111.38597534 372.65109661 110.95100403 373.49978924 C110.09907272 375.16202978 109.24712371 376.82426125 108.39515686 378.48648357 C105.67708471 383.79047024 102.96225471 389.0961051 100.24954224 394.40283489 C98.36379822 398.0917065 96.47718036 401.78013091 94.5905304 405.46853924 C93.70356718 407.20314326 92.81701191 408.93795597 91.93092346 410.67300701 C89.90671197 414.63644533 87.87729836 418.59695267 85.83384705 422.55050945 C84.21018145 425.69313161 82.62125315 428.85078142 81.0486908 432.01925945 C80.26064471 433.57673604 79.47224705 435.13403481 78.68345642 436.69113445 C78.33361694 437.41212322 77.98377747 438.13311199 77.62333679 438.87594891 C75.12873068 443.74172585 75.12873068 443.74172585 72.49108887 445.31564236 C68.05444959 446.51366403 63.77018223 446.40347528 59.19395447 446.38260174 C58.14782077 446.38572172 57.10168707 446.3888417 56.02385235 446.39205623 C52.51319456 446.40004304 49.00270929 446.39370982 45.49205017 446.38742352 C42.9772888 446.39013307 40.46252823 446.3936938 37.94776917 446.39804363 C31.82327143 446.40622552 25.69883774 446.40501562 19.57433915 446.39921835 C14.59690336 446.39470188 9.61948132 446.39408889 4.64204407 446.39626598 C3.93367265 446.39657245 3.22530124 446.39687892 2.49546403 446.39719467 C1.05642835 446.39783412 -0.38260732 446.39848254 -1.82164299 446.39913985 C-15.31599157 446.40484316 -28.81031298 446.39828525 -42.3046571 446.38753912 C-53.88382818 446.3786036 -65.46295916 446.38015565 -77.04212952 446.38937664 C-90.48814015 446.40007926 -103.93412696 446.40429383 -117.38014126 446.39815211 C-118.81388791 446.39751501 -120.24763457 446.39688627 -121.68138123 446.39626598 C-122.38681495 446.39595743 -123.09224868 446.39564888 -123.81905919 446.39533098 C-128.79060806 446.39360402 -133.76214183 446.39651917 -138.73368835 446.40122509 C-145.42476509 446.40741943 -152.11575431 446.40301027 -158.80682755 446.39143658 C-161.26549275 446.38878747 -163.72416431 446.38955934 -166.182827 446.39396191 C-169.53306869 446.39940878 -172.88306562 446.39259343 -176.23329163 446.38260174 C-177.21139958 446.38706318 -178.18950754 446.39152462 -179.19725513 446.39612126 C-185.05913186 446.36209959 -189.2426805 446.0875139 -193.84388733 442.12912273 C-194.62377014 441.32716473 -195.40365295 440.52520672 -196.20716858 439.69894695 C-197.07084045 438.82109539 -197.93451233 437.94324383 -198.82435608 437.0387907 C-199.7138092 436.11968914 -200.60326233 435.20058758 -201.51966858 434.25363445 C-203.28822063 432.44150938 -205.05898266 430.63153798 -206.83216858 428.82394695 C-208.0019928 427.61762615 -208.0019928 427.61762615 -209.19544983 426.38693523 C-211.47662676 424.05156318 -211.47662676 424.05156318 -214.25013733 422.21017742 C-216.51966858 420.12863445 -216.51966858 420.12863445 -217.52284241 417.3110075 C-217.51889631 413.35428128 -216.28272468 410.62455733 -214.46888733 407.2106657 C-214.13967789 406.56083218 -213.81046844 405.91099865 -213.47128296 405.2414732 C-212.39839174 403.13320532 -211.3032069 401.0374477 -210.20716858 398.94113445 C-209.45648136 397.47697607 -208.70713943 396.01212719 -207.9591217 394.5466032 C-205.83428174 390.39587797 -203.68277915 386.25952362 -201.51966858 382.12863445 C-201.02934143 381.19196941 -200.53901428 380.25530437 -200.03382874 379.29025555 C-198.49378976 376.35940851 -196.94819149 373.4317099 -195.38954163 370.51071453 C-191.28801288 362.7895422 -187.41426917 354.95545598 -183.51966858 347.12863445 C-178.91001439 337.8647986 -174.2617855 328.6354258 -169.38685608 319.5075407 C-164.91680361 311.08548821 -160.70647534 302.53306053 -156.45915222 293.99734783 C-152.17828328 285.39794652 -147.84053287 276.84164907 -143.31654358 268.3669157 C-139.41701418 261.02129056 -135.72326543 253.5741861 -132.01966858 246.12863445 C-127.95598044 237.95917077 -123.87944296 229.80366557 -119.58216858 221.75363445 C-115.06619169 213.29195762 -110.79213483 204.71486583 -106.51966858 196.12863445 C-102.28866381 187.62578323 -98.0592122 179.13054186 -93.58216858 170.75363445 C-88.4876856 161.21916805 -83.7042091 151.53109122 -78.88768005 141.8544035 C-74.44668725 132.9357981 -69.96051169 124.05379405 -65.26576233 115.2653532 C-61.03380817 107.30016001 -57.0460504 99.21273348 -53.02934265 91.13772869 C-49.29434123 83.63254784 -45.53033506 76.14968604 -41.58216858 68.75363445 C-37.06618238 60.29194017 -32.79252801 51.71468541 -28.51966858 43.12863445 C-24.00964408 34.06883627 -19.49008132 25.01889256 -14.76966858 16.06613445 C-14.19732483 14.98042156 -14.19732483 14.98042156 -13.61341858 13.87277508 C-12.59293693 11.95197719 -11.5601253 10.03867366 -10.51966858 8.12863445 C-10.1632428 7.46621746 -9.80681702 6.80380047 -9.43959045 6.12131023 C-6.70064801 1.14657361 -5.59187841 0.00474298 0 0 Z M2.48033142 12.12863445 C-5.3759271 26.15393067 -5.3759271 26.15393067 -12.73841858 40.4059782 C-13.16666931 41.26768124 -13.59492004 42.12938427 -14.03614807 43.01719952 C-15.36798429 45.69821958 -16.6943112 48.3819066 -18.01966858 51.06613445 C-19.77714078 54.61838216 -21.53760024 58.1691289 -23.30091858 61.7184782 C-23.72840393 62.5797633 -24.15588928 63.44104839 -24.59632874 64.32843304 C-28.09080728 71.33823374 -31.71475194 78.27539222 -35.41041565 85.18110943 C-35.80418396 85.91990841 -36.19795227 86.65870739 -36.60365295 87.41989422 C-37.12397095 88.38923649 -37.12397095 88.38923649 -37.65480042 89.37816143 C-38.65022475 91.29244001 -38.65022475 91.29244001 -39.51966858 94.12863445 C-22.02966858 94.12863445 -4.53966858 94.12863445 13.48033142 94.12863445 C21.36748968 79.19270147 21.36748968 79.19270147 28.98033142 64.12863445 C32.41485558 57.20583581 35.91971745 50.32961541 39.54283142 43.50363445 C43.13506861 36.72654947 46.65537202 29.91684721 50.10533142 23.06613445 C50.54369324 22.20230145 50.98205505 21.33846844 51.43370056 20.44845867 C51.83322937 19.65069012 52.23275818 18.85292156 52.64439392 18.0309782 C52.99969177 17.32449139 53.35498962 16.61800457 53.72105408 15.89010906 C54.61227762 14.14221922 54.61227762 14.14221922 54.48033142 12.12863445 C37.32033142 12.12863445 20.16033142 12.12863445 2.48033142 12.12863445 Z M69.48033142 12.12863445 C60.66107302 29.18883923 51.8715751 46.2507083 43.33091736 63.45138836 C39.45245334 71.24353384 35.4652554 78.96916978 31.32237244 86.62423992 C29.22362386 90.17510089 29.22362386 90.17510089 28.48033142 94.12863445 C46.30033142 94.12863445 64.12033142 94.12863445 82.48033142 94.12863445 C86.11033142 86.86863445 89.74033142 79.60863445 93.48033142 72.12863445 C98.10533142 63.37863445 98.10533142 63.37863445 99.41856384 60.91037273 C104.6991306 50.93739517 109.66741125 40.80153317 114.68003845 30.69211102 C115.22037971 29.60508389 115.22037971 29.60508389 115.77163696 28.49609661 C116.45084646 27.12953307 117.12837437 25.76213191 117.80389404 24.39374065 C119.18061383 21.62572666 120.59624334 18.93897826 122.20909119 16.30002117 C123.6487427 14.26033067 123.6487427 14.26033067 123.48033142 12.12863445 C105.66033142 12.12863445 87.84033142 12.12863445 69.48033142 12.12863445 Z M138.48033142 12.12863445 C132.16472593 24.12828488 125.86491816 36.13066737 119.66783142 48.19113445 C119.28724579 48.93112682 118.90666016 49.67111919 118.51454163 50.43353558 C111.39603584 64.27909879 104.39966339 78.18245042 97.48033142 92.12863445 C96.98533142 93.11863445 96.98533142 93.11863445 96.48033142 94.12863445 C114.63033142 94.12863445 132.78033142 94.12863445 151.48033142 94.12863445 C160.5639132 77.63385988 160.5639132 77.63385988 169.18345642 60.91769695 C169.63581665 60.0101466 170.08817688 59.10259624 170.554245 58.16754436 C171.95018084 55.36482969 173.34045649 52.5593587 174.73033142 49.75363445 C175.66744208 47.86932619 176.60494179 45.98521136 177.54283142 44.1012907 C179.27862206 40.61370215 181.01198268 37.1249286 182.74302673 33.63498211 C186.30980881 26.46006212 189.89699746 19.29530237 193.48033142 12.12863445 C175.33033142 12.12863445 157.18033142 12.12863445 138.48033142 12.12863445 Z M207.48033142 12.12863445 C203.33470642 20.45082195 203.33470642 20.45082195 199.10533142 28.94113445 C193.85616872 39.45866011 188.59415437 49.95964121 183.05943298 60.33053875 C179.38113261 67.24936093 175.86356604 74.24761027 172.35533142 81.25363445 C171.7735614 82.41266277 171.19179138 83.57169109 170.59239197 84.76584148 C170.05783386 85.83689129 169.52327576 86.90794109 168.97251892 88.01144695 C168.49153748 88.97453777 168.01055603 89.93762859 167.51499939 90.92990398 C166.40936686 92.87443649 166.40936686 92.87443649 166.48033142 94.12863445 C181.99033142 94.12863445 197.50033142 94.12863445 213.48033142 94.12863445 C230.41725348 61.1184605 230.41725348 61.1184605 247.04893494 27.95431805 C247.59863953 26.84652996 248.14834412 25.73874187 248.71470642 24.59738445 C249.18102478 23.65314617 249.64734314 22.70890789 250.12779236 21.73605633 C251.48033142 19.12863445 251.48033142 19.12863445 253.15318298 16.41183758 C254.64784372 14.28059878 254.64784372 14.28059878 254.48033142 12.12863445 C238.97033142 12.12863445 223.46033142 12.12863445 207.48033142 12.12863445 Z M258.48033142 33.12863445 C251.42624855 46.4583044 244.57455245 59.87799109 237.85533142 73.37863445 C233.14990728 82.83256707 228.4185026 92.25878158 223.43687439 101.57101727 C218.95679496 110.00828232 214.73772162 118.5776567 210.48033142 127.12863445 C205.54950981 137.03217525 200.60864347 146.91753731 195.38658142 156.6716032 C190.92127599 165.07422186 186.72100093 173.61127034 182.48033142 182.12863445 C177.54950602 192.03217334 172.60864352 201.91753722 167.38658142 211.6716032 C162.92127599 220.07422186 158.72100093 228.61127034 154.48033142 237.12863445 C149.54950602 247.03217334 144.60864352 256.91753722 139.38658142 266.6716032 C134.92127599 275.07422186 130.72100093 283.61127034 126.48033142 292.12863445 C121.54950602 302.03217334 116.60864352 311.91753722 111.38658142 321.6716032 C106.4982455 330.87026235 101.91670062 340.22667923 97.27430725 349.5509367 C88.82705851 366.51084833 88.82705851 366.51084833 84.41783142 374.75363445 C79.58447462 383.79422601 75.00628518 392.96215713 70.41783142 402.12863445 C70.031586 402.89862774 69.64534058 403.66862103 69.24739075 404.46194744 C68.14432757 406.66219 67.04422089 408.86388286 65.94517517 411.06613445 C65.61026062 411.73397961 65.27534607 412.40182476 64.93028259 413.08990765 C63.60799549 415.7478239 62.42065428 418.30766588 61.48033142 421.12863445 C-22.99966858 421.45863445 -107.47966858 421.78863445 -194.51966858 422.12863445 C-192.86966858 423.77863445 -191.21966858 425.42863445 -189.51966858 427.12863445 C-188.80534253 428.00746491 -188.80534253 428.00746491 -188.07658565 428.90404952 C-186.05662909 431.34728593 -184.47108743 432.89193773 -181.34516931 433.66961265 C-178.6603394 433.88561171 -176.03831151 433.89963627 -173.34513855 433.85016155 C-172.32320746 433.8552881 -171.30127638 433.86041465 -170.24837768 433.86569655 C-166.82530706 433.87557679 -163.4040023 433.84258379 -159.98109436 433.8097868 C-157.527039 433.80809433 -155.0729806 433.8090444 -152.618927 433.81244183 C-147.33622168 433.81380796 -142.05406562 433.79679564 -136.77150345 433.76301479 C-129.13395078 433.71420614 -121.496613 433.69862147 -113.85892127 433.69108684 C-101.46674367 433.67796225 -89.07480333 433.63805231 -76.68275452 433.58127117 C-64.64663376 433.52617834 -52.6105775 433.48371701 -40.57435608 433.4582243 C-39.83217052 433.45664796 -39.08998496 433.45507161 -38.32530893 433.45344751 C-34.6018994 433.44561715 -30.87848942 433.43803494 -27.15507913 433.43057609 C3.72356358 433.36839811 34.60191143 433.26229225 65.48033142 433.12863445 C67.51077914 429.20573373 69.54092208 425.28267547 71.57080555 421.35948277 C72.25866434 420.03014403 72.94660057 418.70084537 73.63462162 417.37159061 C79.22126341 406.57801709 84.77419121 395.7676783 90.29682922 384.94119549 C92.74166261 380.14861459 95.18928032 375.35745556 97.63658142 370.56613445 C98.1292601 369.60144238 98.62193878 368.6367503 99.12954712 367.64282513 C103.96581018 358.17471646 108.81482503 348.71316978 113.66783142 339.25363445 C114.27842407 338.06338665 114.27842407 338.06338665 114.90135193 336.84909344 C116.94505206 332.86534592 118.98898056 328.88171563 121.0330658 324.8981657 C124.74659276 317.66105442 128.45877171 310.42325178 132.17073059 303.18533611 C133.00105167 301.56630652 133.83139423 299.94728793 134.66175842 298.32828045 C139.36846835 289.15121746 144.07298191 279.97303546 148.77330017 270.79269695 C149.43296532 269.50430416 149.43296532 269.50430416 150.10595703 268.18988323 C150.99473639 266.45399287 151.88351508 264.71810217 152.77229309 262.98221111 C153.43214706 261.69344067 153.43214706 261.69344067 154.10533142 260.37863445 C154.76578964 259.08865551 154.76578964 259.08865551 155.43959045 257.77261639 C161.3985972 246.13462138 167.37074617 234.50349417 173.35533142 222.87863445 C181.18116694 207.67649952 188.96578734 192.45344865 196.74375916 177.22677898 C202.7009961 165.56474762 208.6650306 153.90624054 214.63752747 142.25201702 C222.31869376 127.26300454 229.99248724 112.27022628 237.65589905 97.27212811 C238.68596258 95.25640532 239.71628659 93.24081561 240.74690247 91.22537518 C241.23441986 90.27193218 241.72193726 89.31848919 242.22422791 88.33615398 C242.70229889 87.40139233 243.18036987 86.46663067 243.67292786 85.5035429 C244.60906704 83.66846813 245.54224986 81.83188187 246.4723053 79.99371624 C248.65164165 75.68698739 250.8599448 71.4045572 253.16172791 67.16183758 C257.61797274 58.84134757 260.90231342 52.20035449 260.04283142 42.50363445 C260.00222595 41.58324383 259.96162048 40.6628532 259.91978455 39.71457195 C259.81676356 37.51679095 259.6555285 35.32184229 259.48033142 33.12863445 C259.15033142 33.12863445 258.82033142 33.12863445 258.48033142 33.12863445 Z M-45.51966858 106.12863445 C-48.81966858 112.39863445 -52.11966858 118.66863445 -55.51966858 125.12863445 C-56.5225592 127.03000164 -57.52544983 128.93136883 -58.55873108 130.8903532 C-64.75266202 142.67027923 -70.75123672 154.53972832 -76.6776886 166.45566082 C-81.26194065 175.67115768 -85.91353759 184.84084709 -90.77796936 193.91281414 C-92.6702134 196.87063005 -92.6702134 196.87063005 -93.51966858 200.12863445 C-76.02966858 200.12863445 -58.53966858 200.12863445 -40.51966858 200.12863445 C-32.88312003 185.69229025 -32.88312003 185.69229025 -25.51966858 171.12863445 C-22.41804503 164.87190061 -19.24115068 158.66643203 -15.95716858 152.50363445 C-11.37162104 143.87162267 -6.96041165 135.15296808 -2.5756073 126.41775799 C-1.78960361 124.85257535 -1.00223364 123.28807807 -0.21348572 121.72427654 C0.89954487 119.51606566 2.00712753 117.30520891 3.11314392 115.0934782 C3.45326004 114.4203912 3.79337616 113.74730419 4.14379883 113.05382061 C5.90007669 109.75203909 5.90007669 109.75203909 6.48033142 106.12863445 C-10.67966858 106.12863445 -27.83966858 106.12863445 -45.51966858 106.12863445 Z M21.48033142 106.12863445 C18.18033142 112.72863445 14.88033142 119.32863445 11.48033142 126.12863445 C6.98033142 134.62863445 6.98033142 134.62863445 5.65635681 137.11838055 C0.30298767 147.24773854 -4.74698686 157.53470926 -9.83607483 167.79855633 C-10.57524902 169.28638987 -11.31482926 170.77402176 -12.05482483 172.26144695 C-12.41609467 172.98797466 -12.7773645 173.71450237 -13.14958191 174.46304607 C-16.24065631 180.64416678 -19.47001654 186.7481693 -22.77432251 192.81787395 C-24.81215585 196.27549095 -24.81215585 196.27549095 -25.51966858 200.12863445 C-7.69966858 200.12863445 10.12033142 200.12863445 28.48033142 200.12863445 C31.78033142 193.52863445 35.08033142 186.92863445 38.48033142 180.12863445 C43.04283142 171.50363445 43.04283142 171.50363445 44.37901306 168.9894743 C49.1117131 160.03648685 53.58683121 150.95296486 58.0955658 141.88589764 C62.86460474 132.29761658 67.68153404 122.74601019 72.78892517 113.33175945 C74.79205334 109.9244906 74.79205334 109.9244906 75.48033142 106.12863445 C57.66033142 106.12863445 39.84033142 106.12863445 21.48033142 106.12863445 Z M90.48033142 106.12863445 C82.59320766 121.06458815 82.59320766 121.06458815 74.98033142 136.12863445 C71.66958812 142.80144137 68.29523221 149.42950387 64.79283142 156.00363445 C60.40031353 164.27055486 56.16590768 172.61524187 51.9655304 180.98099041 C51.22717681 182.45087807 50.48745704 183.92008028 49.74635315 185.38858318 C48.70300771 187.45743359 47.6651045 189.52892181 46.62876892 191.6012907 C46.31053665 192.23061001 45.99230438 192.85992931 45.66442871 193.5083189 C44.0061493 196.66493898 44.0061493 196.66493898 43.48033142 200.12863445 C61.30033142 200.12863445 79.12033142 200.12863445 97.48033142 200.12863445 C105.46282539 185.49406218 113.22951854 170.87288256 120.60533142 155.94113445 C122.43833284 152.23784912 124.27432356 148.53606511 126.11314392 144.8356657 C126.78062653 143.4912289 126.78062653 143.4912289 127.46159363 142.11963177 C130.90687286 135.20922235 134.47001165 128.36605863 138.12660217 121.56511211 C140.84081378 116.48287732 143.12542242 111.42717971 145.48033142 106.12863445 C127.33033142 106.12863445 109.18033142 106.12863445 90.48033142 106.12863445 Z M159.48033142 106.12863445 C157.86384705 109.37320477 156.24736267 112.61777508 154.58189392 115.9606657 C152.98034358 119.17160909 151.37807503 122.38219313 149.77574158 125.59274578 C148.67929081 127.79061515 147.58356379 129.98884575 146.4886322 132.18747234 C140.73785948 143.73382215 134.94543052 155.24872688 128.90361023 166.64589214 C125.28858676 173.46727256 121.79792673 180.34361744 118.35533142 187.25363445 C117.78040955 188.39961102 117.20548767 189.54558758 116.61314392 190.7262907 C116.07173767 191.81039227 115.53033142 192.89449383 114.97251892 194.01144695 C114.49153748 194.97453777 114.01055603 195.93762859 113.51499939 196.92990398 C112.40936686 198.87443649 112.40936686 198.87443649 112.48033142 200.12863445 C127.99033142 200.12863445 143.50033142 200.12863445 159.48033142 200.12863445 C161.89345642 195.27144695 161.89345642 195.27144695 164.35533142 190.31613445 C167.85694937 183.29169856 171.41167136 176.30394989 175.10533142 169.37863445 C180.31448538 159.5978519 185.22949454 149.6720635 190.16322327 139.7505827 C194.69598107 130.63747581 199.24803745 121.54553568 204.14463806 112.62033367 C205.92360663 109.55372235 205.92360663 109.55372235 206.48033142 106.12863445 C190.97033142 106.12863445 175.46033142 106.12863445 159.48033142 106.12863445 Z M220.48033142 157.12863445 C219.6500946 158.79696331 219.6500946 158.79696331 218.80308533 160.49899578 C216.69913653 164.72533998 214.59231222 168.95024575 212.48472595 173.17477703 C211.58227897 174.98462248 210.68055687 176.7948296 209.77964783 178.60544109 C192.99192931 212.34031457 192.99192931 212.34031457 187.31626892 221.2341032 C180.92665868 231.53616997 179.57954827 241.03751126 179.66783142 252.94113445 C179.6718396 253.64289806 179.67584778 254.34466167 179.67997742 255.06769085 C179.80486976 264.91212069 180.34331788 272.79337054 187.48033142 280.12863445 C193.49695189 284.76644606 199.03118664 284.9505373 206.48033142 284.12863445 C212.2421023 282.38923192 216.15167091 278.02725597 219.48033142 273.12863445 C221.91605004 267.57044661 221.74988282 262.30187734 221.7073822 256.34982586 C221.70767426 255.27605694 221.70796631 254.20228802 221.70826721 253.09598064 C221.70687718 249.55730304 221.69133109 246.01883765 221.67564392 242.48019695 C221.67191264 240.02254635 221.66906621 237.56489426 221.66706848 235.10724163 C221.65944114 228.64639442 221.63980025 222.18563747 221.61766052 215.72482586 C221.5971828 209.12897239 221.58806264 202.53310431 221.57798767 195.9372282 C221.55655361 183.00099183 221.52281419 170.06481795 221.48033142 157.12863445 C221.15033142 157.12863445 220.82033142 157.12863445 220.48033142 157.12863445 Z M-100.51966858 213.12863445 C-104.14966858 220.38863445 -107.77966858 227.64863445 -111.51966858 235.12863445 C-116.20716858 244.00363445 -116.20716858 244.00363445 -117.53260803 246.4985075 C-123.83506506 258.40843128 -129.75593764 270.52010864 -135.75550842 282.584445 C-137.67211206 286.43489269 -139.59616568 290.28162866 -141.51966858 294.12863445 C-124.02966858 294.12863445 -106.53966858 294.12863445 -88.51966858 294.12863445 C-82.39951961 282.50035142 -76.28438143 270.8736571 -70.26966858 259.19113445 C-69.91470306 258.50204998 -69.55973755 257.81296551 -69.1940155 257.10299969 C-63.89275558 246.80608657 -58.64476998 236.48327312 -53.45716858 226.12863445 C-53.15153992 225.51996532 -52.84591125 224.9112962 -52.53102112 224.28418255 C-51.6798768 222.58765584 -50.83209786 220.88944194 -49.98451233 219.19113445 C-49.50618958 218.23336102 -49.02786682 217.27558758 -48.53504944 216.2887907 C-47.44876891 214.37561608 -47.44876891 214.37561608 -47.51966858 213.12863445 C-65.00966858 213.12863445 -82.49966858 213.12863445 -100.51966858 213.12863445 Z M-32.51966858 213.12863445 C-35.81966858 219.39863445 -39.11966858 225.66863445 -42.51966858 232.12863445 C-43.5225592 234.03000164 -44.52544983 235.93136883 -45.55873108 237.8903532 C-52.27572845 250.66594292 -58.76837597 263.54634642 -65.17640686 276.47897625 C-65.67510033 277.48276066 -65.67510033 277.48276066 -66.18386841 278.50682354 C-67.09110631 280.33325273 -67.99601816 282.1608368 -68.90077209 283.98849773 C-70.51966858 287.12863445 -70.51966858 287.12863445 -72.23036194 289.92111492 C-73.68777995 291.99039508 -73.68777995 291.99039508 -73.51966858 294.12863445 C-55.69966858 294.12863445 -37.87966858 294.12863445 -19.51966858 294.12863445 C-10.92157762 277.49167796 -2.33900977 260.86071004 5.98985291 244.08786297 C9.71473429 236.60548302 13.55176966 229.18967383 17.49961853 221.82248211 C19.03342312 218.9498068 20.44832507 216.22465351 21.48033142 213.12863445 C3.66033142 213.12863445 -14.15966858 213.12863445 -32.51966858 213.12863445 Z M35.48033142 213.12863445 C29.01729519 226.09389817 29.01729519 226.09389817 22.5589447 239.06149578 C17.37547942 249.45496159 12.07709499 259.7774827 6.64097595 270.04098797 C4.15733926 274.73024231 1.73018384 279.4458603 -0.64466858 284.19113445 C-1.0288092 284.94716961 -1.41294983 285.70320477 -1.80873108 286.48215008 C-3.80831368 290.12518657 -3.80831368 290.12518657 -4.51966858 294.12863445 C13.63033142 294.12863445 31.78033142 294.12863445 50.48033142 294.12863445 C52.2411908 290.59531414 54.00205017 287.06199383 55.81626892 283.4216032 C57.25162079 280.54443566 58.68739358 277.66747901 60.1234436 274.7906599 C61.62255275 271.78723472 63.12074378 268.78336088 64.61753845 265.77878094 C71.07474664 252.81820286 77.57526874 239.89179835 84.38121033 227.11032391 C88.52500007 220.39024116 88.52500007 220.39024116 90.48033142 213.12863445 C72.33033142 213.12863445 54.18033142 213.12863445 35.48033142 213.12863445 Z M105.48033142 213.12863445 C97.04673705 229.14856036 97.04673705 229.14856036 88.88606262 245.29858685 C83.99135803 255.18843321 79.05319605 265.04938548 73.80064392 274.75558758 C70.38832127 281.11491616 67.52840784 287.52446888 64.48033142 294.12863445 C79.99033142 294.12863445 95.50033142 294.12863445 111.48033142 294.12863445 C120.6676561 276.31935892 129.83461837 258.51176023 138.75083923 240.56589031 C142.38846144 233.26099722 146.11502818 226.01289827 149.99424744 218.8332243 C151.72488772 216.12550494 151.72488772 216.12550494 152.48033142 213.12863445 C136.97033142 213.12863445 121.46033142 213.12863445 105.48033142 213.12863445 Z M195.48033142 297.12863445 C195.48033142 348.60863445 195.48033142 400.08863445 195.48033142 453.12863445 C199.77033142 453.12863445 204.06033142 453.12863445 208.48033142 453.12863445 C208.48033142 401.31863445 208.48033142 349.50863445 208.48033142 296.12863445 C204.13419648 296.12863445 199.80861768 296.73515388 195.48033142 297.12863445 Z M-148.51966858 307.12863445 C-151.11841858 312.34675945 -153.71716858 317.56488445 -156.39466858 322.94113445 C-161.37125751 332.9135505 -166.36644566 342.86487151 -171.62391663 352.69284344 C-176.73564907 362.31549503 -181.53079956 372.10296519 -186.36927795 381.86496258 C-187.06875357 383.27336154 -187.76861721 384.68156786 -188.46888733 386.08957195 C-188.8074173 386.77061993 -189.14594727 387.4516679 -189.49473572 388.15335369 C-192.28722935 393.73733311 -195.24642146 399.21812448 -198.28065491 404.67404461 C-199.66987523 406.96794381 -199.66987523 406.96794381 -199.51966858 409.12863445 C-182.02966858 409.12863445 -164.53966858 409.12863445 -146.51966858 409.12863445 C-143.75591858 403.58050945 -140.99216858 398.03238445 -138.14466858 392.31613445 C-132.96111183 381.93010624 -127.77106035 371.55754457 -122.29432678 361.32223797 C-117.44595435 352.20506629 -112.89717753 342.93289443 -108.31410217 333.68039227 C-107.66036477 332.36346349 -107.0062363 331.04672876 -106.35169983 329.73019695 C-106.03469116 329.09219158 -105.7176825 328.45418621 -105.3910675 327.79684734 C-102.65581351 322.32738834 -99.74626736 316.96348423 -96.77626038 311.61838055 C-95.36947791 309.29586796 -95.36947791 309.29586796 -95.51966858 307.12863445 C-113.00966858 307.12863445 -130.49966858 307.12863445 -148.51966858 307.12863445 Z M-80.51966858 307.12863445 C-88.39399952 322.05947207 -88.39399952 322.05947207 -96.14076233 337.0544157 C-96.61103348 337.9741769 -97.08130463 338.8939381 -97.56582642 339.84157085 C-98.54326645 341.75395 -99.52015348 343.66661189 -100.49647522 345.57956219 C-101.95118688 348.42941601 -103.40815095 351.27810982 -104.8653717 354.12668133 C-110.5456923 365.24051819 -116.16932829 376.38137933 -121.73866272 387.55124187 C-125.32644293 394.74664516 -128.92394903 401.93719536 -132.51966858 409.12863445 C-114.69966858 409.12863445 -96.87966858 409.12863445 -78.51966858 409.12863445 C-69.35141365 392.47118442 -69.35141365 392.47118442 -60.66810608 375.5856657 C-59.96338669 374.16842457 -59.96338669 374.16842457 -59.24443054 372.7225523 C-57.79049033 369.79738575 -56.34208595 366.8695332 -54.89466858 363.94113445 C-52.96789511 360.05035987 -51.03816406 356.1610703 -49.10560608 352.2731657 C-48.40259369 350.85766933 -48.40259369 350.85766933 -47.68537903 349.41357708 C-44.26997427 342.56399834 -40.75146808 335.77454642 -37.11155701 329.04143047 C-33.2622246 321.85004568 -29.99141478 314.56809059 -26.51966858 307.12863445 C-44.33966858 307.12863445 -62.15966858 307.12863445 -80.51966858 307.12863445 Z M-14.46546936 310.54147625 C-15.18781869 312.05312207 -15.87090182 313.58397807 -16.51966858 315.12863445 C-17.35314578 316.741849 -18.19352832 318.35151017 -19.03993225 319.95798016 C-19.92650868 321.73813481 -20.80888459 323.520386 -21.68763733 325.3044157 C-22.16735489 326.26905239 -22.64707245 327.23368908 -23.1413269 328.22755718 C-24.66713469 331.29685122 -26.18756229 334.36876596 -27.70716858 337.44113445 C-33.69367414 349.52574358 -39.70262239 361.58633566 -46.02102661 373.50148296 C-49.83606724 380.69976481 -53.51108212 387.96239804 -57.14466858 395.25363445 C-57.77344514 396.50760574 -58.40235148 397.76151196 -59.03138733 399.0153532 C-59.61791077 400.18968914 -60.2044342 401.36402508 -60.80873108 402.57394695 C-61.33160706 403.62082684 -61.85448303 404.66770672 -62.39320374 405.74631023 C-63.59091274 407.84010287 -63.59091274 407.84010287 -63.51966858 409.12863445 C-45.36966858 409.12863445 -27.21966858 409.12863445 -8.51966858 409.12863445 C0.30661477 392.05484043 9.09507361 374.97600456 17.65171814 357.76632977 C20.93447942 351.17796398 24.27822152 344.62982298 27.73033142 338.12863445 C31.26190285 331.47732604 34.71821202 324.7922949 38.10533142 318.06613445 C38.54393494 317.20181805 38.98253845 316.33750164 39.43443298 315.44699383 C39.83372009 314.64970867 40.2330072 313.85242352 40.64439392 313.0309782 C40.99969177 312.32449139 41.35498962 311.61800457 41.72105408 310.89010906 C42.61227762 309.14221922 42.61227762 309.14221922 42.48033142 307.12863445 C34.88191855 306.92577551 27.28420341 306.78568952 19.68370056 306.68918133 C17.0984742 306.64895192 14.5134298 306.59435971 11.92881775 306.52511883 C8.21245988 306.42805244 4.4985068 306.38270038 0.78111267 306.34738445 C-0.95195381 306.28544903 -0.95195381 306.28544903 -2.72003174 306.22226238 C-9.67146724 306.09987625 -9.67146724 306.09987625 -14.46546936 310.54147625 Z M57.48033142 307.12863445 C48.53095299 324.48086439 39.58850939 341.82441476 30.9002533 359.30832195 C27.77499585 365.58272416 24.57891692 371.81201878 21.29283142 378.00363445 C17.74116503 384.69693628 14.26339743 391.42345548 10.85533142 398.19113445 C10.41680847 399.05528973 9.97828552 399.919445 9.526474 400.8097868 C9.12710632 401.60723309 8.72773865 402.40467937 8.31626892 403.2262907 C7.96097107 403.93277752 7.60567322 404.63926434 7.23960876 405.36715984 C6.34838522 407.11504968 6.34838522 407.11504968 6.48033142 409.12863445 C21.66033142 409.12863445 36.84033142 409.12863445 52.48033142 409.12863445 C60.67078179 394.44987197 60.67078179 394.44987197 68.35533142 379.5387907 C68.85017029 378.5439114 69.34500916 377.5490321 69.85484314 376.52400494 C71.40063597 373.41499618 72.94094489 370.30331943 74.48033142 367.19113445 C76.51911719 363.07641774 78.56080364 358.96315731 80.60533142 354.8512907 C81.10242615 353.85078686 81.59952087 352.85028301 82.11167908 351.81946087 C85.57640176 344.87201159 89.13342749 337.97944074 92.8323822 331.15355206 C97.05365062 323.27722444 100.65417548 315.25921583 104.48033142 307.12863445 C88.97033142 307.12863445 73.46033142 307.12863445 57.48033142 307.12863445 Z M-175.51966858 469.12863445 C-178.48011682 472.87853555 -178.51966858 474.11900568 -178.51966858 479.12863445 C-50.80966858 479.12863445 76.90033142 479.12863445 208.48033142 479.12863445 C208.48033142 474.83863445 208.48033142 470.54863445 208.48033142 466.12863445 C160.42750692 466.06022838 112.37468884 466.00712181 64.32182523 465.97543846 C58.65151601 465.97168625 52.9812069 465.96780329 47.31089783 465.96383953 C46.18201931 465.9630526 45.05314078 465.96226567 43.89005382 465.96145489 C25.60028888 465.94839332 7.31055216 465.92473533 -10.97919603 465.89717606 C-29.73968911 465.86914278 -48.50016739 465.85246259 -67.26068056 465.84636897 C-78.84123729 465.84224822 -90.42171424 465.82922307 -102.00224642 465.80488505 C-109.93845366 465.78905351 -117.87461951 465.78422823 -125.8108414 465.78813032 C-130.39279237 465.79005589 -134.97460372 465.78705953 -139.55653 465.77101803 C-143.74997665 465.75644354 -147.94318949 465.7556661 -152.13664679 465.76593777 C-153.65491778 465.76720771 -155.17320322 465.76338136 -156.69144566 465.75398491 C-158.75392204 465.74196082 -160.81555231 465.74842451 -162.87801552 465.75949097 C-164.59700945 465.75778223 -164.59700945 465.75778223 -166.35073054 465.75603896 C-169.99325721 466.18431777 -172.38869877 467.24528382 -175.51966858 469.12863445 Z " fill="#000000" transform="translate(240.51966857910156,16.871365547180176)"/>
<path d="M0 0 C13.11292067 9.17200713 20.95018515 21.12906269 23.79296875 36.91015625 C25.44330883 52.19230537 21.89804394 66.44743643 12.18359375 78.52734375 C2.67967739 89.65287867 -9.77094727 95.89045016 -24.31640625 97.40234375 C-38.54608114 98.09937681 -50.45784124 93.88180952 -61.81640625 85.52734375 C-62.84765625 84.78484375 -63.87890625 84.04234375 -64.94140625 83.27734375 C-74.11440169 74.50317419 -80.53099026 62.2220915 -81.1171875 49.4140625 C-81.13644596 48.01444996 -81.14001116 46.61454473 -81.12890625 45.21484375 C-81.12153442 44.10290649 -81.12153442 44.10290649 -81.11401367 42.96850586 C-80.79402427 27.87321078 -74.5338353 15.94706644 -63.81640625 5.52734375 C-46.17375478 -10.38146094 -20.35399734 -12.28709197 0 0 Z M-60.62890625 20.77734375 C-67.7191275 30.58823129 -68.98024989 40.74639585 -67.81640625 52.52734375 C-65.39721331 63.61757655 -58.80427967 71.85015234 -49.81640625 78.52734375 C-41.07143806 84.0860265 -30.87563328 85.94637412 -20.74609375 83.91015625 C-9.512851 80.90931363 -0.57453384 75.18804942 5.74609375 65.296875 C11.33937531 54.52068851 12.73871817 44.5271683 9.55859375 32.90234375 C7.63256046 27.1779312 5.33885366 22.89640898 1.18359375 18.52734375 C0.53519531 17.83898437 -0.11320312 17.150625 -0.78125 16.44140625 C-8.74896252 8.68981613 -17.32050221 5.08308286 -28.37890625 4.96484375 C-41.88245259 5.21386012 -51.92846606 10.45134361 -60.62890625 20.77734375 Z " fill="#000000" transform="translate(117.81640625,52.47265625)"/>
<path d="M0 0 C4.29378813 1.92287034 6.77153701 4.62478869 10 8 C8.67879172 10.93230193 7.25361803 12.98664899 4.9609375 15.234375 C4.09082031 16.09482422 4.09082031 16.09482422 3.203125 16.97265625 C2.59984375 17.55917969 1.9965625 18.14570312 1.375 18.75 C0.76398438 19.35199219 0.15296875 19.95398438 -0.4765625 20.57421875 C-1.97988624 22.05405305 -3.48934856 23.52764676 -5 25 C-9.29378813 23.07712966 -11.77153701 20.37521131 -15 17 C-13.67879172 14.06769807 -12.25361803 12.01335101 -9.9609375 9.765625 C-9.38085938 9.19199219 -8.80078125 8.61835937 -8.203125 8.02734375 C-7.59984375 7.44082031 -6.9965625 6.85429687 -6.375 6.25 C-5.76398438 5.64800781 -5.15296875 5.04601562 -4.5234375 4.42578125 C-3.02011376 2.94594695 -1.51065144 1.47235324 0 0 Z " fill="#000000" transform="translate(147,25)"/>
<path d="M0 0 C6.32532275 4.39497902 11.67248457 9.45050476 17 15 C15.07712966 19.29378813 12.37521131 21.77153701 9 25 C6.06769807 23.67879172 4.01335101 22.25361803 1.765625 19.9609375 C1.19199219 19.38085938 0.61835938 18.80078125 0.02734375 18.203125 C-0.55917969 17.59984375 -1.14570313 16.9965625 -1.75 16.375 C-2.35199219 15.76398437 -2.95398438 15.15296875 -3.57421875 14.5234375 C-5.05405305 13.02011376 -6.52764676 11.51065144 -8 10 C-6.07712966 5.70621187 -3.37521131 3.22846299 0 0 Z " fill="#000000" transform="translate(29,25)"/>
<path d="M0 0 C4.29 0 8.58 0 13 0 C13 7.59 13 15.18 13 23 C8.71 23 4.42 23 0 23 C0 15.41 0 7.82 0 0 Z " fill="#000000" transform="translate(83,159)"/>
<path d="M0 0 C7.59 0 15.18 0 23 0 C23 4.29 23 8.58 23 13 C15.41 13 7.82 13 0 13 C0 8.71 0 4.42 0 0 Z " fill="#000000" transform="translate(156,86)"/>
<path d="M0 0 C4.29 0 8.58 0 13 0 C13 7.59 13 15.18 13 23 C8.71 23 4.42 23 0 23 C0 15.41 0 7.82 0 0 Z " fill="#000000" transform="translate(82,3)"/>
<path d="M0 0 C5.66129431 4.69766975 10.85228904 9.74723372 16 15 C14.17495091 18.92300272 11.81729174 21.73787272 9 25 C5.96291295 23.65018353 3.96258753 22.16083261 1.6875 19.75 C-1.69808043 16.25449813 -5.26855998 13.12222532 -9 10 C-8.06409496 8.8944811 -7.12620142 7.79064547 -6.1875 6.6875 C-5.66542969 6.07261719 -5.14335937 5.45773438 -4.60546875 4.82421875 C-3.12827531 3.14575321 -1.59960869 1.56117966 0 0 Z " fill="#000000" transform="translate(141,135)"/>
<path d="M0 0 C7 6 7 6 9 10 C4.05 14.95 -0.9 19.9 -6 25 C-10 23 -10 23 -16 16 C-10.72 10.72 -5.44 5.44 0 0 Z " fill="#000000" transform="translate(37,135)"/>
<path d="M0 0 C7.26 0 14.52 0 22 0 C22 4.29 22 8.58 22 13 C14.74 13 7.48 13 0 13 C0 8.71 0 4.42 0 0 Z " fill="#000000" transform="translate(0,86)"/>
</svg>
