<?xml version="1.0" encoding="UTF-8"?>
<svg version="1.1" xmlns="http://www.w3.org/2000/svg" width="512" height="512">
<path d="M0 0 C1.0054184 0.00465271 2.01083679 0.00930542 3.04672241 0.01409912 C17.55398411 0.09270742 31.81520628 0.39095071 46.0625 3.375 C47.03735352 3.57367676 48.01220703 3.77235352 49.01660156 3.97705078 C97.3984774 14.09767194 141.38678269 36.0141877 177.0625 70.375 C178.0515332 71.32318604 178.0515332 71.32318604 179.06054688 72.29052734 C188.54880305 81.43497479 197.2887044 90.73234009 205.0625 101.375 C205.92056152 102.52605017 206.77863451 103.67709177 207.63671875 104.828125 C213.67427396 113.01775981 219.05707302 121.52038276 224.0625 130.375 C224.4646875 131.08221191 224.866875 131.78942383 225.28125 132.51806641 C238.3066741 155.65345836 247.05551461 180.82462409 252.375 206.8125 C252.52235596 207.53139404 252.66971191 208.25028809 252.8215332 208.9909668 C255.79539088 224.63725609 256.43550362 240.11068046 256.375 256 C256.37284485 257.01790619 256.3706897 258.03581238 256.36846924 259.08456421 C256.31879854 273.69363523 256.06790191 288.02575853 253.0625 302.375 C252.76448486 303.83728027 252.76448486 303.83728027 252.46044922 305.32910156 C242.33982806 353.7109774 220.4233123 397.69928269 186.0625 433.375 C185.43037598 434.03435547 184.79825195 434.69371094 184.14697266 435.37304688 C175.00252521 444.86130305 165.70515991 453.6012044 155.0625 461.375 C153.91144983 462.23306152 152.76040823 463.09113451 151.609375 463.94921875 C143.41974019 469.98677396 134.91711724 475.36957302 126.0625 480.375 C125.35528809 480.7771875 124.64807617 481.179375 123.91943359 481.59375 C97.77189144 496.31504051 68.75083558 506.01421333 39.0625 510.375 C37.85787109 510.55232666 36.65324219 510.72965332 35.41210938 510.91235352 C23.75482646 512.511325 12.19063902 512.7334053 0.4375 512.6875 C-1.01733292 512.68476578 -1.01733292 512.68476578 -2.5015564 512.68197632 C-16.85306055 512.63658309 -30.81692918 512.1312347 -44.9375 509.375 C-45.83452637 509.21402832 -46.73155273 509.05305664 -47.65576172 508.88720703 C-91.26061969 500.99694853 -132.39740471 481.30735057 -165.9375 452.375 C-166.68257813 451.74078125 -167.42765625 451.1065625 -168.1953125 450.453125 C-181.70029833 438.64198485 -194.37168743 425.89139772 -204.9375 411.375 C-205.79399066 410.22505169 -206.65076433 409.07531411 -207.5078125 407.92578125 C-213.54784209 399.73565742 -218.93117614 391.23120382 -223.9375 382.375 C-224.3396875 381.66778809 -224.741875 380.96057617 -225.15625 380.23193359 C-239.90861537 354.02919713 -249.44385806 325.08869203 -253.9375 295.375 C-254.20240234 293.69132324 -254.20240234 293.69132324 -254.47265625 291.97363281 C-256.1295586 280.36052257 -256.33623513 268.84320055 -256.3125 257.125 C-256.31195618 256.11298523 -256.31141235 255.10097046 -256.31085205 254.05828857 C-256.2701051 237.52382605 -255.34636907 221.60435136 -251.9375 205.375 C-251.72851074 204.35970215 -251.51952148 203.3444043 -251.30419922 202.29833984 C-242.52630189 160.98633315 -223.52363066 122.3544774 -195.9375 90.375 C-195.30328125 89.62992187 -194.6690625 88.88484375 -194.015625 88.1171875 C-183.09472744 75.63011471 -171.25758948 63.30323646 -157.9375 53.375 C-157.2990918 52.89256836 -156.66068359 52.41013672 -156.00292969 51.91308594 C-123.31491968 27.29618951 -85.48117654 9.98034864 -44.9375 3.375 C-44.1924118 3.25185425 -43.44732361 3.1287085 -42.67965698 3.00183105 C-28.39836847 0.69267395 -14.4540454 -0.12002548 0 0 Z " fill="#C6BEC3" transform="translate(255.9375,-0.375)"/>
<path d="M0 0 C3.01801024 1.12765368 5.36503686 2.61219411 8.0168457 4.44726562 C9.64831543 5.56621216 9.64831543 5.56621216 11.31274414 6.70776367 C12.49798439 7.53236216 13.68320518 8.35698863 14.8684082 9.18164062 C16.11029639 10.03647161 17.35282265 10.89037627 18.59594727 11.7434082 C21.22058051 13.54527848 23.84265158 15.35079158 26.46313477 17.15869141 C32.38247716 21.23739593 38.33507824 25.26699979 44.2883606 29.29592896 C46.23736303 30.61504914 48.18562154 31.93526239 50.13378906 33.25561523 C61.87815987 41.21115595 73.67524306 49.08615447 85.4934082 56.93164062 C85.8234082 50.99164063 86.1534082 45.05164063 86.4934082 38.93164062 C109.2634082 38.93164062 132.0334082 38.93164062 155.4934082 38.93164062 C156.32347829 110.0409782 135.57195076 175.93671361 85.4934082 227.93164062 C84.86128418 228.59099609 84.22916016 229.25035156 83.57788086 229.9296875 C74.43343342 239.41794368 65.13606811 248.15784503 54.4934082 255.93164062 C53.34235804 256.78970214 52.19131643 257.64777514 51.0402832 258.50585938 C42.85064839 264.54341459 34.34802545 269.92621364 25.4934082 274.93164062 C24.78619629 275.33382813 24.07898438 275.73601562 23.3503418 276.15039062 C-2.79720036 290.87168113 -31.81825621 300.57085396 -61.5065918 304.93164062 C-62.7112207 305.10896729 -63.91584961 305.28629395 -65.15698242 305.46899414 C-76.81426533 307.06796563 -88.37845277 307.29004592 -100.1315918 307.24414062 C-101.58642471 307.2414064 -101.58642471 307.2414064 -103.07064819 307.23861694 C-117.42215235 307.19322372 -131.38602097 306.68787533 -145.5065918 303.93164062 C-146.40361816 303.77066895 -147.30064453 303.60969727 -148.22485352 303.44384766 C-191.82971149 295.55358916 -232.96649651 275.86399119 -266.5065918 246.93164062 C-267.25166992 246.29742187 -267.99674805 245.66320312 -268.7644043 245.00976562 C-282.26939012 233.19862548 -294.94077923 220.44803834 -305.5065918 205.93164062 C-306.36308246 204.78169231 -307.21985613 203.63195474 -308.0769043 202.48242188 C-314.11693388 194.29229804 -319.50026794 185.78784445 -324.5065918 176.93164062 C-324.9087793 176.22442871 -325.3109668 175.5172168 -325.7253418 174.78857422 C-331.07065213 165.29438434 -335.6609733 155.61835119 -339.6940918 145.49414062 C-340.29253906 144.01010742 -340.29253906 144.01010742 -340.90307617 142.49609375 C-341.26079102 141.56861328 -341.61850586 140.64113281 -341.98706055 139.68554688 C-342.30570068 138.8638501 -342.62434082 138.04215332 -342.95263672 137.19555664 C-343.57294208 134.66047881 -343.42286555 133.35280081 -342.5065918 130.93164062 C-332.14883726 118.75773187 -313.02713365 111.01541004 -297.35327148 109.65869141 C-294.19068504 109.56758607 -291.04499537 109.57044291 -287.8815918 109.61914062 C-286.82713867 109.61591797 -285.77268555 109.61269531 -284.6862793 109.609375 C-276.26375139 109.66670656 -268.34465359 110.73103805 -260.3815918 113.55664062 C-259.63651367 113.81703125 -258.89143555 114.07742188 -258.1237793 114.34570312 C-257.59010742 114.5390625 -257.05643555 114.73242188 -256.5065918 114.93164062 C-256.3003418 113.71476562 -256.0940918 112.49789062 -255.8815918 111.24414062 C-252.14651453 94.60606918 -241.3989924 77.98218534 -227.18237305 68.53320312 C-212.27872294 59.61277021 -194.11200492 56.84319906 -177.0612793 60.80664062 C-160.91587064 65.84586468 -147.57202459 76.68596051 -138.5065918 90.93164062 C-134.84952955 89.60283229 -131.89405386 87.97863153 -128.7253418 85.72851562 C-127.81268555 85.08567627 -126.9000293 84.44283691 -125.9597168 83.78051758 C-124.98518555 83.08788818 -124.0106543 82.39525879 -123.0065918 81.68164062 C-115.56308554 76.4467564 -108.0953445 71.26638636 -100.5065918 66.24414062 C-91.78324784 60.4630244 -83.10549052 54.61745068 -74.4440918 48.74414062 C-73.78388031 48.2965036 -73.12366882 47.84886658 -72.44345093 47.38766479 C-68.44140643 44.6738809 -64.44019831 41.95886625 -60.43933105 39.24334717 C-57.97528057 37.57105168 -55.51089 35.89925792 -53.04641724 34.22758484 C-51.87125241 33.43037272 -50.69618282 32.63302018 -49.52120972 31.83552551 C-46.65140775 29.88779993 -43.78037183 27.94195183 -40.90649414 26.00024414 C-35.47172644 22.3248927 -30.05505039 18.62782684 -24.68049622 14.86477661 C-22.10379635 13.06252112 -19.51957322 11.27122501 -16.93466187 9.48077393 C-15.70136662 8.62193997 -14.47180488 7.75771701 -13.24624634 6.88787842 C-11.55174661 5.68566579 -9.8454454 4.50235796 -8.13549805 3.32226562 C-7.16684814 2.64196289 -6.19819824 1.96166016 -5.20019531 1.26074219 C-2.5065918 -0.06835938 -2.5065918 -0.06835938 0 0 Z " fill="#57978B" transform="translate(356.506591796875,205.068359375)"/>
<path d="M0 0 C3.50592439 1.33357824 6.44284962 3.30389421 9.49926758 5.43554688 C10.15584351 5.88355148 10.81241943 6.33155609 11.4888916 6.7931366 C12.85719935 7.72731854 14.22327246 8.6647815 15.5871582 9.60540771 C18.04241367 11.29571184 20.51282944 12.9627671 22.98474121 14.62857056 C26.02528382 16.67875449 29.05845225 18.7398124 32.09301758 20.79882812 C33.43737708 21.71034773 34.78177918 22.6218045 36.1262207 23.53320312 C38.90437837 25.41658936 41.68235727 27.30023881 44.46020508 29.18408203 C48.44119048 31.88364689 52.42315333 34.58176659 56.40551758 37.27929688 C57.04126205 37.70993439 57.67700653 38.1405719 58.33201599 38.58425903 C60.89431596 40.31984075 63.4566645 42.05535073 66.01907349 43.79077148 C72.54249898 48.20884448 79.06547603 52.62756512 85.58470154 57.05183411 C101.87168023 68.10485053 118.19197241 79.10299797 134.59301758 89.98632812 C132.6953587 96.23290335 130.34061431 101.97253644 127.28051758 107.73632812 C126.85246826 108.54416748 126.42441895 109.35200684 125.98339844 110.18432617 C115.11385311 130.21707288 101.38582637 148.58916682 85.59301758 164.98632812 C84.96089355 165.64568359 84.32876953 166.30503906 83.67749023 166.984375 C74.53304279 176.47263118 65.23567748 185.21253253 54.59301758 192.98632812 C53.44196741 193.84438964 52.2909258 194.70246264 51.13989258 195.56054688 C42.95025777 201.59810209 34.44763482 206.98090114 25.59301758 211.98632812 C24.53219971 212.58960938 24.53219971 212.58960938 23.44995117 213.20507812 C-2.69759099 227.92636863 -31.71864684 237.62554146 -61.40698242 241.98632812 C-62.61161133 242.16365479 -63.81624023 242.34098145 -65.05737305 242.52368164 C-76.71485275 244.12268012 -88.27870552 244.34361929 -100.03198242 244.29882812 C-101.48482132 244.29659241 -101.48482132 244.29659241 -102.9670105 244.29431152 C-117.30383192 244.25466168 -131.3013748 243.75888751 -145.40698242 240.98632812 C-146.30739258 240.81520508 -147.20780273 240.64408203 -148.13549805 240.46777344 C-163.2646134 237.55751264 -163.2646134 237.55751264 -166.40698242 235.98632812 C-167.06460589 220.01844744 -167.55642735 204.05502537 -167.85772324 188.07683086 C-168.00143038 180.65504602 -168.19751492 173.24180619 -168.51928711 165.82543945 C-170.69919066 114.56426441 -170.69919066 114.56426441 -162.26124096 104.7309351 C-156.39634663 99.12285959 -149.33034682 95.99634964 -141.78314209 93.26956177 C-137.30004897 91.56559736 -133.78172414 89.14315624 -129.98120117 86.27539062 C-128.82574355 85.48269062 -127.66568924 84.69664149 -126.50073242 83.91796875 C-125.94643555 83.54260986 -125.39213867 83.16725098 -124.82104492 82.78051758 C-124.2512793 82.39468506 -123.68151367 82.00885254 -123.09448242 81.61132812 C-121.80931743 80.74089832 -120.5241615 79.87045514 -119.23901367 79 C-116.60281713 77.21446813 -113.96658402 75.42899027 -111.33032227 73.64355469 C-105.50038855 69.6951037 -99.67094234 65.74593306 -93.84146118 61.79681396 C-90.61332174 59.60995562 -87.38515046 57.42314426 -84.15698242 55.23632812 C-82.8653156 54.36132835 -81.57364894 53.48632835 -80.28198242 52.61132812 C-72.53198243 47.36132813 -72.53198243 47.36132813 -70.59477234 46.04902649 C-69.30213684 45.17336887 -68.00950379 44.29770765 -66.71687317 43.42204285 C-63.50254949 41.24457493 -60.28818445 39.06716813 -57.07373047 36.88989258 C-51.08451657 32.83307024 -45.09570175 28.77566271 -39.10830688 24.71615601 C-36.31658403 22.82339645 -33.52463304 20.93097357 -30.73266602 19.03857422 C-29.41696028 18.14665146 -28.10136317 17.25456845 -26.78588867 16.36230469 C-26.16584961 15.94174805 -25.54581055 15.52119141 -24.90698242 15.08789062 C-23.99678848 14.4703038 -23.99678848 14.4703038 -23.06820679 13.84024048 C-21.88392702 13.03849222 -20.69826849 12.23877622 -19.51113892 11.44125366 C-16.65435066 9.52126131 -13.82237239 7.57747197 -11.02563477 5.57080078 C-9.96940918 4.82749512 -8.91318359 4.08418945 -7.82495117 3.31835938 C-6.89835693 2.65167236 -5.9717627 1.98498535 -5.01708984 1.2980957 C-2.40698242 -0.01367188 -2.40698242 -0.01367188 0 0 Z " fill="#E5DBDB" transform="translate(356.406982421875,268.013671875)"/>
<path d="M0 0 C1.41952217 -0.01058945 1.41952217 -0.01058945 2.86772156 -0.02139282 C42.38370862 -0.24928599 42.38370862 -0.24928599 58.8671875 3.203125 C59.84204102 3.40180176 60.81689453 3.60047852 61.82128906 3.80517578 C110.2031649 13.92579694 154.19147019 35.8423127 189.8671875 70.203125 C190.8562207 71.15131104 190.8562207 71.15131104 191.86523438 72.11865234 C201.35349055 81.26309979 210.0933919 90.56046509 217.8671875 101.203125 C218.72524902 102.35417517 219.58332201 103.50521677 220.44140625 104.65625 C226.47896146 112.84588481 231.86176052 121.34850776 236.8671875 130.203125 C237.269375 130.91033691 237.6715625 131.61754883 238.0859375 132.34619141 C257.02999454 165.99409271 268.8671875 205.46224214 268.8671875 244.203125 C246.0971875 244.203125 223.3271875 244.203125 199.8671875 244.203125 C199.8671875 250.473125 199.8671875 256.743125 199.8671875 263.203125 C193.67915995 259.99861073 187.96347694 256.28950783 182.25048828 252.31884766 C171.61071142 244.92518462 160.86845212 237.68204376 150.12709045 230.43713379 C145.89148684 227.57806626 141.66799854 224.70201985 137.45233154 221.81364441 C134.6955381 219.92789659 131.93181383 218.05248935 129.16656494 216.1791687 C127.84771762 215.2823744 126.53187973 214.38113744 125.21917725 213.47537231 C123.39729767 212.21920422 121.56546116 210.97909002 119.73046875 209.7421875 C118.69188721 209.03271973 117.65330566 208.32325195 116.58325195 207.59228516 C114.0733029 206.03156443 114.0733029 206.03156443 111.83276367 206.27148438 C109.23814958 207.50127538 106.93761132 208.96480522 104.5546875 210.5703125 C103.49411133 211.28098877 102.43353516 211.99166504 101.34082031 212.72387695 C100.1828399 213.50847459 99.02496539 214.29322854 97.8671875 215.078125 C96.65492319 215.89392047 95.44235236 216.7092606 94.22949219 217.52416992 C91.06042228 219.65600054 87.89652956 221.79537316 84.73461914 223.93780518 C82.942777 225.15190766 81.15021679 226.36494172 79.35742188 227.57763672 C69.80355144 234.04182379 60.26419457 240.52737208 50.72998047 247.02050781 C47.1935634 249.42878518 43.65542055 251.8345101 40.11633301 254.23886108 C38.75734867 255.16286824 37.39901554 256.08783398 36.04138184 257.01382446 C34.14507708 258.30716477 32.24660199 259.59726034 30.34765625 260.88671875 C28.72186646 261.99358032 28.72186646 261.99358032 27.06323242 263.12280273 C23.74677741 265.28150055 20.30293544 267.23984046 16.8671875 269.203125 C16.8671875 254.353125 16.8671875 239.503125 16.8671875 224.203125 C37.5546875 224.015625 37.5546875 224.015625 44.0612793 223.99536133 C45.77135284 223.96890672 47.48139956 223.94062763 49.19140625 223.91015625 C50.07268188 223.91414429 50.95395752 223.91813232 51.86193848 223.92224121 C56.03738253 223.82571627 58.24870888 223.63204953 61.74365234 221.20825195 C64.40145506 217.4470547 65.9452529 213.72071999 67.51953125 209.4140625 C68.21273602 207.60389642 68.90934054 205.79502956 69.60888672 203.98730469 C69.9745575 203.03915894 70.34022827 202.09101318 70.71697998 201.11413574 C72.65413405 196.21147581 74.76036467 191.38460926 76.87109375 186.5546875 C77.3128746 185.541147 77.75465546 184.52760651 78.20982361 183.48335266 C79.13492376 181.36332076 80.06102655 179.24372613 80.98806763 177.12454224 C83.50746089 171.36368147 86.01597103 165.59809141 88.5234375 159.83203125 C89.04160538 158.64054977 89.55977325 157.4490683 90.09364319 156.22148132 C96.92224166 140.49865424 103.62371937 124.72180065 110.32836914 108.94580078 C110.78650497 107.86814453 111.24464081 106.79048828 111.71665955 105.68017578 C112.59644543 103.60802469 113.47448861 101.53513263 114.3506012 99.46142578 C116.14177314 95.2265363 117.94262464 91.00122427 119.84716797 86.81591797 C120.1350267 86.17549057 120.42288544 85.53506317 120.71946716 84.87522888 C121.44331399 83.27406308 122.18163544 81.67946026 122.92163086 80.08569336 C124.077735 76.56126226 124.30762792 73.88737524 123.8671875 70.203125 C121.62791576 67.90418072 120.22656757 67.25190288 117.03239059 66.81836414 C115.92992619 66.81375518 114.82746178 66.80914621 113.69158936 66.80439758 C112.42396759 66.79185944 111.15634583 66.77932129 109.85031128 66.7664032 C108.44805882 66.76757723 107.04580658 66.76903637 105.64355469 66.77075195 C104.16514262 66.76173468 102.68673804 66.75140755 101.20834351 66.73986816 C97.19629194 66.71226767 93.1843821 66.70300955 89.17224789 66.69701409 C84.9788087 66.68763833 80.78547571 66.66143561 76.59210205 66.63700867 C68.65199643 66.59331797 60.71191138 66.56478682 52.77172208 66.54168528 C43.73183704 66.51464737 34.69205871 66.47073501 25.65224981 66.42539656 C7.05728535 66.33251349 -11.53770733 66.26084954 -30.1328125 66.203125 C-29.9792147 64.58991963 -29.82344615 62.97692084 -29.66674805 61.36401367 C-29.58023483 60.46575363 -29.49372162 59.56749359 -29.40458679 58.64201355 C-29.1328125 56.203125 -29.1328125 56.203125 -28.58984375 53.62890625 C-25.66996724 38.13110015 -29.13938937 22.22666211 -35.3984375 8.0234375 C-36.1328125 6.203125 -36.1328125 6.203125 -36.1328125 4.203125 C-33.48761008 3.72024649 -30.8417304 3.24175876 -28.1953125 2.765625 C-27.45990234 2.63091797 -26.72449219 2.49621094 -25.96679688 2.35742188 C-24.85981445 2.15922852 -24.85981445 2.15922852 -23.73046875 1.95703125 C-23.06539307 1.83658447 -22.40031738 1.7161377 -21.71508789 1.59204102 C-14.46209098 0.4996685 -7.33270381 0.03639142 0 0 Z " fill="#6EE0FE" transform="translate(243.1328125,-0.203125)"/>
<path d="M0 0 C3.3259103 3.21620145 6.21219587 6.50128243 9 10.1875 C21.47587754 25.5091149 40.47031498 35.4025764 60 38 C73.04371871 38.71472431 85.34773748 37.21814712 98 34 C95.71937778 41.22573843 92.91923689 48.12189128 89.9140625 55.07421875 C89.42001419 56.22465668 88.92596588 57.3750946 88.41694641 58.56039429 C87.36475845 61.00907879 86.31126809 63.45715283 85.25558472 65.90432739 C83.89013084 69.07032856 82.52994489 72.23855871 81.17171383 75.4076643 C76.34334114 86.6735032 71.50908445 97.93538936 66.48828125 109.1171875 C65.865569 110.51335921 65.24300174 111.90959561 64.62060547 113.3059082 C63.53793419 115.73345599 62.43473537 118.14732943 61.31689453 120.55932617 C57.85460182 128.10100252 57.85460182 128.10100252 59 136 C61.5673155 138.8170266 63.12326955 139.01236908 66.97369385 139.39872742 C68.61542658 139.42513104 70.25747138 139.43515868 71.89941406 139.43237305 C72.79732666 139.4425647 73.69523926 139.45275635 74.62036133 139.46325684 C77.58551235 139.49342856 80.55034053 139.50265921 83.515625 139.51171875 C85.57258176 139.52856232 87.6295282 139.54671213 89.6864624 139.56611633 C95.09839658 139.61365726 100.51028895 139.64344023 105.92236328 139.66955566 C111.44572203 139.69934047 116.96893665 139.74587795 122.4921875 139.79101562 C133.32804967 139.87709536 144.16394147 139.94441995 155 140 C155.68119885 150.24221652 156.14518051 160.42176229 156.09765625 170.69140625 C156.09553383 172.48649879 156.09553383 172.48649879 156.09336853 174.31785583 C156.0878595 178.06609819 156.07532561 181.81427632 156.0625 185.5625 C156.0574732 188.13476475 156.05291238 190.70703046 156.04882812 193.27929688 C156.03792016 199.51955243 156.0212763 205.75977163 156 212 C154.68 212 153.36 212 152 212 C150.17578125 210.12890625 150.17578125 210.12890625 148.3125 207.5625 C138.62238154 194.9278704 126.37492121 184.26381399 110 182 C90.30682094 180.44797251 73.1370006 182.71224335 57.3125 195.5 C48.32504696 204.04056311 42.06370723 215.40356717 38 227 C37.68289062 227.90492188 37.36578125 228.80984375 37.0390625 229.7421875 C36.33365866 231.81956945 35.66231423 233.90848136 35 236 C33.82244141 235.69255859 33.82244141 235.69255859 32.62109375 235.37890625 C31.04521484 234.97478516 31.04521484 234.97478516 29.4375 234.5625 C28.40496094 234.29566406 27.37242188 234.02882813 26.30859375 233.75390625 C3.2623531 228.50251966 -19.87268065 231.67860882 -40 244 C-42.81688429 246.03872001 -45.4721865 248.13818813 -48.08203125 250.43359375 C-50 252 -50 252 -53 253 C-57.89361507 236.82548813 -61.80807524 220.77097515 -64 204 C-64.08547592 203.34659134 -64.17095184 202.69318268 -64.25901794 202.01997375 C-64.9504915 196.35119639 -65.18861303 190.75078735 -65.23828125 185.04296875 C-65.25297203 183.64388527 -65.25297203 183.64388527 -65.26795959 182.21653748 C-65.44066965 161.49057878 -65.27885844 141.37130077 -61 121 C-60.79101074 119.98470215 -60.58202148 118.9694043 -60.36669922 117.92333984 C-51.54840437 76.42120762 -32.44235653 38.25877012 -5 6 C-3.9780602 4.7717531 -2.95701875 3.54275726 -1.9375 2.3125 C-0.9784375 1.1678125 -0.9784375 1.1678125 0 0 Z " fill="#05CCFE" transform="translate(65,84)"/>
<path d="M0 0 C3.01801024 1.12765368 5.36503686 2.61219411 8.0168457 4.44726562 C9.64831543 5.56621216 9.64831543 5.56621216 11.31274414 6.70776367 C12.49798439 7.53236216 13.68320518 8.35698863 14.8684082 9.18164062 C16.11029639 10.03647161 17.35282265 10.89037627 18.59594727 11.7434082 C21.22058051 13.54527848 23.84265158 15.35079158 26.46313477 17.15869141 C32.38247716 21.23739593 38.33507824 25.26699979 44.2883606 29.29592896 C46.23736303 30.61504914 48.18562154 31.93526239 50.13378906 33.25561523 C61.87815987 41.21115595 73.67524306 49.08615447 85.4934082 56.93164062 C85.8234082 50.99164063 86.1534082 45.05164063 86.4934082 38.93164062 C109.2634082 38.93164062 132.0334082 38.93164062 155.4934082 38.93164062 C155.95759017 78.69656274 151.95917246 116.12581465 135.4934082 152.93164062 C132.37557584 152.31284082 130.22448986 151.28639518 127.59887695 149.50976562 C126.82495605 148.99019287 126.05103516 148.47062012 125.25366211 147.93530273 C124.40465332 147.35659424 123.55564453 146.77788574 122.6809082 146.18164062 C121.77002441 145.56748291 120.85914063 144.9533252 119.9206543 144.32055664 C117.33785482 142.57713498 114.75881329 140.82830523 112.18121338 139.07720947 C109.22422156 137.07020194 106.26273026 135.06984868 103.30200195 133.06835938 C97.38525234 129.06683905 91.47290462 125.05885999 85.56214905 121.04849243 C79.01593615 116.60709862 72.46655042 112.17039738 65.91671753 107.73434448 C63.99564494 106.43315562 62.07470387 105.13177286 60.15380859 103.83032227 C54.20226436 99.79807683 48.25026135 95.7665147 42.29631042 91.73782349 C40.91444156 90.80268432 39.53269626 89.86736255 38.15107727 88.93185425 C34.80893482 86.66887405 31.46547412 84.40791049 28.11865234 82.15185547 C22.76850296 78.54107864 17.43247249 74.92171393 12.2043457 71.13476562 C11.08950806 70.33449951 11.08950806 70.33449951 9.95214844 69.51806641 C8.66709543 68.58892916 7.39182691 67.6459886 6.13037109 66.68505859 C3.5750586 64.84261783 1.82734914 63.94865965 -1.3425293 63.78710938 C-5.98802448 65.46751689 -9.60952287 68.20574413 -13.5690918 71.11914062 C-15.37490492 72.41547358 -17.18224189 73.70968598 -18.9909668 75.00195312 C-19.91200195 75.66227539 -20.83303711 76.32259766 -21.78198242 77.00292969 C-25.90380644 79.92070834 -30.10535241 82.71147473 -34.3190918 85.49414062 C-43.04283514 91.27470537 -51.72060728 97.12019335 -60.3815918 102.99414062 C-61.0376944 103.43903839 -61.693797 103.88393616 -62.36978149 104.34231567 C-65.73697966 106.62570928 -69.10381626 108.90963521 -72.47045898 111.19384766 C-78.33790224 115.17443111 -84.2086151 119.15018703 -90.0791626 123.12619019 C-93.30511386 125.3111314 -96.53084121 127.49640315 -99.7565918 129.68164062 C-101.0482574 130.5566422 -102.33992406 131.4316422 -103.6315918 132.30664062 C-104.2709668 132.73976563 -104.9103418 133.17289063 -105.5690918 133.61914062 C-107.5065918 134.93164062 -109.4440918 136.24414062 -111.3815918 137.55664062 C-112.02089127 137.98971527 -112.66019073 138.42278992 -113.31886292 138.86898804 C-114.61128947 139.74450116 -115.90371908 140.62000978 -117.19615173 141.49551392 C-120.413717 143.67512631 -123.63123023 145.85481544 -126.84863281 148.03466797 C-132.7993707 152.06629277 -138.75059086 156.09719947 -144.70359802 160.12547302 C-165.15366709 173.95737999 -165.15366709 173.95737999 -185.5065918 187.93164062 C-189.31544445 186.44569208 -190.81090734 184.43982556 -193.01049805 181.04882812 C-193.66405273 180.05302734 -194.31760742 179.05722656 -194.9909668 178.03125 C-196.01963867 176.43506836 -196.01963867 176.43506836 -197.0690918 174.80664062 C-198.4965332 172.62633479 -199.92492279 170.44664944 -201.35424805 168.26757812 C-202.05565918 167.1934668 -202.75707031 166.11935547 -203.47973633 165.01269531 C-206.26483433 160.77902429 -209.12268965 156.59841047 -212.0065918 152.43164062 C-212.69990601 151.42786377 -212.69990601 151.42786377 -213.40722656 150.40380859 C-214.43875051 148.91197987 -215.47237978 147.42160709 -216.5065918 145.93164062 C-213.46786564 142.67449463 -210.25472345 140.27991221 -206.5378418 137.83398438 C-205.95435974 137.44780945 -205.37087769 137.06163452 -204.76971436 136.66375732 C-203.51050938 135.83092701 -202.24994302 135.00015212 -200.98815918 134.17123413 C-197.57634502 131.92932144 -194.17511729 129.67142469 -190.7722168 127.41601562 C-190.07553894 126.95486862 -189.37886108 126.49372162 -188.66107178 126.01860046 C-181.9926905 121.60119317 -175.36910142 117.11959529 -168.7565918 112.61914062 C-167.61315202 111.84150342 -166.46967837 111.06391603 -165.32617188 110.28637695 C-163.56701886 109.09020713 -161.80788138 107.89401475 -160.04890442 106.69758606 C-152.6065952 101.63687624 -145.14975137 96.59765034 -137.6940918 91.55664062 C-134.80600401 89.60361461 -131.91799802 87.65046769 -129.0300293 85.69726562 C-127.96097099 84.97424507 -127.96097099 84.97424507 -126.87031555 84.23661804 C-116.32799257 77.10608064 -105.79201024 69.96618066 -95.25564575 62.82684326 C-90.72509659 59.75703972 -86.19407557 56.68793353 -81.6628418 53.61914062 C-65.60395355 42.74408992 -65.60395355 42.74408992 -49.55279541 31.8576355 C-46.67169424 29.90190521 -43.78940797 27.94798495 -40.90405273 25.99853516 C-35.47006993 22.32379529 -30.054237 18.62725733 -24.68049622 14.86477661 C-22.10379635 13.06252112 -19.51957322 11.27122501 -16.93466187 9.48077393 C-15.70136662 8.62193997 -14.47180488 7.75771701 -13.24624634 6.88787842 C-11.55174661 5.68566579 -9.8454454 4.50235796 -8.13549805 3.32226562 C-7.16684814 2.64196289 -6.19819824 1.96166016 -5.20019531 1.26074219 C-2.5065918 -0.06835938 -2.5065918 -0.06835938 0 0 Z " fill="#D70B61" transform="translate(356.506591796875,205.068359375)"/>
<path d="M0 0 C2.46376228 -0.36914349 2.46376228 -0.36914349 5.63137817 -0.36076355 C6.82893738 -0.36488754 8.02649658 -0.36901154 9.26034546 -0.3732605 C10.59430155 -0.36264241 11.92825538 -0.35173797 13.26220703 -0.34057617 C14.66149884 -0.33973031 16.06079198 -0.34020425 17.46008301 -0.34190369 C21.26574423 -0.34276666 25.07112348 -0.32509241 28.876719 -0.30418181 C32.85121905 -0.28546507 36.82572512 -0.28366853 40.80026245 -0.28010559 C48.32969304 -0.27077037 55.85899341 -0.24613671 63.38836658 -0.21605712 C71.95896913 -0.18255896 80.52957781 -0.16603866 89.1002295 -0.15097082 C106.73356024 -0.11958836 124.36676966 -0.06679928 142 0 C141.38047855 3.96872639 140.61511472 7.34109484 138.99731445 11.02270508 C138.58158173 11.97806656 138.165849 12.93342804 137.73751831 13.91773987 C137.28402008 14.94133102 136.83052185 15.96492218 136.36328125 17.01953125 C135.89205841 18.09810898 135.42083557 19.17668671 134.93533325 20.28794861 C133.9248964 22.59888865 132.9114316 24.90850667 131.89523315 27.21691895 C129.76794617 32.04959258 127.65527961 36.88860616 125.54206848 41.72744751 C124.48922997 44.13806069 123.43567323 46.54836032 122.38139343 48.95834351 C118.34130108 58.19772841 114.359827 67.46008477 110.4375 76.75 C109.89991665 78.02124628 109.36231912 79.29248657 108.82470703 80.5637207 C107.49897924 83.70067799 106.17550625 86.83858138 104.8527832 89.97680664 C102.28508027 96.06857709 99.71450123 102.15912228 97.13919067 108.24768066 C96.20790088 110.45171824 95.27953198 112.65697022 94.35131836 114.86230469 C93.79034533 116.18951379 93.22923641 117.51666547 92.66796875 118.84375 C91.92969849 120.59461914 91.92969849 120.59461914 91.17651367 122.38085938 C90 125 90 125 89 126 C87.05105041 126.09664967 85.09854545 126.12187121 83.14720154 126.12025452 C81.87528961 126.12162918 80.60337769 126.12300385 79.29292297 126.12442017 C77.87033058 126.12088055 76.44773842 126.11724573 75.02514648 126.11352539 C73.53733319 126.11324353 72.04951976 126.11340124 70.56170654 126.1139679 C66.51023 126.1142559 62.4587828 126.10835867 58.40731311 126.10139394 C54.17788003 126.09516092 49.94844636 126.09455664 45.7190094 126.09336853 C37.70440278 126.09025506 29.68980973 126.08204146 21.67520911 126.07201904 C12.55323316 126.06085839 3.43125658 126.05534758 -5.69072449 126.05032361 C-24.4604907 126.03985886 -43.23024426 126.02225912 -62 126 C-61.25001955 121.95511821 -60.07420651 118.53563305 -58.4296875 114.75390625 C-58.1605957 114.13063446 -57.89150391 113.50736267 -57.61425781 112.86520386 C-56.70549124 110.76240409 -55.79015223 108.66252766 -54.875 106.5625 C-53.51858001 103.43066049 -52.16564981 100.29731607 -50.8125 97.1640625 C-50.44333466 96.31051682 -50.07416931 95.45697113 -49.69381714 94.57756042 C-46.45197682 87.07279011 -43.25367102 79.5498719 -40.0625 72.0234375 C-39.55220245 70.82083786 -39.04190491 69.61823822 -38.5161438 68.37919617 C-36.45999096 63.53341723 -34.40385583 58.6876395 -32.35296631 53.83963013 C-30.9022774 50.41137826 -29.44759123 46.98484616 -27.9921875 43.55859375 C-27.56244629 42.5399826 -27.13270508 41.52137146 -26.68994141 40.47189331 C-18.88634129 22.13453889 -18.88634129 22.13453889 -13.625 17.5 C-8.96177166 13.12481748 -5.48021886 8.34083448 -2 3 C-1.34 2.01 -0.68 1.02 0 0 Z " fill="#5AB3FE" transform="translate(205,82)"/>
<path d="M0 0 C3.32141485 1.26240913 6.10244424 3.24715998 9.00830078 5.25341797 C9.67299881 5.70541061 10.33769684 6.15740326 11.02253723 6.62309265 C13.21290586 8.11430079 15.39762312 9.61358119 17.58251953 11.11279297 C19.11384571 12.15709869 20.6455896 13.20079214 22.17773438 14.24389648 C25.33194969 16.39229201 28.48416567 18.54357186 31.63476562 20.69726562 C37.90220836 24.98003173 44.1851182 29.23990323 50.47027588 33.49661255 C52.38549302 34.79384041 54.30018236 36.09184464 56.21484375 37.38989258 C67.8570292 45.27868791 79.55203962 53.08702973 91.27001953 60.86279297 C89.37236065 67.1093682 87.01761627 72.84900128 83.95751953 78.61279297 C83.52947021 79.42063232 83.1014209 80.22847168 82.66040039 81.06079102 C71.79085506 101.09353772 58.06282832 119.46563166 42.27001953 135.86279297 C41.63789551 136.52214844 41.00577148 137.18150391 40.35449219 137.86083984 C17.1996467 161.88625058 17.1996467 161.88625058 8.27001953 164.86279297 C8.27001953 161.89279297 8.27001953 158.92279297 8.27001953 155.86279297 C7.63079056 155.86501358 6.99156158 155.86723419 6.33296204 155.86952209 C-1.91717194 155.89679534 -10.16730848 155.91470467 -18.41748047 155.92529297 C-19.07971745 155.92614899 -19.74195442 155.927005 -20.42425919 155.92788696 C-45.53687004 155.95653215 -70.6271135 155.5841287 -95.72998047 154.86279297 C-95.72998047 150.57279297 -95.72998047 146.28279297 -95.72998047 141.86279297 C-80.87998047 141.86279297 -66.02998047 141.86279297 -50.72998047 141.86279297 C-50.72998047 129.98279297 -50.72998047 118.10279297 -50.72998047 105.86279297 C-46.10998047 105.86279297 -41.48998047 105.86279297 -36.72998047 105.86279297 C-36.72998047 117.41279297 -36.72998047 128.96279297 -36.72998047 140.86279297 C-21.87998047 140.86279297 -7.02998047 140.86279297 8.27001953 140.86279297 C8.27001953 126.01279297 8.27001953 111.16279297 8.27001953 95.86279297 C0.93396484 96.10642578 -6.40208984 96.35005859 -13.96044922 96.60107422 C-18.65029982 96.70857336 -23.33860048 96.80965861 -28.02880859 96.88818359 C-35.45077609 97.01304034 -42.8672302 97.15953451 -50.28491211 97.44702148 C-95.39030533 99.15149076 -95.39030533 99.15149076 -106.40720463 89.73905849 C-110.96729029 85.39527889 -114.77602306 80.42099812 -117.72998047 74.86279297 C-117.72998047 74.53279297 -117.72998047 74.20279297 -117.72998047 73.86279297 C-116.73667725 73.89010498 -115.74337402 73.91741699 -114.7199707 73.94555664 C-111.00879805 74.032872 -107.30022786 74.04697645 -103.58813477 74.03979492 C-101.98669038 74.04674017 -100.38520108 74.07313383 -98.78442383 74.11987305 C-89.3143381 74.6498269 -89.3143381 74.6498269 -81.25170898 70.55810547 C-79.4768452 67.7317821 -78.08685167 64.90813253 -76.72998047 61.86279297 C-66.41398793 46.48597668 -50.18752721 36.07815868 -35.47998047 25.35107422 C-30.86860336 21.98013494 -26.32280078 18.52909617 -21.79248047 15.05029297 C-21.09558105 14.51774902 -20.39868164 13.98520508 -19.68066406 13.43652344 C-16.48041067 10.98855421 -13.29622699 8.52475339 -10.14404297 6.01513672 C-9.32021118 5.36992065 -9.32021118 5.36992065 -8.47973633 4.71166992 C-7.0291028 3.57523831 -5.58810188 2.4265401 -4.14794922 1.27685547 C-1.72998047 -0.13720703 -1.72998047 -0.13720703 0 0 Z " fill="#FEFEFE" transform="translate(399.72998046875,297.13720703125)"/>
<path d="M0 0 C9.47652051 5.17718812 9.47652051 5.17718812 13.6015625 8.03125 C14.8069165 8.85967407 14.8069165 8.85967407 16.03662109 9.70483398 C16.89078613 10.29723877 17.74495117 10.88964355 18.625 11.5 C20.56732126 12.83519867 22.5100541 14.16979875 24.453125 15.50390625 C25.49919922 16.22336426 26.54527344 16.94282227 27.62304688 17.68408203 C33.85462781 21.96318964 40.11624167 26.19829711 46.375 30.4375 C47.02931 30.88088715 47.68362 31.32427429 48.35775757 31.78109741 C60.86190023 40.25275289 73.41659762 48.64651128 86 57 C86.33 51.06 86.66 45.12 87 39 C109.77 39 132.54 39 156 39 C156.46418197 78.76492211 152.46576425 116.19417402 136 153 C132.88216764 152.38120019 130.73108166 151.35475456 128.10546875 149.578125 C127.33154785 149.05855225 126.55762695 148.53897949 125.76025391 148.00366211 C124.91124512 147.42495361 124.06223633 146.84624512 123.1875 146.25 C122.27661621 145.63584229 121.36573242 145.02168457 120.42724609 144.38891602 C117.84444662 142.64549436 115.26540509 140.89666461 112.68780518 139.14556885 C109.73081336 137.13856131 106.76932205 135.13820805 103.80859375 133.13671875 C97.89184413 129.13519842 91.97949642 125.12721936 86.06874084 121.11685181 C79.52252795 116.67545799 72.97314221 112.23875676 66.42330933 107.80270386 C64.50223674 106.501515 62.58129567 105.20013223 60.66040039 103.89868164 C54.70885951 99.86643848 48.75679359 95.83497668 42.802948 91.80613708 C16.10345525 73.73902468 16.10345525 73.73902468 4.703125 65.86328125 C2.81260013 64.56013044 0.91050893 63.27367262 -1 62 C-1.32279968 59.4057312 -1.32279968 59.4057312 -1.2487793 56.08154297 C-1.22853195 54.84040741 -1.20828461 53.59927185 -1.18742371 52.32052612 C-1.15001116 50.961071 -1.11226835 49.60162494 -1.07421875 48.2421875 C-1.04619048 46.85501669 -1.01949955 45.46781826 -0.99409485 44.08059692 C-0.92358596 40.4272879 -0.8348776 36.77463714 -0.74243164 33.12182617 C-0.65132217 29.39524634 -0.57734915 25.66833125 -0.50195312 21.94140625 C-0.3514487 14.62716661 -0.18172501 7.3135376 0 0 Z " fill="#DC542E" transform="translate(356,205)"/>
<path d="M0 0 C9.82524194 21.26117927 12.7788957 43.59130593 4.59375 65.9921875 C-3.98502731 87.80432439 -19.66030041 103.5282864 -40.8125 113.375 C-60.31633203 121.21136108 -81.5238098 121.22017787 -101.09375 113.83203125 C-118.03426647 106.48003744 -130.17603439 95.71808089 -141 81 C-139.53027809 77.60881107 -137.63628284 75.37885867 -135.03515625 72.76953125 C-134.24101318 71.97111816 -133.44687012 71.17270508 -132.62866211 70.35009766 C-131.78182861 69.51269043 -130.93499512 68.6752832 -130.0625 67.8125 C-129.19439697 66.95188965 -128.32629395 66.0912793 -127.43188477 65.20458984 C-121.53395273 59.40535182 -115.64833135 53.93493589 -109 49 C-108.36304199 48.51901855 -107.72608398 48.03803711 -107.06982422 47.54248047 C-79.17668442 26.53496147 -36.41370877 0 0 0 Z " fill="#F3DC45" transform="translate(207,4)"/>
<path d="M0 0 C3.83736212 1.91868106 4.93114353 2.85398484 7.45883179 6.06332397 C14.08887592 13.9396961 19.98158473 20.74061245 30.63213539 21.98656654 C36.01374759 22.24892045 41.34391874 22.15467642 46.7265625 21.9765625 C49.05493775 21.96539942 51.38336364 21.96223706 53.71176147 21.96664429 C59.78071622 21.95702272 65.84283277 21.84027492 71.90997314 21.69952393 C79.22075541 21.55286867 86.5329024 21.5421636 93.84490967 21.50811768 C104.90105677 21.44169045 115.94165881 21.20499898 127 21 C127 35.85 127 50.7 127 66 C112.15 66 97.3 66 82 66 C82 54.45 82 42.9 82 31 C77.38 31 72.76 31 68 31 C68 42.88 68 54.76 68 67 C53.15 67 38.3 67 23 67 C23 71.29 23 75.58 23 80 C24.58131714 79.99214478 24.58131714 79.99214478 26.19458008 79.98413086 C50.90628196 79.87360498 75.60516475 80.0568728 100.3125 80.5 C100.97949039 80.51195782 101.64648079 80.52391563 102.33368301 80.53623581 C110.55591601 80.68424563 118.7780142 80.83885952 127 81 C127.05076835 82.61613175 127.08719154 84.23271908 127.11743164 85.84936523 C127.13922989 86.74952866 127.16102814 87.64969208 127.18348694 88.57713318 C127 91 127 91 125.12109375 93.41015625 C124.23550781 93.95542969 123.34992188 94.50070312 122.4375 95.0625 C121.42558594 95.70574219 120.41367187 96.34898437 119.37109375 97.01171875 C118.25863281 97.66785156 117.14617187 98.32398438 116 99 C114.8640026 99.71184786 113.72991752 100.4267556 112.59765625 101.14453125 C108.78737439 103.52891489 104.90867749 105.78131506 101 108 C99.93265625 108.60763184 99.93265625 108.60763184 98.84375 109.22753906 C75.53189146 122.35071999 50.11324643 131.23954582 23.875 136.375 C23.08335449 136.53073486 22.29170898 136.68646973 21.47607422 136.84692383 C14.26784667 138.15025373 7.42878428 138.46937255 0 139 C0 93.13 0 47.26 0 0 Z " fill="#C8BEC3" transform="translate(281,372)"/>
<path d="M0 0 C1.11375 0.53109375 2.2275 1.0621875 3.375 1.609375 C26.86712095 12.58637134 46.79512408 14.41094815 72 8 C69.71937778 15.22573843 66.91923689 22.12189128 63.9140625 29.07421875 C63.42001419 30.22465668 62.92596588 31.3750946 62.41694641 32.56039429 C61.36475845 35.00907879 60.31126809 37.45715283 59.25558472 39.90432739 C57.89013084 43.07032856 56.52994489 46.23855871 55.17171383 49.4076643 C50.34334114 60.6735032 45.50908445 71.93538936 40.48828125 83.1171875 C39.865569 84.51335921 39.24300174 85.90959561 38.62060547 87.3059082 C37.53793419 89.73345599 36.43473537 92.14732943 35.31689453 94.55932617 C31.85460182 102.10100252 31.85460182 102.10100252 33 110 C35.5673155 112.8170266 37.12326955 113.01236908 40.97369385 113.39872742 C42.61542658 113.42513104 44.25747138 113.43515868 45.89941406 113.43237305 C46.79732666 113.4425647 47.69523926 113.45275635 48.62036133 113.46325684 C51.58551235 113.49342856 54.55034053 113.50265921 57.515625 113.51171875 C59.57258176 113.52856232 61.6295282 113.54671213 63.6864624 113.56611633 C69.09839658 113.61365726 74.51028895 113.64344023 79.92236328 113.66955566 C85.44572203 113.69934047 90.96893665 113.74587795 96.4921875 113.79101562 C107.32804967 113.87709536 118.16394147 113.94441995 129 114 C129.68119885 124.24221652 130.14518051 134.42176229 130.09765625 144.69140625 C130.09553383 146.48649879 130.09553383 146.48649879 130.09336853 148.31785583 C130.0878595 152.06609819 130.07532561 155.81427632 130.0625 159.5625 C130.0574732 162.13476475 130.05291238 164.70703046 130.04882812 167.27929688 C130.03792016 173.51955243 130.0212763 179.75977163 130 186 C128.68 186 127.36 186 126 186 C124.17578125 184.12890625 124.17578125 184.12890625 122.3125 181.5625 C112.65886773 168.97544355 100.35345119 158.17497911 84 156 C73.66222635 155.32856985 63.25363575 155.50745894 53 157 C30.45182761 127.34377424 14.28001865 93.90797848 5.9375 57.5 C5.68154053 56.38902954 5.68154053 56.38902954 5.42041016 55.25561523 C5.08819789 53.80484903 4.75801426 52.3536163 4.43017578 50.90185547 C4.08409309 49.37178502 3.72902958 47.84374732 3.37109375 46.31640625 C0.0016935 31.00818619 -0.27689042 15.59816052 0 0 Z " fill="#6EE0FE" transform="translate(91,110)"/>
<path d="M0 0 C1.94838905 -0.36914349 1.94838905 -0.36914349 4.37857056 -0.36076355 C5.75840874 -0.36694954 5.75840874 -0.36694954 7.16612244 -0.3732605 C8.17816238 -0.36247467 9.19020233 -0.35168884 10.23291016 -0.34057617 C11.82805702 -0.34123329 11.82805702 -0.34123329 13.45542908 -0.34190369 C16.98349127 -0.33980746 20.51108295 -0.31643672 24.0390625 -0.29296875 C26.48000834 -0.28737577 28.92095755 -0.28310427 31.36190796 -0.28010559 C37.79656215 -0.26863339 44.23101423 -0.23914565 50.66558838 -0.20599365 C57.22755194 -0.17534398 63.78954805 -0.16161117 70.3515625 -0.14648438 C83.23446139 -0.11427834 96.11721996 -0.0636273 109 0 C105.85553617 3.2198131 102.56037658 5.87108616 98.875 8.4375 C97.61679563 9.32496552 96.35900329 10.2130154 95.1015625 11.1015625 C94.43543945 11.57110352 93.76931641 12.04064453 93.08300781 12.52441406 C89.45386004 15.09527308 85.85279449 17.70490078 82.25 20.3125 C77.65553283 23.6370633 73.05999565 26.95979473 68.44921875 30.26171875 C60.29972297 36.10631553 52.26326026 42.06316458 44.32617188 48.19311523 C38.76107659 52.46944483 33.0655466 56.53036507 27.31103516 60.54663086 C21.71619557 64.46224384 16.24854246 68.52710826 10.80175781 72.64526367 C6.64032437 75.78582304 2.44148219 78.86111994 -1.8125 81.875 C-7.3392723 85.79089032 -12.80348572 89.7857636 -18.25 93.8125 C-25.2909467 99.01704679 -32.36620697 104.17039603 -39.47119141 109.28710938 C-46.67957766 114.48112806 -53.84441236 119.73357193 -61 125 C-61.33 124.34 -61.66 123.68 -62 123 C-61.22527038 120.83549407 -60.33648219 118.71174508 -59.40625 116.609375 C-59.11208694 115.93737564 -58.81792389 115.26537628 -58.5148468 114.57301331 C-57.86339523 113.08672348 -57.20840515 111.60198109 -56.55044556 110.11856079 C-54.71982284 105.99084455 -52.91428357 101.85215122 -51.10546875 97.71484375 C-50.70881516 96.8094133 -50.31216156 95.90398285 -49.90348816 94.97111511 C-46.54751213 87.29517893 -43.25951826 79.59128861 -39.98828125 71.87890625 C-39.47727875 70.67464996 -38.96627625 69.47039368 -38.43978882 68.22964478 C-36.38970747 63.39612456 -34.34078028 58.56212532 -32.29638672 53.72619629 C-30.85272605 50.3123676 -29.40516334 46.90021509 -27.95703125 43.48828125 C-27.53045731 42.47600967 -27.10388336 41.4637381 -26.66438293 40.42079163 C-18.89477592 22.14196868 -18.89477592 22.14196868 -13.625 17.5 C-8.96177166 13.12481748 -5.48021886 8.34083448 -2 3 C-1.34 2.01 -0.68 1.02 0 0 Z " fill="#5AB4FE" transform="translate(205,82)"/>
<path d="M0 0 C6.65196991 0.07184753 13.30401351 0.13595725 19.95605469 0.20080566 C32.91056333 0.32819117 45.86497422 0.46359455 58.81933594 0.60510254 C59.07511583 10.08029485 59.27010249 19.55428535 59.38926983 29.03218651 C59.44649042 33.43420388 59.523979 37.83384656 59.64916992 42.23449707 C59.76941149 46.48818582 59.83460426 50.73960367 59.86298561 54.9948616 C59.88318661 56.61137258 59.92264016 58.22777015 59.98236656 59.84330368 C60.42945974 72.44730061 60.42945974 72.44730061 56.47525024 77.746521 C53.70661167 80.29310456 50.90681685 82.46230808 47.81933594 84.60510254 C46.12367862 85.9700302 44.43461781 87.34326108 42.75683594 88.73010254 C39.09352949 91.60510254 39.09352949 91.60510254 36.81933594 91.60510254 C36.81933594 88.63510254 36.81933594 85.66510254 36.81933594 82.60510254 C36.18010696 82.60732315 35.54087799 82.60954376 34.88227844 82.61183167 C26.63214447 82.63910491 18.38200792 82.65701424 10.13183594 82.66760254 C9.46959896 82.66845856 8.80736198 82.66931458 8.12505722 82.67019653 C-16.98755364 82.69884172 -42.0777971 82.32643827 -67.18066406 81.60510254 C-67.18066406 77.31510254 -67.18066406 73.02510254 -67.18066406 68.60510254 C-52.33066406 68.60510254 -37.48066406 68.60510254 -22.18066406 68.60510254 C-22.18066406 56.72510254 -22.18066406 44.84510254 -22.18066406 32.60510254 C-17.56066406 32.60510254 -12.94066406 32.60510254 -8.18066406 32.60510254 C-8.18066406 44.15510254 -8.18066406 55.70510254 -8.18066406 67.60510254 C6.66933594 67.60510254 21.51933594 67.60510254 36.81933594 67.60510254 C36.81933594 52.75510254 36.81933594 37.90510254 36.81933594 22.60510254 C25.81525391 22.97055176 25.81525391 22.97055176 14.58886719 23.34338379 C9.89901659 23.45088293 5.21071593 23.55196818 0.52050781 23.63049316 C-6.90145968 23.75534991 -14.31791379 23.90184408 -21.7355957 24.18933105 C-66.84098892 25.89380033 -66.84098892 25.89380033 -77.85788822 16.48136806 C-82.41797388 12.13758846 -86.22670665 7.16330769 -89.18066406 1.60510254 C-89.18066406 1.27510254 -89.18066406 0.94510254 -89.18066406 0.60510254 C-59.45512646 -0.73952224 -29.74499948 -0.32783767 0 0 Z " fill="#F3EFF0" transform="translate(371.1806640625,370.3948974609375)"/>
<path d="M0 0 C19.60155784 -0.09342539 39.20307052 -0.16397039 58.8048048 -0.20724869 C67.90615975 -0.22787733 77.0073764 -0.25600367 86.10864258 -0.30175781 C94.04095642 -0.34161637 101.9731701 -0.36743062 109.9055813 -0.37635398 C114.10610211 -0.38157042 118.30633636 -0.39383703 122.50676537 -0.42292023 C126.46056484 -0.45007396 130.41395977 -0.45844518 134.36784363 -0.45243073 C135.81867992 -0.45353099 137.26952977 -0.46148548 138.72028542 -0.4768219 C140.70215179 -0.49674486 142.68423532 -0.48954943 144.66618347 -0.48101807 C146.32955891 -0.48654882 146.32955891 -0.48654882 148.0265379 -0.49219131 C151.71568575 0.11846605 153.38879291 1.36366693 156 4 C157.25651256 10.55025009 154.19636642 16.10160522 151.59375 21.96484375 C150.89224068 23.58681923 150.89224068 23.58681923 150.17655945 25.24156189 C148.89647061 28.19551137 147.60540678 31.14436285 146.30962753 34.09145355 C144.94592849 37.20084852 143.59708688 40.31666941 142.24731445 43.43212891 C140.27260633 47.98708962 138.29390048 52.54027076 136.31003666 57.09125137 C131.05649929 69.14483322 125.88091773 81.23157744 120.70898438 93.32034302 C119.23622901 96.76115399 117.76112428 100.20094694 116.28515625 103.64038086 C115.35018612 105.82011787 114.41528907 107.99988623 113.48046875 110.1796875 C113.03126068 111.22679398 112.58205261 112.27390045 112.11923218 113.35273743 C109.70272227 118.99429693 107.30442869 124.6431087 104.92822266 130.30175781 C104.42551346 131.49713165 103.92280426 132.69250549 103.40486145 133.92410278 C102.43957141 136.22214495 101.47695307 138.52131171 100.51737976 140.82174683 C100.08536758 141.85010651 99.65335541 142.87846619 99.20825195 143.93798828 C98.82909134 144.84525665 98.44993073 145.75252502 98.0592804 146.68728638 C97 149 97 149 95 152 C94.71125 150.88625 94.4225 149.7725 94.125 148.625 C93.30758671 144.99708908 93.30758671 144.99708908 91 143 C88.79749008 142.53993654 88.79749008 142.53993654 86.375 142.375 C84.1875 142.1875 84.1875 142.1875 82 142 C85.22918612 133.41120142 88.68368714 124.9619091 92.375 116.5625 C93.51847571 113.94524829 94.65823814 111.32639138 95.796875 108.70703125 C96.11230255 107.98144012 96.4277301 107.255849 96.75271606 106.50827026 C101.76873422 94.94736821 106.68966149 83.34549945 111.625 71.75 C112.10555847 70.62143585 112.58611694 69.4928717 113.08123779 68.33010864 C116.39168811 60.55518567 119.69714407 52.77815181 123 45 C123.51187866 43.79529053 124.02375732 42.59058105 124.55114746 41.34936523 C126.08512829 37.73877586 127.61690098 34.12725191 129.1484375 30.515625 C129.85693344 28.84823273 129.85693344 28.84823273 130.57974243 27.14715576 C131.01410614 26.12180725 131.44846985 25.09645874 131.89599609 24.04003906 C132.47080215 22.68510345 132.47080215 22.68510345 133.05722046 21.30279541 C133.77046532 19.56065218 134.40470333 17.78589002 135 16 C88.47 16 41.94 16 -6 16 C-4.14624378 10.43873133 -2.36739374 5.29845265 0 0 Z " fill="#FCFDFE" transform="translate(212,66)"/>
<path d="M0 0 C0.72822464 0.0028299 1.45644928 0.00565979 2.20674133 0.00857544 C4.52992262 0.01975993 6.85271672 0.04486084 9.17578125 0.0703125 C10.75194755 0.08034456 12.3281199 0.08947002 13.90429688 0.09765625 C17.76577392 0.11969354 21.62696196 0.15421109 25.48828125 0.1953125 C22.70292748 3.05121576 19.98933271 5.73007448 16.73046875 8.03515625 C16.03252197 8.53329834 15.3345752 9.03144043 14.61547852 9.54467773 C13.87225342 10.06876221 13.12902832 10.59284668 12.36328125 11.1328125 C10.74418913 12.28821863 9.12571946 13.4444974 7.5078125 14.6015625 C6.67717285 15.19453125 5.8465332 15.7875 4.99072266 16.3984375 C0.98485282 19.27484745 -2.9831108 22.20193293 -6.94921875 25.1328125 C-8.11372559 25.99289917 -8.11372559 25.99289917 -9.30175781 26.87036133 C-10.88766064 28.0418188 -12.47343446 29.21345095 -14.05908203 30.38525391 C-16.62276539 32.2772655 -19.18985572 34.1645745 -21.7578125 36.05078125 C-22.61640869 36.68185791 -23.47500488 37.31293457 -24.35961914 37.96313477 C-26.00018539 39.16879484 -27.64126877 40.37375168 -29.28295898 41.57788086 C-32.31357986 43.80690662 -35.31562069 46.03629888 -38.23828125 48.40625 C-40.51171875 50.1953125 -40.51171875 50.1953125 -42.875 51.609375 C-46.34021382 53.69363694 -49.48645396 56.1202018 -52.69921875 58.5703125 C-58.66579185 63.0855758 -64.68495973 67.5170106 -70.76171875 71.8828125 C-75.71369143 75.44222222 -80.64552672 79.01878344 -85.51171875 82.6953125 C-94.57521898 89.53687431 -103.80658192 96.16072503 -113.07421875 102.72265625 C-121.13703326 108.43469983 -129.05797115 114.31914828 -136.93701172 120.28271484 C-137.76088379 120.90484863 -138.58475586 121.52698242 -139.43359375 122.16796875 C-140.1719043 122.72750244 -140.91021484 123.28703613 -141.67089844 123.86352539 C-145.37027639 126.53993212 -148.5107586 126.32499518 -152.92578125 126.29296875 C-153.65542084 126.2915538 -154.38506042 126.29013885 -155.1368103 126.28868103 C-157.4701546 126.28307781 -159.80340339 126.27052485 -162.13671875 126.2578125 C-163.71744653 126.25279791 -165.29817582 126.24823493 -166.87890625 126.24414062 C-170.75654729 126.23310734 -174.63411682 126.21584061 -178.51171875 126.1953125 C-175.72636498 123.33940924 -173.01277021 120.66055052 -169.75390625 118.35546875 C-169.05595947 117.85732666 -168.3580127 117.35918457 -167.63891602 116.84594727 C-166.89569092 116.32186279 -166.15246582 115.79777832 -165.38671875 115.2578125 C-163.76762663 114.10240637 -162.14915696 112.9461276 -160.53125 111.7890625 C-159.28529053 110.89960938 -159.28529053 110.89960938 -158.01416016 109.9921875 C-154.00828741 107.11577546 -150.04045673 104.18852007 -146.07421875 101.2578125 C-145.29135498 100.6800708 -144.50849121 100.1023291 -143.7019043 99.50708008 C-140.48409958 97.1316809 -137.26775468 94.75431088 -134.05175781 92.37646484 C-125.69138059 86.19626507 -117.32501151 80.0319709 -108.84716797 74.01367188 C-100.65574712 68.18384778 -92.59578178 62.17251273 -84.51171875 56.1953125 C-74.47199266 48.77420376 -64.41373553 41.38334625 -54.28100586 34.08959961 C-48.83064848 30.16132305 -43.41493406 26.1881297 -38.01171875 22.1953125 C-31.53621787 17.41105378 -25.03850898 12.65939905 -18.51171875 7.9453125 C-17.75181641 7.39617187 -16.99191406 6.84703125 -16.20898438 6.28125 C-10.57340412 2.21826991 -7.13133606 -0.10421693 0 0 Z " fill="#2996FE" transform="translate(321.51171875,81.8046875)"/>
<path d="M0 0 C7.33147651 15.86483443 9.6774441 29.68753965 9 47 C8.34 46.01 7.68 45.02 7 44 C6.44054687 44.42410156 5.88109375 44.84820312 5.3046875 45.28515625 C-14.91477857 60.07592323 -35.53494327 64.29419311 -60.2421875 61.59765625 C-72.45440925 59.62252948 -86.646229 53.30432352 -96 45 C-97.2265625 42.828125 -97.2265625 42.828125 -98 41 C-89.2274356 34.34343103 -79.7212583 29.11351648 -70 24 C-68.81881592 23.37472412 -68.81881592 23.37472412 -67.61376953 22.73681641 C-48.86249693 12.94571899 -21.51030923 0 0 0 Z " fill="#F8EE63" transform="translate(207,4)"/>
<path d="M0 0 C1.59994322 0.01308098 3.19991478 0.02303332 4.79989624 0.03001404 C8.97958918 0.05654428 13.15753711 0.12512998 17.33654785 0.20294189 C21.6134481 0.27498098 25.89063466 0.30661162 30.16796875 0.34179688 C38.53725276 0.41652154 46.90512713 0.53574527 55.2734375 0.68359375 C52.12897367 3.90340685 48.83381408 6.55467991 45.1484375 9.12109375 C43.89023313 10.00855927 42.63244079 10.89660915 41.375 11.78515625 C40.70887695 12.25469727 40.04275391 12.72423828 39.35644531 13.20800781 C35.72729754 15.77886683 32.12623199 18.38849453 28.5234375 20.99609375 C23.92897033 24.32065705 19.33343315 27.64338848 14.72265625 30.9453125 C7.29746427 36.27045829 -0.05672539 41.66114547 -7.2890625 47.24609375 C-14.97078044 53.17770508 -22.85626143 58.77914055 -30.81103516 64.33642578 C-35.15826928 67.39378468 -39.44294701 70.53795818 -43.7265625 73.68359375 C-44.3865625 73.35359375 -45.0465625 73.02359375 -45.7265625 72.68359375 C-41.1065625 61.79359375 -36.4865625 50.90359375 -31.7265625 39.68359375 C-43.9365625 39.68359375 -56.1465625 39.68359375 -68.7265625 39.68359375 C-63.10071216 34.05774341 -63.10071216 34.05774341 -59.71484375 31.58984375 C-58.59130493 30.76625366 -58.59130493 30.76625366 -57.44506836 29.92602539 C-56.65108643 29.35102295 -55.85710449 28.77602051 -55.0390625 28.18359375 C-54.20834229 27.57700928 -53.37762207 26.9704248 -52.52172852 26.34545898 C-49.92690527 24.45321141 -47.32726228 22.56775421 -44.7265625 20.68359375 C-43.90704102 20.08820801 -43.08751953 19.49282227 -42.24316406 18.87939453 C-31.83480119 11.31828499 -31.83480119 11.31828499 -28.98400879 9.33584595 C-26.7102826 7.72849524 -26.7102826 7.72849524 -24.71244812 5.87997437 C-16.99530116 -0.56896247 -9.50682924 -0.23008922 0 0 Z " fill="#5AB3FE" transform="translate(258.7265625,81.31640625)"/>
<path d="M0 0 C0.495 0.99 0.495 0.99 1 2 C0.22706964 4.18205647 -0.65821372 6.32443524 -1.5859375 8.4453125 C-1.8744458 9.11151611 -2.1629541 9.77771973 -2.46020508 10.46411133 C-3.42475524 12.68754598 -4.39995214 14.90615129 -5.375 17.125 C-6.39666975 19.47241901 -7.41561078 21.82101096 -8.43447876 24.16964722 C-9.15343812 25.82639398 -9.87332884 27.48273683 -10.59408569 29.13870239 C-13.34869175 35.47323504 -16.05910021 41.82566645 -18.75 48.1875 C-19.13781647 49.1039328 -19.52563293 50.0203656 -19.92520142 50.96456909 C-21.45610525 54.58367155 -22.98615018 58.20313133 -24.5133667 61.8237915 C-25.57707156 64.34438181 -26.64372365 66.86370633 -27.7109375 69.3828125 C-28.1896228 70.52097412 -28.1896228 70.52097412 -28.67797852 71.68212891 C-30.88637548 76.88637548 -30.88637548 76.88637548 -32 78 C-34.30053835 78.09443335 -36.60402173 78.11742128 -38.90649414 78.11352539 C-39.62840439 78.11367142 -40.35031464 78.11381744 -41.09410095 78.1139679 C-43.49114947 78.11326869 -45.88812123 78.10547595 -48.28515625 78.09765625 C-49.94282489 78.0957921 -51.60049407 78.09436818 -53.25816345 78.09336853 C-57.62954214 78.08954312 -62.00088781 78.07971265 -66.37225342 78.06866455 C-70.82954461 78.05845092 -75.28684111 78.05387101 -79.74414062 78.04882812 C-88.49610893 78.0380904 -97.24805036 78.02101371 -106 78 C-94.27350723 68.60677105 -82.20657519 59.7542877 -70 51 C-61.27852073 44.73842514 -52.57157255 38.46593786 -44 32 C-36.20229457 26.11782628 -28.29334329 20.39746645 -20.36132812 14.69824219 C-16.19435545 11.70139956 -12.03519554 8.69373949 -7.875 5.6875 C-6.35159533 4.58719413 -4.82816099 3.48692934 -3.3046875 2.38671875 C-2.66515137 1.92483154 -2.02561523 1.46294434 -1.36669922 0.98706055 C-0.91568848 0.66133057 -0.46467773 0.33560059 0 0 Z " fill="#2A96FD" transform="translate(326,130)"/>
<path d="M0 0 C22.77 0 45.54 0 69 0 C69.25098926 21.5014133 69.28603243 41.87713831 65 63 C59.04211272 59.81278093 53.410664 56.36949887 47.875 52.5 C46.23370222 51.36497487 44.59172103 50.23093763 42.94921875 49.09765625 C41.56935791 48.14463623 41.56935791 48.14463623 40.16162109 47.17236328 C34.38780423 43.20514919 28.58406708 39.28198955 22.78253174 35.35546875 C20.71713266 33.95755611 18.65222269 32.55892354 16.58740234 31.16015625 C15.29136965 30.28250999 13.99530962 29.40490409 12.69921875 28.52734375 C12.11235794 28.12986435 11.52549713 27.73238495 10.92085266 27.32286072 C7.2905792 24.86631589 3.64730266 22.4315351 0 20 C0 13.4 0 6.8 0 0 Z " fill="#D70A60" transform="translate(443,244)"/>
<path d="M0 0 C14.85 0 29.7 0 45 0 C45 14.85 45 29.7 45 45 C30.15 45 15.3 45 0 45 C0 30.15 0 15.3 0 0 Z " fill="#2896FE" transform="translate(363,393)"/>
<path d="M0 0 C14.85 0 29.7 0 45 0 C45 14.85 45 29.7 45 45 C30.15 45 15.3 45 0 45 C0 30.15 0 15.3 0 0 Z " fill="#2896FE" transform="translate(303,393)"/>
<path d="M0 0 C14.85 0 29.7 0 45 0 C45 14.19 45 28.38 45 43 C39.375 45.25 39.375 45.25 35.76049805 45.22705078 C34.54324036 45.22668823 34.54324036 45.22668823 33.3013916 45.22631836 C32.04425354 45.21097046 32.04425354 45.21097046 30.76171875 45.1953125 C29.58977966 45.19229126 29.58977966 45.19229126 28.39416504 45.18920898 C25.49188314 45.1787909 22.58968531 45.15086842 19.6875 45.125 C13.190625 45.08375 6.69375 45.0425 0 45 C0 30.15 0 15.3 0 0 Z " fill="#1E87DB" transform="translate(303,453)"/>
<path d="M0 0 C12.87 0 25.74 0 39 0 C41.81438382 25.32945437 41.81438382 25.32945437 36.85400391 31.79882812 C31.17530516 36.7157132 24.65897206 40.13706607 17.96240234 43.47070312 C14.07523495 45.47739643 10.62357745 47.89082058 7.125 50.5 C2.22761194 54 2.22761194 54 0 54 C0 36.18 0 18.36 0 0 Z " fill="#E4DADB" transform="translate(221,241)"/>
<path d="M0 0 C14.85 0 29.7 0 45 0 C45 10 45 10 43.12109375 12.41015625 C42.23550781 12.95542969 41.34992188 13.50070312 40.4375 14.0625 C39.42816406 14.70445312 38.41882813 15.34640625 37.37890625 16.0078125 C36.26386719 16.66523438 35.14882813 17.32265625 34 18 C32.84066763 18.72371842 31.68314882 19.45034908 30.52734375 20.1796875 C23.73261606 24.41307111 16.74742624 28.29115907 9.6875 32.0625 C8.95192871 32.45687256 8.21635742 32.85124512 7.45849609 33.25756836 C2.24634046 36 2.24634046 36 0 36 C0 24.12 0 12.24 0 0 Z " fill="#2795FE" transform="translate(363,453)"/>
<path d="M0 0 C2.83727325 -0.26667539 5.45383045 -0.34791234 8.2890625 -0.29296875 C9.10748627 -0.28872391 9.92591003 -0.28447906 10.76913452 -0.28010559 C13.38808836 -0.26328679 16.00627802 -0.22562974 18.625 -0.1875 C20.3984264 -0.17245726 22.17186484 -0.15876814 23.9453125 -0.14648438 C28.2971703 -0.11337292 32.64845551 -0.06156952 37 0 C26.03098981 8.78646549 14.77932599 17.11496426 3.36132812 25.3046875 C-0.57745649 28.13253286 -4.50724931 30.97281207 -8.4375 33.8125 C-9.55813843 34.62170898 -9.55813843 34.62170898 -10.70141602 35.44726562 C-16.47697683 39.61868259 -22.24313152 43.80281175 -28 48 C-29 46 -29 46 -28.35424805 43.8203125 C-19.54058966 22.07667259 -19.54058966 22.07667259 -11.33203125 15.0703125 C-7.45053416 11.62442731 -4.79939483 7.33429029 -2 3 C-1.34 2.01 -0.68 1.02 0 0 Z " fill="#2996FE" transform="translate(205,82)"/>
<path d="M0 0 C6.6 0 13.2 0 20 0 C19.94199219 1.84722656 19.88398438 3.69445312 19.82421875 5.59765625 C19.53010669 19.15070743 19.51388484 30.49949475 25 43 C25 43.66 25 44.32 25 45 C16.75 45 8.5 45 0 45 C0 30.15 0 15.3 0 0 Z " fill="#2087DB" transform="translate(303,393)"/>
<path d="M0 0 C4.95 0 9.9 0 15 0 C15 3.3 15 6.6 15 10 C10.38 10 5.76 10 1 10 C1 21.88 1 33.76 1 46 C-13.85 46 -28.7 46 -44 46 C-44 50.29 -44 54.58 -44 59 C-42.71013184 58.99476318 -41.42026367 58.98952637 -40.09130859 58.98413086 C-35.24186922 58.96583981 -30.3924328 58.95448114 -25.54296875 58.94506836 C-23.45604945 58.94008266 -21.36913356 58.93329169 -19.28222656 58.92456055 C-16.2584549 58.91223933 -13.23472995 58.90671398 -10.2109375 58.90234375 C-8.84284439 58.89460182 -8.84284439 58.89460182 -7.44711304 58.88670349 C0.12030689 58.88606832 7.38941992 59.45638714 15 60 C15 72.21 15 84.42 15 97 C3 102 3 102 0 102 C0 88.14 0 74.28 0 60 C-14.85 60 -29.7 60 -45 60 C-45 55.05 -45 50.1 -45 45 C-30.15 45 -15.3 45 0 45 C0 30.15 0 15.3 0 0 Z " fill="#99C3EC" transform="translate(348,393)"/>
<path d="M0 0 C0.66 0.33 1.32 0.66 2 1 C-0.2573011 6.25236907 -2.51769359 11.50339224 -4.78100586 16.75317383 C-5.55107116 18.54056416 -6.32027915 20.32832409 -7.08862305 22.11645508 C-8.19096143 24.68147069 -9.29634129 27.24515631 -10.40234375 29.80859375 C-10.74716293 30.6127623 -11.09198212 31.41693085 -11.44725037 32.24546814 C-13.88612829 37.88612829 -13.88612829 37.88612829 -15 39 C-17.73894085 39.08858646 -20.4525327 39.11523479 -23.19140625 39.09765625 C-24.01124496 39.0962413 -24.83108368 39.09482635 -25.67576599 39.09336853 C-28.30471382 39.08775289 -30.93357773 39.07519779 -33.5625 39.0625 C-35.34049357 39.05748701 -37.11848846 39.05292376 -38.89648438 39.04882812 C-43.26435545 39.03777839 -47.63216348 39.02050331 -52 39 C-49.13265983 36.05952134 -46.30796267 33.32590713 -42.98828125 30.90625 C-41.86474243 30.08265991 -41.86474243 30.08265991 -40.71850586 29.24243164 C-39.92452393 28.6674292 -39.13054199 28.09242676 -38.3125 27.5 C-37.48177979 26.89341553 -36.65105957 26.28683105 -35.79516602 25.66186523 C-33.20034277 23.76961766 -30.60069978 21.88416046 -28 20 C-27.18047852 19.40461426 -26.36095703 18.80922852 -25.51660156 18.19580078 C-17.06378959 12.05529261 -8.59587752 5.93936261 0 0 Z " fill="#8FCCFE" transform="translate(242,82)"/>
<path d="M0 0 C0.495 0.99 0.495 0.99 1 2 C0.028942 4.66518364 -1.01008289 7.22294338 -2.1484375 9.81640625 C-2.48042145 10.58806625 -2.8124054 11.35972626 -3.15444946 12.1547699 C-3.85875797 13.78794501 -4.5668245 15.41950376 -5.27832031 17.04956055 C-6.37061423 19.55245042 -7.45192106 22.05985513 -8.53125 24.56835938 C-9.21550875 26.15131721 -9.9003839 27.73400876 -10.5859375 29.31640625 C-10.91201996 30.07055313 -11.23810242 30.82470001 -11.57406616 31.60169983 C-13.88256558 36.88256558 -13.88256558 36.88256558 -15 38 C-17.6662603 38.08855161 -20.30647114 38.11524673 -22.97265625 38.09765625 C-23.77029892 38.0962413 -24.56794159 38.09482635 -25.38975525 38.09336853 C-27.94737435 38.08775316 -30.50490718 38.07519812 -33.0625 38.0625 C-34.79231645 38.05748698 -36.52213426 38.05292373 -38.25195312 38.04882812 C-42.50133553 38.03777875 -46.75065312 38.02050386 -51 38 C-48.57787659 35.4994205 -46.17802752 33.27244117 -43.33984375 31.2578125 C-42.63794922 30.75588379 -41.93605469 30.25395508 -41.21289062 29.73681641 C-40.46201172 29.20491699 -39.71113281 28.67301758 -38.9375 28.125 C-37.32098232 26.96963411 -35.70511895 25.81335232 -34.08984375 24.65625 C-33.25437012 24.058125 -32.41889648 23.46 -31.55810547 22.84375 C-27.34515597 19.80727409 -23.17366714 16.71512693 -19 13.625 C-12.72968469 8.98859759 -6.43793074 4.40228683 0 0 Z " fill="#1F87DC" transform="translate(326,130)"/>
<path d="M0 0 C0.495 0.99 0.495 0.99 1 2 C0.028942 4.66518364 -1.01008289 7.22294338 -2.1484375 9.81640625 C-2.48042145 10.58806625 -2.8124054 11.35972626 -3.15444946 12.1547699 C-3.85875797 13.78794501 -4.5668245 15.41950376 -5.27832031 17.04956055 C-6.37061423 19.55245042 -7.45192106 22.05985513 -8.53125 24.56835938 C-9.21550875 26.15131721 -9.9003839 27.73400876 -10.5859375 29.31640625 C-10.91201996 30.07055313 -11.23810242 30.82470001 -11.57406616 31.60169983 C-13.88256558 36.88256558 -13.88256558 36.88256558 -15 38 C-17.59359322 38.08851529 -20.16039691 38.11525945 -22.75390625 38.09765625 C-23.52935287 38.0962413 -24.3047995 38.09482635 -25.10374451 38.09336853 C-27.59003494 38.08775345 -30.0762366 38.07519846 -32.5625 38.0625 C-34.24413933 38.05748694 -35.92578006 38.0529237 -37.60742188 38.04882812 C-41.73831566 38.03777913 -45.86914276 38.02050445 -50 38 C-47.14392657 35.07114656 -44.33433318 32.34585483 -41.0234375 29.94140625 C-40.27932617 29.39734131 -39.53521484 28.85327637 -38.76855469 28.29272461 C-37.97868164 27.72175049 -37.18880859 27.15077637 -36.375 26.5625 C-34.67958215 25.32566523 -32.98427292 24.08868156 -31.2890625 22.8515625 C-30.41926758 22.21895508 -29.54947266 21.58634766 -28.65332031 20.93457031 C-24.33796944 17.78819192 -20.04526599 14.61121017 -15.75 11.4375 C-10.52993987 7.58148935 -5.29096539 3.7582651 0 0 Z " fill="#90CCFF" transform="translate(346,83)"/>
<path d="M0 0 C1.47583955 0.0001591 2.95168467 0.00585225 4.42749023 0.01586914 C5.20293686 0.01728409 5.97838348 0.01869904 6.77732849 0.02015686 C9.26361893 0.02577194 11.74982059 0.03832693 14.23608398 0.05102539 C15.91772331 0.05603845 17.59936405 0.06060169 19.28100586 0.06469727 C23.41189965 0.07574626 27.54272674 0.09302094 31.67358398 0.11352539 C28.81751055 3.04237883 26.00791716 5.76767056 22.69702148 8.17211914 C21.95299072 8.71618408 21.20895996 9.26024902 20.44238281 9.82080078 C19.6524292 10.3917749 18.86247559 10.96274902 18.04858398 11.55102539 C16.35179947 12.78777145 14.65519012 14.02475787 12.95874023 15.26196289 C12.08878418 15.89457031 11.21882813 16.52717773 10.32250977 17.17895508 C7.69926002 19.0947736 5.08871272 21.02660402 2.48217773 22.96508789 C1.64444824 23.58714111 0.80671875 24.20919434 -0.05639648 24.85009766 C-1.64927013 26.03359676 -3.24082633 27.2188719 -4.83081055 28.40625 C-9.5277057 31.88487832 -14.31938074 35.09776063 -19.32641602 38.11352539 C-17.02576306 30.71282356 -14.10105069 23.63389687 -11.02807617 16.52661133 C-10.19186027 14.59141116 -9.36229584 12.65345335 -8.53344727 10.71508789 C-3.98590909 0.13603286 -3.98590909 0.13603286 0 0 Z " fill="#90CCFE" transform="translate(162.326416015625,168.886474609375)"/>
<path d="M0 0 C12.87 0 25.74 0 39 0 C39 5.61 39 11.22 39 17 C26.13 17 13.26 17 0 17 C0 11.39 0 5.78 0 0 Z " fill="#A4A0AA" transform="translate(221,224)"/>
<path d="M0 0 C22.77 0 45.54 0 69 0 C69 0.33 69 0.66 69 1 C53.16 1 37.32 1 21 1 C21 11.56 21 22.12 21 33 C16.30445579 31.12178232 12.04867734 29.15050752 7.6875 26.625 C6.94693359 26.27695312 6.20636719 25.92890625 5.44335938 25.5703125 C3.32421875 24.2890625 3.32421875 24.2890625 0 20 C0 13.4 0 6.8 0 0 Z " fill="#A42972" transform="translate(443,244)"/>
<path d="M0 0 C10.89 0 21.78 0 33 0 C27.37868481 5.62131519 27.37868481 5.62131519 24.2421875 7.83984375 C23.19357544 8.58850708 23.19357544 8.58850708 22.1237793 9.35229492 C21.38168213 9.8754126 20.63958496 10.39853027 19.875 10.9375 C18.27395682 12.07702602 16.67372472 13.21769227 15.07421875 14.359375 C14.24583496 14.95041016 13.41745117 15.54144531 12.56396484 16.15039062 C9.94631908 18.03872468 7.35483412 19.95828363 4.76953125 21.890625 C3.49456787 22.84207397 3.49456787 22.84207397 2.19384766 23.81274414 C0.55370795 25.03957375 -1.08346561 26.27038131 -2.71728516 27.50561523 C-6.349324 30.21422128 -9.61309829 32.64277492 -14 34 C-9.7480867 22.48351122 -4.87025659 11.26701152 0 0 Z " fill="#8ECBFE" transform="translate(227,121)"/>
<path d="M0 0 C-2.26982901 7.21535049 -5.08118995 14.07906015 -8.125 21 C-8.58003906 22.04800781 -9.03507812 23.09601563 -9.50390625 24.17578125 C-12.86468534 31.86468534 -12.86468534 31.86468534 -14 33 C-16.3756852 33.0883967 -18.72208674 33.11530305 -21.09765625 33.09765625 C-22.16094398 33.09553383 -22.16094398 33.09553383 -23.24571228 33.09336853 C-25.51801712 33.08775443 -27.79022475 33.07519963 -30.0625 33.0625 C-31.59960796 33.05748681 -33.13671745 33.05292359 -34.67382812 33.04882812 C-38.44925642 33.03778042 -42.22461171 33.02050641 -46 33 C-43.57787659 30.4994205 -41.17802752 28.27244117 -38.33984375 26.2578125 C-37.63738525 25.75548096 -36.93492676 25.25314941 -36.21118164 24.7355957 C-35.4608667 24.20409912 -34.71055176 23.67260254 -33.9375 23.125 C-32.33009718 21.97614413 -30.72334937 20.8263714 -29.1171875 19.67578125 C-27.86566895 18.77980225 -27.86566895 18.77980225 -26.58886719 17.86572266 C-21.39411319 14.12201179 -16.25331992 10.3047288 -11.10717773 6.49462891 C-10.35122314 5.93565918 -9.59526855 5.37668945 -8.81640625 4.80078125 C-8.15068604 4.30747314 -7.48496582 3.81416504 -6.79907227 3.3059082 C-2.24471864 0 -2.24471864 0 0 0 Z " fill="#8FCCFE" transform="translate(277,135)"/>
<path d="M0 0 C4.62 0 9.24 0 14 0 C14 8.91 14 17.82 14 27 C2 32 2 32 0 32 C0 21.44 0 10.88 0 0 Z " fill="#F2EEEF" transform="translate(349,463)"/>
<path d="M0 0 C0.66 0.33 1.32 0.66 2 1 C1.32904297 2.30710938 1.32904297 2.30710938 0.64453125 3.640625 C-3.25751256 11.30624252 -6.78545919 19.01235315 -10 27 C-18.25 27 -26.5 27 -35 27 C-29.37833263 21.37833263 -29.37833263 21.37833263 -25.99609375 18.984375 C-25.26052246 18.45932373 -24.52495117 17.93427246 -23.76708984 17.39331055 C-22.9983252 16.85101807 -22.22956055 16.30872559 -21.4375 15.75 C-19.83400716 14.60634911 -18.23114488 13.46181361 -16.62890625 12.31640625 C-15.45352295 11.47746826 -15.45352295 11.47746826 -14.25439453 10.62158203 C-9.44336477 7.16101676 -4.72079611 3.58225117 0 0 Z " fill="#1F87DC" transform="translate(257,180)"/>
<path d="M0 0 C2.10375 0.4640625 2.10375 0.4640625 4.25 0.9375 C13.06808321 2.57133671 22.05803622 2.6671943 31 3 C26.69949278 6.7294137 22.03366169 9.35575319 17.0625 12.0625 C16.27681641 12.49626953 15.49113281 12.93003906 14.68164062 13.37695312 C2.63515506 20 2.63515506 20 0 20 C0 13.4 0 6.8 0 0 Z " fill="#1D87DC" transform="translate(363,469)"/>
<path d="M0 0 C1 2 1 2 0.28735352 4.15478516 C-0.09493408 5.02409668 -0.47722168 5.8934082 -0.87109375 6.7890625 C-1.28037109 7.73007813 -1.68964844 8.67109375 -2.11132812 9.640625 C-2.54896484 10.62546875 -2.98660156 11.6103125 -3.4375 12.625 C-4.0881543 14.11386719 -4.0881543 14.11386719 -4.75195312 15.6328125 C-5.82767252 18.09159969 -6.91295366 20.54619949 -8 23 C-15.26 23 -22.52 23 -30 23 C-26.82790347 19.82790347 -24.34637887 17.35464847 -20.8203125 14.84375 C-20.05589844 14.29589844 -19.29148437 13.74804688 -18.50390625 13.18359375 C-17.71886719 12.62800781 -16.93382812 12.07242188 -16.125 11.5 C-15.34769531 10.94441406 -14.57039063 10.38882813 -13.76953125 9.81640625 C-11.51598339 8.20672921 -9.25824318 6.6030801 -7 5 C-4.66572472 3.33464817 -2.33291534 1.66725683 0 0 Z " fill="#1F87DC" transform="translate(292,98)"/>
<path d="M0 0 C6.93 0 13.86 0 21 0 C17.7542694 3.2457306 15.10390432 5.82194727 11.49609375 8.4453125 C10.67302734 9.04730469 9.84996094 9.64929688 9.00195312 10.26953125 C8.15568359 10.88183594 7.30941406 11.49414062 6.4375 12.125 C4.74866972 13.35673217 3.05986666 14.58850167 1.37109375 15.8203125 C0.2562561 16.62879639 0.2562561 16.62879639 -0.88110352 17.45361328 C-2.32453527 18.50704072 -3.74652925 19.59033419 -5.14819336 20.69873047 C-7 22 -7 22 -9 22 C-6.65506727 14.31383161 -3.44054913 7.2633815 0 0 Z " fill="#1F87DC" transform="translate(207,169)"/>
<path d="M0 0 C4.62 0 9.24 0 14 0 C14 3.3 14 6.6 14 10 C9.38 10 4.76 10 0 10 C0 6.7 0 3.4 0 0 Z " fill="#C6BDC3" transform="translate(349,453)"/>
<path d="M0 0 C4.62 0 9.24 0 14 0 C14 3.3 14 6.6 14 10 C9.38 10 4.76 10 0 10 C0 6.7 0 3.4 0 0 Z " fill="#C5BDC3" transform="translate(349,393)"/>
<path d="M0 0 C0.66 0.33 1.32 0.66 2 1 C0.02 5.29 -1.96 9.58 -4 14 C-8.62 14 -13.24 14 -18 14 C-12.375 9.5 -12.375 9.5 -9.66796875 7.421875 C-9.09755859 6.98359375 -8.52714844 6.5453125 -7.93945312 6.09375 C-7.07223633 5.42859375 -7.07223633 5.42859375 -6.1875 4.75 C-5.59001953 4.29109375 -4.99253906 3.8321875 -4.37695312 3.359375 C-2.91831086 2.23913774 -1.45920353 1.11950607 0 0 Z " fill="#8ECAFD" transform="translate(194,194)"/>
<path d="M0 0 C4.62 0 9.24 0 14 0 C9.5 4.5 9.5 4.5 6.765625 6.359375 C6.19199219 6.75253906 5.61835938 7.14570312 5.02734375 7.55078125 C4.14755859 8.14439453 4.14755859 8.14439453 3.25 8.75 C2.34701172 9.36681641 2.34701172 9.36681641 1.42578125 9.99609375 C-0.04686657 11.00123432 -1.52307502 12.00115478 -3 13 C-3.66 12.67 -4.32 12.34 -5 12 C-3.35 8.04 -1.7 4.08 0 0 Z " fill="#8CCAFF" transform="translate(300,82)"/>
<path d="M0 0 C1.37478516 0.01740234 1.37478516 0.01740234 2.77734375 0.03515625 C3.69644531 0.04417969 4.61554688 0.05320312 5.5625 0.0625 C6.27277344 0.07410156 6.98304688 0.08570312 7.71484375 0.09765625 C4.01424173 4.02253718 0.22415125 7.11981168 -4.28515625 10.09765625 C-4.94515625 10.09765625 -5.60515625 10.09765625 -6.28515625 10.09765625 C-5.80965064 8.61730861 -5.32964409 7.13840604 -4.84765625 5.66015625 C-4.58082031 4.83644531 -4.31398438 4.01273437 -4.0390625 3.1640625 C-2.93037684 0.12522978 -2.93037684 0.12522978 0 0 Z " fill="#218ADE" transform="translate(286.28515625,120.90234375)"/>
<path d="M0 0 C0.33 0.66 0.66 1.32 1 2 C-0.11463924 4.78939871 -1.58628534 7.34393004 -3 10 C-5.97 10 -8.94 10 -12 10 C-8.29909479 6.0747975 -4.45040344 3.05419844 0 0 Z " fill="#2088DD" transform="translate(210,158)"/>
<path d="M0 0 C2.97 0 5.94 0 9 0 C5.32442148 4.00972202 1.81033104 6.45335415 -3 9 C-2.01 6.03 -1.02 3.06 0 0 Z " fill="#8CCAFF" transform="translate(263,169)"/>
<path d="M0 0 C2.97 0 5.94 0 9 0 C5.32442148 4.00972202 1.81033104 6.45335415 -3 9 C-2.01 6.03 -1.02 3.06 0 0 Z " fill="#278CDD" transform="translate(179,121)"/>
<path d="M0 0 C2.64 0 5.28 0 8 0 C8 2.31 8 4.62 8 7 C2.25 3.375 2.25 3.375 0 0 Z " fill="#2795FD" transform="translate(340,453)"/>
</svg>
