<?xml version="1.0" encoding="UTF-8"?>
<svg version="1.1" xmlns="http://www.w3.org/2000/svg" width="512" height="512">
<path d="M0 0 C1.42133242 -0.00350371 2.8426609 -0.00916512 4.26397705 -0.01681519 C8.11327001 -0.03103597 11.9618463 -0.01402973 15.81107068 0.00946999 C19.84327729 0.02960919 23.87545504 0.0236979 27.90769958 0.0213623 C34.67735585 0.02141584 41.44673264 0.0411506 48.21630859 0.07324219 C56.03943976 0.11014827 63.86220513 0.11891531 71.68541199 0.11194468 C79.2171583 0.10563693 86.74877938 0.116398 94.28050041 0.13591003 C97.48334477 0.14407806 100.68612506 0.14679469 103.88897896 0.1452179 C107.66068517 0.14433817 111.4320444 0.15857847 115.20365906 0.18444443 C116.58673355 0.19159871 117.96984498 0.19369338 119.35293388 0.19032669 C121.24264224 0.18660456 123.1323579 0.20322058 125.02198792 0.2208252 C126.60730489 0.22641827 126.60730489 0.22641827 128.22464848 0.23212433 C131.51975173 0.67305623 133.40540106 1.68570212 136.08764648 3.61523438 C138.69165444 7.08724498 138.54415822 10.39872594 138.08764648 14.61523438 C136.36083431 18.1001236 134.14873336 21.1990785 131.90014648 24.36523438 C131.26665283 25.28481934 130.63315918 26.2044043 129.98046875 27.15185547 C128.66706857 29.05604888 127.34693709 30.95561622 126.02026367 32.85058594 C123.6892028 36.18521623 121.39937883 39.54667999 119.11132812 42.91088867 C117.52732835 45.23703025 115.93572812 47.55777555 114.34155273 49.87695312 C112.05165425 53.20879383 109.76849544 56.54512274 107.48999023 59.88476562 C106.89968018 60.74956543 106.30937012 61.61436523 105.70117188 62.50537109 C104.5708649 64.1615462 103.4411141 65.81810108 102.31201172 67.47509766 C101.80226807 68.22130371 101.29252441 68.96750977 100.76733398 69.73632812 C100.32115723 70.39044678 99.87498047 71.04456543 99.4152832 71.71850586 C98.08764648 73.61523437 98.08764648 73.61523437 96.52958965 75.38814163 C94.72902914 78.16912174 94.70447323 79.84796357 94.68891907 83.14544678 C94.67638092 84.27002792 94.66384277 85.39460907 94.65092468 86.55326843 C94.65235977 87.78253555 94.65379486 89.01180267 94.65527344 90.27832031 C94.64508179 91.5761293 94.63489014 92.87393829 94.62438965 94.21107483 C94.59680487 97.76653195 94.5875332 101.32182914 94.58153558 104.87737942 C94.57215569 108.59436319 94.54595265 112.31122732 94.52153015 116.02813721 C94.47785076 123.06513298 94.44931269 130.10210556 94.42620677 137.13919568 C94.39410587 146.64946348 94.33863106 156.15959302 94.28446102 165.66975594 C94.19974114 180.65154101 94.14626452 195.6332718 94.08764648 210.61523438 C117.51764648 210.61523438 140.94764648 210.61523438 165.08764648 210.61523438 C165.08764648 191.47523438 165.08764648 172.33523437 165.08764648 152.61523438 C159.47764648 152.61523438 153.86764648 152.61523438 148.08764648 152.61523438 C142.28517735 147.97325907 142.28517735 147.97325907 141.58764648 143.17773438 C141.71741787 137.56761736 144.68534102 133.83731124 147.84204102 129.38232422 C149.24785226 127.38795695 150.62002438 125.3726701 151.98999023 123.35351562 C154.76722645 119.26515259 157.56406617 115.19062789 160.3659668 111.11914062 C163.11382175 107.12282747 165.85034326 103.11877874 168.58764648 99.11523438 C169.67092142 97.53186109 170.75425485 95.94852782 171.83764648 94.36523438 C172.37389648 93.58148438 172.91014648 92.79773438 173.46264648 91.99023438 C183.75431315 76.94856771 194.04597982 61.90690104 204.33764648 46.86523438 C204.87429932 46.08083984 205.41095215 45.29644531 205.96386719 44.48828125 C207.0429213 42.91131448 208.12218429 41.3344906 209.20166016 39.7578125 C211.97723048 35.70324125 214.74868641 31.64594892 217.51342773 27.58398438 C220.69089861 22.91808333 223.88336465 18.26275806 227.08764648 13.61523438 C227.50981445 13.00019043 227.93198242 12.38514648 228.36694336 11.75146484 C229.45146628 10.17836525 230.55018936 8.61508089 231.65014648 7.05273438 C232.22893555 6.22644531 232.80772461 5.40015625 233.40405273 4.54882812 C235.91833225 1.66119852 238.00740675 0.71656069 241.83038998 0.35796547 C243.41903787 0.35293794 243.41903787 0.35293794 245.03977966 0.34780884 C246.25810486 0.33927887 247.47643005 0.3307489 248.73167419 0.32196045 C250.078766 0.32265944 251.4258577 0.32358249 252.77294922 0.32470703 C254.19398349 0.31872161 255.61501451 0.31191603 257.03604126 0.30435181 C260.89347251 0.28668754 264.75081502 0.2819963 268.6082828 0.28072023 C271.01848253 0.2792985 273.42865971 0.27502853 275.83885384 0.2697258 C284.24772703 0.25122526 292.65653682 0.24305536 301.06542969 0.24462891 C308.90330631 0.24583085 316.7409078 0.2247184 324.57871479 0.19314158 C331.30919199 0.16699235 338.03957924 0.15626101 344.77010685 0.15753973 C348.78945245 0.15804969 352.80855344 0.15234744 356.82784843 0.13118362 C360.60774362 0.11182339 364.38716026 0.11166115 368.1670723 0.12621689 C369.55339443 0.12830877 370.93974635 0.12358142 372.32601738 0.11149597 C374.22012771 0.09605404 376.11440108 0.10774584 378.00852966 0.12075806 C379.06800529 0.11966852 380.12748091 0.11857899 381.21906185 0.11745644 C384.80969716 0.74052993 386.48417248 2.11728037 389.08764648 4.61523438 C390.9104167 8.26077481 390.85230071 11.7177804 390.08764648 15.61523438 C388.17815099 19.30088071 385.80396409 22.57606371 383.33666992 25.90820312 C381.11471453 28.94493341 379.01994963 32.06930286 376.90014648 35.17773438 C375.96080791 36.54284483 375.0206827 37.90741429 374.07983398 39.27148438 C371.99930472 42.29067103 369.92102693 45.31138454 367.84545898 48.33398438 C367.29817139 49.12925537 366.75088379 49.92452637 366.18701172 50.74389648 C365.07457534 52.37308382 363.9725651 54.00943705 362.88085938 55.65258789 C360.45476126 59.28790841 358.07567031 62.73790146 355.07592773 65.92382812 C347.9238025 73.89732831 347.4237109 81.75709848 347.34936523 92.17382812 C347.3235129 93.68866052 347.29610599 95.203467 347.26731873 96.71824646 C347.19254674 101.04640911 347.14839359 105.37441476 347.11225128 109.70305634 C347.08646236 112.75538473 347.05613779 115.80764513 347.02508545 118.85992432 C346.83645383 137.79674933 346.70873192 156.73413166 346.61083984 175.67163086 C346.57917318 181.71611563 346.53800877 187.76047221 346.49064445 193.80485344 C346.47464379 196.08907761 346.4623133 198.37333057 346.45373726 200.65759468 C346.44166832 203.81231155 346.41757931 206.96671833 346.390625 210.12133789 C346.39003586 211.05968979 346.38944672 211.99804169 346.38883972 212.96482849 C346.3791214 213.81731171 346.36940308 214.66979492 346.35939026 215.54811096 C346.35515832 216.28986352 346.35092638 217.03161608 346.3465662 217.79584599 C346.08764648 219.61523437 346.08764648 219.61523437 344.08764648 221.61523438 C341.45428317 221.80845694 338.92651683 221.87571281 336.29232788 221.85574341 C335.47799211 221.85745226 334.66365634 221.85916111 333.82464373 221.86092174 C331.0806804 221.86423066 328.33695859 221.85319001 325.59301758 221.84228516 C323.63215643 221.84172134 321.67129486 221.84203701 319.71043396 221.84317017 C314.37390903 221.84374585 309.03747334 221.83195668 303.70096922 221.81802225 C298.12890795 221.80555079 292.55684481 221.80434723 286.98477173 221.80197144 C276.42731867 221.7957461 265.86990685 221.77932107 255.31247199 221.75927246 C243.29573134 221.73694618 231.27898876 221.72592827 219.26223254 221.71588159 C194.53734237 221.69495572 169.81250875 221.65826637 145.08764648 221.61523438 C145.08764648 248.67523438 145.08764648 275.73523438 145.08764648 303.61523438 C160.24040179 303.45726141 160.24040179 303.45726141 175.39257812 303.25488281 C177.30264388 303.24319224 179.21271964 303.23300129 181.12280273 303.22460938 C182.10180542 303.20414551 183.08080811 303.18368164 184.08947754 303.16259766 C190.29500999 303.15945123 194.08675696 303.82916105 199.08764648 307.61523438 C201.13416164 310.43786884 201.32940735 312.72493001 201.28295898 316.16210938 C201.27651367 317.00644531 201.27006836 317.85078125 201.26342773 318.72070312 C201.24666992 319.59339844 201.22991211 320.46609375 201.21264648 321.36523438 C201.19911133 322.69748047 201.19911133 322.69748047 201.18530273 324.05664062 C201.16179398 326.24295449 201.12592459 328.42912922 201.08764648 330.61523438 C205.04764648 330.61523438 209.00764648 330.61523438 213.08764648 330.61523438 C213.00514648 328.90335937 212.92264648 327.19148438 212.83764648 325.42773438 C212.83262206 321.52375513 212.90284244 319.93386204 214.90014648 316.49023438 C219.55128381 312.50354524 225.16049206 313.43146807 230.96264648 313.42773438 C231.95651367 313.41548828 232.95038086 313.40324219 233.97436523 313.390625 C235.41875977 313.38772461 235.41875977 313.38772461 236.89233398 313.38476562 C237.76873535 313.38065674 238.64513672 313.37654785 239.5480957 313.37231445 C242.42886826 313.64787384 244.51124759 314.3013311 247.08764648 315.61523438 C249.43884048 319.14202536 249.302081 320.64402923 249.21264648 324.80273438 C249.19459961 325.88941406 249.17655273 326.97609375 249.15795898 328.09570312 C249.1231543 329.34287109 249.1231543 329.34287109 249.08764648 330.61523438 C249.69092773 330.56882812 250.29420898 330.52242188 250.91577148 330.47460938 C251.71499023 330.43851562 252.51420898 330.40242188 253.33764648 330.36523438 C254.12655273 330.31882812 254.91545898 330.27242188 255.72827148 330.22460938 C258.99331554 330.76517958 260.01450291 332.0804379 262.08764648 334.61523438 C262.60522461 337.1171875 262.60522461 337.1171875 262.61889648 339.89648438 C262.62405273 340.90324219 262.62920898 341.91 262.63452148 342.94726562 C262.61905273 343.99269531 262.60358398 345.038125 262.58764648 346.11523438 C262.60311523 347.16066406 262.61858398 348.20609375 262.63452148 349.28320312 C262.62936523 350.28996094 262.62420898 351.29671875 262.61889648 352.33398438 C262.61438477 353.25115234 262.60987305 354.16832031 262.60522461 355.11328125 C261.89020804 358.56964434 261.04456341 359.66298421 258.08764648 361.61523438 C255.87189484 361.77831268 255.87189484 361.77831268 253.42956543 361.71960449 C252.61707588 361.70453606 251.80458633 361.68946762 250.96747589 361.67394257 C250.03696033 361.64488201 250.03696033 361.64488201 249.08764648 361.61523438 C249.10249967 373.29818395 249.14399538 384.98070349 249.21973705 396.6634264 C249.25406316 402.08792997 249.27912577 407.51215023 249.28320312 412.93676758 C249.28747402 418.1695321 249.31583611 423.4016569 249.36107826 428.63422203 C249.37409203 430.63291387 249.37834729 432.63168212 249.37380028 434.63041115 C249.36892177 437.42529445 249.39486315 440.21828809 249.42822266 443.01293945 C249.41959702 443.84372009 249.41097137 444.67450073 249.40208435 445.53045654 C249.39705412 448.09689974 249.39705412 448.09689974 250.08764648 451.61523438 C252.38187218 453.62236775 252.38187218 453.62236775 255.08764648 454.61523438 C257.65331518 456.87880215 258.92862404 458.53084628 259.43041992 461.95263672 C259.55390994 464.74749129 259.53469175 467.50624055 259.46264648 470.30273438 C259.46071289 471.74616211 259.46071289 471.74616211 259.45874023 473.21875 C259.36886317 480.33401769 259.36886317 480.33401769 257.08764648 482.61523438 C254.02359923 482.81776458 251.04939114 482.89317921 247.98377991 482.88265991 C246.5510648 482.88945658 246.5510648 482.88945658 245.08940595 482.89639056 C241.86880045 482.90911429 238.64836233 482.90740907 235.42773438 482.90576172 C233.12691529 482.91174196 230.82609822 482.91854633 228.52528381 482.92611694 C222.26092712 482.94383462 215.99662501 482.94847472 209.73224568 482.94974852 C204.51074753 482.95164351 199.28926222 482.95899636 194.06776899 482.96609271 C182.45791117 482.98146372 170.84808007 482.98742865 159.23821289 482.986082 C158.19265591 482.98596213 158.19265591 482.98596213 157.12597656 482.98583984 C156.42809064 482.98575808 155.73020472 482.98567632 155.01117074 482.98559208 C143.69684611 482.9847789 132.38265452 483.00392298 121.06836838 483.03211658 C109.45966158 483.06081632 97.85102583 483.07429186 86.24228281 483.07292902 C79.72131206 483.07241786 73.20049183 483.07818584 66.67955208 483.09928513 C60.54904645 483.11857852 54.41883629 483.11885313 48.28832054 483.10425186 C46.03360694 483.10215163 43.77887527 483.10693626 41.52419281 483.11897278 C38.4552745 483.1342996 35.38739108 483.12520052 32.3184967 483.10971069 C31.41811757 483.11999782 30.51773843 483.13028495 29.59007508 483.1408838 C23.60829318 483.07377678 23.60829318 483.07377678 21.03781796 480.80991554 C19.62175261 477.53912492 19.59958398 474.36780043 19.65014648 470.86523438 C19.65699463 470.15020752 19.66384277 469.43518066 19.67089844 468.69848633 C19.84780437 462.88576831 20.68877215 459.30016926 24.08764648 454.61523438 C24.94674118 454.23191452 25.80583588 453.84859467 26.69096375 453.45365906 C29.51029693 451.7229729 29.51029693 451.7229729 29.72688293 447.83772278 C29.75916765 446.22977167 29.76376745 444.62112796 29.74707031 443.01293945 C29.75755402 442.13468002 29.76803772 441.25642059 29.77883911 440.35154724 C29.8076644 437.44559728 29.80128891 434.54083337 29.79467773 431.63476562 C29.80778825 429.62121583 29.82309047 427.6076792 29.84049988 425.59416199 C29.88043837 420.29225767 29.89054603 414.99069669 29.89453125 409.68865967 C29.90384601 404.2793124 29.94124912 398.87016827 29.97631836 393.4609375 C30.04098433 382.84571269 30.07415053 372.2306389 30.08764648 361.61523438 C28.08461253 361.6530714 26.08157857 361.69090843 24.07854462 361.72874546 C22.08764648 361.61523438 22.08764648 361.61523438 19.62084961 360.45288086 C17.54786454 357.96826961 17.57143967 356.42810313 17.55639648 353.21289062 C17.54866211 351.63024414 17.54866211 351.63024414 17.54077148 350.015625 C17.55624023 348.91412109 17.57170898 347.81261719 17.58764648 346.67773438 C17.56444336 345.0312793 17.56444336 345.0312793 17.54077148 343.3515625 C17.54592773 342.29517578 17.55108398 341.23878906 17.55639648 340.15039062 C17.5609082 339.18496338 17.56541992 338.21953613 17.57006836 337.22485352 C18.22877261 333.90367909 19.47580591 332.70221763 22.08764648 330.61523438 C24.86906692 330.1076759 27.23336938 330.42494923 30.08764648 330.61523438 C30.04124023 329.96296875 29.99483398 329.31070312 29.94702148 328.63867188 C29.7584906 324.07353119 29.78738011 321.22649092 31.83764648 317.05273438 C34.65231174 314.00351368 36.34881552 313.72493689 40.39013672 313.4699707 C43.10193197 313.44540208 45.81323167 313.42958299 48.52514648 313.42773438 C49.46680664 313.41548828 50.4084668 313.40324219 51.37866211 313.390625 C60.15223537 313.37205004 60.15223537 313.37205004 64.08764648 315.61523438 C68.12764353 320.07316215 67.31490312 324.93381846 67.08764648 330.61523438 C71.04764648 330.61523438 75.00764648 330.61523438 79.08764648 330.61523438 C79.04124023 329.22949219 78.99483398 327.84375 78.94702148 326.41601562 C78.90949522 324.58661014 78.87309597 322.75718129 78.83764648 320.92773438 C78.78737305 319.5597168 78.78737305 319.5597168 78.73608398 318.1640625 C78.67468097 313.94260513 78.68493828 311.32921016 80.79077148 307.59570312 C86.23015517 302.9056223 91.79590055 303.34756844 98.63842773 303.41992188 C99.53766968 303.42193604 100.43691162 303.4239502 101.36340332 303.42602539 C104.70903658 303.43645627 108.05459688 303.46437881 111.40014648 303.49023438 C118.88702148 303.53148437 126.37389648 303.57273437 134.08764648 303.61523438 C134.08764648 276.55523437 134.08764648 249.49523437 134.08764648 221.61523438 C127.46919678 221.63094482 120.85074707 221.64665527 114.03173828 221.6628418 C92.21481351 221.71245225 70.39788657 221.74580168 48.58092022 221.77067089 C35.34753741 221.7861558 22.11420795 221.80727633 8.88085938 221.84155273 C-2.65005105 221.87140539 -14.18092286 221.89079755 -25.71187085 221.89749986 C-31.82038126 221.90141913 -37.92878116 221.91066362 -44.03725624 221.93242455 C-49.78191695 221.9527244 -55.52642118 221.95908137 -61.27111435 221.95455742 C-63.38392549 221.95538554 -65.49674165 221.9613897 -67.60952187 221.9728508 C-70.48571041 221.98769316 -73.36130178 221.98421825 -76.23750305 221.97599792 C-77.50257178 221.98910571 -77.50257178 221.98910571 -78.79319745 222.0024783 C-84.47469554 221.95833836 -84.47469554 221.95833836 -86.62664002 220.27131158 C-88.62911833 217.69199769 -88.27132598 215.43541604 -88.25292969 212.21606445 C-88.25358681 211.24980385 -88.25358681 211.24980385 -88.2542572 210.26402283 C-88.2521691 208.13729417 -88.22883865 206.01135636 -88.20532227 203.88476562 C-88.19972635 202.4093214 -88.19545623 200.93387159 -88.19245911 199.4584198 C-88.18100988 195.57683903 -88.15154238 191.69559554 -88.11834717 187.81414795 C-88.08764775 183.85270755 -88.07395407 179.89121259 -88.05883789 175.9296875 C-88.02667246 168.15804944 -87.97547556 160.38668918 -87.91235352 152.61523438 C-89.0093457 152.66164062 -90.10633789 152.70804688 -91.23657227 152.75585938 C-92.69097202 152.79339227 -94.14540135 152.82979081 -95.59985352 152.86523438 C-96.32108398 152.89875 -97.04231445 152.93226563 -97.78540039 152.96679688 C-101.69189694 153.03814841 -103.48169686 152.89058156 -106.86938477 150.72460938 C-110.15322679 147.33402678 -110.39104466 144.74737419 -110.32788086 140.16113281 C-109.53138314 135.28106338 -106.57227384 131.67229778 -103.72485352 127.74023438 C-103.09135986 126.82967285 -102.45786621 125.91911133 -101.80517578 124.98095703 C-100.49339896 123.09738843 -99.17326687 121.21961202 -97.8449707 119.34765625 C-95.50168342 116.03461036 -93.21781004 112.68377993 -90.93798828 109.3269043 C-89.34414526 106.98183564 -87.74112523 104.64331809 -86.13500977 102.30664062 C-83.3969499 98.32241783 -80.66624324 94.33322681 -77.93798828 90.34228516 C-72.99347797 83.10944875 -68.03780205 75.88441322 -63.0715332 68.66650391 C-57.89013842 61.13349556 -52.73032043 53.58574031 -47.56958008 46.03857422 C-45.93156537 43.64332761 -44.29314437 41.24835956 -42.65454102 38.85351562 C-42.11885498 38.07032959 -41.58316895 37.28714355 -41.03125 36.48022461 C-39.9563621 34.90995782 -38.8803616 33.34045203 -37.80322266 31.77172852 C-34.97996866 27.65667241 -32.18146185 23.52737714 -29.41625977 19.37304688 C-28.84004883 18.51388672 -28.26383789 17.65472656 -27.67016602 16.76953125 C-26.57293416 15.13253211 -25.4826085 13.49087379 -24.40063477 11.84375 C-23.65040039 10.7290332 -23.65040039 10.7290332 -22.88500977 9.59179688 C-22.2393103 8.61847412 -22.2393103 8.61847412 -21.58056641 7.62548828 C-15.08399165 -0.20310773 -9.87400432 -0.10220677 0 0 Z M335.08764648 94.61523438 C333.92958292 96.1880203 332.81966364 97.79625331 331.72827148 99.41601562 C331.03080811 100.44710449 330.33334473 101.47819336 329.61474609 102.54052734 C329.24332489 103.09303162 328.87190369 103.64553589 328.48922729 104.21478271 C327.33441355 105.9325433 326.1756285 107.64755694 325.015625 109.36181641 C323.4492869 111.67701189 321.88432728 113.99312821 320.32055664 116.31005859 C298.42059156 148.72660432 298.42059156 148.72660432 294.08764648 151.61523438 C291.87565327 151.8769474 291.87565327 151.8769474 289.24714661 151.89370728 C287.75165535 151.9104525 287.75165535 151.9104525 286.22595215 151.92753601 C285.13335083 151.9296962 284.04074951 151.93185638 282.91503906 151.93408203 C281.76367966 151.94412766 280.61232025 151.95417328 279.42607117 151.96452332 C275.61144521 151.99547244 271.79688981 152.01242319 267.98217773 152.02929688 C265.34087004 152.04799907 262.69956837 152.06757175 260.05827332 152.08798218 C253.81103092 152.13478589 247.56377137 152.17152223 241.31644315 152.20465505 C233.50639075 152.24661299 225.69644098 152.30198512 217.88647461 152.35742188 C203.95358813 152.45626105 190.02067822 152.53478228 176.08764648 152.61523438 C176.08764648 171.75523437 176.08764648 190.89523438 176.08764648 210.61523438 C228.55764648 210.61523438 281.02764648 210.61523438 335.08764648 210.61523438 C335.9358476 165.29932242 335.9358476 165.29932242 336.15014648 119.99023438 C336.14508202 117.46028742 336.14052849 114.9303394 336.13647461 112.40039062 C336.12594858 106.47197985 336.10966706 100.54361315 336.08764648 94.61523438 C335.75764648 94.61523438 335.42764648 94.61523438 335.08764648 94.61523438 Z M82.08764648 95.61523438 C81.03792054 96.98271416 80.03601153 98.38689138 79.05249023 99.80273438 C78.41545166 100.71796875 77.77841309 101.63320312 77.12207031 102.57617188 C76.43008545 103.5790625 75.73810059 104.58195312 75.02514648 105.61523438 C73.96106567 107.15050781 73.96106567 107.15050781 72.87548828 108.71679688 C66.95459787 117.29012625 61.15331537 125.94022616 55.40576172 134.63085938 C45.80607498 149.13628205 45.80607498 149.13628205 42.08764648 151.61523438 C39.8600359 151.8769474 39.8600359 151.8769474 37.20918274 151.89370728 C36.20377441 151.90487076 35.19836609 151.91603424 34.16249084 151.92753601 C33.06053879 151.9296962 31.95858673 151.93185638 30.82324219 151.93408203 C29.66212921 151.94412766 28.50101624 151.95417328 27.30471802 151.96452332 C23.45762641 151.99547341 19.61060475 152.01242346 15.76342773 152.02929688 C13.09969553 152.04799902 10.4359803 152.06747453 7.77226257 152.08798218 C1.47189594 152.13478665 -4.8284877 152.17152263 -11.12893945 152.20465505 C-19.00537421 152.24661237 -26.8817072 152.30198471 -34.75805664 152.35742188 C-48.80943318 152.45626222 -62.86083294 152.5347827 -76.91235352 152.61523438 C-76.91235352 171.75523437 -76.91235352 190.89523438 -76.91235352 210.61523438 C-24.11235352 210.61523438 28.68764648 210.61523438 83.08764648 210.61523438 C83.08764648 172.66523438 83.08764648 134.71523437 83.08764648 95.61523438 C82.75764648 95.61523438 82.42764648 95.61523438 82.08764648 95.61523438 Z " fill="#284268" transform="translate(115.912353515625,14.384765625)"/>
<path d="M0 0 C3.84333874 0.08791256 7.68684999 0.09577182 11.531039 0.11235571 C18.79952099 0.15575948 26.065032 0.27047717 33.33220929 0.41124856 C41.60995273 0.56809167 49.88784312 0.64479456 58.16670406 0.71498466 C75.18659729 0.86106782 92.20360384 1.10708319 109.22123981 1.41951513 C107.64958097 5.55302117 105.7402901 8.6692694 103.09623981 12.23201513 C98.26974901 18.83016343 93.73157995 25.60228325 89.22123981 32.41951513 C84.24947409 39.92425134 79.19482604 47.32078816 73.90873981 54.60701513 C70.21028512 59.78485169 66.73538391 65.11588067 63.22123981 70.41951513 C58.97845774 76.82282829 54.73222632 83.20166885 50.22123981 89.41951513 C44.99781302 96.62271789 40.09890111 104.03527663 35.19194293 111.45662451 C33.91963301 113.37851578 32.61943047 115.28229822 31.28908038 117.16447973 C29.12349853 120.32665206 29.12349853 120.32665206 27.95137286 123.80724096 C26.02079666 128.0811019 24.32988976 131.01533332 20.22123981 133.41951513 C10.96978144 135.7711149 0.92707233 134.9731457 -8.55752039 134.73763633 C-12.40090607 134.65600224 -16.24444054 134.64870507 -20.08855939 134.63330603 C-27.35684511 134.59300362 -34.62256895 134.48647866 -41.88972968 134.35576266 C-50.16753117 134.21012161 -58.44545937 134.13889776 -66.72422445 134.073722 C-83.74388153 133.93807523 -100.76104947 133.70963178 -117.77876019 133.41951513 C-116.20233865 130.19700507 -114.42503618 127.25988152 -112.43501019 124.27107763 C-111.77114301 123.27334326 -111.10727582 122.27560888 -110.42329144 121.24764013 C-109.71559613 120.19060888 -109.00790082 119.13357763 -108.27876019 118.04451513 C-107.55043988 116.95396826 -106.82211957 115.86342138 -106.07172894 114.73982763 C-101.6517412 108.14517452 -97.1278508 101.65745083 -92.46626019 95.23201513 C-88.76780551 90.05417858 -85.2929043 84.72314959 -81.77876019 79.41951513 C-76.80642655 71.91514443 -71.75236266 64.51826447 -66.46626019 57.23201513 C-62.03109761 51.02278752 -57.88987172 44.60690363 -53.67695355 38.24617529 C-49.32588759 31.69299825 -44.94767387 25.18600456 -40.15311933 18.94728613 C-38.37398436 16.48989579 -37.52725041 14.72764624 -36.4566319 11.78252172 C-30.12092582 -3.5259879 -14.11944929 -0.3775652 0 0 Z " fill="#29446A" transform="translate(133.77876019477844,23.580484867095947)"/>
<path d="M0 0 C3.83787739 0.10065765 7.67599455 0.10946745 11.51498818 0.12840652 C18.76968233 0.17795901 26.02047622 0.30898543 33.27345949 0.46999836 C41.53660699 0.64941721 49.79995015 0.73694902 58.06456339 0.81712532 C75.05144179 0.98395822 92.0345334 1.2650083 109.01845193 1.62230301 C107.89585396 3.38849003 106.77298375 5.15450403 105.64999795 6.92044449 C105.02472868 7.903912 104.39945941 8.88737951 103.75524259 9.90064907 C100.63633179 14.78816722 97.42264364 19.61132241 94.20595193 24.43480301 C93.50019021 25.49376785 92.79442849 26.5527327 92.06728005 27.64378738 C87.73084459 34.12657954 83.28573383 40.49713066 78.70595193 46.80980301 C75.00749725 51.98763956 71.53259603 57.31866855 68.01845193 62.62230301 C63.04611828 70.12667371 57.99205439 77.52355367 52.70595193 84.80980301 C49.00749478 89.98764302 45.53267248 95.31871487 42.01845193 100.62230301 C36.18641833 109.42171448 30.23205636 118.08864664 24.01845193 126.62230301 C23.74189924 127.21192857 23.46534656 127.80155413 23.18041348 128.40904713 C22.00756031 130.6340095 20.97383795 132.02150482 19.01845193 133.62230301 C14.65135653 134.67099126 10.34585443 134.50607002 5.8746531 134.41698074 C4.52418011 134.41500513 3.17369961 134.41611671 1.82323098 134.42007828 C-1.8361085 134.42208464 -5.49383782 134.38096922 -9.15280342 134.33206058 C-12.97907307 134.28826371 -16.80538077 134.28418658 -20.6318624 134.27588272 C-27.87461678 134.25413657 -35.11663043 134.19670893 -42.3590588 134.12643629 C-50.60558772 134.04816009 -58.85215226 134.00969827 -67.09896028 133.97456825 C-84.06025115 133.90142458 -101.02082126 133.77832209 -117.98154807 133.62230301 C-116.28017705 129.1182506 -113.93480679 125.41229727 -111.16904807 121.49730301 C-110.16998732 120.0639621 -109.17130509 118.63035728 -108.17295432 117.19652176 C-107.64975608 116.44805984 -107.12655784 115.69959793 -106.5875051 114.92845535 C-103.90234522 111.07256903 -101.25587253 107.19035709 -98.60654807 103.30980301 C-97.50509816 101.69904893 -96.40353478 100.08837244 -95.30186057 98.47777176 C-94.75304221 97.67516922 -94.20422385 96.87256668 -93.63877463 96.04564285 C-90.92045406 92.07067969 -88.20094838 88.09652753 -85.48154807 84.12230301 C-84.3982089 82.53897367 -83.31487557 80.95564033 -82.23154807 79.37230301 C-75.73154807 69.87230301 -69.23154807 60.37230301 -62.73154807 50.87230301 C-62.19513694 50.08831131 -61.65872581 49.30431961 -61.10605979 48.49657059 C-60.02437741 46.91566269 -58.94267173 45.33477072 -57.8609426 43.75389481 C-55.12715706 39.75858371 -52.39379606 35.76298334 -49.66123557 31.76683426 C-48.83075706 30.55253738 -48.83075706 30.55253738 -47.9835012 29.31370926 C-46.95860355 27.81511943 -45.93384439 26.31643487 -44.90928245 24.81761551 C-43.91827862 23.36871777 -42.89929402 21.93862536 -41.85549521 20.52728653 C-40.34338616 18.18322261 -39.37364653 16.22839317 -38.33636069 13.68399429 C-30.77800302 -2.73445312 -15.71479165 -0.48209986 0 0 Z " fill="#29446A" transform="translate(386.9815480709076,23.377696990966797)"/>
<path d="M0 0 C3.84333874 0.08791256 7.68684999 0.09577182 11.531039 0.11235571 C18.79952099 0.15575948 26.065032 0.27047717 33.33220929 0.41124856 C41.60995273 0.56809167 49.88784312 0.64479456 58.16670406 0.71498466 C75.18659729 0.86106782 92.20360384 1.10708319 109.22123981 1.41951513 C107.64958097 5.55302117 105.7402901 8.6692694 103.09623981 12.23201513 C98.26974901 18.83016343 93.73157995 25.60228325 89.22123981 32.41951513 C84.24947409 39.92425134 79.19482604 47.32078816 73.90873981 54.60701513 C70.21028512 59.78485169 66.73538391 65.11588067 63.22123981 70.41951513 C58.97845774 76.82282829 54.73222632 83.20166885 50.22123981 89.41951513 C44.99781302 96.62271789 40.09890111 104.03527663 35.19194293 111.45662451 C33.91963301 113.37851578 32.61943047 115.28229822 31.28908038 117.16447973 C29.12349853 120.32665206 29.12349853 120.32665206 27.95137286 123.80724096 C26.02079666 128.0811019 24.32988976 131.01533332 20.22123981 133.41951513 C10.96978144 135.7711149 0.92707233 134.9731457 -8.55752039 134.73763633 C-12.40090607 134.65600224 -16.24444054 134.64870507 -20.08855939 134.63330603 C-27.35684511 134.59300362 -34.62256895 134.48647866 -41.88972968 134.35576266 C-50.16753117 134.21012161 -58.44545937 134.13889776 -66.72422445 134.073722 C-83.74388153 133.93807523 -100.76104947 133.70963178 -117.77876019 133.41951513 C-116.20233865 130.19700507 -114.42503618 127.25988152 -112.43501019 124.27107763 C-111.77114301 123.27334326 -111.10727582 122.27560888 -110.42329144 121.24764013 C-109.71559613 120.19060888 -109.00790082 119.13357763 -108.27876019 118.04451513 C-107.55043988 116.95396826 -106.82211957 115.86342138 -106.07172894 114.73982763 C-101.6517412 108.14517452 -97.1278508 101.65745083 -92.46626019 95.23201513 C-88.76780551 90.05417858 -85.2929043 84.72314959 -81.77876019 79.41951513 C-76.80642655 71.91514443 -71.75236266 64.51826447 -66.46626019 57.23201513 C-62.03109761 51.02278752 -57.88987172 44.60690363 -53.67695355 38.24617529 C-49.32588759 31.69299825 -44.94767387 25.18600456 -40.15311933 18.94728613 C-38.37398436 16.48989579 -37.52725041 14.72764624 -36.4566319 11.78252172 C-30.12092582 -3.5259879 -14.11944929 -0.3775652 0 0 Z M-30.09126019 21.05232763 C-30.98192182 22.37043432 -30.98192182 22.37043432 -31.8905766 23.71516943 C-32.51367719 24.64885351 -33.13677777 25.58253759 -33.77876019 26.54451513 C-35.11969996 28.53293537 -36.46084941 30.5212142 -37.80219769 32.50935888 C-38.47089887 33.504354 -39.13960004 34.49934912 -39.82856488 35.5244956 C-42.66438159 39.73419948 -45.53278777 43.92124482 -48.40376019 48.10701513 C-49.46639397 49.65900688 -50.52889419 51.21109008 -51.59126019 52.76326513 C-52.11461957 53.5276792 -52.63797894 54.29209326 -53.17719769 55.07967138 C-54.81588213 57.47374938 -56.45369468 59.86842167 -58.09126019 62.26326513 C-58.63887006 63.06401464 -59.18647992 63.86476416 -59.75068402 64.6897788 C-60.84957404 66.29664781 -61.94837016 67.90358104 -63.04707074 69.51057959 C-65.98456532 73.80493167 -68.93127409 78.0926332 -71.89033246 82.37215185 C-73.68403879 84.97271227 -75.46408107 87.58253999 -77.24555707 90.19148779 C-78.36175822 91.81353423 -79.48664034 93.42961722 -80.61665082 95.04207373 C-82.58122857 97.84546546 -84.52459587 100.66271951 -86.46626019 103.48201513 C-87.09137494 104.36292822 -87.71648969 105.2438413 -88.3605473 106.15144873 C-90.99413071 110.01049528 -92.65933063 112.6906329 -93.42329144 117.35310888 C-93.04390599 120.38169745 -93.04390599 120.38169745 -91.34710431 122.08492041 C-87.35298663 124.16039322 -83.47862304 123.85339855 -79.04072309 123.83943701 C-78.05330625 123.84790655 -77.06588941 123.85637609 -76.04855084 123.86510229 C-72.78270856 123.8885121 -69.5173363 123.88949349 -66.25141644 123.88826513 C-63.98224439 123.89536417 -61.71307414 123.90306278 -59.44390607 123.91133642 C-54.68673963 123.92479032 -49.92973918 123.92634581 -45.17255902 123.9204917 C-39.07459415 123.91459415 -32.97742503 123.94518605 -26.87961411 123.98560858 C-22.19301805 124.0114501 -17.50661451 124.01436619 -12.81995702 124.01071692 C-10.57166218 124.01241141 -8.32335876 124.0220854 -6.07513356 124.0398612 C-2.93161018 124.06198056 0.21029063 124.05238392 3.35380816 124.03474951 C4.28332294 124.04801275 5.21283771 124.061276 6.17051959 124.07494116 C10.66520153 124.01631453 12.58495794 123.92460845 16.2058742 121.05025244 C16.87094485 120.18210913 17.5360155 119.31396582 18.22123981 118.41951513 C18.91862262 117.52619482 19.61600543 116.63287451 20.33452106 115.71248388 C21.06026324 114.6876792 21.78600543 113.66287451 22.53373981 112.60701513 C22.94688434 112.02371435 23.36002887 111.44041357 23.78569293 110.83943701 C28.77524616 103.73093435 33.5384854 96.46765245 38.33574176 89.2288413 C42.60917139 82.79328074 46.99754503 76.48460794 51.53373981 70.23201513 C55.96583556 64.02708107 60.10433183 57.61574246 64.31425738 51.25935888 C68.08757849 45.57625143 71.91009275 39.9464409 75.90873981 34.41951513 C77.05342731 32.82623388 77.05342731 32.82623388 78.22123981 31.20076513 C79.46692341 29.46848637 80.71627968 27.73883531 81.97123981 26.01326513 C84.10115928 22.91099112 85.21189481 20.91480006 85.28373981 17.10701513 C83.98219792 13.81487978 83.34340602 13.08764881 80.22123981 11.41951513 C76.97806318 10.96008112 73.75438202 10.98930219 70.4832027 10.99959326 C69.49578586 10.99112371 68.50836902 10.98265417 67.49103045 10.97392797 C64.22518817 10.95051817 60.95981591 10.94953677 57.69389606 10.95076513 C55.424724 10.9436661 53.15555375 10.93596748 50.88638568 10.92769384 C46.12921924 10.91423995 41.37221879 10.91268446 36.61503863 10.91853857 C30.51707376 10.92443612 24.41990464 10.89384421 18.32209373 10.85342169 C13.63549766 10.82758017 8.94909412 10.82466407 4.26243663 10.82831335 C2.01414179 10.82661886 -0.23416163 10.81694487 -2.48238683 10.79916906 C-5.62591021 10.77704971 -8.76781102 10.78664635 -11.91132855 10.80428076 C-13.30560071 10.78438589 -13.30560071 10.78438589 -14.72803998 10.76408911 C-22.80990795 10.86950539 -25.71761944 14.53120757 -30.09126019 21.05232763 Z " fill="#73D0FA" transform="translate(133.77876019477844,23.580484867095947)"/>
<path d="M0 0 C3.83787739 0.10065765 7.67599455 0.10946745 11.51498818 0.12840652 C18.76968233 0.17795901 26.02047622 0.30898543 33.27345949 0.46999836 C41.53660699 0.64941721 49.79995015 0.73694902 58.06456339 0.81712532 C75.05144179 0.98395822 92.0345334 1.2650083 109.01845193 1.62230301 C107.89585396 3.38849003 106.77298375 5.15450403 105.64999795 6.92044449 C105.02472868 7.903912 104.39945941 8.88737951 103.75524259 9.90064907 C100.63633179 14.78816722 97.42264364 19.61132241 94.20595193 24.43480301 C93.50019021 25.49376785 92.79442849 26.5527327 92.06728005 27.64378738 C87.73084459 34.12657954 83.28573383 40.49713066 78.70595193 46.80980301 C75.00749725 51.98763956 71.53259603 57.31866855 68.01845193 62.62230301 C63.04611828 70.12667371 57.99205439 77.52355367 52.70595193 84.80980301 C49.00749478 89.98764302 45.53267248 95.31871487 42.01845193 100.62230301 C36.18641833 109.42171448 30.23205636 118.08864664 24.01845193 126.62230301 C23.74189924 127.21192857 23.46534656 127.80155413 23.18041348 128.40904713 C22.00756031 130.6340095 20.97383795 132.02150482 19.01845193 133.62230301 C14.65135653 134.67099126 10.34585443 134.50607002 5.8746531 134.41698074 C4.52418011 134.41500513 3.17369961 134.41611671 1.82323098 134.42007828 C-1.8361085 134.42208464 -5.49383782 134.38096922 -9.15280342 134.33206058 C-12.97907307 134.28826371 -16.80538077 134.28418658 -20.6318624 134.27588272 C-27.87461678 134.25413657 -35.11663043 134.19670893 -42.3590588 134.12643629 C-50.60558772 134.04816009 -58.85215226 134.00969827 -67.09896028 133.97456825 C-84.06025115 133.90142458 -101.02082126 133.77832209 -117.98154807 133.62230301 C-116.28017705 129.1182506 -113.93480679 125.41229727 -111.16904807 121.49730301 C-110.16998732 120.0639621 -109.17130509 118.63035728 -108.17295432 117.19652176 C-107.64975608 116.44805984 -107.12655784 115.69959793 -106.5875051 114.92845535 C-103.90234522 111.07256903 -101.25587253 107.19035709 -98.60654807 103.30980301 C-97.50509816 101.69904893 -96.40353478 100.08837244 -95.30186057 98.47777176 C-94.75304221 97.67516922 -94.20422385 96.87256668 -93.63877463 96.04564285 C-90.92045406 92.07067969 -88.20094838 88.09652753 -85.48154807 84.12230301 C-84.3982089 82.53897367 -83.31487557 80.95564033 -82.23154807 79.37230301 C-75.73154807 69.87230301 -69.23154807 60.37230301 -62.73154807 50.87230301 C-62.19513694 50.08831131 -61.65872581 49.30431961 -61.10605979 48.49657059 C-60.02437741 46.91566269 -58.94267173 45.33477072 -57.8609426 43.75389481 C-55.12715706 39.75858371 -52.39379606 35.76298334 -49.66123557 31.76683426 C-48.83075706 30.55253738 -48.83075706 30.55253738 -47.9835012 29.31370926 C-46.95860355 27.81511943 -45.93384439 26.31643487 -44.90928245 24.81761551 C-43.91827862 23.36871777 -42.89929402 21.93862536 -41.85549521 20.52728653 C-40.34338616 18.18322261 -39.37364653 16.22839317 -38.33636069 13.68399429 C-30.77800302 -2.73445312 -15.71479165 -0.48209986 0 0 Z M-28.76279807 17.96995926 C-29.61357932 19.31380692 -29.61357932 19.31380692 -30.48154807 20.68480301 C-31.16861838 21.74699051 -31.8556887 22.80917801 -32.56357932 23.90355301 C-32.94465842 24.49394363 -33.32573752 25.08433426 -33.71836448 25.69261551 C-36.14296947 29.3965347 -38.66248429 33.03608762 -41.16904807 36.68480301 C-42.29802811 38.33188785 -43.42693334 39.97902397 -44.55576682 41.62620926 C-45.12343772 42.45394852 -45.69110862 43.28168777 -46.27598166 44.13451004 C-49.01410986 48.1284302 -51.74766212 52.12547837 -54.48154807 56.12230301 C-55.56485805 57.70565232 -56.64819142 59.28898563 -57.73154807 60.87230301 C-58.26779807 61.65605301 -58.80404807 62.43980301 -59.35654807 63.24730301 C-60.98154807 65.62230301 -62.60654807 67.99730301 -64.23154807 70.37230301 C-64.76828147 71.15677811 -65.30501487 71.9412532 -65.85801291 72.74950027 C-66.93639336 74.32555734 -68.01484336 75.90156682 -69.09336448 77.47752762 C-71.87806278 81.54679116 -74.66137987 85.61698937 -77.44248557 89.68870926 C-78.010801 90.51983231 -78.57911643 91.35095535 -79.16465354 92.20726395 C-80.27810521 93.83775565 -81.38917494 95.46987694 -82.49766135 97.10374832 C-85.34323568 101.28712129 -88.28806037 105.34795703 -91.35654807 109.37230301 C-93.64221396 112.61410141 -93.97455131 113.40190502 -94.10654807 117.55980301 C-93.00109864 120.56908203 -92.43183205 121.69164801 -89.98154807 123.62230301 C-87.9858553 124.08443495 -87.9858553 124.08443495 -85.75761008 124.03689957 C-84.89694434 124.05258484 -84.0362786 124.06827011 -83.14953208 124.08443069 C-81.73751769 124.08710449 -81.73751769 124.08710449 -80.29697776 124.08983231 C-78.80626006 124.10976494 -78.80626006 124.10976494 -77.28542686 124.13010025 C-73.99134508 124.1688745 -70.69770465 124.18440312 -67.40342307 124.19652176 C-65.11519367 124.2112373 -62.82696532 124.22611684 -60.53873801 124.24115372 C-55.73693113 124.2681718 -50.93527943 124.28169964 -46.13340354 124.28807449 C-39.98476946 124.29893691 -33.83777936 124.36061238 -27.68962836 124.43479061 C-22.96090268 124.48320107 -18.23257223 124.49560266 -13.50361991 124.49813652 C-11.23737905 124.50536499 -8.97113991 124.52582869 -6.70514274 124.55983925 C-3.53009081 124.60384502 -0.35891235 124.59710827 2.81630349 124.57811356 C3.74954949 124.60216263 4.6827955 124.6262117 5.64432168 124.65098953 C9.57031652 124.58195253 12.03839292 124.43145255 15.13011861 121.87888336 C16.91454255 119.86714725 18.49285507 117.83471273 20.01845193 115.62230301 C20.71301492 114.66888016 21.40757791 113.71545731 22.12318826 112.73314285 C22.69319558 111.85867508 23.26320291 110.98420731 23.85048318 110.08324051 C24.49823709 109.09839676 25.14599099 108.11355301 25.8133738 107.09886551 C26.47917459 106.07534988 27.14497537 105.05183426 27.83095193 103.99730301 C32.13021644 97.46399146 36.41844843 90.94828405 41.01845193 84.62230301 C46.27604622 77.37534871 51.18226782 69.9028523 56.12685037 62.4401741 C59.75523658 56.97698871 63.41774887 51.55619433 67.26845193 46.24730301 C71.11242758 40.90771908 74.91751304 35.54512844 78.64345193 30.12230301 C79.17744607 29.36771805 79.71144021 28.61313309 80.26161599 27.83568192 C82.45731357 24.60573706 83.90311514 22.20593497 84.66688943 18.34105301 C84.21930809 15.50105908 84.21930809 15.50105908 82.08790994 13.48472977 C77.77475926 10.86767907 74.21448645 11.06104206 69.2586863 11.10472488 C68.28087701 11.09771561 67.30306771 11.09070633 66.29562783 11.08348465 C63.06752924 11.06589774 59.84030924 11.0775303 56.61220193 11.09105301 C54.36687958 11.08835831 52.12155837 11.08447607 49.87624002 11.07945633 C45.17206605 11.07356032 40.46819602 11.08212786 35.7640574 11.10081863 C29.7345729 11.12360788 23.70580061 11.1104854 17.67634225 11.08652878 C13.04034966 11.07207381 8.4045259 11.07667549 3.76852822 11.08703995 C1.54537266 11.08970805 -0.67779823 11.08643458 -2.90093589 11.07712173 C-6.00829766 11.06696146 -9.11450653 11.08245085 -12.22178245 11.10472488 C-13.14037543 11.09662796 -14.05896842 11.08853104 -15.00539756 11.08018875 C-21.55498271 11.16715368 -24.70411871 12.62069107 -28.76279807 17.96995926 Z " fill="#73D0FA" transform="translate(386.9815480709076,23.377696990966797)"/>
<path d="M0 0 C20.13 0 40.26 0 61 0 C61 29.7 61 59.4 61 90 C40.87 90 20.74 90 0 90 C0 60.3 0 30.6 0 0 Z " fill="#4C5F88" transform="translate(294,376)"/>
<path d="M0 0 C18.48 0 36.96 0 56 0 C56 29.7 56 59.4 56 90 C37.52 90 19.04 90 0 90 C0 60.3 0 30.6 0 0 Z " fill="#4FDC5A" transform="translate(228,376)"/>
<path d="M0 0 C11.88 0 23.76 0 36 0 C36 30.03 36 60.06 36 91 C24.12 91 12.24 91 0 91 C0 80.77 0 70.54 0 60 C2.64 60 5.28 60 8 60 C8.33 57.69 8.66 55.38 9 53 C11.64 52.34 14.28 51.68 17 51 C17.04254356 49.00045254 17.04080783 46.99958364 17 45 C15.03177114 43.03177114 11.65191291 43.33751619 9 43 C8.67 40.69 8.34 38.38 8 36 C5.36 36 2.72 36 0 36 C0 24.12 0 12.24 0 0 Z " fill="#4C5F88" transform="translate(182,375)"/>
<path d="M0 0 C8.25 0 16.5 0 25 0 C25 11.55 25 23.1 25 35 C27.97 34.505 27.97 34.505 31 34 C32.875 35.125 32.875 35.125 34 37 C34.1875 39.6875 34.1875 39.6875 34 42 C35.670625 41.938125 35.670625 41.938125 37.375 41.875 C41 42 41 42 43 44 C43.3125 47 43.3125 47 43 50 C39.5647952 52.29013653 38.014669 52.17842973 34 52 C33.67 54.31 33.34 56.62 33 59 C27.25 60.125 27.25 60.125 25 59 C25 69.23 25 79.46 25 90 C16.75 90 8.5 90 0 90 C0 60.3 0 30.6 0 0 Z " fill="#3A4A68" transform="translate(157,376)"/>
<path d="M0 0 C73.92 0 147.84 0 224 0 C224 3.63 224 7.26 224 11 C150.08 11 76.16 11 0 11 C0 7.37 0 3.74 0 0 Z " fill="#A0E9E9" transform="translate(144,355)"/>
<path d="M0 0 C1.2484152 0.0023229 1.2484152 0.0023229 2.52205092 0.00469273 C3.39945797 0.00242718 4.27686502 0.00016162 5.18086016 -0.00217259 C8.14429934 -0.00854293 11.10769314 -0.00768129 14.07113844 -0.00685817 C16.18624118 -0.00984777 18.30134337 -0.01324983 20.41644484 -0.01703578 C26.17873574 -0.02590013 31.94101182 -0.02821491 37.70330888 -0.02885157 C42.50482633 -0.02979859 47.30634028 -0.03347447 52.10785639 -0.03702366 C63.43074256 -0.04517741 74.75362077 -0.04760705 86.07650954 -0.04689723 C97.77750878 -0.04629614 109.47846197 -0.0568522 121.17944956 -0.0726409 C131.20744566 -0.08569263 141.23542666 -0.09108213 151.26343119 -0.09044182 C157.26063888 -0.09018614 163.25780567 -0.09307562 169.25500494 -0.10361987 C174.89295945 -0.11326119 180.53083363 -0.11340747 186.16879088 -0.10610324 C188.24331408 -0.10505245 190.31784218 -0.10744933 192.39235693 -0.1134637 C195.2140048 -0.1211171 198.03537059 -0.11658336 200.85701185 -0.10883266 C201.68705794 -0.11397622 202.51710402 -0.11911978 203.37230301 -0.12441921 C209.02475202 -0.08986569 209.02475202 -0.08986569 211.25302321 2.1384055 C211.25302321 5.1084055 211.25302321 8.0784055 211.25302321 11.1384055 C139.31302321 11.1384055 67.37302321 11.1384055 -6.74697679 11.1384055 C-6.74697679 0.0290191 -6.74697679 0.0290191 0 0 Z " fill="#9FE9E9" transform="translate(153.74697679281235,475.8615944981575)"/>
<path d="M0 0 C33.66 0 67.32 0 102 0 C102 5.61 102 11.22 102 17 C68.34 17 34.68 17 0 17 C0 11.39 0 5.78 0 0 Z " fill="#F36570" transform="translate(205,329)"/>
<path d="M0 0 C2.4375 0.8125 2.4375 0.8125 4.4375 2.8125 C4.4375 9.72974962 0.87918851 14.99215215 -2.5625 20.8125 C-1.53125 20.461875 -0.5 20.11125 0.5625 19.75 C4.45719334 18.80773548 6.63449824 18.66275528 10.4375 19.8125 C12.54053921 22.96705881 12.75039291 24.02382456 12.10107422 27.64990234 C10.62526063 32.45959946 7.96443075 36.765734 5.5 41.125 C4.94892578 42.12595703 4.39785156 43.12691406 3.83007812 44.15820312 C-0.24954882 51.49954882 -0.24954882 51.49954882 -2.5625 53.8125 C-5.0625 54.0625 -5.0625 54.0625 -7.5625 53.8125 C-9.5625 51.8125 -9.5625 51.8125 -9.90625 49.1171875 C-9.48236244 45.04208659 -8.08908638 42.48402617 -6.0625 38.9375 C-5.72863281 38.34453125 -5.39476562 37.7515625 -5.05078125 37.140625 C-4.23270018 35.69145283 -3.39915257 34.25103019 -2.5625 32.8125 C-3.63757813 33.14765625 -4.71265625 33.4828125 -5.8203125 33.828125 C-9.88832448 34.89820748 -12.49710377 34.7881951 -16.5625 33.8125 C-17.96760287 31.00229426 -17.77587907 28.9355075 -17.5625 25.8125 C-16.50854492 23.06762695 -16.50854492 23.06762695 -15.04296875 20.30078125 C-14.51509766 19.29595703 -13.98722656 18.29113281 -13.44335938 17.25585938 C-12.60514648 15.70608398 -12.60514648 15.70608398 -11.75 14.125 C-11.20279297 13.08021484 -10.65558594 12.03542969 -10.09179688 10.95898438 C-4.11028808 -0.30075279 -4.11028808 -0.30075279 0 0 Z " fill="#294567" transform="translate(258.5625,388.1875)"/>
<path d="M0 0 C73.92 0 147.84 0 224 0 C224 3.63 224 7.26 224 11 C150.08 11 76.16 11 0 11 C0 7.37 0 3.74 0 0 Z M25 1 C25 3.97 25 6.94 25 10 C90.34 10 155.68 10 223 10 C223 7.03 223 4.06 223 1 C157.66 1 92.32 1 25 1 Z " fill="#6294A6" transform="translate(144,355)"/>
<path d="M0 0 C0.83364104 0.00291284 1.66728208 0.00582568 2.52618498 0.00882679 C3.40500316 0.00797237 4.28382134 0.00711794 5.18927038 0.00623763 C8.15738465 0.00458012 11.12544339 0.01010859 14.09355253 0.01555592 C16.21189968 0.01583776 18.33024694 0.01568012 20.44859403 0.01511341 C26.21902043 0.01482531 31.98942623 0.02072406 37.75984782 0.02768737 C43.7830232 0.03391883 49.80619901 0.03452454 55.82937711 0.03571278 C67.24391465 0.03882671 78.65844266 0.04704093 90.07297599 0.05706227 C103.06428642 0.06822149 116.05559728 0.07373337 129.0469113 0.0787577 C155.77917916 0.08922349 182.51143856 0.10682413 209.24369901 0.12908131 C209.24369901 0.45908131 209.24369901 0.78908131 209.24369901 1.12908131 C146.21369901 1.12908131 83.18369901 1.12908131 18.24369901 1.12908131 C18.24369901 4.09908131 18.24369901 7.06908131 18.24369901 10.12908131 C81.93369901 10.12908131 145.62369901 10.12908131 211.24369901 10.12908131 C211.24369901 10.45908131 211.24369901 10.78908131 211.24369901 11.12908131 C139.30369901 11.12908131 67.36369901 11.12908131 -6.75630099 11.12908131 C-6.75630099 0.01791416 -6.75630099 0.01791416 0 0 Z " fill="#79B4BC" transform="translate(153.75630098581314,475.8709186911583)"/>
<path d="M0 0 C0.91644287 0.00523682 1.83288574 0.01047363 2.77709961 0.01586914 C4.26113281 0.02070312 4.26113281 0.02070312 5.77514648 0.02563477 C6.81606445 0.03401367 7.85698242 0.04239258 8.92944336 0.05102539 C10.49662109 0.05779297 10.49662109 0.05779297 12.09545898 0.06469727 C14.68600996 0.07652627 17.27644895 0.0930085 19.86694336 0.11352539 C18.25520442 2.69956311 16.62315186 5.26226435 14.93725586 7.80102539 C13.46787981 10.15202707 12.30771414 12.25110094 11.17163086 14.73852539 C9.31315925 18.4544613 7.49886853 21.91206213 3.86694336 24.11352539 C-3.32325836 25.71043181 -10.87307497 24.91158504 -18.13305664 24.11352539 C-15.18193717 18.77206924 -11.92775174 13.74735172 -8.44555664 8.73852539 C-7.94733398 8.01536133 -7.44911133 7.29219727 -6.93579102 6.54711914 C-2.50135163 0.13312676 -2.50135163 0.13312676 0 0 Z " fill="#7AE2E6" transform="translate(324.133056640625,112.886474609375)"/>
<path d="M0 0 C-2.95111947 5.34145615 -6.2053049 10.36617367 -9.6875 15.375 C-10.18572266 16.09816406 -10.68394531 16.82132813 -11.19726562 17.56640625 C-14.85058891 22.85058891 -14.85058891 22.85058891 -16 24 C-17.63472882 24.08700342 -19.27314055 24.10701063 -20.91015625 24.09765625 C-21.89951172 24.09443359 -22.88886719 24.09121094 -23.90820312 24.08789062 C-24.94912109 24.07951172 -25.99003906 24.07113281 -27.0625 24.0625 C-28.10728516 24.05798828 -29.15207031 24.05347656 -30.22851562 24.04882812 C-32.8190666 24.03699913 -35.40950559 24.02051689 -38 24 C-36.38826106 21.41396228 -34.75620851 18.85126104 -33.0703125 16.3125 C-31.60093645 13.96149832 -30.44077078 11.86242445 -29.3046875 9.375 C-22.96419336 -3.3025517 -12.66141159 -1.39181642 0 0 Z " fill="#AAECE2" transform="translate(435,79)"/>
<path d="M0 0 C-2.77703484 5.16459876 -5.60888359 10.10366175 -9.125 14.8125 C-9.78757812 15.70582031 -10.45015625 16.59914063 -11.1328125 17.51953125 C-11.74898438 18.33808594 -12.36515625 19.15664062 -13 20 C-13.42821045 20.70310303 -13.8564209 21.40620605 -14.29760742 22.13061523 C-16 24 -16 24 -18.36010742 24.45410156 C-19.26607666 24.4331543 -20.1720459 24.41220703 -21.10546875 24.390625 C-22.57983398 24.37128906 -22.57983398 24.37128906 -24.08398438 24.3515625 C-25.10814453 24.31804687 -26.13230469 24.28453125 -27.1875 24.25 C-28.74114258 24.22292969 -28.74114258 24.22292969 -30.32617188 24.1953125 C-32.88504284 24.14814437 -35.44205842 24.08234057 -38 24 C-36.38826106 21.41396228 -34.75620851 18.85126104 -33.0703125 16.3125 C-31.60093645 13.96149832 -30.44077078 11.86242445 -29.3046875 9.375 C-22.96419336 -3.3025517 -12.66141159 -1.39181642 0 0 Z " fill="#AAECE2" transform="translate(367,79)"/>
<path d="M0 0 C7.26 0 14.52 0 22 0 C20.30933374 4.22666565 18.86724747 6.77195411 16.1875 10.3125 C13.31420894 14.03779607 13.31420894 14.03779607 11.02124023 18.12060547 C9.87107112 20.47627292 8.89138799 22.17530528 7 24 C3.19062353 24.98837263 -0.40995615 24.75967022 -4.3125 24.5 C-5.33923828 24.46390625 -6.36597656 24.4278125 -7.42382812 24.390625 C-9.95304545 24.29651459 -12.4745974 24.16524592 -15 24 C-13.34194215 18.77555357 -10.11696767 14.69681858 -6.9375 10.3125 C-5.84133359 8.78856133 -4.74622902 7.26385815 -3.65234375 5.73828125 C-3.16757568 5.06837158 -2.68280762 4.39846191 -2.18334961 3.70825195 C-0.94267284 2.00342973 -0.94267284 2.00342973 0 0 Z " fill="#7AE1E6" transform="translate(368,45)"/>
<path d="M0 0 C0.91644287 0.00523682 1.83288574 0.01047363 2.77709961 0.01586914 C4.26113281 0.02070312 4.26113281 0.02070312 5.77514648 0.02563477 C6.81606445 0.03401367 7.85698242 0.04239258 8.92944336 0.05102539 C10.49662109 0.05779297 10.49662109 0.05779297 12.09545898 0.06469727 C14.68600996 0.07652627 17.27644895 0.0930085 19.86694336 0.11352539 C18.25520442 2.69956311 16.62315186 5.26226435 14.93725586 7.80102539 C13.46787981 10.15202707 12.30771414 12.25110094 11.17163086 14.73852539 C9.31315925 18.4544613 7.49886853 21.91206213 3.86694336 24.11352539 C-3.32325836 25.71043181 -10.87307497 24.91158504 -18.13305664 24.11352539 C-15.18193717 18.77206924 -11.92775174 13.74735172 -8.44555664 8.73852539 C-7.94733398 8.01536133 -7.44911133 7.29219727 -6.93579102 6.54711914 C-2.50135163 0.13312676 -2.50135163 0.13312676 0 0 Z " fill="#7AE1E6" transform="translate(152.133056640625,44.886474609375)"/>
<path d="M0 0 C0.91644287 0.00523682 1.83288574 0.01047363 2.77709961 0.01586914 C4.26113281 0.02070312 4.26113281 0.02070312 5.77514648 0.02563477 C6.81606445 0.03401367 7.85698242 0.04239258 8.92944336 0.05102539 C10.49662109 0.05779297 10.49662109 0.05779297 12.09545898 0.06469727 C14.68600996 0.07652627 17.27644895 0.0930085 19.86694336 0.11352539 C18.25520442 2.69956311 16.62315186 5.26226435 14.93725586 7.80102539 C13.46787981 10.15202707 12.30771414 12.25110094 11.17163086 14.73852539 C9.31315925 18.4544613 7.49886853 21.91206213 3.86694336 24.11352539 C-3.32325836 25.71043181 -10.87307497 24.91158504 -18.13305664 24.11352539 C-15.18193717 18.77206924 -11.92775174 13.74735172 -8.44555664 8.73852539 C-7.94733398 8.01536133 -7.44911133 7.29219727 -6.93579102 6.54711914 C-2.50135163 0.13312676 -2.50135163 0.13312676 0 0 Z " fill="#7AE2E6" transform="translate(392.133056640625,112.886474609375)"/>
<path d="M0 0 C0.91644287 0.00523682 1.83288574 0.01047363 2.77709961 0.01586914 C4.26113281 0.02070312 4.26113281 0.02070312 5.77514648 0.02563477 C6.81606445 0.03401367 7.85698242 0.04239258 8.92944336 0.05102539 C10.49662109 0.05779297 10.49662109 0.05779297 12.09545898 0.06469727 C14.68600996 0.07652627 17.27644895 0.0930085 19.86694336 0.11352539 C18.25520442 2.69956311 16.62315186 5.26226435 14.93725586 7.80102539 C13.46787981 10.15202707 12.30771414 12.25110094 11.17163086 14.73852539 C9.31315925 18.4544613 7.49886853 21.91206213 3.86694336 24.11352539 C-3.32325836 25.71043181 -10.87307497 24.91158504 -18.13305664 24.11352539 C-15.18193717 18.77206924 -11.92775174 13.74735172 -8.44555664 8.73852539 C-7.94733398 8.01536133 -7.44911133 7.29219727 -6.93579102 6.54711914 C-2.50135163 0.13312676 -2.50135163 0.13312676 0 0 Z " fill="#AAEDE2" transform="translate(358.133056640625,112.886474609375)"/>
<path d="M0 0 C-2.95111947 5.34145615 -6.2053049 10.36617367 -9.6875 15.375 C-10.18572266 16.09816406 -10.68394531 16.82132813 -11.19726562 17.56640625 C-14.85058891 22.85058891 -14.85058891 22.85058891 -16 24 C-17.63472882 24.08700342 -19.27314055 24.10701063 -20.91015625 24.09765625 C-21.89951172 24.09443359 -22.88886719 24.09121094 -23.90820312 24.08789062 C-24.94912109 24.07951172 -25.99003906 24.07113281 -27.0625 24.0625 C-28.10728516 24.05798828 -29.15207031 24.05347656 -30.22851562 24.04882812 C-32.8190666 24.03699913 -35.40950559 24.02051689 -38 24 C-36.38826106 21.41396228 -34.75620851 18.85126104 -33.0703125 16.3125 C-31.60093645 13.96149832 -30.44077078 11.86242445 -29.3046875 9.375 C-22.96419336 -3.3025517 -12.66141159 -1.39181642 0 0 Z " fill="#7AE1E6" transform="translate(401,79)"/>
<path d="M0 0 C1.45377154 0.20955643 2.90656646 0.42703778 4.35546875 0.66796875 C2.96571694 3.57776159 1.39165132 6.24230602 -0.39453125 8.92578125 C-0.92046875 9.71597656 -1.44640625 10.50617187 -1.98828125 11.3203125 C-2.53484375 12.13628906 -3.08140625 12.95226563 -3.64453125 13.79296875 C-4.464375 15.02853516 -4.464375 15.02853516 -5.30078125 16.2890625 C-5.82671875 17.07667969 -6.35265625 17.86429688 -6.89453125 18.67578125 C-7.3740625 19.3939502 -7.85359375 20.11211914 -8.34765625 20.85205078 C-9.64453125 22.66796875 -9.64453125 22.66796875 -11.64453125 24.66796875 C-13.79931641 24.89501953 -13.79931641 24.89501953 -16.43359375 24.86328125 C-17.37460937 24.85683594 -18.315625 24.85039063 -19.28515625 24.84375 C-20.27 24.82699219 -21.25484375 24.81023437 -22.26953125 24.79296875 C-23.26210938 24.78394531 -24.2546875 24.77492188 -25.27734375 24.765625 C-27.73331259 24.74200991 -30.18880293 24.70907674 -32.64453125 24.66796875 C-25.95073 7.43657083 -19.45826617 -2.06452407 0 0 Z " fill="#7AE1E6" transform="translate(453.64453125,44.33203125)"/>
<path d="M0 0 C0.91644287 0.00523682 1.83288574 0.01047363 2.77709961 0.01586914 C4.26113281 0.02070312 4.26113281 0.02070312 5.77514648 0.02563477 C6.81606445 0.03401367 7.85698242 0.04239258 8.92944336 0.05102539 C10.49662109 0.05779297 10.49662109 0.05779297 12.09545898 0.06469727 C14.68600996 0.07652627 17.27644895 0.0930085 19.86694336 0.11352539 C18.25520442 2.69956311 16.62315186 5.26226435 14.93725586 7.80102539 C13.46787981 10.15202707 12.30771414 12.25110094 11.17163086 14.73852539 C9.31315925 18.4544613 7.49886853 21.91206213 3.86694336 24.11352539 C-3.32325836 25.71043181 -10.87307497 24.91158504 -18.13305664 24.11352539 C-15.18193717 18.77206924 -11.92775174 13.74735172 -8.44555664 8.73852539 C-7.94733398 8.01536133 -7.44911133 7.29219727 -6.93579102 6.54711914 C-2.50135163 0.13312676 -2.50135163 0.13312676 0 0 Z " fill="#AAECE2" transform="translate(186.133056640625,44.886474609375)"/>
<path d="M0 0 C0.91644287 0.00523682 1.83288574 0.01047363 2.77709961 0.01586914 C4.26113281 0.02070312 4.26113281 0.02070312 5.77514648 0.02563477 C6.81606445 0.03401367 7.85698242 0.04239258 8.92944336 0.05102539 C10.49662109 0.05779297 10.49662109 0.05779297 12.09545898 0.06469727 C14.68600996 0.07652627 17.27644895 0.0930085 19.86694336 0.11352539 C18.25520442 2.69956311 16.62315186 5.26226435 14.93725586 7.80102539 C13.46787981 10.15202707 12.30771414 12.25110094 11.17163086 14.73852539 C9.31315925 18.4544613 7.49886853 21.91206213 3.86694336 24.11352539 C-3.32325836 25.71043181 -10.87307497 24.91158504 -18.13305664 24.11352539 C-3.04553791 0.1620894 -3.04553791 0.1620894 0 0 Z " fill="#AAECE2" transform="translate(118.133056640625,44.886474609375)"/>
<path d="M0 0 C1.45377154 0.20955643 2.90656646 0.42703778 4.35546875 0.66796875 C3.08962657 3.29058385 1.72604025 5.7401746 0.11328125 8.1640625 C-0.31339844 8.80537109 -0.74007812 9.44667969 -1.1796875 10.10742188 C-1.62183594 10.76677734 -2.06398438 11.42613281 -2.51953125 12.10546875 C-2.95394531 12.76095703 -3.38835937 13.41644531 -3.8359375 14.09179688 C-4.69356976 15.37566979 -5.56510807 16.6503766 -6.45117188 17.91479492 C-7.78942918 19.8253028 -7.78942918 19.8253028 -9.29296875 22.62109375 C-13.16584363 25.99216756 -17.45814161 25.19409413 -22.39453125 24.98046875 C-23.37808594 24.95791016 -24.36164063 24.93535156 -25.375 24.91210938 C-27.79972595 24.8532568 -30.22135108 24.77110306 -32.64453125 24.66796875 C-25.95073 7.43657083 -19.45826617 -2.06452407 0 0 Z " fill="#7AE2E6" transform="translate(120.64453125,112.33203125)"/>
<path d="M0 0 C7.26 0 14.52 0 22 0 C20.52150583 2.95698834 19.0663175 5.529064 17.25 8.2578125 C16.7240625 9.04800781 16.198125 9.83820313 15.65625 10.65234375 C15.1096875 11.46832031 14.563125 12.28429687 14 13.125 C13.18015625 14.36056641 13.18015625 14.36056641 12.34375 15.62109375 C11.8178125 16.40871094 11.291875 17.19632813 10.75 18.0078125 C10.27046875 18.72598145 9.7909375 19.44415039 9.296875 20.18408203 C8 22 8 22 6 24 C3.84521484 24.22705078 3.84521484 24.22705078 1.2109375 24.1953125 C0.26992187 24.18886719 -0.67109375 24.18242187 -1.640625 24.17578125 C-2.62546875 24.15902344 -3.6103125 24.14226562 -4.625 24.125 C-5.61757813 24.11597656 -6.61015625 24.10695312 -7.6328125 24.09765625 C-10.08878134 24.07404116 -12.54427168 24.04110799 -15 24 C-13.34194215 18.77555357 -10.11696767 14.69681858 -6.9375 10.3125 C-5.84133359 8.78856133 -4.74622902 7.26385815 -3.65234375 5.73828125 C-3.16757568 5.06837158 -2.68280762 4.39846191 -2.18334961 3.70825195 C-0.94267284 2.00342973 -0.94267284 2.00342973 0 0 Z " fill="#AAEDE3" transform="translate(69,113)"/>
<path d="M0 0 C0.87454834 0.00523682 1.74909668 0.01047363 2.65014648 0.01586914 C3.59438477 0.0190918 4.53862305 0.02231445 5.51147461 0.02563477 C6.50469727 0.03401367 7.49791992 0.04239258 8.52124023 0.05102539 C9.51833008 0.05553711 10.51541992 0.06004883 11.54272461 0.06469727 C14.01478872 0.07652532 16.48673541 0.0930069 18.95874023 0.11352539 C15.62006094 8.70806074 11.38062865 18.31998122 3.95874023 24.11352539 C-3.15280404 26.37064041 -10.79571463 25.31835214 -18.04125977 24.11352539 C-14.95955797 18.33409324 -11.6608397 12.8965447 -7.79125977 7.61352539 C-7.34524414 6.99477539 -6.89922852 6.37602539 -6.43969727 5.73852539 C-2.38271652 0.13251563 -2.38271652 0.13251563 0 0 Z " fill="#7AE2E6" transform="translate(163.041259765625,78.886474609375)"/>
<path d="M0 0 C7.26 0 14.52 0 22 0 C20.52150583 2.95698834 19.0663175 5.529064 17.25 8.2578125 C16.7240625 9.04800781 16.198125 9.83820312 15.65625 10.65234375 C15.1096875 11.46832031 14.563125 12.28429688 14 13.125 C13.18015625 14.36056641 13.18015625 14.36056641 12.34375 15.62109375 C11.8178125 16.40871094 11.291875 17.19632813 10.75 18.0078125 C10.27046875 18.72598145 9.7909375 19.44415039 9.296875 20.18408203 C8 22 8 22 6 24 C3.84521484 24.22705078 3.84521484 24.22705078 1.2109375 24.1953125 C0.26992188 24.18886719 -0.67109375 24.18242188 -1.640625 24.17578125 C-2.62546875 24.15902344 -3.6103125 24.14226562 -4.625 24.125 C-5.61757813 24.11597656 -6.61015625 24.10695313 -7.6328125 24.09765625 C-10.08878134 24.07404116 -12.54427168 24.04110799 -15 24 C-13.34194215 18.77555357 -10.11696767 14.69681858 -6.9375 10.3125 C-5.84133359 8.78856133 -4.74622902 7.26385815 -3.65234375 5.73828125 C-3.16757568 5.06837158 -2.68280762 4.39846191 -2.18334961 3.70825195 C-0.94267284 2.00342973 -0.94267284 2.00342973 0 0 Z " fill="#AAECE2" transform="translate(402,45)"/>
<path d="M0 0 C1.45377154 0.20955643 2.90656646 0.42703778 4.35546875 0.66796875 C1.27376695 6.4474009 -2.02495132 11.88494944 -5.89453125 17.16796875 C-6.34054688 17.78671875 -6.7865625 18.40546875 -7.24609375 19.04296875 C-10.45851935 23.48195685 -10.45851935 23.48195685 -11.64453125 24.66796875 C-13.2062587 24.75482478 -14.77182469 24.77499094 -16.3359375 24.765625 C-17.28017578 24.76240234 -18.22441406 24.75917969 -19.19726562 24.75585938 C-20.68709961 24.74329102 -20.68709961 24.74329102 -22.20703125 24.73046875 C-23.20412109 24.72595703 -24.20121094 24.72144531 -25.22851562 24.71679688 C-27.70057974 24.70496882 -30.17252643 24.68848724 -32.64453125 24.66796875 C-25.95073 7.43657083 -19.45826617 -2.06452407 0 0 Z " fill="#ABEDE3" transform="translate(154.64453125,112.33203125)"/>
<path d="M0 0 C0.87454834 0.00523682 1.74909668 0.01047363 2.65014648 0.01586914 C3.59438477 0.0190918 4.53862305 0.02231445 5.51147461 0.02563477 C6.50469727 0.03401367 7.49791992 0.04239258 8.52124023 0.05102539 C9.51833008 0.05553711 10.51541992 0.06004883 11.54272461 0.06469727 C14.01478872 0.07652532 16.48673541 0.0930069 18.95874023 0.11352539 C15.62006094 8.70806074 11.38062865 18.31998122 3.95874023 24.11352539 C-3.15280404 26.37064041 -10.79571463 25.31835214 -18.04125977 24.11352539 C-14.95955797 18.33409324 -11.6608397 12.8965447 -7.79125977 7.61352539 C-7.34524414 6.99477539 -6.89922852 6.37602539 -6.43969727 5.73852539 C-2.38271652 0.13251563 -2.38271652 0.13251563 0 0 Z " fill="#AAECE2" transform="translate(129.041259765625,78.886474609375)"/>
<path d="M0 0 C-3.33867929 8.59453535 -7.57811159 18.20645583 -15 24 C-22.11154427 26.25711502 -29.75445487 25.20482675 -37 24 C-35.79855266 21.83570173 -34.59567427 19.67232608 -33.38671875 17.51220703 C-32.53529013 15.96974215 -31.70048851 14.41777825 -30.89453125 12.85107422 C-23.50662885 -1.28961815 -15.19305703 -2.06283674 0 0 Z " fill="#7AE2E6" transform="translate(114,79)"/>
<path d="M0 0 C0.33 2.31 0.66 4.62 1 7 C2.11375 6.95875 3.2275 6.9175 4.375 6.875 C8 7 8 7 10 9 C10.3125 12 10.3125 12 10 15 C6.5647952 17.29013653 5.014669 17.17842973 1 17 C0.67 19.31 0.34 21.62 0 24 C-5.44736842 25.33157895 -5.44736842 25.33157895 -7.875 23.875 C-9.32233508 21.46277487 -9.22417836 19.7648665 -9 17 C-10.3921875 17.061875 -10.3921875 17.061875 -11.8125 17.125 C-15 17 -15 17 -18 15 C-18.3125 12 -18.3125 12 -18 9 C-16 7 -16 7 -12.375 6.875 C-10.704375 6.936875 -10.704375 6.936875 -9 7 C-9.061875 6.236875 -9.12375 5.47375 -9.1875 4.6875 C-9 2 -9 2 -7.875 0.125 C-5.07848948 -1.55290631 -3.06309468 -0.74875648 0 0 Z " fill="#284268" transform="translate(190,411)"/>
<path d="M0 0 C1.46566406 -0.00386719 1.46566406 -0.00386719 2.9609375 -0.0078125 C3.98445313 -0.00007813 5.00796875 0.00765625 6.0625 0.015625 C7.08601563 0.00789063 8.10953125 0.00015625 9.1640625 -0.0078125 C10.14117187 -0.00523437 11.11828125 -0.00265625 12.125 0 C13.02347656 0.00225586 13.92195313 0.00451172 14.84765625 0.00683594 C17.0625 0.265625 17.0625 0.265625 19.0625 2.265625 C19.375 5.265625 19.375 5.265625 19.0625 8.265625 C14.79050275 11.11362317 11.08451715 10.59580816 6.0625 10.578125 C4.68964844 10.60229492 4.68964844 10.60229492 3.2890625 10.62695312 C2.40992188 10.62759766 1.53078125 10.62824219 0.625 10.62890625 C-0.57962891 10.63337769 -0.57962891 10.63337769 -1.80859375 10.63793945 C-4.45350954 10.17538251 -5.33703446 9.38871091 -6.9375 7.265625 C-7.25 4.703125 -7.25 4.703125 -6.9375 2.265625 C-4.40695663 -0.26491837 -3.50201118 0.00879271 0 0 Z " fill="#284268" transform="translate(320.9375,416.734375)"/>
<path d="M0 0 C8.25 0 16.5 0 25 0 C25 2.97 25 5.94 25 9 C16.75 9 8.5 9 0 9 C0 6.03 0 3.06 0 0 Z " fill="#7FC0BE" transform="translate(144,356)"/>
<path d="M0 0 C5.28 0 10.56 0 16 0 C16 2.31 16 4.62 16 7 C10.72 7 5.44 7 0 7 C0 4.69 0 2.38 0 0 Z " fill="#EDE37B" transform="translate(339,339)"/>
<path d="M0 0 C5.28 0 10.56 0 16 0 C16 2.31 16 4.62 16 7 C10.72 7 5.44 7 0 7 C0 4.69 0 2.38 0 0 Z " fill="#EAE07B" transform="translate(157,339)"/>
</svg>
