<?xml version="1.0" encoding="UTF-8"?>
<svg version="1.1" xmlns="http://www.w3.org/2000/svg" width="512" height="512">
<path d="M0 0 C0.91360232 -0.00367669 1.82720463 -0.00735338 2.76849186 -0.01114148 C5.84852531 -0.02220836 8.92852506 -0.02602721 12.00857544 -0.02983093 C14.20924996 -0.03609321 16.40992342 -0.0427398 18.6105957 -0.04974365 C24.60228661 -0.06717295 30.59396954 -0.07771023 36.58567953 -0.08594918 C40.32554483 -0.09109421 44.06540762 -0.0971701 47.80527115 -0.10346031 C58.82535208 -0.12142231 69.8454284 -0.13580191 80.86552138 -0.14363671 C82.88260712 -0.14507524 84.89969285 -0.14652661 86.91677856 -0.147995 C87.58449603 -0.14847874 88.25221349 -0.14896248 88.94016482 -0.14946087 C99.76235357 -0.15776531 110.58443193 -0.18310942 121.40657245 -0.21557567 C132.51241545 -0.24862201 143.61821245 -0.26632258 154.72410595 -0.26985329 C160.96175255 -0.27220927 167.19922464 -0.28124093 173.4368248 -0.30631447 C179.30221335 -0.32951077 185.16731147 -0.33386248 191.03273392 -0.32355309 C193.18866692 -0.32305559 195.34461382 -0.32943858 197.50050354 -0.34310913 C200.43770018 -0.36069592 203.37383945 -0.35378719 206.31103516 -0.34057617 C207.16959197 -0.35154542 208.02814878 -0.36251466 208.91272247 -0.37381631 C214.67026681 -0.31104102 214.67026681 -0.31104102 217.77969742 2.01613712 C219.57624453 4.56371039 220.28992491 6.69552431 221.03982544 9.72236633 C221.32968323 10.86273346 221.61954102 12.00310059 221.91818237 13.17802429 C222.22145447 14.43112396 222.52472656 15.68422363 222.83718872 16.97529602 C223.17386588 18.32152193 223.51181329 19.6674307 223.85092163 21.01304626 C224.77565704 24.69746887 225.68290895 28.38599971 226.58698273 32.07553864 C227.54634228 35.9794966 228.52026161 39.87981767 229.49295044 43.7804718 C230.74188977 48.79320467 231.98875176 53.80643021 233.22869873 58.82139587 C236.30357822 71.25370948 239.43389518 83.67126832 242.58857346 96.08355713 C244.11750375 102.10415314 245.63980313 108.12642888 247.16195107 114.14874268 C248.40566386 119.06818872 249.65248667 123.98680016 250.90646362 128.90364075 C252.09495973 133.56550703 253.27293683 138.22991353 254.44332123 142.89635849 C254.87716378 144.61859161 255.31469025 146.33990164 255.7562027 148.06018448 C256.36362247 150.42908491 256.95762782 152.8009813 257.5486145 155.17402649 C257.72609159 155.85314213 257.90356869 156.53225777 258.08642387 157.23195267 C259.25635306 162.01334523 260.33985806 167.27913335 259.28250122 172.14717102 C257.2182747 174.92699221 256.0376929 176.00840616 252.60387802 176.63936234 C251.57515705 176.63567516 250.54643608 176.63198799 249.48654175 176.62818909 C247.71132141 176.63643707 247.71132141 176.63643707 245.90023804 176.64485168 C244.60551575 176.63047058 243.31079346 176.61608948 241.97683716 176.60127258 C240.59695468 176.60014405 239.2170698 176.60077808 237.83718872 176.6030426 C234.09353281 176.60419047 230.35038933 176.58066992 226.60685253 176.55274677 C222.69376917 176.52774501 218.78067411 176.5253921 214.86752319 176.52064514 C207.45852272 176.50821172 200.04975828 176.47538529 192.64086175 176.43524718 C184.2056545 176.39054076 175.77043598 176.3685453 167.33513975 176.34846544 C149.98409923 176.30665282 132.63338228 176.23329605 115.28250122 176.14717102 C115.28250122 186.70717102 115.28250122 197.26717102 115.28250122 208.14717102 C124.31765399 207.98916808 124.31765399 207.98916808 133.35183716 207.78681946 C135.04228149 207.77183411 135.04228149 207.77183411 136.76687622 207.75654602 C137.91897583 207.73559875 139.07107544 207.71465149 140.25808716 207.69306946 C143.96260305 208.24928511 145.03605804 209.20452411 147.28250122 212.14717102 C148.28738403 214.11421204 148.28738403 214.11421204 148.98562622 216.15107727 C149.24343872 216.89164368 149.50125122 217.63221008 149.76687622 218.3952179 C150.01953247 219.15898743 150.27218872 219.92275696 150.53250122 220.70967102 C150.93468872 221.8611261 150.93468872 221.8611261 151.34500122 223.0358429 C152.44584769 226.25694212 153.28250122 228.71226574 153.28250122 232.14717102 C154.37973511 232.13828857 155.47696899 232.12940613 156.60745239 232.12025452 C166.96506803 232.03904772 177.32261879 231.97914754 187.68048096 231.93992233 C193.00515039 231.91907804 198.32956211 231.89081792 203.65408325 231.84541321 C208.79584271 231.80184308 213.9373548 231.77801017 219.07928467 231.76766205 C221.03763725 231.76029073 222.99597681 231.74589625 224.95422363 231.72425079 C227.70456842 231.69506834 230.45390067 231.6912212 233.20437622 231.69306946 C234.00782974 231.67868835 234.81128326 231.66430725 235.63908386 231.64949036 C242.31887297 231.69782823 247.48303676 233.69398178 252.52468872 238.11201477 C253.06351685 238.76299133 253.60234497 239.4139679 254.15750122 240.08467102 C254.7117981 240.73306946 255.26609497 241.3814679 255.83718872 242.04951477 C259.27776707 247.04300281 259.60151678 251.73395514 259.61843872 257.66670227 C259.62509552 258.48410385 259.63175232 259.30150543 259.63861084 260.14367676 C259.64871001 261.86918396 259.65342871 263.59473 259.65310669 265.32026672 C259.65747008 267.94096842 259.69378952 270.55997111 259.73171997 273.18037415 C259.73759095 274.86331115 259.74155846 276.54625608 259.74343872 278.22920227 C259.75780975 279.00343033 259.77218079 279.77765839 259.7869873 280.5753479 C259.73206784 287.21615372 257.70769667 292.37965176 253.31765747 297.38935852 C252.66668091 297.92818665 252.01570435 298.46701477 251.34500122 299.02217102 C250.69660278 299.5764679 250.04820435 300.13076477 249.38015747 300.70185852 C245.56590119 303.32993082 242.09003512 304.39616546 237.47850513 304.40723324 C236.06204755 304.41783163 236.06204755 304.41783163 234.61697465 304.42864412 C233.58780402 304.42622904 232.55863338 304.42381395 231.49827576 304.42132568 C230.39850015 304.42656236 229.29872455 304.43179904 228.16562241 304.43719441 C224.47318149 304.45221968 220.78087884 304.45290013 217.08840942 304.4535675 C214.44382648 304.46118735 211.79925521 304.46956566 209.15467834 304.47879028 C201.96445025 304.50162689 194.77425169 304.50955959 187.58399224 304.51461673 C183.09210983 304.5178756 178.60023596 304.52439928 174.10835838 304.53161812 C161.66526853 304.55118306 149.22218662 304.56758764 136.77908039 304.57049465 C135.98301658 304.57068222 135.18695277 304.57086979 134.36676581 304.57106305 C132.75302804 304.57142929 131.13929026 304.57179299 129.52555249 304.57215416 C128.32400066 304.57242837 128.32400066 304.57242837 127.09817505 304.57270813 C126.29615967 304.57288868 125.4941443 304.57306923 124.66782542 304.57325525 C111.6771063 304.57679564 98.68655308 304.60381001 85.69589148 304.64120602 C72.35022957 304.67931565 59.00464991 304.69865233 45.65893239 304.69895416 C38.16916351 304.69953817 30.6795925 304.70799338 23.18987465 304.73695183 C16.81120639 304.76150145 10.43280814 304.76872471 4.05410538 304.7537043 C0.80205214 304.74654949 -2.44935917 304.75006802 -5.70137405 304.7701149 C-9.23416407 304.79056189 -12.76558213 304.78002942 -16.2983551 304.76190186 C-17.31637213 304.77510182 -18.33438916 304.78830179 -19.38325518 304.80190176 C-26.39615139 304.71994085 -31.89777382 303.16457402 -37.71749878 299.14717102 C-43.38767168 293.16193409 -45.54623686 286.33563171 -45.71749878 278.14717102 C-44.86547166 270.76648613 -41.4894945 264.82606313 -35.71749878 260.14717102 C-28.30073325 255.16708865 -20.66017305 255.54609112 -12.02999878 255.52217102 C-9.92376603 255.50575568 -7.81796828 255.48361267 -5.71192932 255.45054626 C-3.80938934 255.42215468 -1.90660489 255.411828 -0.00387573 255.40254211 C3.22520539 255.15162325 5.42469481 254.64363887 8.28250122 253.14717102 C10.09817603 250.22630284 10.42653433 248.83532919 9.72000122 245.45967102 C7.8512972 242.45349498 6.65673326 242.16410075 3.28250122 241.14717102 C0.61171007 240.94275517 -1.9583022 240.83622512 -4.62887573 240.82832336 C-5.40989151 240.81827774 -6.19090729 240.80823212 -6.99559021 240.79788208 C-9.56564631 240.76710136 -12.13559846 240.75002928 -14.70578003 240.73310852 C-16.49226268 240.71439275 -18.27873654 240.69481903 -20.06520081 240.67442322 C-24.7586752 240.62313922 -29.45217824 240.58349352 -34.14578247 240.54627991 C-38.93863999 240.50621687 -43.73137871 240.45513501 -48.5241394 240.40498352 C-57.92184237 240.30826842 -67.31961247 240.22384948 -76.71749878 240.14717102 C-76.70861633 240.71822571 -76.69973389 241.2892804 -76.69058228 241.87763977 C-76.60174838 247.84775228 -76.54161572 253.81767552 -76.49777222 259.7882843 C-76.47771832 262.01329684 -76.45046813 264.23825709 -76.41574097 266.46308899 C-76.36694944 269.67041467 -76.34446716 272.87704053 -76.32687378 276.08467102 C-76.30622864 277.07144836 -76.2855835 278.05822571 -76.26431274 279.0749054 C-76.26194268 286.45181508 -77.77576317 291.79020037 -82.68234253 297.38935852 C-83.33331909 297.92818665 -83.98429565 298.46701477 -84.65499878 299.02217102 C-85.30339722 299.5764679 -85.95179565 300.13076477 -86.61984253 300.70185852 C-92.29140783 304.60964094 -97.58604069 304.44375557 -104.25582886 304.43769836 C-105.31660141 304.44441559 -106.37737396 304.45113281 -107.47029114 304.45805359 C-110.97591847 304.47704622 -114.48135445 304.48095852 -117.98703003 304.48310852 C-120.4269468 304.48953579 -122.8668628 304.4962641 -125.30677795 304.50328064 C-130.42197455 304.51525674 -135.5371036 304.51896114 -140.65231323 304.51777649 C-147.19933835 304.51757334 -153.74592921 304.54487057 -160.29285145 304.57932091 C-165.33297201 304.6015846 -170.372988 304.60561417 -175.41315269 304.60455704 C-177.82642805 304.60691397 -180.23970625 304.61574265 -182.65293312 304.63122177 C-186.03259091 304.65086912 -189.41131146 304.64504766 -192.79098511 304.63301086 C-193.78294891 304.64424988 -194.77491272 304.65548889 -195.79693604 304.66706848 C-203.08207084 304.60130613 -208.42961225 303.02836775 -213.95968628 298.18232727 C-214.4985144 297.53135071 -215.03734253 296.88037415 -215.59249878 296.20967102 C-216.14679565 295.56127258 -216.70109253 294.91287415 -217.27218628 294.24482727 C-220.85470572 289.04533284 -221.01472604 284.40016612 -221.00802612 278.289505 C-221.01474335 277.40762512 -221.02146057 276.52574524 -221.02838135 275.61714172 C-221.04734245 272.70912509 -221.05128404 269.80133932 -221.05343628 266.89326477 C-221.05986355 264.86975001 -221.06659186 262.84623619 -221.0736084 260.82272339 C-221.08557501 256.58522892 -221.08928965 252.34781596 -221.08810425 248.11030579 C-221.08790064 242.67712768 -221.11524846 237.2444702 -221.14964867 231.81141567 C-221.17186512 227.63443594 -221.17594347 223.45758278 -221.1748848 219.28055 C-221.17724693 217.27704632 -221.18610473 215.27353946 -221.20154953 213.27009392 C-221.2211111 210.47150271 -221.21541125 207.67405145 -221.20333862 204.8754425 C-221.21457764 204.04676163 -221.22581665 203.21808075 -221.23739624 202.36428833 C-221.19769279 198.74860562 -221.04128534 196.58979165 -218.87615967 193.6300354 C-215.8869691 191.57664932 -213.80549565 191.69102562 -210.20187378 191.75654602 C-208.32628784 191.77588196 -208.32628784 191.77588196 -206.41281128 191.79560852 C-204.45988159 191.84588196 -204.45988159 191.84588196 -202.46749878 191.89717102 C-201.1500769 191.9152179 -199.83265503 191.93326477 -198.47531128 191.95185852 C-195.22239722 191.9990022 -191.96985661 192.07074486 -188.71749878 192.14717102 C-188.71749878 186.86717102 -188.71749878 181.58717102 -188.71749878 176.14717102 C-183.43749878 176.14717102 -178.15749878 176.14717102 -172.71749878 176.14717102 C-172.71749878 181.42717102 -172.71749878 186.70717102 -172.71749878 192.14717102 C-156.87749878 192.14717102 -141.03749878 192.14717102 -124.71749878 192.14717102 C-124.71749878 186.86717102 -124.71749878 181.58717102 -124.71749878 176.14717102 C-119.43749878 176.14717102 -114.15749878 176.14717102 -108.71749878 176.14717102 C-108.71749878 181.42717102 -108.71749878 186.70717102 -108.71749878 192.14717102 C-105.75523315 192.07756165 -105.75523315 192.07756165 -102.73312378 192.00654602 C-100.14459721 191.96903114 -97.55605432 191.93263069 -94.96749878 191.89717102 C-93.66554565 191.8636554 -92.36359253 191.83013977 -91.02218628 191.79560852 C-89.77179565 191.7827179 -88.52140503 191.76982727 -87.23312378 191.75654602 C-86.08102417 191.73559875 -84.92892456 191.71465149 -83.74191284 191.69306946 C-79.96203441 192.26060045 -79.03124213 193.14833004 -76.71749878 196.14717102 C-76.26339722 199.17158508 -76.26339722 199.17158508 -76.32687378 202.66279602 C-76.3397644 203.91318665 -76.35265503 205.16357727 -76.36593628 206.45185852 C-76.41620972 208.40478821 -76.41620972 208.40478821 -76.46749878 210.39717102 C-76.48554565 211.7145929 -76.50359253 213.03201477 -76.52218628 214.38935852 C-76.56933607 217.6426941 -76.63513834 220.89456727 -76.71749878 224.14717102 C-75.64532104 224.13828857 -74.57314331 224.12940613 -73.46847534 224.12025452 C-63.3463195 224.03904014 -53.22423008 223.97914394 -43.1018219 223.93992233 C-37.89821759 223.91907993 -32.69487707 223.89082337 -27.49142456 223.84541321 C-22.4663739 223.80183619 -17.44157641 223.77800875 -12.41635132 223.76766205 C-10.5026552 223.76029195 -8.58897237 223.74589987 -6.67538452 223.72425079 C-3.9872991 223.69505903 -1.30024938 223.69122157 1.38796997 223.69306946 C2.17272202 223.67868835 2.95747406 223.66430725 3.76600647 223.64949036 C10.3578366 223.69827207 15.3752052 225.79046027 20.48953247 229.93623352 C25.58671885 235.76513279 28.48838646 241.35125599 28.14968872 249.24092102 C26.98004594 257.83247892 23.90059019 263.45253632 17.28250122 269.14717102 C12.30680079 271.65165985 8.64287949 272.52679229 2.99343872 272.58857727 C1.99396713 272.60838905 1.99396713 272.60838905 0.9743042 272.62860107 C-1.13134068 272.66910196 -3.23655546 272.69105789 -5.34249878 272.70967102 C-7.45545193 272.73356119 -9.56800639 272.76179907 -11.6807251 272.80145264 C-13.59207059 272.83669663 -15.50367859 272.8567423 -17.41525269 272.87593079 C-20.63477725 273.14037643 -22.86334849 273.66103091 -25.71749878 275.14717102 C-27.22411975 278.16041297 -26.89520251 280.83003479 -26.71749878 284.14717102 C-23.60171625 287.26295355 -20.50835017 287.2719191 -16.24122715 287.27580547 C-15.34459718 287.27902992 -14.44796722 287.28225437 -13.52416664 287.28557652 C-12.54314584 287.28402792 -11.56212505 287.28247932 -10.55137634 287.28088379 C-9.50609707 287.28314935 -8.46081779 287.2854149 -7.38386339 287.28774911 C-3.87014543 287.29409538 -0.35646599 287.29325934 3.15725708 287.29243469 C5.67187042 287.29542576 8.18648331 287.29882817 10.70109558 287.3026123 C16.82905465 287.31054144 22.95699954 287.31366715 29.08496325 287.31422468 C34.06528067 287.31469977 39.04559492 287.31675417 44.02591133 287.31992531 C58.1433593 287.32873156 72.26079967 287.33334467 86.37825041 287.33259483 C87.13934605 287.33255488 87.90044169 287.33251492 88.68460083 287.33247375 C89.82763657 287.33241243 89.82763657 287.33241243 90.99376393 287.33234987 C103.34767695 287.33194329 115.70155951 287.34151602 128.05546372 287.35561212 C140.73774585 287.36996885 153.42001311 287.37688271 166.10230356 287.37601835 C173.22353404 287.37568616 180.34473257 287.37844279 187.46595573 287.3891964 C194.16111663 287.39924179 200.85619876 287.39897326 207.55136681 287.39167976 C210.011646 287.39063094 212.47192935 287.39301434 214.93220139 287.39904022 C218.28467967 287.40672097 221.63692218 287.40214128 224.98939514 287.39440918 C226.45758026 287.40212452 226.45758026 287.40212452 227.95542568 287.40999573 C234.365917 287.42404291 234.365917 287.42404291 240.28250122 285.14717102 C242.2727991 281.64952622 242.53866185 278.55970467 242.54812622 274.58467102 C242.55199341 273.01846008 242.55199341 273.01846008 242.55593872 271.42060852 C242.54820435 270.34037415 242.54046997 269.26013977 242.53250122 268.14717102 C242.5402356 267.06693665 242.54796997 265.98670227 242.55593872 264.87373352 C242.5533606 263.8295929 242.55078247 262.78545227 242.54812622 261.70967102 C242.54474243 260.28847961 242.54474243 260.28847961 242.54129028 258.83857727 C242.25191813 255.82910692 241.78157397 253.78156262 240.28250122 251.14717102 C236.19270964 248.97108844 232.27025123 248.84245664 227.73831177 248.82832336 C226.99631027 248.81827774 226.25430878 248.80823212 225.48982239 248.79788208 C223.04962909 248.76711632 220.60954519 248.75003355 218.16921997 248.73310852 C216.47241784 248.71439154 214.77562496 248.69481772 213.07884216 248.67442322 C208.62210554 248.623152 204.16533875 248.58349951 199.70846558 248.54627991 C195.15689666 248.50620881 190.60545267 248.45513064 186.0539856 248.40498352 C177.13024529 248.30828358 168.20643437 248.22385984 159.28250122 248.14717102 C159.70692505 249.2523407 159.70692505 249.2523407 160.1399231 250.37983704 C160.50666138 251.35622131 160.87339966 252.33260559 161.25125122 253.33857727 C161.61670044 254.30223206 161.98214966 255.26588684 162.3586731 256.25874329 C163.60208899 260.14638954 164.35949983 264.14802176 163.28250122 268.14717102 C161.87039185 270.2381134 161.87039185 270.2381134 159.28250122 272.14717102 C155.97630877 272.75806526 152.69910682 272.69328204 149.34500122 272.66474915 C147.83220581 272.67526306 147.83220581 272.67526306 146.28884888 272.68598938 C142.95312008 272.7036032 139.61823874 272.69193412 136.28250122 272.67842102 C133.96609331 272.68111495 131.6496865 272.68499653 129.33328247 272.6900177 C124.47770424 272.69591736 119.62242026 272.6873344 114.76687622 272.6686554 C108.53885476 272.64586598 102.31152277 272.6589865 96.08352661 272.68294525 C91.30002638 272.69739035 86.51668995 272.69280307 81.73318481 272.68243408 C79.43663451 272.67976325 77.14006939 272.68304902 74.84353638 272.69235229 C71.63528982 272.70249629 68.42816416 272.68704585 65.22000122 272.66474915 C64.2681897 272.67284607 63.31637817 272.68094299 62.33572388 272.68928528 C55.95361868 272.60699621 55.95361868 272.60699621 52.68943787 270.37049866 C50.31634082 266.62038506 50.70990315 263.44303736 51.28250122 259.14717102 C52.1135361 255.54644455 53.25191136 252.09107363 54.45828247 248.60029602 C54.78410812 247.62606689 55.10993378 246.65183777 55.44563293 245.64808655 C56.13283925 243.60216961 56.82653726 241.55842281 57.52639771 239.51679993 C58.59499633 236.3971853 59.6424759 233.27107965 60.6867981 230.14326477 C61.3594025 228.14936197 62.03319013 226.15585783 62.70828247 224.16279602 C63.17721672 222.76737579 63.17721672 222.76737579 63.65562439 221.34376526 C67.55843724 210.00920301 67.55843724 210.00920301 71.28250122 208.14717102 C73.38779055 208.06173207 75.49581279 208.04002378 77.60281372 208.04951477 C78.73477173 208.05201233 79.86672974 208.05450989 81.0329895 208.05708313 C82.47657837 208.06618713 83.92016724 208.07529114 85.40750122 208.08467102 C89.98625122 208.10529602 94.56500122 208.12592102 99.28250122 208.14717102 C99.28250122 197.58717102 99.28250122 187.02717102 99.28250122 176.14717102 C95.06243286 176.16811829 90.8423645 176.18906555 86.49441528 176.21064758 C72.57250089 176.27683981 58.65058042 176.32127892 44.72854996 176.35441971 C36.28518916 176.3750526 27.84197734 176.40318697 19.39871216 176.44892883 C12.04029675 176.48877449 4.68198922 176.51459855 -2.67653108 176.523525 C-6.57353967 176.52874365 -10.4702396 176.54102408 -14.36714935 176.57009125 C-18.03450329 176.59722473 -21.70142119 176.60562038 -25.36886597 176.59960175 C-27.35771237 176.60122832 -29.3465112 176.62276197 -31.3352356 176.64485168 C-32.51871582 176.63935303 -33.70219604 176.63385437 -34.92153931 176.62818909 C-35.95026028 176.63187626 -36.97898125 176.63556343 -38.03887558 176.63936234 C-41.47396631 176.00817172 -42.65081747 174.92676408 -44.71749878 172.14717102 C-46.63172975 164.15610446 -43.52610196 154.78388087 -41.91940308 146.87861633 C-41.61805857 145.35996022 -41.31753398 143.84114122 -41.01776123 142.32217407 C-40.20625745 138.2235692 -39.38274879 134.12746453 -38.55649161 130.03181171 C-37.69116366 125.73434499 -36.83542901 121.43496663 -35.97819519 117.13587952 C-34.53819219 109.92227645 -33.09025195 102.7103006 -31.63766479 95.4992218 C-29.96005125 87.17048188 -28.29558266 78.83919562 -26.63798016 70.50645185 C-25.03984496 62.4744578 -23.43194666 54.44444728 -21.81977272 46.41526031 C-21.1351518 43.00457577 -20.45403247 39.59321983 -19.77576256 36.18126678 C-18.97679182 32.16426989 -18.16929972 28.14907776 -17.35526657 24.13510704 C-17.05842078 22.66434532 -16.76449643 21.1929904 -16.47375298 19.72101021 C-16.07555296 17.70756256 -15.66669059 15.69656156 -15.25514221 13.68580627 C-14.91638329 11.99904974 -14.91638329 11.99904974 -14.57078075 10.27821732 C-13.65917232 6.933147 -12.44685387 4.14895775 -10.71749878 1.14717102 C-7.39009825 -0.51652925 -3.65882614 -0.00078162 0 0 Z " fill="#000000" transform="translate(236.71749877929688,191.8528289794922)"/>
<path d="M0 0 C12.80833304 9.24183014 22.43969062 22.9971215 25.63671875 38.57568359 C27.5886878 51.60192866 27.55447677 65.88563673 22 78 C21.51402344 79.08152344 21.02804687 80.16304688 20.52734375 81.27734375 C15.60765324 91.24465998 9.26149559 99.75623387 -0.5625 105.1875 C-3.1551143 106.69388688 -3.1551143 106.69388688 -5 109 C-5.795303 113.08636346 -5.88245024 116.90521463 -5.890625 121.05078125 C-6.11639301 129.20261921 -9.48434922 135.36992137 -15 141.2421875 C-21.7579014 147.18174927 -28.26158335 149.11770588 -37.09536743 149.14717102 C-37.81043469 149.15084771 -38.52550195 149.1545244 -39.26223791 149.1583125 C-41.65871929 149.16932685 -44.05515728 149.17318937 -46.45166016 149.17700195 C-48.16999448 149.18326838 -49.88832744 149.18991534 -51.60665894 149.19691467 C-57.25078389 149.21793875 -62.89490906 149.22831651 -68.5390625 149.23828125 C-70.48409413 149.24232963 -72.42912561 149.24644657 -74.37415695 149.25063133 C-83.51407727 149.26968051 -92.65398953 149.28391131 -101.79392588 149.2922433 C-112.33367508 149.30201069 -122.873214 149.32831838 -133.41288912 149.36874419 C-141.56592662 149.39893924 -149.71890397 149.41371545 -157.87199628 149.41702431 C-162.73825183 149.4193712 -167.60428265 149.42828446 -172.47047806 149.45348549 C-177.0522421 149.47683013 -181.63363447 149.48097383 -186.21544266 149.47072411 C-187.89154296 149.47023016 -189.56766195 149.47650863 -191.24370575 149.49028015 C-202.52131214 149.57771491 -212.78127593 148.98128452 -221.40234375 140.80859375 C-228.57532389 132.68856978 -231.33761702 123.89179781 -230.875 113.078125 C-229.63606289 103.94096382 -225.57804493 96.74344933 -218.375 91 C-214.12542561 87.89855623 -211.35739174 86 -206 86 C-206.04640625 85.34515625 -206.0928125 84.6903125 -206.140625 84.015625 C-206.66607403 70.72927091 -201.75062815 61.00841028 -193.34375 51.03515625 C-185.41798176 42.49252397 -175.12024742 37.29337346 -163.49609375 36.71875 C-155.65618965 36.50088874 -148.28467732 36.43003195 -140.91015625 39.44140625 C-138.47623216 40.15316728 -137.33758613 39.97206552 -135 39 C-133.14201531 37.35472531 -133.14201531 37.35472531 -131.375 35.3125 C-123.65403603 27.36403064 -112.61158907 21.13532497 -101.265625 20.95703125 C-100.43546875 20.97121094 -99.6053125 20.98539063 -98.75 21 C-95.12955423 20.77738359 -94.20788058 20.22039513 -91.6640625 17.5234375 C-90.12101521 15.40108918 -88.61488495 13.25146743 -87.14453125 11.078125 C-79.21548895 -0.3027226 -64.88156953 -7.49324516 -51.61865234 -10.54858398 C-33.22871652 -13.71873048 -15.4851346 -10.24813068 0 0 Z " fill="#000100" transform="translate(350,27)"/>
<path d="M0 0 C9.87709742 6.27413107 15.67161285 15.30004185 18.875 26.375 C19.36290099 32.15806176 19.46600826 38.02331895 17.8125 43.625 C16.67518935 48.17424259 17.09261408 51.80755786 17.875 56.375 C20.52604604 57.25868201 22.16935546 57.51758077 24.89453125 57.5859375 C26.05758789 57.62847656 26.05758789 57.62847656 27.24414062 57.671875 C28.86110762 57.72357658 30.47832676 57.76795876 32.09570312 57.8046875 C37.77157609 58.03003233 42.20071854 58.87858049 46.51953125 62.91015625 C50.70864552 68.38822875 51.49652402 71.56125519 50.875 78.375 C49.04965409 83.64822153 46.26780797 86.17191086 41.875 89.375 C38.43336325 90.52221225 35.77037465 90.50961154 32.13871765 90.52217102 C31.45026742 90.52584771 30.76181719 90.5295244 30.05250484 90.5333125 C27.74031797 90.54434579 25.42817605 90.54819255 23.1159668 90.55200195 C21.46025449 90.55826681 19.80454359 90.56491363 18.14883423 90.57191467 C12.70730569 90.5929525 7.26577688 90.60331588 1.82421875 90.61328125 C-0.04877423 90.61732872 -1.92176707 90.62144564 -3.79475975 90.62563133 C-12.59295611 90.64468133 -21.39114408 90.65891352 -30.1893571 90.6672433 C-40.34768633 90.67701948 -50.50579789 90.70334973 -60.6640504 90.74374419 C-68.51467237 90.77389198 -76.36523188 90.78871085 -84.21591061 90.79202431 C-88.90544013 90.79437608 -93.59473703 90.80335314 -98.28420448 90.82848549 C-102.69604658 90.85174825 -107.1075026 90.85600676 -111.51939011 90.84572411 C-113.13750555 90.84522822 -114.75563989 90.85156436 -116.37369728 90.86528015 C-118.58551628 90.88297828 -120.79594655 90.87590478 -123.00776672 90.86274719 C-124.86302207 90.86632972 -124.86302207 90.86632972 -126.75575733 90.86998463 C-131.93092079 90.10968725 -134.99319644 87.62916071 -138.4375 83.8125 C-141.58185936 79.2706476 -141.78538084 74.73142235 -141.125 69.375 C-138.8914881 64.99069886 -136.33439786 61.91817788 -132.125 59.375 C-129.0201131 58.5561744 -125.92566768 57.87278235 -122.76953125 57.28125 C-120.09924599 56.61852801 -120.09924599 56.61852801 -118.78515625 54.79296875 C-117.82731547 51.28466435 -117.82725624 47.79815081 -117.75 44.1875 C-117.46932202 37.49152732 -116.79740515 32.14255937 -113.125 26.375 C-112.7021875 25.68148437 -112.279375 24.98796875 -111.84375 24.2734375 C-107.25117421 17.46111675 -100.28115166 12.03952075 -92.125 10.375 C-83.48139524 9.53209528 -74.76554789 10.94949019 -67.3125 15.5625 C-63.80560117 17.55661894 -62.08146242 18.0783711 -58.125 17.375 C-55.28766971 14.85168255 -53.12882548 12.08408772 -50.9375 9 C-38.29630534 -7.37976075 -17.53117095 -9.60612107 0 0 Z " fill="#56A3FE" transform="translate(277.125,69.625)"/>
<path d="M0 0 C36.96 0 73.92 0 112 0 C112.061875 12.106875 112.12375 24.21375 112.1875 36.6875 C112.22846802 42.41420044 112.22846802 42.41420044 112.27026367 48.2565918 C112.28381348 52.93127441 112.28381348 52.93127441 112.28633118 55.12214661 C112.29092731 56.64695361 112.30145665 58.17174995 112.31672668 59.69648743 C112.33874027 62.0109847 112.34171629 64.32481776 112.34057617 66.6394043 C112.35056892 68.59465279 112.35056892 68.59465279 112.36076355 70.58940125 C111.9739526 74.24624784 111.27185812 76.13332313 109 79 C106.26275838 79.91241387 104.64928323 80.1290677 101.83180237 80.14044189 C100.559543 80.14900711 100.559543 80.14900711 99.26158142 80.15774536 C98.33422684 80.15886322 97.40687225 80.15998108 96.45141602 80.16113281 C95.47229248 80.16609772 94.49316895 80.17106262 93.484375 80.17617798 C90.24087831 80.19080011 86.9974305 80.19760101 83.75390625 80.203125 C81.50333148 80.20887553 79.25275674 80.21463328 77.00218201 80.22039795 C72.28196992 80.23090748 67.56177487 80.23675075 62.84155273 80.24023438 C56.78739803 80.24572503 50.73346756 80.26976558 44.67938328 80.29820633 C40.03060747 80.31680901 35.38188599 80.322037 30.7330761 80.32357025 C28.50070912 80.32660166 26.2683432 80.33464655 24.03601265 80.34775543 C20.91649298 80.36476939 17.79752548 80.36294717 14.67797852 80.35644531 C13.75264816 80.3656601 12.82731781 80.37487488 11.87394714 80.3843689 C5.65458932 80.34366755 5.65458932 80.34366755 2.45762634 78.66522217 C-0.6224912 75.14643285 -0.12107965 71.31591549 -0.11352539 66.86645508 C-0.11364593 66.13259173 -0.11376646 65.39872839 -0.11389065 64.64262676 C-0.11314454 62.26823071 -0.10553005 59.89391325 -0.09765625 57.51953125 C-0.0961859 56.05318235 -0.09516576 54.58683293 -0.09460449 53.1204834 C-0.08936245 47.68448093 -0.07540124 42.24848969 -0.0625 36.8125 C-0.041875 24.664375 -0.02125 12.51625 0 0 Z " fill="#00D6DE" transform="translate(32,400)"/>
<path d="M0 0 C3.00054165 0.67958525 4.11476371 2.09344596 6.03515625 4.4609375 C6.51617432 7.2197876 6.51617432 7.2197876 6.48925781 10.42285156 C6.48895569 11.62379456 6.48865356 12.82473755 6.48834229 14.06207275 C6.46769714 15.35385437 6.447052 16.64563599 6.42578125 17.9765625 C6.41831696 19.31605179 6.41262491 20.65555202 6.40863037 21.99505615 C6.39338838 25.51345186 6.35412043 29.03118265 6.30981445 32.54931641 C6.26882989 36.14216111 6.25061265 39.7351137 6.23046875 43.328125 C6.1876237 50.37266716 6.11939071 57.41675882 6.03515625 64.4609375 C7.34709961 64.43999023 8.65904297 64.41904297 10.01074219 64.39746094 C14.87846969 64.3250578 19.7461496 64.27913637 24.61425781 64.24121094 C26.72111007 64.22109624 28.8279065 64.19380083 30.93457031 64.15917969 C33.96303072 64.11065582 36.99075303 64.08796734 40.01953125 64.0703125 C41.43223297 64.03934479 41.43223297 64.03934479 42.87347412 64.00775146 C46.74212284 64.00642419 49.27582699 64.02013684 52.66113281 65.98535156 C54.59938685 69.47751501 54.57203879 72.59617482 54.03515625 76.4609375 C52.85918219 79.9124201 51.24634958 83.09259534 49.5847168 86.33349609 C49.11161072 87.28730164 48.63850464 88.24110718 48.15106201 89.22381592 C46.59017257 92.36036051 45.00661719 95.48482323 43.421875 98.609375 C42.32930254 100.78974957 41.23791403 102.97071777 40.1476593 105.1522522 C37.8632731 109.71477698 35.56825648 114.27173448 33.26489258 118.82470703 C30.30934577 124.66769767 27.37509066 130.52105831 24.44797039 136.37833214 C22.19737128 140.87844428 19.9384665 145.37434302 17.67670631 149.86885452 C16.59150002 152.0265215 15.50824105 154.18516901 14.42694664 156.34479904 C12.91723569 159.35557361 11.39711869 162.36084909 9.8737793 165.36474609 C9.42637894 166.26135956 8.97897858 167.15797302 8.51802063 168.08175659 C8.10160309 168.89753174 7.68518555 169.71330688 7.25614929 170.55380249 C6.89757182 171.26425406 6.53899435 171.97470562 6.1695509 172.70668602 C5.03515625 174.4609375 5.03515625 174.4609375 2.03515625 176.4609375 C-5.10329623 177.14079012 -5.10329623 177.14079012 -8.06365967 174.80474854 C-10.47800409 171.82830499 -10.45086432 170.29738488 -10.41894531 166.49902344 C-10.41864319 165.29808044 -10.41834106 164.09713745 -10.41802979 162.85980225 C-10.39738464 161.56802063 -10.3767395 160.27623901 -10.35546875 158.9453125 C-10.34800446 157.60582321 -10.34231241 156.26632298 -10.33831787 154.92681885 C-10.32307588 151.40842314 -10.28380793 147.89069235 -10.23950195 144.37255859 C-10.19851739 140.77971389 -10.18030015 137.1867613 -10.16015625 133.59375 C-10.1173112 126.54920784 -10.04907821 119.50511618 -9.96484375 112.4609375 C-11.93275879 112.4923584 -11.93275879 112.4923584 -13.94042969 112.52441406 C-18.80815719 112.5968172 -23.6758371 112.64273863 -28.54394531 112.68066406 C-30.65079757 112.70077876 -32.757594 112.72807417 -34.86425781 112.76269531 C-37.89271822 112.81121918 -40.92044053 112.83390766 -43.94921875 112.8515625 C-45.36192047 112.88253021 -45.36192047 112.88253021 -46.80316162 112.91412354 C-50.67181034 112.91545081 -53.20551449 112.90173816 -56.59082031 110.93652344 C-58.52907435 107.44435999 -58.50172629 104.32570018 -57.96484375 100.4609375 C-56.78886969 97.0094549 -55.17603708 93.82927966 -53.5144043 90.58837891 C-53.04129822 89.63457336 -52.56819214 88.68076782 -52.08074951 87.69805908 C-50.51986007 84.56151449 -48.93630469 81.43705177 -47.3515625 78.3125 C-46.25899004 76.13212543 -45.16760153 73.95115723 -44.0773468 71.7696228 C-41.7929606 67.20709802 -39.49794398 62.65014052 -37.19458008 58.09716797 C-34.23903327 52.25417733 -31.30477816 46.40081669 -28.37765789 40.54354286 C-26.12705878 36.04343072 -23.868154 31.54753198 -21.60639381 27.05302048 C-20.52118752 24.8953535 -19.43792855 22.73670599 -18.35663414 20.57707596 C-16.84692319 17.56630139 -15.32680619 14.56102591 -13.8034668 11.55712891 C-13.35606644 10.66051544 -12.90866608 9.76390198 -12.44770813 8.84011841 C-12.03129059 8.02434326 -11.61487305 7.20856812 -11.18583679 6.36807251 C-10.82725932 5.65762094 -10.46868185 4.94716938 -10.0992384 4.21518898 C-7.51605884 0.22050637 -4.42253376 0.18746771 0 0 Z " fill="#000000" transform="translate(89.96484375,167.5390625)"/>
<path d="M0 0 C9.61741582 7.79561459 16.20049513 17.88625462 19 30 C20.22442341 44.50799365 17.85104373 57.06863708 9 69 C4.80721089 73.77059397 0.65001737 78.00107231 -5 81 C-5.66 81 -6.32 81 -7 81 C-7 80.34 -7 79.68 -7 79 C-10.23497446 77.33607773 -13.52869395 75.86372459 -16.875 74.4375 C-18.38707031 73.78587891 -18.38707031 73.78587891 -19.9296875 73.12109375 C-22.968854 72.01137265 -25.799684 71.4251166 -29 71 C-29.02578125 69.92363281 -29.0515625 68.84726563 -29.078125 67.73828125 C-29.62072149 51.96124491 -33.1660869 36.67915604 -44.18359375 24.68359375 C-50.95279305 18.40934666 -58.62037265 13.78082969 -67 10 C-50.58108724 -11.02118376 -22.26390047 -15.61450374 0 0 Z " fill="#FDE997" transform="translate(341,41)"/>
<path d="M0 0 C17.82 0 35.64 0 54 0 C55.65 4.90875 57.3 9.8175 59 14.875 C59.52207031 16.42300293 60.04414063 17.97100586 60.58203125 19.56591797 C60.98808594 20.77908691 61.39414062 21.99225586 61.8125 23.2421875 C62.23144531 24.4885498 62.65039062 25.73491211 63.08203125 27.01904297 C64 30 64 30 64 32 C39.58 32 15.16 32 -10 32 C-7.0595657 21.21840758 -3.53396221 10.60188662 0 0 Z " fill="#FDE997" transform="translate(317,416)"/>
<path d="M0 0 C0.33 0 0.66 0 1 0 C1.01981934 0.91813477 1.03963867 1.83626953 1.06005859 2.78222656 C1.13826955 6.19671825 1.22496584 9.61077702 1.31738281 13.02490234 C1.35560666 14.50105536 1.39047103 15.97729943 1.421875 17.45361328 C1.46766986 19.57878094 1.52563837 21.70332542 1.5859375 23.828125 C1.63306885 25.7447998 1.63306885 25.7447998 1.68115234 27.70019531 C1.97511752 30.74248726 2.29775581 32.499947 4 35 C7.27315509 36.63657754 10.90622231 36.2430807 14.5078125 36.31640625 C15.76874222 36.3475779 15.76874222 36.3475779 17.05514526 36.37937927 C19.74501235 36.44485439 22.43497843 36.5037502 25.125 36.5625 C26.94662489 36.60568716 28.76823971 36.64930152 30.58984375 36.69335938 C35.05979394 36.80053368 39.52984386 36.90180685 44 37 C35.69364373 54.84611197 26.84193184 72.41510748 18 90 C17.67 90 17.34 90 17 90 C16.970271 88.56950317 16.970271 88.56950317 16.93994141 87.11010742 C16.86384986 83.57077701 16.77513839 80.03185583 16.68261719 76.49291992 C16.64434202 74.96142661 16.60948651 73.42984385 16.578125 71.89819336 C16.53244193 69.6961267 16.47445463 67.49467504 16.4140625 65.29296875 C16.40251129 64.60849167 16.39096008 63.92401459 16.37905884 63.21879578 C16.26726256 59.61539163 16.05605447 58.0840817 14 55 C10.20123729 53.73374576 6.57578074 53.76701453 2.61328125 53.68359375 C1.38776802 53.6524221 1.38776802 53.6524221 0.13749695 53.62062073 C-2.47075034 53.55526921 -5.07909775 53.49630727 -7.6875 53.4375 C-9.45639054 53.39430108 -11.22527097 53.35068635 -12.99414062 53.30664062 C-17.32932463 53.19960257 -21.66460929 53.09829456 -26 53 C-17.69364373 35.15388803 -8.84193184 17.58489252 0 0 Z " fill="#FDE997" transform="translate(79,211)"/>
<path d="M0 0 C14.85 0 29.7 0 45 0 C49 19 49 19 49 24 C33.49 24 17.98 24 2 24 C0 7 0 7 0 0 Z " fill="#56A2FC" transform="translate(381,328)"/>
<path d="M0 0 C14.85 0 29.7 0 45 0 C44.46600336 8.00994957 43.88651444 16.02137001 43 24 C27.49 24 11.98 24 -4 24 C-3 14 -3 14 0 0 Z " fill="#56A2FD" transform="translate(262,328)"/>
<path d="M0 0 C13.86 0 27.72 0 42 0 C44 15 44 15 44 24 C28.82 24 13.64 24 -2 24 C-1.49924398 15.98790365 -0.99571733 7.9657386 0 0 Z " fill="#56A2FD" transform="translate(323,328)"/>
<path d="M0 0 C13.53 0 27.06 0 41 0 C45 19 45 19 45 24 C30.81 24 16.62 24 2 24 C0 7 0 7 0 0 Z " fill="#56A2FC" transform="translate(377,288)"/>
<path d="M0 0 C13.53 0 27.06 0 41 0 C40.46600336 8.00994957 39.88651444 16.02137001 39 24 C24.81 24 10.62 24 -4 24 C-3 14 -3 14 0 0 Z " fill="#56A2FD" transform="translate(270,288)"/>
<path d="M0 0 C12.21 0 24.42 0 37 0 C37.66 3.031875 38.32 6.06375 39 9.1875 C39.20882812 10.13391357 39.41765625 11.08032715 39.6328125 12.05541992 C39.87644531 13.19394409 39.87644531 13.19394409 40.125 14.35546875 C40.37636719 15.51018677 40.37636719 15.51018677 40.6328125 16.68823242 C41 19 41 19 41 24 C28.13 24 15.26 24 2 24 C0 7 0 7 0 0 Z " fill="#56A2FC" transform="translate(373,248)"/>
<path d="M0 0 C12.21 0 24.42 0 37 0 C36.46600336 8.00994957 35.88651444 16.02137001 35 24 C22.13 24 9.26 24 -4 24 C-3 14 -3 14 0 0 Z " fill="#56A2FC" transform="translate(278,248)"/>
<path d="M0 0 C11.22 0 22.44 0 34 0 C36 15 36 15 36 24 C23.46 24 10.92 24 -2 24 C-2 15 -2 15 0 0 Z " fill="#55A2FC" transform="translate(327,288)"/>
<path d="M0 0 C10.89 0 21.78 0 33 0 C33.66 3.031875 34.32 6.06375 35 9.1875 C35.20882812 10.13391357 35.41765625 11.08032715 35.6328125 12.05541992 C35.87644531 13.19394409 35.87644531 13.19394409 36.125 14.35546875 C36.37636719 15.51018677 36.37636719 15.51018677 36.6328125 16.68823242 C37 19 37 19 37 24 C25.45 24 13.9 24 2 24 C0 7 0 7 0 0 Z " fill="#55A2FB" transform="translate(369,208)"/>
<path d="M0 0 C10.89 0 21.78 0 33 0 C32.46600336 8.00994957 31.88651444 16.02137001 31 24 C19.45 24 7.9 24 -4 24 C-3 14 -3 14 0 0 Z " fill="#56A2FC" transform="translate(286,208)"/>
<path d="M0 0 C5.28 0 10.56 0 16 0 C16 2.64 16 5.28 16 8 C18.64 8 21.28 8 24 8 C24 13.28 24 18.56 24 24 C21.36 24 18.72 24 16 24 C16 26.64 16 29.28 16 32 C10.72 32 5.44 32 0 32 C0 29.36 0 26.72 0 24 C-2.64 24 -5.28 24 -8 24 C-8 18.72 -8 13.44 -8 8 C-5.36 8 -2.72 8 0 8 C0 5.36 0 2.72 0 0 Z " fill="#000000" transform="translate(112,416)"/>
<path d="M0 0 C10.56 0 21.12 0 32 0 C31.10436167 8.06074499 29.5905705 16.04714748 28 24 C17.44 24 6.88 24 -4 24 C-3 14 -3 14 0 0 Z " fill="#55A1FB" transform="translate(214,328)"/>
<path d="M0 0 C10.56 0 21.12 0 32 0 C31.10436167 8.06074499 29.5905705 16.04714748 28 24 C17.44 24 6.88 24 -4 24 C-3 14 -3 14 0 0 Z " fill="#55A1FB" transform="translate(222,288)"/>
<path d="M0 0 C10.56 0 21.12 0 32 0 C31.10436167 8.06074499 29.5905705 16.04714748 28 24 C17.44 24 6.88 24 -4 24 C-3 14 -3 14 0 0 Z " fill="#55A1FB" transform="translate(230,248)"/>
<path d="M0 0 C10.56 0 21.12 0 32 0 C31.10436167 8.06074499 29.5905705 16.04714748 28 24 C17.44 24 6.88 24 -4 24 C-3 14 -3 14 0 0 Z " fill="#55A1FB" transform="translate(238,208)"/>
<path d="M0 0 C9.9 0 19.8 0 30 0 C30.804375 2.84625 31.60875 5.6925 32.4375 8.625 C32.68943115 9.51010254 32.9413623 10.39520508 33.20092773 11.30712891 C33.50172241 12.38099854 33.50172241 12.38099854 33.80859375 13.4765625 C34.01282959 14.19924316 34.21706543 14.92192383 34.42749023 15.66650391 C35.10106624 18.41193652 35.53526803 21.21160815 36 24 C25.44 24 14.88 24 4 24 C3.34 20.7825 2.68 17.565 2 14.25 C1.79117187 13.24227539 1.58234375 12.23455078 1.3671875 11.19628906 C1.20476562 10.39416992 1.04234375 9.59205078 0.875 8.765625 C0.70742188 7.94868164 0.53984375 7.13173828 0.3671875 6.29003906 C0 4 0 4 0 0 Z " fill="#55A2FD" transform="translate(442,328)"/>
<path d="M0 0 C9.24 0 18.48 0 28 0 C28.804375 2.84625 29.60875 5.6925 30.4375 8.625 C30.68943115 9.51010254 30.9413623 10.39520508 31.20092773 11.30712891 C31.40145752 12.02304199 31.6019873 12.73895508 31.80859375 13.4765625 C32.01282959 14.19924316 32.21706543 14.92192383 32.42749023 15.66650391 C33.10106624 18.41193652 33.53526803 21.21160815 34 24 C24.1 24 14.2 24 4 24 C3.34 20.7825 2.68 17.565 2 14.25 C1.79117187 13.24227539 1.58234375 12.23455078 1.3671875 11.19628906 C1.20476562 10.39416992 1.04234375 9.59205078 0.875 8.765625 C0.70742188 7.94868164 0.53984375 7.13173828 0.3671875 6.29003906 C0 4 0 4 0 0 Z " fill="#55A2FD" transform="translate(434,288)"/>
<path d="M0 0 C8.58 0 17.16 0 26 0 C27.18808473 8.24233784 28 15.63105702 28 24 C18.1 24 8.2 24 -2 24 C-1.855625 21.525 -1.71125 19.05 -1.5625 16.5 C-1.51939697 15.73751953 -1.47629395 14.97503906 -1.43188477 14.18945312 C-1.39377686 13.55974609 -1.35566895 12.93003906 -1.31640625 12.28125 C-1.27974854 11.65283203 -1.24309082 11.02441406 -1.20532227 10.37695312 C-0.9056408 6.90763239 -0.43191871 3.4553497 0 0 Z " fill="#56A2FC" transform="translate(331,248)"/>
<path d="M0 0 C8.58 0 17.16 0 26 0 C26.804375 2.84625 27.60875 5.6925 28.4375 8.625 C28.68943115 9.51010254 28.9413623 10.39520508 29.20092773 11.30712891 C29.40145752 12.02304199 29.6019873 12.73895508 29.80859375 13.4765625 C30.01282959 14.19924316 30.21706543 14.92192383 30.42749023 15.66650391 C31.10106624 18.41193652 31.53526803 21.21160815 32 24 C22.76 24 13.52 24 4 24 C3.34 20.7825 2.68 17.565 2 14.25 C1.79117187 13.24227539 1.58234375 12.23455078 1.3671875 11.19628906 C1.20476562 10.39416992 1.04234375 9.59205078 0.875 8.765625 C0.70742188 7.94868164 0.53984375 7.13173828 0.3671875 6.29003906 C0 4 0 4 0 0 Z " fill="#55A2FC" transform="translate(426,248)"/>
<path d="M0 0 C2.64 0 5.28 0 8 0 C8.069544 9.5620114 8.12283356 19.1239356 8.15543652 28.68614483 C8.17108517 33.12638476 8.19230877 37.56645152 8.22631836 42.0065918 C8.25894044 46.29246025 8.27685904 50.57816224 8.28463173 54.86414528 C8.29017013 56.49840731 8.30098535 58.13266035 8.31719017 59.76685143 C8.33900272 62.05790186 8.34196539 64.34826654 8.34057617 66.6394043 C8.34723801 67.94290329 8.35389984 69.24640228 8.36076355 70.58940125 C7.97287452 74.2564398 7.32561351 76.15521201 5 79 C1.3125 79.8125 1.3125 79.8125 -2 80 C-1.67 79.01 -1.34 78.02 -1 77 C-0.88061589 74.52206304 -0.81479492 72.07001924 -0.79467773 69.59106445 C-0.78477814 68.83960144 -0.77487854 68.08813843 -0.76467896 67.31390381 C-0.73309504 64.83039499 -0.70831884 62.34686704 -0.68359375 59.86328125 C-0.66302154 58.14120487 -0.64202499 56.4191335 -0.62062073 54.69706726 C-0.56542766 50.16466334 -0.51600618 45.63221406 -0.46777344 41.09973145 C-0.41753824 36.47464969 -0.36186271 31.8496338 -0.30664062 27.22460938 C-0.19909287 18.14979586 -0.09764036 9.07492514 0 0 Z " fill="#00B5BC" transform="translate(136,400)"/>
<path d="M0 0 C7.92 0 15.84 0 24 0 C24.804375 2.84625 25.60875 5.6925 26.4375 8.625 C26.68943115 9.51010254 26.9413623 10.39520508 27.20092773 11.30712891 C27.40145752 12.02304199 27.6019873 12.73895508 27.80859375 13.4765625 C28.01282959 14.19924316 28.21706543 14.92192383 28.42749023 15.66650391 C29.10106624 18.41193652 29.53526803 21.21160815 30 24 C21.42 24 12.84 24 4 24 C3.34 20.7825 2.68 17.565 2 14.25 C1.79117187 13.24227539 1.58234375 12.23455078 1.3671875 11.19628906 C1.20476562 10.39416992 1.04234375 9.59205078 0.875 8.765625 C0.70742188 7.94868164 0.53984375 7.13173828 0.3671875 6.29003906 C0 4 0 4 0 0 Z " fill="#55A1FC" transform="translate(418,208)"/>
<path d="M0 0 C12.35674613 5.03422991 19.79810838 14.98540374 25 27 C29.49860708 40.07313334 27.66067903 53.42365039 21.71484375 65.640625 C17.3790746 73.51505811 11.12886877 80.90175168 3 85 C2.34 84.67 1.68 84.34 1 84 C1.59167969 83.33355469 2.18335938 82.66710937 2.79296875 81.98046875 C8.19956095 75.67424783 12.09556906 69.77931895 15 62 C15.31839844 61.21238281 15.63679688 60.42476562 15.96484375 59.61328125 C20.51480411 46.9279079 18.94642319 31.92649831 13.30126953 19.88867188 C8.42482021 9.40684632 8.42482021 9.40684632 0 2 C0 1.34 0 0.68 0 0 Z " fill="#F8C802" transform="translate(333,37)"/>
<path d="M0 0 C10.56 0 21.12 0 32 0 C32 5.28 32 10.56 32 16 C21.44 16 10.88 16 0 16 C0 10.72 0 5.44 0 0 Z " fill="#000000" transform="translate(40,424)"/>
<path d="M0 0 C5.94 0 11.88 0 18 0 C19.18808473 8.24233784 20 15.63105702 20 24 C12.74 24 5.48 24 -2 24 C-1.855625 21.525 -1.71125 19.05 -1.5625 16.5 C-1.51939697 15.73751953 -1.47629395 14.97503906 -1.43188477 14.18945312 C-1.39377686 13.55974609 -1.35566895 12.93003906 -1.31640625 12.28125 C-1.27974854 11.65283203 -1.24309082 11.02441406 -1.20532227 10.37695312 C-0.9056408 6.90763239 -0.43191871 3.4553497 0 0 Z " fill="#55A1FA" transform="translate(335,208)"/>
<path d="M0 0 C8.2945777 2.30606163 14.67310879 8.11919898 18.9375 15.5625 C19.64973912 17.02991464 20.33903083 18.50878907 21 20 C21.31710937 20.62261719 21.63421875 21.24523437 21.9609375 21.88671875 C26.36246525 31.51758452 24.24815832 42.35219642 21 52 C18.69 52 16.38 52 14 52 C14.0721875 51.36835937 14.144375 50.73671875 14.21875 50.0859375 C16.08075171 32.13830989 14.71210076 18.70434068 3.50390625 4.04296875 C2.36762626 2.66848843 1.18912696 1.32902425 0 0 Z " fill="#2485F9" transform="translate(272,68)"/>
<path d="M0 0 C3.99848769 0.58251349 6.81303838 1.83313278 10.25 3.9375 C11.12140625 4.46214844 11.9928125 4.98679687 12.890625 5.52734375 C15 7 15 7 16 9 C14.75506252 11.28974316 13.47358472 13.44190034 12.0625 15.625 C11.67642578 16.23601562 11.29035156 16.84703125 10.89257812 17.4765625 C9.93553674 18.9889242 8.96867189 20.49506117 8 22 C3.93774452 21.42176904 1.15237654 20.10882263 -2.3125 17.9375 C-3.19550781 17.38964844 -4.07851563 16.84179688 -4.98828125 16.27734375 C-5.65214844 15.85582031 -6.31601562 15.43429688 -7 15 C-6.31238981 11.34435091 -4.74550455 8.48132728 -2.9375 5.25 C-2.11572266 3.77273437 -2.11572266 3.77273437 -1.27734375 2.265625 C-0.64505859 1.14414063 -0.64505859 1.14414063 0 0 Z " fill="#000000" transform="translate(384,113)"/>
<path d="M0 0 C1.859375 2.484375 1.859375 2.484375 3.75 5.75 C4.38421875 6.81734375 5.0184375 7.8846875 5.671875 8.984375 C7 12 7 12 7.11328125 14.15625 C5.32766791 17.1134763 2.44110915 18.27509814 -0.5625 19.75 C-1.17802734 20.06582031 -1.79355469 20.38164062 -2.42773438 20.70703125 C-3.94561021 21.48361889 -5.47203534 22.24345561 -7 23 C-7.96125903 21.58531689 -8.91888325 20.1681636 -9.875 18.75 C-10.67550781 17.56664062 -10.67550781 17.56664062 -11.4921875 16.359375 C-15 10.87046632 -15 10.87046632 -15 7 C-12.48046875 5.17578125 -12.48046875 5.17578125 -9.1875 3.3125 C-7.56908203 2.37857422 -7.56908203 2.37857422 -5.91796875 1.42578125 C-3 0 -3 0 0 0 Z " fill="#000000" transform="translate(360,145)"/>
<path d="M0 0 C2.9572263 1.78561334 4.11884814 4.6721721 5.59375 7.67578125 C5.90957031 8.29130859 6.22539062 8.90683594 6.55078125 9.54101562 C7.32736889 11.05889146 8.08720561 12.58531659 8.84375 14.11328125 C7.42906689 15.07454028 6.0119136 16.0321645 4.59375 16.98828125 C3.41039062 17.78878906 3.41039062 17.78878906 2.203125 18.60546875 C-3.28578368 22.11328125 -3.28578368 22.11328125 -7.15625 22.11328125 C-8.98046875 19.59375 -8.98046875 19.59375 -10.84375 16.30078125 C-11.77767578 14.68236328 -11.77767578 14.68236328 -12.73046875 13.03125 C-14.15625 10.11328125 -14.15625 10.11328125 -14.15625 7.11328125 C-11.671875 5.25390625 -11.671875 5.25390625 -8.40625 3.36328125 C-6.80523437 2.41195313 -6.80523437 2.41195313 -5.171875 1.44140625 C-2.15625 0.11328125 -2.15625 0.11328125 0 0 Z " fill="#000000" transform="translate(391.15625,24.88671875)"/>
<path d="M0 0 C5.28 0 10.56 0 16 0 C16 5.28 16 10.56 16 16 C10.72 16 5.44 16 0 16 C0 10.72 0 5.44 0 0 Z " fill="#000000" transform="translate(392,72)"/>
<path d="M0 0 C2.64 0 5.28 0 8 0 C9.4279783 4.2345633 10.85204104 8.47041664 12.27246094 12.70751953 C12.75640691 14.14928877 13.24142839 15.59069746 13.72753906 17.03173828 C14.42534712 19.10095279 15.11929998 21.17142543 15.8125 23.2421875 C16.23144531 24.4885498 16.65039062 25.73491211 17.08203125 27.01904297 C18 30 18 30 18 32 C15.36 32 12.72 32 10 32 C8.5720217 27.7654367 7.14795896 23.52958336 5.72753906 19.29248047 C5.24359309 17.85071123 4.75857161 16.40930254 4.27246094 14.96826172 C3.57465288 12.89904721 2.88070002 10.82857457 2.1875 8.7578125 C1.76855469 7.5114502 1.34960938 6.26508789 0.91796875 4.98095703 C0 2 0 2 0 0 Z " fill="#F4C501" transform="translate(363,416)"/>
<path d="M0 0 C6.43976569 1.15915782 9.26788616 3.6898783 13 9 C14.73045446 12.46090891 14.34579074 16.20910888 14 20 C12.17614658 25.26890987 9.46204714 27.876567 5 31 C2.3046875 31.63671875 2.3046875 31.63671875 0 32 C0.54140625 31.12601563 0.54140625 31.12601563 1.09375 30.234375 C4.92806461 23.46041919 6.19172388 17.74620519 5 10 C3.94071056 7.0112905 2.66938716 4.73172444 1 2 C0.67 1.34 0.34 0.68 0 0 Z " fill="#2282F4" transform="translate(314,128)"/>
<path d="M0 0 C2.64 0 5.28 0 8 0 C8.81639318 2.87394498 9.62822141 5.7490513 10.4375 8.625 C10.66759766 9.43324219 10.89769531 10.24148438 11.13476562 11.07421875 C12.3387872 15.3668174 13.37712252 19.57542207 14 24 C11.36 24 8.72 24 6 24 C4.02 16.08 2.04 8.16 0 0 Z " fill="#2283F5" transform="translate(464,328)"/>
<path d="M0 0 C2.64 0 5.28 0 8 0 C8.81639318 2.87394498 9.62822141 5.7490513 10.4375 8.625 C10.66759766 9.43324219 10.89769531 10.24148438 11.13476562 11.07421875 C12.3387872 15.3668174 13.37712252 19.57542207 14 24 C11.36 24 8.72 24 6 24 C4.02 16.08 2.04 8.16 0 0 Z " fill="#2283F6" transform="translate(454,288)"/>
<path d="M0 0 C2.64 0 5.28 0 8 0 C8.81639318 2.87394498 9.62822141 5.7490513 10.4375 8.625 C10.66759766 9.43324219 10.89769531 10.24148438 11.13476562 11.07421875 C12.3387872 15.3668174 13.37712252 19.57542207 14 24 C11.36 24 8.72 24 6 24 C4.02 16.08 2.04 8.16 0 0 Z " fill="#2283F5" transform="translate(444,248)"/>
<path d="M0 0 C2.64 0 5.28 0 8 0 C8.81639318 2.87394498 9.62822141 5.7490513 10.4375 8.625 C10.66759766 9.43324219 10.89769531 10.24148437 11.13476562 11.07421875 C12.3387872 15.3668174 13.37712252 19.57542207 14 24 C11.36 24 8.72 24 6 24 C4.02 16.08 2.04 8.16 0 0 Z " fill="#2283F5" transform="translate(434,208)"/>
</svg>
